<?xml version="1.0" standalone="no"?>
<!DOCTYPE svg PUBLIC "-//W3C//DTD SVG 1.1//EN" "http://www.w3.org/Graphics/SVG/1.1/DTD/svg11.dtd" >
<svg xmlns="http://www.w3.org/2000/svg" xmlns:xlink="http://www.w3.org/1999/xlink" version="1.1">
<metadata>
Created by FontForge 20161013 at Tue May 17 14:54:35 2016
 By ,,,
Copyright (c) 2016 by Fontfabric LLC. All rights reserved.
</metadata>
<defs>
<font id="Phenomena-Bold" horiz-adv-x="0" >
  <font-face 
    font-family="Phenomena Bold"
    font-weight="700"
    font-stretch="normal"
    units-per-em="1000"
    panose-1="0 0 8 0 0 0 0 0 0 0"
    ascent="800"
    descent="-200"
    x-height="500"
    cap-height="700"
    bbox="-451.136 -254 820 954"
    underline-thickness="50"
    underline-position="-200"
    unicode-range="U+0020-25CA"
  />
<missing-glyph horiz-adv-x="500" 
d="M410 800v-1000h-317v1000h317zM333 733h-165v-33h65v-37h-66v-33h166v33h-66v37h66v33zM267 604h-100v-104h166v34h-66v70zM233 570v-36h-33v36h33zM333 473h-166v-33h66v-37h-66v-33h100v70h66v33zM333 413h-33v-66h-133v-34h166v100zM333 291h-100v-56h34v23h33v-47
h-100v80h-33v-113h166v113zM333 118h-166v-113h166v113zM300 85v-47h-100v47h100zM333 -18h-166v-33h70l-70 -47v-33h166v33h-102l70 47h32v33z" />
    <glyph glyph-name=".notdef" horiz-adv-x="500" 
d="M410 800v-1000h-317v1000h317zM333 733h-165v-33h65v-37h-66v-33h166v33h-66v37h66v33zM267 604h-100v-104h166v34h-66v70zM233 570v-36h-33v36h33zM333 473h-166v-33h66v-37h-66v-33h100v70h66v33zM333 413h-33v-66h-133v-34h166v100zM333 291h-100v-56h34v23h33v-47
h-100v80h-33v-113h166v113zM333 118h-166v-113h166v113zM300 85v-47h-100v47h100zM333 -18h-166v-33h70l-70 -47v-33h166v33h-102l70 47h32v33z" />
    <glyph glyph-name=".null" 
 />
    <glyph glyph-name="nonmarkingreturn" horiz-adv-x="333" 
 />
    <glyph glyph-name="space" unicode=" " horiz-adv-x="218" 
 />
    <glyph glyph-name="exclam" unicode="!" horiz-adv-x="230" 
d="M85 150q-14 0 -14 14v523q0 13 14 13h60q13 0 13 -13v-523q0 -14 -13 -14h-60zM115 -11q-24 0 -39.5 16t-15.5 39q0 24 15.5 39.5t39.5 15.5q23 0 39 -15.5t16 -39.5q0 -23 -16 -39t-39 -16z" />
    <glyph glyph-name="quotedbl" unicode="&#x22;" horiz-adv-x="244" 
d="M25 687q0 13 14 13h55q15 0 13 -15l-33 -170q-2 -12 -14 -12h-32q-13 0 -13 14zM139 687q0 13 14 13h55q15 0 13 -15l-33 -170q-2 -12 -14 -12h-32q-13 0 -13 14z" />
    <glyph glyph-name="numbersign" unicode="#" horiz-adv-x="589" 
d="M92 0q-15 0 -12 15l37 164h-89q-15 0 -12 14l9 40q3 12 15 12h92l45 196h-89q-15 0 -13 14l10 40q3 12 15 12h92l42 181q2 12 15 12h51q14 0 11 -15l-40 -178h121l41 181q3 12 15 12h52q14 0 12 -15l-41 -178h90q15 0 12 -15l-9 -40q-3 -11 -15 -11h-93l-45 -196h91
q16 0 11 -15l-9 -40q-3 -11 -15 -11h-93l-38 -167q-3 -12 -15 -12h-52q-14 0 -11 15l37 164h-121l-38 -167q-3 -12 -15 -12h-51zM211 245h121l45 196h-121z" />
    <glyph glyph-name="dollar" unicode="$" horiz-adv-x="408" 
d="M378 157q0 -68 -38 -112t-103 -53v-64q0 -13 -13 -13h-45q-13 0 -13 13v66q-61 11 -96.5 56.5t-39.5 116.5q0 14 14 14h63q12 0 14 -13q2 -45 24.5 -69.5t60.5 -24.5t59.5 22t21.5 61q0 42 -26 81t-63 70.5t-73.5 64.5t-62.5 79t-26 99q0 64 35 105t95 52v64q0 13 13 13
h45q13 0 13 -13v-65q59 -10 93.5 -54.5t37.5 -116.5q2 -14 -13 -14h-63q-13 0 -13 14q-4 91 -77 91q-35 0 -55.5 -20t-20.5 -56q0 -39 26 -75.5t63 -67.5t74 -64.5t63 -82t26 -104.5z" />
    <glyph glyph-name="percent" unicode="%" horiz-adv-x="578" 
d="M112 391q-40 0 -65.5 25t-25.5 63v141q0 38 25.5 64t65.5 26q38 0 63.5 -26t25.5 -64v-141q0 -38 -25.5 -63t-63.5 -25zM34 -4q-8 0 -12 5t0 10l465 682q9 11 16 11h41q8 0 12 -5t0 -10l-465 -682q-7 -11 -16 -11h-41zM112 445q13 0 21.5 9.5t8.5 24.5v142q0 16 -8 25.5
t-22 9.5t-22.5 -9.5t-8.5 -25.5v-142q0 -15 8.5 -24.5t22.5 -9.5zM468 -9q-40 0 -65.5 25t-25.5 63v141q0 38 25.5 64t65.5 26q38 0 63.5 -26t25.5 -64v-141q0 -38 -25.5 -63t-63.5 -25zM468 45q13 0 21.5 9.5t8.5 24.5v142q0 16 -8.5 25.5t-21.5 9.5q-14 0 -22.5 -9.5
t-8.5 -25.5v-142q0 -15 8.5 -24.5t22.5 -9.5z" />
    <glyph glyph-name="ampersand" unicode="&#x26;" horiz-adv-x="452" 
d="M209 -4q-72 0 -119 46.5t-47 116.5v76q0 41 17.5 74.5t46.5 51.5q-30 22 -47 56.5t-17 72.5v37q0 80 44 132t122 52q79 0 123 -53t46 -139q0 -13 -13 -13h-61q-14 0 -14 13q-4 109 -82 109q-77 0 -77 -95v-55q0 -33 22.5 -56t56.5 -23h198q14 0 14 -13v-52q0 -13 -14 -13
h-38v-284q0 -41 -41 -41h-120zM209 80h74v241h-73q-34 0 -56 -21.5t-22 -58.5v-80q0 -36 21.5 -58.5t55.5 -22.5z" />
    <glyph glyph-name="quotesingle" unicode="'" horiz-adv-x="125" 
d="M26 687q0 13 14 13h55q15 0 13 -15l-33 -170q-1 -12 -14 -12h-32q-13 0 -13 13z" />
    <glyph glyph-name="parenleft" unicode="(" horiz-adv-x="246" 
d="M215 -121q-73 2 -117 51t-44 129v581q0 80 44 129t117 51q13 0 13 -13v-55q0 -14 -13 -15q-33 -2 -53.5 -26.5t-20.5 -63.5v-595q0 -39 20.5 -64t53.5 -27q13 -1 13 -14v-55q0 -13 -13 -13z" />
    <glyph glyph-name="parenright" unicode=")" horiz-adv-x="247" 
d="M32 -121q-13 0 -13 13v55q0 13 13 14q33 2 53.5 27t20.5 64v595q0 39 -20.5 63.5t-53.5 26.5q-13 1 -13 15v55q0 13 13 13q73 -2 117 -51t44 -129v-581q0 -80 -44 -129t-117 -51z" />
    <glyph glyph-name="asterisk" unicode="*" horiz-adv-x="321" 
d="M98 495l-27 18q-11 8 -3 19l41 57l-66 22q-12 4 -9 16l10 31q5 14 17 9l67 -22v71q0 13 13 13h33q13 0 13 -13v-71l67 22q13 4 17 -9l10 -30q4 -12 -9 -17l-67 -21l41 -58q9 -11 -2 -19l-27 -19q-11 -9 -18 3l-42 57l-41 -57q-8 -12 -18 -2z" />
    <glyph glyph-name="plus" unicode="+" horiz-adv-x="467" 
d="M411 399q13 0 13 -14v-51q0 -14 -13 -14h-138v-141q0 -13 -13 -13h-52q-14 0 -14 13v141h-137q-14 0 -14 14v51q0 14 14 14h137v141q0 12 14 14l51 -1q14 2 14 -13v-141h138z" />
    <glyph glyph-name="comma" unicode="," horiz-adv-x="118" 
d="M23 77q0 13 14 13h55q15 0 13 -15l-33 -170q-2 -12 -14 -12h-32q-13 0 -13 14z" />
    <glyph glyph-name="hyphen" unicode="-" horiz-adv-x="279" 
d="M28 219q-13 0 -13 13v50q0 14 13 14h223q14 0 14 -14v-50q0 -13 -14 -13h-223z" />
    <glyph glyph-name="period" unicode="." horiz-adv-x="139" 
d="M69 -10q-24 0 -40 16t-16 40q0 25 16 40.5t40 15.5t40.5 -16t16.5 -40t-16.5 -40t-40.5 -16z" />
    <glyph glyph-name="slash" unicode="/" horiz-adv-x="361" 
d="M269 690q4 10 14 10h56q15 0 10 -14l-257 -677q-4 -9 -14 -9h-56q-15 0 -10 14z" />
    <glyph glyph-name="zero" unicode="0" horiz-adv-x="412" 
d="M206 -11q-70 0 -115.5 48t-45.5 121v384q0 73 45.5 121t115.5 48q69 0 115 -48t46 -121v-384q0 -73 -46 -121t-115 -48zM134 187l128 410q-20 31 -56 31q-32 0 -52.5 -22.5t-20.5 -56.5v-346q0 -11 1 -16zM206 72q32 0 52.5 22.5t20.5 56.5v346q0 11 -1 17l-128 -410
q19 -32 56 -32z" />
    <glyph glyph-name="one" unicode="1" horiz-adv-x="246" 
d="M132 700q54 0 54 -53v-633q0 -14 -14 -14h-61q-13 0 -13 14v604h-72q-13 0 -13 14v55q0 13 13 13h106z" />
    <glyph glyph-name="two" unicode="2" horiz-adv-x="378" 
d="M347 551q0 -55 -23.5 -106.5t-57 -92l-67 -81t-57 -89.5t-23.5 -100h216q13 0 13 -14v-54q0 -14 -13 -14h-264q-41 0 -41 41v21q0 69 24 130.5t58 105.5t68 84t58 82.5t24 84.5q0 36 -18 58.5t-52 22.5t-53.5 -24t-20.5 -70q-2 -14 -14 -14h-56q-13 0 -13 14
q4 80 46 127.5t111 47.5q71 0 113 -46t42 -114z" />
    <glyph glyph-name="three" unicode="3" horiz-adv-x="394" 
d="M193 -11q-71 0 -115 48.5t-45 131.5q0 13 13 13h61q14 0 14 -13q3 -97 72 -97q34 0 53 24t19 65v113q0 43 -22 67.5t-60 24.5h-42q-16 0 -16 16v20q0 16 7 29l107 190h-181q-14 0 -14 14v54q0 13 14 13h267q22 0 22 -21v-8q0 -11 -6 -24l-111 -210l2 -3q59 -11 90 -57
t31 -110v-104q0 -79 -44.5 -127.5t-115.5 -48.5z" />
    <glyph glyph-name="four" unicode="4" horiz-adv-x="409" 
d="M374 273q14 0 14 -14v-55q0 -13 -14 -13h-42v-177q0 -14 -13 -14h-61q-13 0 -13 14v177h-200q-28 0 -28 27v26q0 19 6 43l121 402q5 11 16 11h61q16 0 11 -15l-122 -412h136l5 228q2 13 14 13h54q13 0 13 -14v-227h42z" />
    <glyph glyph-name="five" unicode="5" horiz-adv-x="400" 
d="M212 475q64 0 107 -48t43 -122v-139q0 -80 -44.5 -128.5t-117.5 -48.5q-72 0 -115.5 48.5t-44.5 131.5q0 13 13 13h60q14 0 14 -13q3 -97 73 -97q36 0 55 24t19 66v147q0 38 -20 61t-54 23q-28 0 -46 -17.5t-21 -49.5q-2 -20 -21 -20h-44q-23 0 -23 24v333q0 41 40 41
h251q14 0 14 -14v-51q0 -14 -14 -14h-205v-180q35 30 81 30z" />
    <glyph glyph-name="six" unicode="6" horiz-adv-x="407" 
d="M206 -11q-69 0 -115 48t-46 121v381q0 76 45 124t115 48q69 0 114 -46.5t46 -121.5q0 -14 -13 -14h-61q-14 0 -14 14q-1 41 -20.5 63t-51.5 22t-52 -23t-20 -62v-117q33 33 86 33q62 0 105 -47t43 -116v-138q0 -73 -46 -121t-115 -48zM206 72q32 0 52.5 23t20.5 59v140
q0 37 -20.5 60t-52.5 23t-52.5 -22.5t-20.5 -60.5v-140q0 -37 20.5 -59.5t52.5 -22.5z" />
    <glyph glyph-name="seven" unicode="7" horiz-adv-x="339" 
d="M13 687q0 13 13 13h257q30 0 30 -28q0 -26 -5 -47l-146 -613q-3 -12 -15 -12h-63q-15 0 -12 15l145 601h-191q-13 0 -13 14v57z" />
    <glyph glyph-name="eight" unicode="8" horiz-adv-x="416" 
d="M304 364q70 -45 70 -134v-73q0 -72 -47.5 -120t-118.5 -48t-118.5 47.5t-47.5 120.5v73q0 89 70 134q-60 47 -60 125v60q0 70 43.5 116t112.5 46t112 -46t43 -116v-60q0 -77 -59 -125zM140 552v-73q0 -34 19 -56.5t49 -22.5t48.5 22.5t18.5 56.5v73q0 33 -18 54.5
t-49 21.5t-49.5 -21.5t-18.5 -54.5zM286 155v82q0 38 -22 60.5t-56 22.5t-56 -22.5t-22 -60.5v-82q0 -36 22.5 -59.5t55.5 -23.5t55.5 23.5t22.5 59.5z" />
    <glyph glyph-name="nine" unicode="9" horiz-adv-x="408" 
d="M202 711q69 0 115 -48t46 -121v-381q0 -76 -45 -124t-115 -48q-69 0 -114 46.5t-46 121.5q0 14 13 14h61q14 0 14 -14q1 -41 20.5 -63t51.5 -22t52 23t20 62v117q-33 -33 -86 -33q-62 0 -105 47t-43 116v138q0 73 46 121t115 48zM202 628q-32 0 -52.5 -23t-20.5 -59v-140
q0 -37 20.5 -60t52.5 -23t52.5 22.5t20.5 60.5v140q0 37 -20.5 59.5t-52.5 22.5z" />
    <glyph glyph-name="colon" unicode=":" horiz-adv-x="161" 
d="M67 334q-24 0 -40 16t-16 40q0 25 16 40.5t40 15.5t40.5 -16t16.5 -40t-16.5 -40t-40.5 -16zM67 -10q-24 0 -40 16t-16 40q0 25 16 40.5t40 15.5t40.5 -16t16.5 -40t-16.5 -40t-40.5 -16z" />
    <glyph glyph-name="semicolon" unicode=";" horiz-adv-x="152" 
d="M79 335q-24 0 -40 16t-16 40q0 25 16 40.5t40 15.5t40.5 -16t16.5 -40t-16.5 -40t-40.5 -16zM40 77q0 13 14 13h55q15 0 13 -15l-33 -170q-1 -12 -14 -12h-32q-13 0 -13 14z" />
    <glyph glyph-name="less" unicode="&#x3c;" horiz-adv-x="415" 
d="M371 470q0 -8 -7 -11l-196 -101l197 -101q6 -3 6 -11v-52q0 -10 -7.5 -14.5t-15.5 -0.5l-250 132q-7 3 -7 11v72q0 8 7 11l250 132q8 4 15.5 -0.5t7.5 -14.5v-52z" />
    <glyph glyph-name="equal" unicode="=" horiz-adv-x="418" 
d="M32 386q-14 0 -14 13v52q0 14 14 14h354q13 0 13 -14v-52q0 -13 -13 -13h-354zM32 224q-14 0 -14 13v52q0 14 14 14h354q13 0 13 -14v-52q0 -13 -13 -13h-354z" />
    <glyph glyph-name="greater" unicode="&#x3e;" horiz-adv-x="334" 
d="M300 405q7 -3 7 -11v-72q0 -8 -7 -11l-250 -132q-8 -4 -15.5 0.5t-7.5 14.5v52q0 8 6 11l197 101l-196 101q-7 3 -7 11v52q0 10 7.5 14.5t15.5 0.5z" />
    <glyph glyph-name="question" unicode="?" horiz-adv-x="336" 
d="M123 153q-13 0 -13 14v44q0 49 13.5 88t33 65t39 50t33 54.5t13.5 67.5q0 42 -21 68t-57 26q-35 0 -56 -25.5t-23 -72.5q0 -13 -14 -13h-58q-13 0 -13 14q4 80 48.5 128.5t113.5 48.5q73 0 119.5 -47.5t46.5 -122.5q0 -47 -13.5 -85t-33 -64t-39 -51t-33 -58.5
t-13.5 -74.5v-40q0 -14 -14 -14h-59zM154 -11q-24 0 -39.5 16t-15.5 39q0 24 15.5 39.5t39.5 15.5t39.5 -15.5t15.5 -39.5q0 -23 -15.5 -39t-39.5 -16z" />
    <glyph glyph-name="at" unicode="@" horiz-adv-x="637" 
d="M269 -100q-107 0 -168.5 62.5t-61.5 169.5v174q0 106 61.5 169.5t168.5 63.5h42q68 0 107.5 -39t39.5 -104v-205q0 -54 -37.5 -87.5t-100.5 -33.5q-69 0 -108 37.5t-39 103.5q1 69 38.5 107.5t100.5 38.5h70v39q0 33 -19.5 53t-51.5 20h-40q-77 0 -117.5 -43t-40.5 -121
v-173q0 -78 40 -119.5t118 -41.5h96q76 0 116.5 42t40.5 119v341q0 77 -40.5 118.5t-114.5 41.5h-192q-13 0 -13 14v43q0 14 13 14h192q106 0 167.5 -62.5t61.5 -168.5v-341q0 -107 -61.5 -169.5t-167.5 -62.5h-100zM320 140q28 0 45 16.5t17 42.5v82h-65q-30 0 -48 -18.5
t-19 -51.5q0 -33 19 -52t51 -19z" />
    <glyph glyph-name="A" unicode="A" horiz-adv-x="451" 
d="M67 0q-13 0 -13 14v512q0 83 47 133.5t124 50.5t124.5 -50.5t47.5 -133.5v-512q0 -14 -14 -14h-63q-14 0 -14 14v222h-162v-222q0 -14 -13 -14h-64zM144 319h162v211q0 45 -21 70t-60 25q-38 0 -59.5 -25t-21.5 -70v-211z" />
    <glyph glyph-name="B" unicode="B" horiz-adv-x="428" 
d="M316 360q38 -19 59.5 -55.5t21.5 -83.5v-46q0 -81 -47 -129.5t-123 -48.5h-133q-17 0 -28.5 11.5t-11.5 29.5v496q0 79 44.5 127.5t117.5 48.5q75 0 120.5 -48t45.5 -128v-44q0 -93 -66 -130zM144 539v-144h72q35 0 55.5 23.5t20.5 64.5v56q0 41 -20 64t-56 23
q-34 0 -53 -23t-19 -64zM305 170v52q0 43 -21 67t-59 24h-81v-233h81q38 0 59 24t21 66z" />
    <glyph glyph-name="C" unicode="C" horiz-adv-x="410" 
d="M214 -11q-77 0 -124 49.5t-47 130.5v362q0 81 47 130.5t124 49.5q74 0 120 -52.5t48 -139.5q0 -13 -13 -13h-64q-13 0 -13 13q-1 52 -22.5 79.5t-56.5 27.5q-37 0 -58 -24t-21 -66v-372q0 -42 21 -66t58 -24q38 0 60.5 29.5t23.5 84.5q0 13 13 13h64q13 0 13 -14
q-3 -91 -50 -144.5t-123 -53.5z" />
    <glyph glyph-name="D" unicode="D" horiz-adv-x="445" 
d="M101 -3q-41 0 -41 40v626q0 40 41 40h129q78 0 124.5 -50.5t46.5 -130.5v-344q0 -80 -47 -130.5t-124 -50.5h-129zM151 81h76q39 0 61 26t22 69v348q0 43 -22 69t-61 26h-76v-538z" />
    <glyph glyph-name="E" unicode="E" horiz-adv-x="361" 
d="M214 -3q-75 0 -123 50.5t-48 128.5v348q0 78 48 128.5t123 50.5h105q13 0 13 -13v-57q0 -14 -13 -14h-98q-39 0 -63 -27t-24 -70v-127h160q14 0 14 -14v-54q0 -14 -14 -14h-160v-135q0 -43 24 -70t63 -27h98q13 0 13 -14v-57q0 -13 -13 -13h-105z" />
    <glyph glyph-name="F" unicode="F" horiz-adv-x="343" 
d="M67 0q-13 0 -13 14v507q0 78 47.5 128.5t122.5 50.5h88q14 0 14 -13v-57q0 -14 -14 -14h-81q-39 0 -63 -27t-24 -70v-130h149q13 0 13 -13v-57q0 -13 -13 -13h-149v-292q0 -14 -13 -14h-64z" />
    <glyph glyph-name="G" unicode="G" horiz-adv-x="428" 
d="M219 -11q-78 0 -127 51.5t-49 133.5v353q0 82 47.5 133t125.5 51q75 0 122.5 -50.5t49.5 -131.5q0 -14 -13 -14h-64q-12 0 -14 14q-2 46 -23.5 71.5t-57.5 25.5q-38 0 -60 -26t-22 -70v-360q0 -44 23.5 -70t62.5 -26q37 0 61 25t24 64v136h-69q-14 0 -14 13v53
q0 14 14 14h118q41 0 41 -41v-170q0 -78 -49 -128.5t-127 -50.5z" />
    <glyph glyph-name="H" unicode="H" horiz-adv-x="454" 
d="M304 687q0 13 14 13h63q13 0 13 -13v-673q0 -14 -13 -14h-63q-14 0 -14 14v299h-154v-299q0 -14 -13 -14h-63q-14 0 -14 14v673q0 13 14 13h63q13 0 13 -13v-291h154v291z" />
    <glyph glyph-name="I" unicode="I" horiz-adv-x="211" 
d="M60 687q0 13 14 13h63q13 0 13 -13v-673q0 -14 -13 -14h-63q-14 0 -14 14v673z" />
    <glyph glyph-name="J" unicode="J" horiz-adv-x="406" 
d="M182 -11q-76 0 -121.5 54t-47.5 144q0 14 13 14h64q13 0 13 -13q2 -53 23 -83.5t58 -30.5t57.5 26.5t20.5 73.5v513q0 13 14 13h63q14 0 14 -13v-507q0 -88 -44.5 -139.5t-126.5 -51.5z" />
    <glyph glyph-name="K" unicode="K" horiz-adv-x="446" 
d="M74 0q-14 0 -14 14v673q0 13 14 13h63q13 0 13 -13v-293h80l82 295q3 11 15 11h63q15 0 12 -15l-92 -314q88 -40 88 -161v-196q0 -14 -14 -14h-63q-14 0 -14 14v198q0 45 -22.5 71.5t-61.5 26.5h-73v-296q0 -14 -13 -14h-63z" />
    <glyph glyph-name="L" unicode="L" horiz-adv-x="346" 
d="M224 81h96q14 0 14 -14v-57q0 -13 -14 -13h-101q-75 0 -120 49.5t-45 126.5v514q0 13 13 13h64q14 0 14 -13v-511q0 -42 22 -68.5t57 -26.5z" />
    <glyph glyph-name="M" unicode="M" horiz-adv-x="669" 
d="M453 711q75 0 119 -50.5t44 -135.5v-511q0 -14 -14 -14h-63q-13 0 -13 14v515q0 47 -19 72t-54 25q-34 0 -54 -25.5t-20 -71.5v-515q0 -14 -13 -14h-63q-13 0 -13 14v515q0 46 -20 71.5t-53 25.5q-74 0 -74 -97v-515q0 -14 -13 -14h-63q-13 0 -13 14v511q0 85 44 135.5
t119 50.5q72 0 118 -63q46 63 118 63z" />
    <glyph glyph-name="N" unicode="N" horiz-adv-x="451" 
d="M67 0q-13 0 -13 14v513q0 82 47 133t124 51t124.5 -51t47.5 -133v-513q0 -14 -14 -14h-63q-14 0 -14 14v517q0 43 -22 69t-59 26t-59 -26t-22 -69v-517q0 -14 -13 -14h-64z" />
    <glyph glyph-name="O" unicode="O" horiz-adv-x="439" 
d="M220 -10q-78 0 -127.5 52t-49.5 136v344q0 84 49.5 136t127.5 52t127 -51t49 -130v-358q0 -79 -49 -130t-127 -51zM220 74q38 0 61.5 26t23.5 67v366q0 41 -23.5 67t-61.5 26q-39 0 -62.5 -27t-23.5 -73v-352q0 -46 23.5 -73t62.5 -27z" />
    <glyph glyph-name="P" unicode="P" horiz-adv-x="420" 
d="M67 0q-13 0 -13 14v512q0 83 45.5 134t122.5 51q78 0 125 -51.5t47 -133.5v-102q0 -77 -46.5 -124.5t-124.5 -47.5h-79v-238q0 -14 -13 -14h-64zM144 336h76q39 0 61 23t22 63v108q0 44 -21.5 70t-58.5 26t-58 -26t-21 -70v-194z" />
    <glyph glyph-name="Q" unicode="Q" horiz-adv-x="450" 
d="M402 24q10 -11 0 -19l-31 -31q-9 -10 -19 0l-39 40q-41 -24 -93 -24q-78 0 -127.5 51t-49.5 130v358q0 79 49.5 130t127.5 51t127.5 -51t49.5 -130v-358q0 -63 -32 -109zM220 74q12 0 28 4l-28 29q-10 10 0 19l32 31q9 10 19 0l28 -29q7 17 7 39v366q0 41 -24 67t-62 26
t-61.5 -26t-23.5 -67v-366q0 -41 23.5 -67t61.5 -26z" />
    <glyph glyph-name="R" unicode="R" horiz-adv-x="444" 
d="M67 0q-13 0 -13 14v512q0 82 47 133.5t123 51.5q77 0 125 -51.5t48 -133.5v-80q0 -56 -24 -97.5t-65 -63.5l107 -270q2 -6 -2 -10.5t-11 -4.5h-68q-11 0 -14 12l-95 252h-81v-250q0 -14 -13 -14h-64zM144 347h77q39 0 62 26.5t23 70.5v86q0 43 -22.5 69.5t-58.5 26.5
t-58.5 -26.5t-22.5 -69.5v-183z" />
    <glyph glyph-name="S" unicode="S" horiz-adv-x="408" 
d="M205 -11q-78 0 -125 53.5t-50 144.5q0 14 14 14h63q12 0 14 -13q3 -114 85 -114q81 0 81 83q0 42 -26 81t-63 70.5t-73.5 64.5t-62.5 79t-26 99q0 73 45 116.5t120 43.5q73 0 118.5 -52t48.5 -140q0 -13 -13 -13h-63q-13 0 -13 13q-4 108 -77 108q-76 0 -76 -76
q0 -39 26 -75.5t63 -67.5t74 -64.5t63 -82t26 -104.5q0 -77 -47.5 -122.5t-125.5 -45.5z" />
    <glyph glyph-name="T" unicode="T" horiz-adv-x="359" 
d="M333 700q14 0 14 -13v-57q0 -14 -14 -14h-108v-602q0 -14 -14 -14h-63q-13 0 -13 14v602h-109q-13 0 -13 14v57q0 13 13 13h307z" />
    <glyph glyph-name="U" unicode="U" horiz-adv-x="451" 
d="M67 700h64q13 0 13 -14v-517q0 -43 22 -69t59 -26t59 26t22 69v517q0 14 14 14h63q14 0 14 -14v-513q0 -82 -47.5 -133t-124.5 -51t-124 51t-47 133v513q0 14 13 14z" />
    <glyph glyph-name="V" unicode="V" horiz-adv-x="397" 
d="M376 700q16 0 12 -14l-119 -653q-6 -37 -43 -37h-55q-37 0 -43 37l-119 653q-2 14 12 14h65q14 0 15 -12l98 -586l98 586q1 12 14 12h65z" />
    <glyph glyph-name="W" unicode="W" horiz-adv-x="669" 
d="M602 700q14 0 14 -13v-512q0 -85 -44 -135.5t-119 -50.5q-71 0 -119 63q-46 -63 -117 -63q-75 0 -119 50.5t-44 135.5v512q0 13 13 13h63q13 0 13 -13v-516q0 -97 74 -97q33 0 53 25.5t20 71.5v516q0 13 13 13h63q13 0 13 -13v-516q0 -46 20.5 -71.5t53.5 -25.5
q73 0 73 97v516q0 13 13 13h63z" />
    <glyph glyph-name="X" unicode="X" horiz-adv-x="426" 
d="M383 492q0 -90 -70 -137q70 -48 70 -138v-203q0 -14 -14 -14h-63q-14 0 -14 14v207q0 40 -22 65.5t-57 25.5t-57 -25.5t-22 -65.5v-207q0 -14 -14 -14h-63q-14 0 -14 14v203q0 90 70 138q-70 47 -70 137v195q0 13 14 13h63q14 0 14 -13v-199q0 -40 22 -66t57 -26t57 26
t22 66v199q0 13 14 13h63q14 0 14 -13v-195z" />
    <glyph glyph-name="Y" unicode="Y" horiz-adv-x="416" 
d="M177 0q-14 0 -14 14v215q-56 14 -90.5 61t-34.5 112v285q0 13 14 13h63q14 0 14 -13v-289q0 -40 21.5 -65.5t57.5 -25.5t58 26t22 65v289q0 13 13 13h63q14 0 14 -13v-285q0 -65 -34 -112.5t-91 -60.5v-215q0 -14 -13 -14h-63z" />
    <glyph glyph-name="Z" unicode="Z" horiz-adv-x="401" 
d="M123 84h234q13 0 13 -14v-56q0 -14 -13 -14h-282q-44 0 -44 43v19q0 32 11 54l233 500h-209q-13 0 -13 14v57q0 13 13 13h257q43 0 44 -42v-19q2 -33 -9 -54z" />
    <glyph glyph-name="bracketleft" unicode="[" horiz-adv-x="261" 
d="M233 752q0 -14 -14 -14h-76v-776h76q14 0 14 -14v-55q0 -13 -14 -13h-123q-41 0 -41 40v860q0 40 41 40h123q14 0 14 -13v-55z" />
    <glyph glyph-name="backslash" unicode="\" horiz-adv-x="361" 
d="M77 700q11 0 15 -11l256 -673q5 -16 -11 -16h-53q-11 0 -15 11l-256 673q-5 16 11 16h53z" />
    <glyph glyph-name="bracketright" unicode="]" horiz-adv-x="258" 
d="M25 752v55q0 13 14 13h123q41 0 41 -40v-860q0 -40 -41 -40h-123q-14 0 -14 13v55q0 14 14 14h76v776h-76q-14 0 -14 14z" />
    <glyph glyph-name="asciicircum" unicode="^" horiz-adv-x="319" 
d="M314 485q8 -16 -9 -16h-58q-11 0 -16 9l-68 143l-70 -143q-4 -9 -16 -9h-57q-16 0 -10 16l105 206q5 9 17 9h61q11 0 16 -9z" />
    <glyph glyph-name="underscore" unicode="_" horiz-adv-x="367" 
d="M8 -24q0 14 14 14h323q13 0 13 -14v-55q0 -13 -13 -13h-323q-14 0 -14 13v55z" />
    <glyph glyph-name="a" unicode="a" horiz-adv-x="389" 
d="M194 -10q-72 0 -117 45t-45 116q0 63 44 105t114 42h75v55q0 34 -19.5 55t-52.5 21q-31 0 -48.5 -18.5t-19.5 -50.5q-1 -12 -14 -12h-58q-13 0 -13 14q5 66 46.5 107.5t107.5 41.5q70 0 113 -45.5t43 -116.5v-201q0 -70 -42.5 -114t-113.5 -44zM193 72q34 0 53 20.5
t19 55.5v73h-72q-34 0 -54.5 -20t-20.5 -50q0 -36 20 -57.5t55 -21.5z" />
    <glyph glyph-name="b" unicode="b" horiz-adv-x="405" 
d="M216 511q67 0 108 -45.5t41 -117.5v-196q0 -72 -44 -117.5t-115 -45.5t-115 45.5t-44 117.5v535q0 13 14 13h58q14 0 14 -13v-213q32 37 83 37zM280 149v202q0 36 -20 57t-54 21t-53.5 -21t-19.5 -57v-202q0 -36 19.5 -57t53.5 -21t54 21t20 57z" />
    <glyph glyph-name="c" unicode="c" horiz-adv-x="385" 
d="M198 -11q-71 0 -115 45.5t-44 117.5v196q0 72 43.5 117.5t113.5 45.5q67 0 109 -42t47 -111q2 -13 -13 -13h-59q-13 0 -14 13q-3 34 -21 52.5t-49 18.5q-33 0 -52 -21.5t-19 -56.5v-202q0 -36 19.5 -57t52.5 -21q31 0 50.5 20.5t22.5 57.5q1 14 13 14h60q13 0 13 -15
q-5 -71 -47.5 -115t-110.5 -44z" />
    <glyph glyph-name="d" unicode="d" horiz-adv-x="405" 
d="M344 700q14 0 14 -13v-535q0 -72 -44 -117.5t-115 -45.5t-115 45.5t-44 117.5v196q0 72 41 117.5t108 45.5q51 0 83 -37v213q0 13 14 13h58zM272 149v202q0 36 -19.5 57t-53.5 21t-54 -21t-20 -57v-202q0 -36 20 -57t54 -21t53.5 21t19.5 57z" />
    <glyph glyph-name="e" unicode="e" horiz-adv-x="390" 
d="M197 -10q-71 0 -114.5 45t-43.5 118v196q1 72 44.5 116.5t114.5 44.5q70 1 115 -44t45 -114q0 -66 -44 -108.5t-115 -42.5h-74v-52q0 -35 19.5 -56.5t53.5 -21.5q30 0 49.5 20.5t21.5 53.5q1 13 14 13h59q13 0 13 -13q-4 -70 -47.5 -112.5t-110.5 -42.5zM125 279h74
q34 0 53.5 19.5t19.5 51.5q0 36 -20 57.5t-54 21.5q-35 0 -54 -21t-19 -58v-71z" />
    <glyph glyph-name="f" unicode="f" horiz-adv-x="301" 
d="M268 500q13 0 13 -13v-52q0 -13 -13 -13h-99v-408q0 -14 -14 -14h-58q-14 0 -14 14v408h-57q-13 0 -13 13v52q0 13 13 13h57v21q0 85 47 134t124 49q13 0 13 -14v-53q0 -14 -13 -14q-85 0 -85 -97v-26h99z" />
    <glyph glyph-name="g" unicode="g" horiz-adv-x="405" 
d="M199 511q71 0 115 -45.5t44 -117.5v-396q0 -74 -43 -118.5t-116 -44.5q-70 0 -113 43.5t-46 117.5q-2 14 13 14h59q13 0 14 -14q2 -37 21.5 -58t51.5 -21q34 0 53.5 20.5t19.5 57.5v99q-33 -35 -80 -35q-67 0 -110 46t-43 117v172q0 72 44 117.5t116 45.5zM199 94
q34 0 53.5 21.5t19.5 57.5v178q0 36 -19.5 57t-53.5 21t-54 -21t-20 -57v-178q0 -36 20 -57.5t54 -21.5z" />
    <glyph glyph-name="h" unicode="h" horiz-adv-x="418" 
d="M69 0q-14 0 -14 14v673q0 13 14 13h58q14 0 14 -13v-211q32 35 80 35q68 0 109 -46t41 -119v-332q0 -14 -14 -14h-58q-14 0 -14 14v335q0 37 -19.5 58.5t-53.5 21.5q-32 0 -51.5 -21.5t-19.5 -58.5v-335q0 -14 -14 -14h-58z" />
    <glyph glyph-name="i" unicode="i" horiz-adv-x="196" 
d="M98 563q-22 0 -36.5 14.5t-14.5 36.5q0 23 14.5 37.5t36.5 14.5t37 -15t15 -37q0 -20 -15 -35.5t-37 -15.5zM69 0q-14 0 -14 14v473q0 13 14 13h58q14 0 14 -13v-473q0 -14 -14 -14h-58z" />
    <glyph glyph-name="j" unicode="j" horiz-adv-x="255" 
d="M148 563q-22 0 -36.5 14.5t-14.5 36.5q0 23 14.5 37.5t36.5 14.5t37 -15t15 -37q0 -20 -15 -35.5t-37 -15.5zM14 -205q-14 0 -14 13v55q0 13 14 13h7q86 3 86 91v520q0 13 13 13h59q13 0 13 -13v-513q0 -83 -44 -130.5t-125 -48.5h-9z" />
    <glyph glyph-name="k" unicode="k" horiz-adv-x="400" 
d="M271 281q42 -17 66.5 -54t24.5 -87v-126q0 -14 -13 -14h-59q-13 0 -13 14v129q0 34 -21 54t-55 20h-60v-203q0 -14 -14 -14h-58q-14 0 -14 14v673q0 13 14 13h58q14 0 14 -13v-389h48l91 192q6 10 16 10h62q18 0 12 -16z" />
    <glyph glyph-name="l" unicode="l" horiz-adv-x="196" 
d="M69 0q-14 0 -14 14v673q0 13 14 13h58q14 0 14 -13v-673q0 -14 -14 -14h-58z" />
    <glyph glyph-name="m" unicode="m" horiz-adv-x="611" 
d="M414 511q68 0 109 -45.5t41 -117.5v-334q0 -14 -13 -14h-58q-14 0 -14 14v337q0 36 -17 57t-48 21t-48.5 -21t-17.5 -57v-337q0 -14 -13 -14h-58q-14 0 -14 14v337q0 36 -17 57t-48 21t-48.5 -21t-17.5 -57v-337q0 -14 -14 -14h-57q-14 0 -14 14v334q0 72 41.5 117.5
t109.5 45.5q69 0 108 -61q39 61 108 61z" />
    <glyph glyph-name="n" unicode="n" horiz-adv-x="406" 
d="M61 0q-14 0 -14 14v334q0 72 43.5 117.5t112.5 45.5t112.5 -45.5t43.5 -117.5v-334q0 -14 -14 -14h-58q-14 0 -14 14v337q0 36 -18.5 57.5t-51.5 21.5t-51.5 -21.5t-18.5 -57.5v-337q0 -14 -14 -14h-58z" />
    <glyph glyph-name="o" unicode="o" horiz-adv-x="399" 
d="M199 -11q-72 0 -116 45.5t-44 117.5v196q0 72 44 117.5t116 45.5t116 -45.5t44 -117.5v-196q0 -72 -44 -117.5t-116 -45.5zM199 70q34 0 54 21.5t20 57.5v202q0 36 -20 57.5t-54 21.5t-53.5 -21.5t-19.5 -57.5v-202q0 -36 19.5 -57.5t53.5 -21.5z" />
    <glyph glyph-name="p" unicode="p" horiz-adv-x="405" 
d="M207 511q71 0 115 -45.5t44 -117.5v-196q0 -71 -42 -117t-103 -46q-51 0 -88 34v-210q0 -13 -13 -13h-59q-14 0 -14 13v535q0 72 44 117.5t116 45.5zM280 149v202q0 36 -19.5 57t-53.5 21t-54 -21t-20 -57v-202q0 -36 20 -57t54 -21t53.5 21t19.5 57z" />
    <glyph glyph-name="q" unicode="q" horiz-adv-x="405" 
d="M198 511q72 0 116 -45.5t44 -117.5v-535q0 -13 -14 -13h-59q-13 0 -13 13v210q-37 -34 -88 -34q-61 0 -103 46t-42 117v196q0 72 44 117.5t115 45.5zM198 71q34 0 54 21t20 57v202q0 36 -20 57t-54 21t-53.5 -21t-19.5 -57v-202q0 -36 19.5 -57t53.5 -21z" />
    <glyph glyph-name="r" unicode="r" horiz-adv-x="281" 
d="M61 0q-14 0 -14 14v313q0 80 47 127.5t124 47.5h37q13 0 13 -14v-54q0 -13 -13 -13h-36q-39 0 -62.5 -23.5t-23.5 -63.5v-320q0 -14 -14 -14h-58z" />
    <glyph glyph-name="s" unicode="s" horiz-adv-x="386" 
d="M199 -11q-75 0 -120 45t-47 114q0 15 14 15h58q13 0 14 -13q6 -79 80 -79q34 0 52 17t18 45q0 27 -23.5 47t-57.5 34t-68 31t-57.5 49t-23.5 77q0 61 42 100.5t109 39.5q76 0 115.5 -41.5t41.5 -105.5q0 -14 -13 -14h-59q-12 0 -14 13q-2 30 -20 48.5t-49 18.5t-49.5 -17
t-18.5 -44q0 -26 24 -44.5t57.5 -32.5t67.5 -31t58 -49.5t24 -79.5q0 -62 -43 -102.5t-112 -40.5z" />
    <glyph glyph-name="t" unicode="t" horiz-adv-x="289" 
d="M255 78q14 0 14 -13v-55q0 -13 -14 -13h-15q-74 0 -116 47t-42 130v248h-56q-13 0 -13 13v52q0 13 13 13h56v129q0 14 14 14h58q13 0 13 -14v-129h77q13 0 13 -13v-52q0 -13 -13 -13h-77v-249q0 -95 77 -95h11z" />
    <glyph glyph-name="u" unicode="u" horiz-adv-x="406" 
d="M61 500h58q14 0 14 -14v-337q0 -36 18.5 -57.5t51.5 -21.5t51.5 21.5t18.5 57.5v337q0 14 14 14h58q14 0 14 -14v-334q0 -72 -43.5 -117.5t-112.5 -45.5t-112.5 45.5t-43.5 117.5v334q0 14 14 14z" />
    <glyph glyph-name="v" unicode="v" horiz-adv-x="376" 
d="M279 488q1 12 15 12h61q15 0 12 -15l-113 -453q-7 -36 -45 -36h-41q-38 0 -45 36l-113 453q-3 15 11 15h62q13 0 15 -12l90 -411z" />
    <glyph glyph-name="w" unicode="w" horiz-adv-x="611" 
d="M414 -11q-69 0 -108 61q-39 -61 -108 -61q-68 0 -109.5 45.5t-41.5 117.5v334q0 14 14 14h57q14 0 14 -14v-337q0 -36 17.5 -57t48.5 -21t48 21t17 57v337q0 14 14 14h58q13 0 13 -14v-337q0 -36 17.5 -57t48.5 -21t48 21t17 57v337q0 14 14 14h58q13 0 13 -14v-334
q0 -72 -41 -117.5t-109 -45.5z" />
    <glyph glyph-name="x" unicode="x" horiz-adv-x="391" 
d="M53 0q-14 0 -14 14v113q0 78 67 123q-67 43 -67 121v116q0 13 14 13h59q13 0 13 -13v-119q0 -35 19 -56.5t51 -21.5q33 0 52 21.5t19 56.5v119q0 13 13 13h59q13 0 13 -13v-116q0 -79 -66 -121q66 -44 66 -123v-113q0 -14 -13 -14h-59q-13 0 -13 14v116q0 36 -19 57.5
t-52 21.5q-32 0 -51 -21.5t-19 -57.5v-116q0 -14 -13 -14h-59z" />
    <glyph glyph-name="y" unicode="y" horiz-adv-x="418" 
d="M349 500q14 0 14 -13v-535q0 -74 -43 -118.5t-115 -44.5q-68 0 -110.5 43.5t-46.5 117.5q-2 14 13 14h59q12 0 13 -14q2 -38 21 -58.5t51 -20.5q34 0 53 20.5t19 57.5v101q-31 -36 -79 -36q-66 0 -108.5 45.5t-42.5 116.5v311q0 13 14 13h58q14 0 14 -13v-314
q0 -35 19.5 -56.5t52.5 -21.5t52.5 21.5t19.5 56.5v314q0 13 14 13h58z" />
    <glyph glyph-name="z" unicode="z" horiz-adv-x="352" 
d="M128 81h180q14 0 14 -14v-53q0 -14 -14 -14h-244q-34 0 -34 35v19q0 24 10 41l187 324h-174q-14 0 -14 14v54q0 13 14 13h235q34 0 34 -33v-25q0 -24 -10 -41z" />
    <glyph glyph-name="braceleft" unicode="{" horiz-adv-x="284" 
d="M182 489q0 -87 -65 -136q65 -50 65 -137v-164q0 -38 20.5 -62.5t53.5 -26.5q13 -1 13 -15v-55q0 -13 -14 -13q-71 3 -115.5 51.5t-44.5 127.5v164q0 36 -18.5 58t-47.5 28q-12 1 -12 14v59q0 14 12 14q29 6 47.5 28t18.5 58v159q0 79 44.5 127.5t115.5 51.5q14 0 14 -13
v-55q0 -14 -13 -15q-33 -2 -53.5 -26.5t-20.5 -62.5v-159z" />
    <glyph glyph-name="bar" unicode="|" horiz-adv-x="198" 
d="M55 787q0 13 14 13h61q13 0 13 -13v-843q0 -14 -13 -14h-61q-14 0 -14 14v843z" />
    <glyph glyph-name="braceright" unicode="}" horiz-adv-x="284" 
d="M255 396q12 0 12 -14v-59q0 -13 -12 -14q-29 -6 -47.5 -28t-18.5 -58v-164q0 -79 -44.5 -127.5t-115.5 -51.5q-14 0 -14 13v55q0 14 13 15q33 2 53.5 26.5t20.5 62.5v164q0 87 65 137q-65 49 -65 136v159q0 38 -20.5 62.5t-53.5 26.5q-13 1 -13 15v55q0 13 14 13
q71 -3 115.5 -51.5t44.5 -127.5v-159q0 -36 18.5 -58t47.5 -28z" />
    <glyph glyph-name="asciitilde" unicode="~" horiz-adv-x="441" 
d="M367 411q9 12 17 0l27 -41q8 -9 -1 -18q-40 -53 -98 -53q-32 0 -93.5 23t-83.5 23q-35 0 -62 -33q-9 -10 -18 0l-25 43q-8 9 1 19q40 51 97 51q32 0 93.5 -23t83.5 -23q36 0 62 32z" />
    <glyph glyph-name="exclamdown" unicode="&#xa1;" horiz-adv-x="220" 
d="M110 510q23 0 39 -16t16 -39q0 -24 -16 -39.5t-39 -15.5q-24 0 -39.5 15.5t-15.5 39.5q0 23 15.5 39t39.5 16zM80 349h60q13 0 13 -14v-523q0 -13 -13 -13h-60q-14 0 -14 13v523q0 14 14 14z" />
    <glyph glyph-name="cent" unicode="&#xa2;" horiz-adv-x="385" 
d="M177 -85q-13 0 -13 13v65q-57 11 -91 54t-34 105v196q0 62 34 105.5t91 53.5v65q0 13 13 13h39q14 0 14 -13v-64q55 -10 88.5 -50t37.5 -100q0 -13 -13 -13h-60q-12 0 -13 13q-3 34 -22 52.5t-51 18.5q-33 0 -52.5 -21t-19.5 -57v-202q0 -36 19.5 -57t52.5 -21
q32 0 51 18.5t22 52.5q1 13 13 13h60q13 0 13 -14q-4 -59 -38 -99.5t-88 -49.5v-64q0 -13 -14 -13h-39z" />
    <glyph glyph-name="sterling" unicode="&#xa3;" horiz-adv-x="460" 
d="M423 84q13 0 13 -13v-57q0 -14 -13 -14h-391q-14 0 -14 14v51q0 18 20 21q44 6 44 74v150h-48q-14 0 -14 13v51q0 14 14 14h48v143q0 79 47 129.5t123 50.5q74 0 120.5 -49.5t50.5 -128.5q0 -14 -13 -14h-64q-13 0 -14 13q-3 43 -24.5 68.5t-57.5 25.5t-57.5 -25.5
t-21.5 -64.5v-148h164q13 0 13 -14v-51q0 -13 -13 -13h-164v-151q0 -44 -18 -75h270z" />
    <glyph glyph-name="currency" unicode="&#xa4;" horiz-adv-x="452" 
d="M226 93q-62 0 -105 35l-36 -44q-9 -9 -19 -2l-31 27q-11 9 -2 19l46 55q-16 32 -16 75v88q0 43 16 76l-46 54q-9 10 2 19l31 27q10 9 19 -2l36 -43q44 34 105 34t105 -34l36 43q10 11 19 2l31 -27q11 -9 2 -19l-46 -54q16 -32 16 -76v-88q0 -43 -15 -76l45 -54
q9 -10 -2 -19l-31 -27q-9 -8 -19 2l-36 44q-43 -35 -105 -35zM226 174q36 0 56.5 21.5t20.5 59.5v94q0 38 -20.5 60t-56.5 22t-56.5 -22t-20.5 -60v-94q0 -38 20.5 -59.5t56.5 -21.5z" />
    <glyph glyph-name="yen" unicode="&#xa5;" horiz-adv-x="514" 
d="M457 227h-155v-59h155q14 0 14 -13v-43q0 -13 -14 -13h-155v-85q0 -14 -13 -14h-63q-14 0 -14 14v85h-155q-14 0 -14 13v43q0 13 14 13h155v59h-155q-14 0 -14 13v43q0 14 14 14h65q-34 44 -34 97v293q0 13 14 13h63q13 0 13 -13v-297q0 -34 23 -57t56 -23q34 0 56.5 23
t22.5 57v297q0 13 14 13h63q13 0 13 -13v-293q0 -52 -35 -97h66q14 0 14 -14v-43q0 -13 -14 -13z" />
    <glyph glyph-name="brokenbar" unicode="&#xa6;" horiz-adv-x="178" 
d="M59 499q-14 0 -14 13v275q0 13 14 13h61q13 0 13 -13v-275q0 -13 -13 -13h-61zM59 -70q-14 0 -14 14v274q0 14 14 14h61q13 0 13 -14v-274q0 -14 -13 -14h-61z" />
    <glyph glyph-name="section" unicode="&#xa7;" horiz-adv-x="389" 
d="M291 239q60 -39 60 -113q0 -58 -42.5 -96.5t-109.5 -38.5q-73 0 -116.5 42.5t-45.5 102.5q0 14 13 14h60q13 0 14 -12q9 -65 74 -65q31 0 48 15t17 39q0 28 -24 48t-58.5 33.5t-68.5 30.5t-58 49t-24 78q0 67 66 101q-60 39 -60 108q0 58 42.5 96t110.5 38
q72 0 110.5 -39t41.5 -93q0 -14 -13 -14h-60q-12 0 -14 13q-7 52 -65 52q-29 0 -47.5 -14.5t-18.5 -39.5q0 -26 24.5 -44.5t59 -32.5t69 -30.5t59 -46t24.5 -70.5q0 -75 -68 -111zM211 282q25 4 43 22.5t18 44.5t-27 45t-66 29q-29 -4 -45.5 -21.5t-16.5 -40.5q0 -55 94 -79
z" />
    <glyph glyph-name="copyright" unicode="&#xa9;" horiz-adv-x="623" 
d="M251 -4q-91 0 -147.5 55.5t-56.5 144.5v305q0 91 56.5 147t147.5 56h121q91 0 147 -56t56 -147v-305q0 -89 -56 -144.5t-147 -55.5h-121zM251 49h121q70 0 108.5 39t38.5 108v305q0 71 -38.5 110.5t-108.5 39.5h-121q-70 0 -108.5 -39.5t-38.5 -110.5v-305
q0 -69 38.5 -108t108.5 -39zM311 135q-58 0 -93.5 36.5t-35.5 96.5v163q0 60 35.5 96.5t92.5 36.5q55 0 90 -34.5t38 -91.5q2 -11 -10 -11h-49q-9 0 -11 11q-3 28 -18.5 43.5t-39.5 15.5q-28 0 -43 -17t-15 -46v-170q0 -29 15 -45t43 -16q52 0 60 60q0 11 10 11h50
q12 0 10 -12q-3 -58 -38.5 -92.5t-90.5 -34.5z" />
    <glyph glyph-name="guillemotleft" unicode="&#xab;" horiz-adv-x="429" 
d="M149 83q-11 0 -16 8l-103 138q-21 28 0 56l103 138q5 8 16 8h60q8 0 10.5 -5t-2.5 -11l-120 -158l120 -158q5 -6 2.5 -11t-10.5 -5h-60zM324 83q-11 0 -16 8l-103 138q-21 28 0 56l103 138q5 8 16 8h60q8 0 10.5 -5t-2.5 -11l-120 -158l120 -158q5 -6 2.5 -11t-10.5 -5
h-60z" />
    <glyph glyph-name="logicalnot" unicode="&#xac;" horiz-adv-x="467" 
d="M411 399q13 0 13 -14v-134q0 -13 -13 -13h-50q-14 0 -14 13v69h-290q-14 0 -14 14v51q0 14 14 14h354z" />
    <glyph glyph-name="registered" unicode="&#xae;" horiz-adv-x="430" 
d="M155 261q-48 0 -80.5 32.5t-32.5 80.5v217q0 48 32.5 80.5t80.5 32.5h120q48 0 80 -32.5t32 -80.5v-217q0 -48 -32 -80.5t-80 -32.5h-120zM155 292h120q34 0 56.5 23t22.5 58v218q0 35 -22.5 58t-56.5 23h-120q-35 0 -57.5 -23t-22.5 -58v-218q0 -35 23 -58t57 -23z
M146 343q-6 0 -6 5v209q0 34 20.5 55t53.5 21t53.5 -21t20.5 -55v-31q0 -47 -37 -67l44 -110q1 -6 -5 -6h-32q-5 0 -6 4l-38 103h-32v-102q0 -5 -6 -5h-30zM182 487h31q16 0 25 10t9 27v34q0 16 -9 26t-23 10q-33 0 -33 -36v-71z" />
    <glyph glyph-name="degree" unicode="&#xb0;" horiz-adv-x="296" 
d="M19 578q0 59 35.5 96t93.5 37t93.5 -37t35.5 -96q0 -61 -35.5 -97.5t-93.5 -36.5t-93.5 36.5t-35.5 97.5zM83 578q0 -33 18 -53t47 -20t47 20t18 53q0 32 -18 52t-47 20t-47 -20t-18 -52z" />
    <glyph glyph-name="plusminus" unicode="&#xb1;" horiz-adv-x="467" 
d="M411 436q13 0 13 -14v-52q0 -13 -13 -13h-138v-132q0 -12 -13 -14h-52q-14 0 -14 14v132h-137q-14 0 -14 13v52q0 14 14 14h137v132q0 13 14 13h51q14 0 14 -14v-131h138zM411 173q13 0 13 -13v-52q0 -14 -13 -14h-354q-14 0 -14 14v52q0 13 14 13h354z" />
    <glyph glyph-name="paragraph" unicode="&#xb6;" horiz-adv-x="493" 
d="M393 702q40 0 40 -41v-747q0 -13 -13 -13h-61q-13 0 -13 13v706h-85v-706q0 -13 -13 -13h-61q-13 0 -13 13v471q-73 0 -117.5 42.5t-44.5 115.5t44.5 116t117.5 43h219z" />
    <glyph glyph-name="periodcentered" unicode="&#xb7;" horiz-adv-x="161" 
d="M67 198q-24 0 -40 16t-16 40q0 25 16 40.5t40 15.5t40.5 -16t16.5 -40t-16.5 -40t-40.5 -16z" />
    <glyph glyph-name="guillemotright" unicode="&#xbb;" horiz-adv-x="430" 
d="M105 83h-60q-8 0 -10.5 5t2.5 11l120 158l-120 158q-5 6 -2.5 11t10.5 5h60q11 0 16 -8l103 -138q21 -28 0 -56l-103 -138q-5 -8 -16 -8zM280 83h-60q-8 0 -10.5 5t2.5 11l120 158l-120 158q-5 6 -2.5 11t10.5 5h60q11 0 16 -8l103 -138q21 -28 0 -56l-103 -138
q-5 -8 -16 -8z" />
    <glyph glyph-name="questiondown" unicode="&#xbf;" horiz-adv-x="336" 
d="M182 510q24 0 39.5 -16t15.5 -39q0 -24 -15.5 -39.5t-39.5 -15.5t-39.5 15.5t-15.5 39.5q0 23 15.5 39t39.5 16zM213 346q13 0 13 -14v-44q0 -49 -13.5 -88t-33 -65t-39 -50t-33 -54.5t-13.5 -67.5q0 -42 21 -68t57 -26q35 0 56 25.5t23 72.5q0 13 14 13h58q13 0 13 -14
q-4 -80 -48.5 -128.5t-113.5 -48.5q-73 0 -119.5 47.5t-46.5 122.5q0 47 13.5 85t33 64t39 51t33 58.5t13.5 74.5v40q0 14 14 14h59z" />
    <glyph glyph-name="Agrave" unicode="&#xc0;" horiz-adv-x="451" 
d="M289 769h-41q-12 0 -17 8l-79 90q-6 7 -3.5 12t10.5 5h57q12 0 17 -8l65 -91q5 -6 2 -11t-11 -5zM67 0q-13 0 -13 14v512q0 83 47 133.5t124 50.5t124.5 -50.5t47.5 -133.5v-512q0 -14 -14 -14h-63q-14 0 -14 14v222h-162v-222q0 -14 -13 -14h-64zM144 319h162v211
q0 45 -21 70t-60 25q-38 0 -59.5 -25t-21.5 -70v-211z" />
    <glyph glyph-name="Aacute" unicode="&#xc1;" horiz-adv-x="451" 
d="M185 769q-8 0 -11 5t2 11l65 91q5 8 17 8h57q8 0 10.5 -5t-3.5 -12l-79 -90q-5 -8 -17 -8h-41zM67 0q-13 0 -13 14v512q0 83 47 133.5t124 50.5t124.5 -50.5t47.5 -133.5v-512q0 -14 -14 -14h-63q-14 0 -14 14v222h-162v-222q0 -14 -13 -14h-64zM144 319h162v211
q0 45 -21 70t-60 25q-38 0 -59.5 -25t-21.5 -70v-211z" />
    <glyph glyph-name="Acircumflex" unicode="&#xc2;" horiz-adv-x="451" 
d="M342 785q4 -7 2 -11.5t-10 -4.5h-41q-10 0 -16 7l-52 61l-52 -61q-6 -7 -16 -7h-41q-8 0 -10 4.5t2 11.5l69 91q6 8 17 8h62q11 0 17 -8zM67 0q-13 0 -13 14v512q0 83 47 133.5t124 50.5t124.5 -50.5t47.5 -133.5v-512q0 -14 -14 -14h-63q-14 0 -14 14v222h-162v-222
q0 -14 -13 -14h-64zM144 319h162v211q0 45 -21 70t-60 25q-38 0 -59.5 -25t-21.5 -70v-211z" />
    <glyph glyph-name="Atilde" unicode="&#xc3;" horiz-adv-x="451" 
d="M189 802q-13 0 -17 -16q-4 -12 -15 -12h-33q-14 0 -14 13q3 29 22 51.5t51 22.5q22 0 46 -15t31 -15q13 0 18 16q4 13 14 13h34q13 0 13 -14q-2 -30 -22 -51.5t-50 -21.5q-21 0 -45.5 14.5t-32.5 14.5zM67 0q-13 0 -13 14v512q0 83 47 133.5t124 50.5t124.5 -50.5
t47.5 -133.5v-512q0 -14 -14 -14h-63q-14 0 -14 14v222h-162v-222q0 -14 -13 -14h-64zM144 319h162v211q0 45 -21 70t-60 25q-38 0 -59.5 -25t-21.5 -70v-211z" />
    <glyph glyph-name="Adieresis" unicode="&#xc4;" horiz-adv-x="451" 
d="M166 775q-20 0 -32 12t-12 32t12 32t32 12t32 -12.5t12 -31.5t-12 -31.5t-32 -12.5zM284 775q-20 0 -32 12.5t-12 31.5t12 31.5t32 12.5t32 -12.5t12 -31.5t-12 -31.5t-32 -12.5zM67 0q-13 0 -13 14v512q0 83 47 133.5t124 50.5t124.5 -50.5t47.5 -133.5v-512
q0 -14 -14 -14h-63q-14 0 -14 14v222h-162v-222q0 -14 -13 -14h-64zM144 319h162v211q0 45 -21 70t-60 25q-38 0 -59.5 -25t-21.5 -70v-211z" />
    <glyph glyph-name="Aring" unicode="&#xc5;" horiz-adv-x="451" 
d="M149 825q0 32 20.5 51.5t54.5 19.5q33 0 53.5 -19.5t20.5 -51.5q0 -33 -20.5 -53t-53.5 -20q-34 0 -54.5 20t-20.5 53zM197 824q0 -27 27 -27q12 0 19.5 7.5t7.5 19.5t-7.5 19.5t-19.5 7.5q-27 0 -27 -27zM67 0q-13 0 -13 14v512q0 83 47 133.5t124 50.5t124.5 -50.5
t47.5 -133.5v-512q0 -14 -14 -14h-63q-14 0 -14 14v222h-162v-222q0 -14 -13 -14h-64zM144 319h162v211q0 45 -21 70t-60 25q-38 0 -59.5 -25t-21.5 -70v-211z" />
    <glyph glyph-name="AE" unicode="&#xc6;" horiz-adv-x="607" 
d="M67 0q-13 0 -13 14v521q0 77 46 125.5t119 48.5q72 0 122 -64q49 61 124 61h93q14 0 14 -14v-56q0 -14 -14 -14h-86q-42 0 -64.5 -24t-22.5 -68v-143h145q13 0 13 -14v-53q0 -14 -13 -14h-145v-131q0 -45 22.5 -69.5t64.5 -24.5h93q13 0 13 -14v-57q0 -13 -13 -13h-100
q-78 0 -125 48t-47 128v131h-149v-290q0 -14 -13 -14h-64zM144 387h149v152q0 39 -20 62.5t-54 23.5t-54.5 -23.5t-20.5 -62.5v-152z" />
    <glyph glyph-name="Ccedilla" unicode="&#xc7;" horiz-adv-x="410" 
d="M387 187q-3 -84 -43.5 -136.5t-108.5 -60.5l-6 -34h6q31 -2 52.5 -23t21.5 -52q0 -40 -26 -62.5t-68 -22.5q-37 0 -62 19t-29 54q-2 13 13 13h27q9 0 14 -11q8 -23 37 -23q17 0 28 9t11 24q0 13 -10.5 22t-27.5 9q-13 0 -35 -4q-5 -2 -9 2l-3 3q-5 5 -4 10l14 69
q-62 11 -99 58.5t-37 118.5v362q0 81 47 130.5t124 49.5q74 0 120 -52.5t48 -139.5q0 -13 -13 -13h-64q-13 0 -13 13q-1 52 -22.5 79.5t-56.5 27.5q-37 0 -58 -24t-21 -66v-372q0 -42 21 -66t58 -24q38 0 60.5 29.5t23.5 84.5q0 13 13 13h64q13 0 13 -14z" />
    <glyph glyph-name="Egrave" unicode="&#xc8;" horiz-adv-x="361" 
d="M269 769h-41q-12 0 -17 8l-79 90q-6 7 -3.5 12t10.5 5h57q12 0 17 -8l65 -91q5 -6 2 -11t-11 -5zM214 -3q-75 0 -123 50.5t-48 128.5v348q0 78 48 128.5t123 50.5h105q13 0 13 -13v-57q0 -14 -13 -14h-98q-39 0 -63 -27t-24 -70v-127h160q14 0 14 -14v-54q0 -14 -14 -14
h-160v-135q0 -43 24 -70t63 -27h98q13 0 13 -14v-57q0 -13 -13 -13h-105z" />
    <glyph glyph-name="Eacute" unicode="&#xc9;" horiz-adv-x="361" 
d="M165 769q-8 0 -11 5t2 11l65 91q5 8 17 8h57q8 0 10.5 -5t-3.5 -12l-79 -90q-5 -8 -17 -8h-41zM214 -3q-75 0 -123 50.5t-48 128.5v348q0 78 48 128.5t123 50.5h105q13 0 13 -13v-57q0 -14 -13 -14h-98q-39 0 -63 -27t-24 -70v-127h160q14 0 14 -14v-54q0 -14 -14 -14
h-160v-135q0 -43 24 -70t63 -27h98q13 0 13 -14v-57q0 -13 -13 -13h-105z" />
    <glyph glyph-name="Ecircumflex" unicode="&#xca;" horiz-adv-x="361" 
d="M322 785q4 -7 2 -11.5t-10 -4.5h-41q-10 0 -16 7l-52 61l-52 -61q-6 -7 -16 -7h-41q-8 0 -10 4.5t2 11.5l69 91q6 8 17 8h62q11 0 17 -8zM214 -3q-75 0 -123 50.5t-48 128.5v348q0 78 48 128.5t123 50.5h105q13 0 13 -13v-57q0 -14 -13 -14h-98q-39 0 -63 -27t-24 -70
v-127h160q14 0 14 -14v-54q0 -14 -14 -14h-160v-135q0 -43 24 -70t63 -27h98q13 0 13 -14v-57q0 -13 -13 -13h-105z" />
    <glyph glyph-name="Edieresis" unicode="&#xcb;" horiz-adv-x="361" 
d="M146 775q-20 0 -32 12t-12 32t12 32t32 12t32 -12.5t12 -31.5t-12 -31.5t-32 -12.5zM264 775q-20 0 -32 12.5t-12 31.5t12 31.5t32 12.5t32 -12.5t12 -31.5t-12 -31.5t-32 -12.5zM214 -3q-75 0 -123 50.5t-48 128.5v348q0 78 48 128.5t123 50.5h105q13 0 13 -13v-57
q0 -14 -13 -14h-98q-39 0 -63 -27t-24 -70v-127h160q14 0 14 -14v-54q0 -14 -14 -14h-160v-135q0 -43 24 -70t63 -27h98q13 0 13 -14v-57q0 -13 -13 -13h-105z" />
    <glyph glyph-name="Igrave" unicode="&#xcc;" horiz-adv-x="211" 
d="M170 769h-41q-12 0 -17 8l-79 90q-6 7 -3.5 12t10.5 5h57q12 0 17 -8l65 -91q5 -6 2 -11t-11 -5zM60 687q0 13 14 13h63q13 0 13 -13v-673q0 -14 -13 -14h-63q-14 0 -14 14v673z" />
    <glyph glyph-name="Iacute" unicode="&#xcd;" horiz-adv-x="225" 
d="M72 769q-8 0 -11 5t2 11l65 91q5 8 17 8h57q8 0 10.5 -5t-3.5 -12l-79 -90q-5 -8 -17 -8h-41zM68 687q0 13 14 13h63q13 0 13 -13v-673q0 -14 -13 -14h-63q-14 0 -14 14v673z" />
    <glyph glyph-name="Icircumflex" unicode="&#xce;" horiz-adv-x="265" 
d="M249 785q4 -7 2 -11.5t-10 -4.5h-41q-10 0 -16 7l-52 61l-52 -61q-6 -7 -16 -7h-41q-8 0 -10 4.5t2 11.5l69 91q6 8 17 8h62q11 0 17 -8zM88 687q0 13 14 13h63q13 0 13 -13v-673q0 -14 -13 -14h-63q-14 0 -14 14v673z" />
    <glyph glyph-name="Idieresis" unicode="&#xcf;" horiz-adv-x="226" 
d="M54 775q-20 0 -32 12t-12 32t12 32t32 12t32 -12.5t12 -31.5t-12 -31.5t-32 -12.5zM172 775q-20 0 -32 12.5t-12 31.5t12 31.5t32 12.5t32 -12.5t12 -31.5t-12 -31.5t-32 -12.5zM69 687q0 13 14 13h63q13 0 13 -13v-673q0 -14 -13 -14h-63q-14 0 -14 14v673z" />
    <glyph glyph-name="Eth" unicode="&#xd0;" horiz-adv-x="481" 
d="M267 703q78 0 124.5 -50.5t46.5 -130.5v-344q0 -80 -47 -130.5t-124 -50.5h-129q-41 0 -41 40v287h-48q-14 0 -14 13v38q0 13 14 13h48v275q0 40 41 40h129zM347 176v348q0 43 -22 69t-61 26h-76v-231h54q13 0 13 -13v-38q0 -13 -13 -13h-54v-243h76q39 0 61 26t22 69z
" />
    <glyph glyph-name="Ntilde" unicode="&#xd1;" horiz-adv-x="451" 
d="M191 802q-13 0 -17 -16q-4 -12 -15 -12h-33q-14 0 -14 13q3 29 22 51.5t51 22.5q22 0 46 -15t31 -15q13 0 18 16q4 13 14 13h34q13 0 13 -14q-2 -30 -22 -51.5t-50 -21.5q-21 0 -45.5 14.5t-32.5 14.5zM67 0q-13 0 -13 14v513q0 82 47 133t124 51t124.5 -51t47.5 -133
v-513q0 -14 -14 -14h-63q-14 0 -14 14v517q0 43 -22 69t-59 26t-59 -26t-22 -69v-517q0 -14 -13 -14h-64z" />
    <glyph glyph-name="Ograve" unicode="&#xd2;" horiz-adv-x="439" 
d="M283 769h-41q-12 0 -17 8l-79 90q-6 7 -3.5 12t10.5 5h57q12 0 17 -8l65 -91q5 -6 2 -11t-11 -5zM220 -10q-78 0 -127.5 52t-49.5 136v344q0 84 49.5 136t127.5 52t127 -51t49 -130v-358q0 -79 -49 -130t-127 -51zM220 74q38 0 61.5 26t23.5 67v366q0 41 -23.5 67
t-61.5 26q-39 0 -62.5 -27t-23.5 -73v-352q0 -46 23.5 -73t62.5 -27z" />
    <glyph glyph-name="Oacute" unicode="&#xd3;" horiz-adv-x="439" 
d="M179 769q-8 0 -11 5t2 11l65 91q5 8 17 8h57q8 0 10.5 -5t-3.5 -12l-79 -90q-5 -8 -17 -8h-41zM220 -10q-78 0 -127.5 52t-49.5 136v344q0 84 49.5 136t127.5 52t127 -51t49 -130v-358q0 -79 -49 -130t-127 -51zM220 74q38 0 61.5 26t23.5 67v366q0 41 -23.5 67t-61.5 26
q-39 0 -62.5 -27t-23.5 -73v-352q0 -46 23.5 -73t62.5 -27z" />
    <glyph glyph-name="Ocircumflex" unicode="&#xd4;" horiz-adv-x="439" 
d="M336 785q4 -7 2 -11.5t-10 -4.5h-41q-10 0 -16 7l-52 61l-52 -61q-6 -7 -16 -7h-41q-8 0 -10 4.5t2 11.5l69 91q6 8 17 8h62q11 0 17 -8zM220 -10q-78 0 -127.5 52t-49.5 136v344q0 84 49.5 136t127.5 52t127 -51t49 -130v-358q0 -79 -49 -130t-127 -51zM220 74
q38 0 61.5 26t23.5 67v366q0 41 -23.5 67t-61.5 26q-39 0 -62.5 -27t-23.5 -73v-352q0 -46 23.5 -73t62.5 -27z" />
    <glyph glyph-name="Otilde" unicode="&#xd5;" horiz-adv-x="439" 
d="M183 802q-13 0 -17 -16q-4 -12 -15 -12h-33q-14 0 -14 13q3 29 22 51.5t51 22.5q22 0 46 -15t31 -15q13 0 18 16q4 13 14 13h34q13 0 13 -14q-2 -30 -22 -51.5t-50 -21.5q-21 0 -45.5 14.5t-32.5 14.5zM220 -10q-78 0 -127.5 52t-49.5 136v344q0 84 49.5 136t127.5 52
t127 -51t49 -130v-358q0 -79 -49 -130t-127 -51zM220 74q38 0 61.5 26t23.5 67v366q0 41 -23.5 67t-61.5 26q-39 0 -62.5 -27t-23.5 -73v-352q0 -46 23.5 -73t62.5 -27z" />
    <glyph glyph-name="Odieresis" unicode="&#xd6;" horiz-adv-x="439" 
d="M160 775q-20 0 -32 12t-12 32t12 32t32 12t32 -12.5t12 -31.5t-12 -31.5t-32 -12.5zM278 775q-20 0 -32 12.5t-12 31.5t12 31.5t32 12.5t32 -12.5t12 -31.5t-12 -31.5t-32 -12.5zM220 -10q-78 0 -127.5 52t-49.5 136v344q0 84 49.5 136t127.5 52t127 -51t49 -130v-358
q0 -79 -49 -130t-127 -51zM220 74q38 0 61.5 26t23.5 67v366q0 41 -23.5 67t-61.5 26q-39 0 -62.5 -27t-23.5 -73v-352q0 -46 23.5 -73t62.5 -27z" />
    <glyph glyph-name="multiply" unicode="&#xd7;" horiz-adv-x="467" 
d="M85 170l-36 37q-9 9 0 20l128 128l-128 128q-9 11 0 20l36 37q10 9 20 0l129 -129l128 129q10 9 20 0l36 -37q9 -9 0 -20l-128 -128l128 -128q9 -11 0 -20l-36 -37q-10 -9 -20 0l-128 129l-129 -129q-10 -9 -20 0z" />
    <glyph glyph-name="Oslash" unicode="&#xd8;" horiz-adv-x="441" 
d="M86 -45q-17 0 -12 15l21 70q-52 52 -52 138v344q0 84 49.5 136t127.5 52q39 0 69 -12l11 36q5 11 16 11h34q17 0 12 -15l-20 -66q55 -50 55 -135v-358q0 -79 -49.5 -130t-127.5 -51q-39 0 -73 14l-12 -38q-3 -11 -15 -11h-34zM143 202l121 412q-21 12 -44 12
q-39 0 -62 -27t-23 -73v-278q0 -29 8 -46zM220 74q38 0 62 26t24 67v305q0 21 -7 44l-127 -426q19 -16 48 -16z" />
    <glyph glyph-name="Ugrave" unicode="&#xd9;" horiz-adv-x="451" 
d="M286 769h-41q-12 0 -17 8l-79 90q-6 7 -3.5 12t10.5 5h57q12 0 17 -8l65 -91q5 -6 2 -11t-11 -5zM67 700h64q13 0 13 -14v-517q0 -43 22 -69t59 -26t59 26t22 69v517q0 14 14 14h63q14 0 14 -14v-513q0 -82 -47.5 -133t-124.5 -51t-124 51t-47 133v513q0 14 13 14z" />
    <glyph glyph-name="Uacute" unicode="&#xda;" horiz-adv-x="451" 
d="M182 769q-8 0 -11 5t2 11l65 91q5 8 17 8h57q8 0 10.5 -5t-3.5 -12l-79 -90q-5 -8 -17 -8h-41zM67 700h64q13 0 13 -14v-517q0 -43 22 -69t59 -26t59 26t22 69v517q0 14 14 14h63q14 0 14 -14v-513q0 -82 -47.5 -133t-124.5 -51t-124 51t-47 133v513q0 14 13 14z" />
    <glyph glyph-name="Ucircumflex" unicode="&#xdb;" horiz-adv-x="451" 
d="M339 785q4 -7 2 -11.5t-10 -4.5h-41q-10 0 -16 7l-52 61l-52 -61q-6 -7 -16 -7h-41q-8 0 -10 4.5t2 11.5l69 91q6 8 17 8h62q11 0 17 -8zM67 700h64q13 0 13 -14v-517q0 -43 22 -69t59 -26t59 26t22 69v517q0 14 14 14h63q14 0 14 -14v-513q0 -82 -47.5 -133t-124.5 -51
t-124 51t-47 133v513q0 14 13 14z" />
    <glyph glyph-name="Udieresis" unicode="&#xdc;" horiz-adv-x="451" 
d="M163 775q-20 0 -32 12t-12 32t12 32t32 12q19 0 31.5 -12.5t12.5 -31.5t-12.5 -31.5t-31.5 -12.5zM281 775q-19 0 -31.5 12.5t-12.5 31.5t12.5 31.5t31.5 12.5t31.5 -12.5t12.5 -31.5t-12.5 -31.5t-31.5 -12.5zM67 700h64q13 0 13 -14v-517q0 -43 22 -69t59 -26t59 26
t22 69v517q0 14 14 14h63q14 0 14 -14v-513q0 -82 -47.5 -133t-124.5 -51t-124 51t-47 133v513q0 14 13 14z" />
    <glyph glyph-name="Yacute" unicode="&#xdd;" horiz-adv-x="416" 
d="M168 769q-8 0 -11 5t2 11l65 91q5 8 17 8h57q8 0 10.5 -5t-3.5 -12l-79 -90q-5 -8 -17 -8h-41zM177 0q-14 0 -14 14v215q-56 14 -90.5 61t-34.5 112v285q0 13 14 13h63q14 0 14 -13v-289q0 -40 21.5 -65.5t57.5 -25.5t58 26t22 65v289q0 13 13 13h63q14 0 14 -13v-285
q0 -65 -34 -112.5t-91 -60.5v-215q0 -14 -13 -14h-63z" />
    <glyph glyph-name="Thorn" unicode="&#xde;" horiz-adv-x="417" 
d="M74 0q-14 0 -14 14v673q0 13 14 13h63q14 0 14 -13v-116h74q71 0 118.5 -48t47.5 -120v-105q0 -72 -47.5 -120t-118.5 -48h-74v-116q0 -14 -14 -14h-63zM151 214h71q34 0 56 22.5t22 57.5v113q0 36 -22 58.5t-56 22.5h-71v-274z" />
    <glyph glyph-name="germandbls" unicode="&#xdf;" horiz-adv-x="406" 
d="M67 0q-13 0 -13 14v539q0 69 42.5 113.5t107.5 44.5t108.5 -44.5t43.5 -113.5l-1 -79q0 -57 -58 -103q35 -21 56.5 -54t21.5 -73v-84q0 -69 -45.5 -115t-113.5 -47h-35q-12 0 -12 12v57q0 13 12 13h35q31 0 52 22t21 55v90q0 33 -21 55.5t-51 22.5h-37q-11 0 -11 12v55
q0 12 11 12h25q27 0 46 19t19 45v88q0 32 -19 52.5t-47 20.5q-27 0 -45.5 -20.5t-18.5 -52.5l-1 -542q0 -14 -14 -14h-58z" />
    <glyph glyph-name="agrave" unicode="&#xe0;" horiz-adv-x="389" 
d="M104 677h56q11 0 16 -10l57 -92q4 -7 1.5 -11.5t-10.5 -4.5h-41q-12 0 -17 8l-70 93q-5 7 -3 12t11 5zM194 -10q-72 0 -117 45t-45 116q0 63 44 105t114 42h75v55q0 34 -19.5 55t-52.5 21q-31 0 -48.5 -18.5t-19.5 -50.5q-1 -12 -14 -12h-58q-13 0 -13 14
q5 66 46.5 107.5t107.5 41.5q70 0 113 -45.5t43 -116.5v-201q0 -70 -42.5 -114t-113.5 -44zM193 72q34 0 53 20.5t19 55.5v73h-72q-34 0 -54.5 -20t-20.5 -50q0 -36 20 -57.5t55 -21.5z" />
    <glyph glyph-name="aacute" unicode="&#xe1;" horiz-adv-x="389" 
d="M270 677q9 0 11 -5t-3 -12l-70 -93q-5 -8 -17 -8h-41q-8 0 -10.5 4.5t1.5 11.5l57 92q5 10 16 10h56zM194 -10q-72 0 -117 45t-45 116q0 63 44 105t114 42h75v55q0 34 -19.5 55t-52.5 21q-31 0 -48.5 -18.5t-19.5 -50.5q-1 -12 -14 -12h-58q-13 0 -13 14q5 66 46.5 107.5
t107.5 41.5q70 0 113 -45.5t43 -116.5v-201q0 -70 -42.5 -114t-113.5 -44zM193 72q34 0 53 20.5t19 55.5v73h-72q-34 0 -54.5 -20t-20.5 -50q0 -36 20 -57.5t55 -21.5z" />
    <glyph glyph-name="acircumflex" unicode="&#xe2;" horiz-adv-x="389" 
d="M92 559q-8 0 -11 5t2 11l65 93q5 9 16 9h59q11 0 16 -9l65 -93q5 -6 2 -11t-11 -5h-39q-12 0 -17 8l-45 57l-45 -57q-5 -8 -17 -8h-40zM194 -10q-72 0 -117 45t-45 116q0 63 44 105t114 42h75v55q0 34 -19.5 55t-52.5 21q-31 0 -48.5 -18.5t-19.5 -50.5q-1 -12 -14 -12
h-58q-13 0 -13 14q5 66 46.5 107.5t107.5 41.5q70 0 113 -45.5t43 -116.5v-201q0 -70 -42.5 -114t-113.5 -44zM193 72q34 0 53 20.5t19 55.5v73h-72q-34 0 -54.5 -20t-20.5 -50q0 -36 20 -57.5t55 -21.5z" />
    <glyph glyph-name="atilde" unicode="&#xe3;" horiz-adv-x="389" 
d="M156 602q-13 0 -17 -16q-5 -12 -15 -12h-33q-14 0 -14 13q3 29 22 51.5t51 22.5q22 0 46 -15t31 -15q13 0 18 16q4 13 14 13h34q13 0 13 -14q-2 -30 -22 -51.5t-50 -21.5q-21 0 -45.5 14.5t-32.5 14.5zM194 -10q-72 0 -117 45t-45 116q0 63 44 105t114 42h75v55
q0 34 -19.5 55t-52.5 21q-31 0 -48.5 -18.5t-19.5 -50.5q-1 -12 -14 -12h-58q-13 0 -13 14q5 66 46.5 107.5t107.5 41.5q70 0 113 -45.5t43 -116.5v-201q0 -70 -42.5 -114t-113.5 -44zM193 72q34 0 53 20.5t19 55.5v73h-72q-34 0 -54.5 -20t-20.5 -50q0 -36 20 -57.5
t55 -21.5z" />
    <glyph glyph-name="adieresis" unicode="&#xe4;" horiz-adv-x="389" 
d="M135 568q-20 0 -32 12t-12 32t12 32t32 12q19 0 31.5 -12t12.5 -32t-12.5 -32t-31.5 -12zM253 568q-19 0 -31.5 12t-12.5 32t12.5 32t31.5 12t31.5 -12t12.5 -32t-12.5 -32t-31.5 -12zM194 -10q-72 0 -117 45t-45 116q0 63 44 105t114 42h75v55q0 34 -19.5 55t-52.5 21
q-31 0 -48.5 -18.5t-19.5 -50.5q-1 -12 -14 -12h-58q-13 0 -13 14q5 66 46.5 107.5t107.5 41.5q70 0 113 -45.5t43 -116.5v-201q0 -70 -42.5 -114t-113.5 -44zM193 72q34 0 53 20.5t19 55.5v73h-72q-34 0 -54.5 -20t-20.5 -50q0 -36 20 -57.5t55 -21.5z" />
    <glyph glyph-name="aring" unicode="&#xe5;" horiz-adv-x="389" 
d="M119 620q0 32 20.5 51.5t54.5 19.5q33 0 53.5 -19.5t20.5 -51.5q0 -33 -20.5 -53t-53.5 -20q-34 0 -54.5 20t-20.5 53zM167 619q0 -27 27 -27q12 0 19.5 7.5t7.5 19.5t-7.5 19.5t-19.5 7.5q-27 0 -27 -27zM194 -10q-72 0 -117 45t-45 116q0 63 44 105t114 42h75v55
q0 34 -19.5 55t-52.5 21q-31 0 -48.5 -18.5t-19.5 -50.5q-1 -12 -14 -12h-58q-13 0 -13 14q5 66 46.5 107.5t107.5 41.5q70 0 113 -45.5t43 -116.5v-201q0 -70 -42.5 -114t-113.5 -44zM193 72q34 0 53 20.5t19 55.5v73h-72q-34 0 -54.5 -20t-20.5 -50q0 -36 20 -57.5
t55 -21.5z" />
    <glyph glyph-name="ae" unicode="&#xe6;" horiz-adv-x="600" 
d="M189 -11q-70 0 -113.5 43.5t-43.5 111.5q0 63 45.5 105.5t113.5 42.5h66v61q0 33 -19 54.5t-48 21.5q-28 0 -46.5 -18.5t-20.5 -48.5q0 -12 -13 -12h-58q-14 0 -14 14q5 65 47.5 106t105.5 41q66 0 109 -60q46 60 113 60q69 0 112 -42t43 -110q0 -64 -44 -105.5
t-116 -41.5h-65v-63q0 -36 18.5 -57t51.5 -21q61 0 67 74q1 13 14 13h58q14 0 14 -13q-5 -71 -46 -113.5t-108 -42.5q-70 0 -110 59q-42 -59 -113 -59zM343 290h65q36 0 55 18.5t19 49.5q0 71 -69 71q-32 0 -51 -21t-19 -55v-63zM187 71q33 0 51.5 21t18.5 56v67h-64
q-33 0 -54 -20.5t-21 -50.5q0 -33 18.5 -53t50.5 -20z" />
    <glyph glyph-name="ccedilla" unicode="&#xe7;" horiz-adv-x="385" 
d="M356 148q-4 -65 -40.5 -107.5t-94.5 -50.5l-6 -34h6q31 -2 52.5 -23t21.5 -52q0 -40 -26 -62.5t-68 -22.5q-37 0 -62 19t-29 54q-2 13 13 13h27q9 0 14 -11q8 -23 37 -23q17 0 28 9t11 24q0 13 -10.5 22t-27.5 9q-13 0 -35 -4q-5 -2 -9 2l-3 3q-5 5 -4 10l14 69
q-57 11 -91.5 54t-34.5 106v196q0 72 43.5 117.5t113.5 45.5q67 0 109 -42t47 -111q2 -13 -13 -13h-59q-13 0 -14 13q-3 34 -21 52.5t-49 18.5q-33 0 -52 -21.5t-19 -56.5v-202q0 -36 19.5 -57t52.5 -21q31 0 50.5 20.5t22.5 57.5q1 14 13 14h60q13 0 13 -15z" />
    <glyph glyph-name="egrave" unicode="&#xe8;" horiz-adv-x="390" 
d="M106 677h56q11 0 16 -10l57 -92q4 -7 1.5 -11.5t-10.5 -4.5h-41q-12 0 -17 8l-70 93q-5 7 -3 12t11 5zM197 -10q-71 0 -114.5 45t-43.5 118v196q1 72 44.5 116.5t114.5 44.5q70 1 115 -44t45 -114q0 -66 -44 -108.5t-115 -42.5h-74v-52q0 -35 19.5 -56.5t53.5 -21.5
q30 0 49.5 20.5t21.5 53.5q1 13 14 13h59q13 0 13 -13q-4 -70 -47.5 -112.5t-110.5 -42.5zM125 279h74q34 0 53.5 19.5t19.5 51.5q0 36 -20 57.5t-54 21.5q-35 0 -54 -21t-19 -58v-71z" />
    <glyph glyph-name="eacute" unicode="&#xe9;" horiz-adv-x="390" 
d="M272 677q9 0 11 -5t-3 -12l-70 -93q-5 -8 -17 -8h-41q-8 0 -10.5 4.5t1.5 11.5l57 92q5 10 16 10h56zM197 -10q-71 0 -114.5 45t-43.5 118v196q1 72 44.5 116.5t114.5 44.5q70 1 115 -44t45 -114q0 -66 -44 -108.5t-115 -42.5h-74v-52q0 -35 19.5 -56.5t53.5 -21.5
q30 0 49.5 20.5t21.5 53.5q1 13 14 13h59q13 0 13 -13q-4 -70 -47.5 -112.5t-110.5 -42.5zM125 279h74q34 0 53.5 19.5t19.5 51.5q0 36 -20 57.5t-54 21.5q-35 0 -54 -21t-19 -58v-71z" />
    <glyph glyph-name="ecircumflex" unicode="&#xea;" horiz-adv-x="390" 
d="M94 559q-8 0 -11 5t2 11l65 93q5 9 16 9h59q11 0 16 -9l65 -93q5 -6 2 -11t-11 -5h-39q-12 0 -17 8l-45 57l-45 -57q-5 -8 -17 -8h-40zM197 -10q-71 0 -114.5 45t-43.5 118v196q1 72 44.5 116.5t114.5 44.5q70 1 115 -44t45 -114q0 -66 -44 -108.5t-115 -42.5h-74v-52
q0 -35 19.5 -56.5t53.5 -21.5q30 0 49.5 20.5t21.5 53.5q1 13 14 13h59q13 0 13 -13q-4 -70 -47.5 -112.5t-110.5 -42.5zM125 279h74q34 0 53.5 19.5t19.5 51.5q0 36 -20 57.5t-54 21.5q-35 0 -54 -21t-19 -58v-71z" />
    <glyph glyph-name="edieresis" unicode="&#xeb;" horiz-adv-x="390" 
d="M137 568q-20 0 -32 12t-12 32t12 32t32 12q19 0 31.5 -12t12.5 -32t-12.5 -32t-31.5 -12zM255 568q-19 0 -31.5 12t-12.5 32t12.5 32t31.5 12t31.5 -12t12.5 -32t-12.5 -32t-31.5 -12zM197 -10q-71 0 -114.5 45t-43.5 118v196q1 72 44.5 116.5t114.5 44.5q70 1 115 -44
t45 -114q0 -66 -44 -108.5t-115 -42.5h-74v-52q0 -35 19.5 -56.5t53.5 -21.5q30 0 49.5 20.5t21.5 53.5q1 13 14 13h59q13 0 13 -13q-4 -70 -47.5 -112.5t-110.5 -42.5zM125 279h74q34 0 53.5 19.5t19.5 51.5q0 36 -20 57.5t-54 21.5q-35 0 -54 -21t-19 -58v-71z" />
    <glyph glyph-name="igrave" unicode="&#xec;" horiz-adv-x="196" 
d="M8 677h56q11 0 16 -10l57 -92q4 -7 1.5 -11.5t-10.5 -4.5h-41q-12 0 -17 8l-70 93q-5 7 -3 12t11 5zM69 0q-14 0 -14 14v473q0 13 14 13h58q14 0 14 -13v-473q0 -14 -14 -14h-58z" />
    <glyph glyph-name="iacute" unicode="&#xed;" horiz-adv-x="196" 
d="M174 677q9 0 11 -5t-3 -12l-70 -93q-5 -8 -17 -8h-41q-8 0 -10.5 4.5t1.5 11.5l57 92q5 10 16 10h56zM69 0q-14 0 -14 14v473q0 13 14 13h58q14 0 14 -13v-473q0 -14 -14 -14h-58z" />
    <glyph glyph-name="icircumflex" unicode="&#xee;" horiz-adv-x="226" 
d="M25 559q-8 0 -11 5t2 11l65 93q5 9 16 9h59q11 0 16 -9l65 -93q5 -6 2 -11t-11 -5h-39q-12 0 -17 8l-45 57l-45 -57q-5 -8 -17 -8h-40zM98 0q-14 0 -14 14v473q0 13 14 13h58q14 0 14 -13v-473q0 -14 -14 -14h-58z" />
    <glyph glyph-name="idieresis" unicode="&#xef;" horiz-adv-x="201" 
d="M48 570q-18 0 -29 11t-12 30q1 19 12 30t29 11t30 -11.5t12 -29.5t-12 -29.5t-30 -11.5zM155 570q-19 0 -30.5 11t-11.5 30t11.5 30t30.5 11q17 0 28.5 -11t11.5 -30t-11.5 -30t-28.5 -11zM72 0q-14 0 -14 14v473q0 13 14 13h58q14 0 14 -13v-473q0 -14 -14 -14h-58z" />
    <glyph glyph-name="eth" unicode="&#xf0;" horiz-adv-x="413" 
d="M319 627q38 -53 38 -133v-340q0 -73 -43.5 -119t-115.5 -46t-115.5 46t-43.5 119v191q0 72 41 117t109 45q51 0 83 -37v30q0 49 -25 83l-82 -49q-6 -4 -9.5 -0.5t-3.5 10.5v25q0 9 10 14l51 31q-29 18 -70 18h-24q-13 0 -13 14v51q0 13 13 13h25q88 0 145 -49l53 32
q6 3 9.5 -0.5t3.5 -9.5v-25q0 -8 -10 -15zM272 151v197q0 35 -20 56.5t-54 21.5t-53.5 -21.5t-19.5 -56.5v-197q0 -37 19.5 -58.5t53.5 -21.5q35 0 54.5 21.5t19.5 58.5z" />
    <glyph glyph-name="ntilde" unicode="&#xf1;" horiz-adv-x="406" 
d="M165 602q-13 0 -17 -16q-4 -12 -15 -12h-33q-14 0 -14 13q3 29 22 51.5t51 22.5q22 0 46 -15t31 -15q13 0 18 16q4 13 14 13h34q13 0 13 -14q-2 -30 -22 -51.5t-50 -21.5q-21 0 -45.5 14.5t-32.5 14.5zM61 0q-14 0 -14 14v334q0 72 43.5 117.5t112.5 45.5t112.5 -45.5
t43.5 -117.5v-334q0 -14 -14 -14h-58q-14 0 -14 14v337q0 36 -18.5 57.5t-51.5 21.5t-51.5 -21.5t-18.5 -57.5v-337q0 -14 -14 -14h-58z" />
    <glyph glyph-name="ograve" unicode="&#xf2;" horiz-adv-x="399" 
d="M110 677h56q11 0 16 -10l57 -92q4 -7 1.5 -11.5t-10.5 -4.5h-41q-12 0 -17 8l-70 93q-5 7 -3 12t11 5zM199 -11q-72 0 -116 45.5t-44 117.5v196q0 72 44 117.5t116 45.5t116 -45.5t44 -117.5v-196q0 -72 -44 -117.5t-116 -45.5zM199 70q34 0 54 21.5t20 57.5v202
q0 36 -20 57.5t-54 21.5t-53.5 -21.5t-19.5 -57.5v-202q0 -36 19.5 -57.5t53.5 -21.5z" />
    <glyph glyph-name="oacute" unicode="&#xf3;" horiz-adv-x="399" 
d="M276 677q9 0 11 -5t-3 -12l-70 -93q-5 -8 -17 -8h-41q-8 0 -10.5 4.5t1.5 11.5l57 92q5 10 16 10h56zM199 -11q-72 0 -116 45.5t-44 117.5v196q0 72 44 117.5t116 45.5t116 -45.5t44 -117.5v-196q0 -72 -44 -117.5t-116 -45.5zM199 70q34 0 54 21.5t20 57.5v202
q0 36 -20 57.5t-54 21.5t-53.5 -21.5t-19.5 -57.5v-202q0 -36 19.5 -57.5t53.5 -21.5z" />
    <glyph glyph-name="ocircumflex" unicode="&#xf4;" horiz-adv-x="399" 
d="M98 559q-8 0 -11 5t2 11l65 93q5 9 16 9h59q11 0 16 -9l65 -93q5 -6 2 -11t-11 -5h-39q-12 0 -17 8l-45 57l-45 -57q-5 -8 -17 -8h-40zM199 -11q-72 0 -116 45.5t-44 117.5v196q0 72 44 117.5t116 45.5t116 -45.5t44 -117.5v-196q0 -72 -44 -117.5t-116 -45.5zM199 70
q34 0 54 21.5t20 57.5v202q0 36 -20 57.5t-54 21.5t-53.5 -21.5t-19.5 -57.5v-202q0 -36 19.5 -57.5t53.5 -21.5z" />
    <glyph glyph-name="otilde" unicode="&#xf5;" horiz-adv-x="399" 
d="M162 602q-13 0 -17 -16q-5 -12 -15 -12h-33q-14 0 -14 13q3 29 22 51.5t51 22.5q22 0 46 -15t31 -15q13 0 18 16q4 13 14 13h34q13 0 13 -14q-2 -30 -22 -51.5t-50 -21.5q-21 0 -45.5 14.5t-32.5 14.5zM199 -11q-72 0 -116 45.5t-44 117.5v196q0 72 44 117.5t116 45.5
t116 -45.5t44 -117.5v-196q0 -72 -44 -117.5t-116 -45.5zM199 70q34 0 54 21.5t20 57.5v202q0 36 -20 57.5t-54 21.5t-53.5 -21.5t-19.5 -57.5v-202q0 -36 19.5 -57.5t53.5 -21.5z" />
    <glyph glyph-name="odieresis" unicode="&#xf6;" horiz-adv-x="399" 
d="M141 568q-20 0 -32 12t-12 32t12 32t32 12q19 0 31.5 -12t12.5 -32t-12.5 -32t-31.5 -12zM259 568q-19 0 -31.5 12t-12.5 32t12.5 32t31.5 12t31.5 -12t12.5 -32t-12.5 -32t-31.5 -12zM199 -11q-72 0 -116 45.5t-44 117.5v196q0 72 44 117.5t116 45.5t116 -45.5
t44 -117.5v-196q0 -72 -44 -117.5t-116 -45.5zM199 70q34 0 54 21.5t20 57.5v202q0 36 -20 57.5t-54 21.5t-53.5 -21.5t-19.5 -57.5v-202q0 -36 19.5 -57.5t53.5 -21.5z" />
    <glyph glyph-name="divide" unicode="&#xf7;" horiz-adv-x="467" 
d="M234 452q-24 0 -40 16t-16 40t16 40t40 16t40 -16t16 -40t-16 -40t-40 -16zM57 319q-14 0 -14 14v51q0 14 14 14h354q13 0 13 -14v-51q0 -14 -13 -14h-354zM234 146q-24 0 -40 16t-16 40q0 25 16 41t40 16t40 -16t16 -41q0 -24 -16 -40t-40 -16z" />
    <glyph glyph-name="oslash" unicode="&#xf8;" horiz-adv-x="399" 
d="M291 485q68 -44 68 -137v-196q0 -72 -44 -117.5t-116 -45.5q-21 0 -44 5l-8 -28q-3 -11 -15 -11h-33q-17 0 -12 15l14 49q-62 46 -62 133v196q0 72 44 117.5t116 45.5q22 0 38 -4l7 27q2 11 15 11h33q15 0 12 -15zM126 149q0 -15 3 -27l86 307q-5 1 -16 1
q-34 0 -53.5 -21.5t-19.5 -57.5v-202zM273 149v202q0 21 -8 39l-88 -317q11 -3 22 -3q34 0 54 21.5t20 57.5z" />
    <glyph glyph-name="ugrave" unicode="&#xf9;" horiz-adv-x="406" 
d="M111 677h56q11 0 16 -10l57 -92q4 -7 1.5 -11.5t-10.5 -4.5h-41q-12 0 -17 8l-70 93q-5 7 -3 12t11 5zM61 500h58q14 0 14 -14v-337q0 -36 18.5 -57.5t51.5 -21.5t51.5 21.5t18.5 57.5v337q0 14 14 14h58q14 0 14 -14v-334q0 -72 -43.5 -117.5t-112.5 -45.5t-112.5 45.5
t-43.5 117.5v334q0 14 14 14z" />
    <glyph glyph-name="uacute" unicode="&#xfa;" horiz-adv-x="406" 
d="M277 677q9 0 11 -5t-3 -12l-70 -93q-5 -8 -17 -8h-41q-8 0 -10.5 4.5t1.5 11.5l57 92q5 10 16 10h56zM61 500h58q14 0 14 -14v-337q0 -36 18.5 -57.5t51.5 -21.5t51.5 21.5t18.5 57.5v337q0 14 14 14h58q14 0 14 -14v-334q0 -72 -43.5 -117.5t-112.5 -45.5t-112.5 45.5
t-43.5 117.5v334q0 14 14 14z" />
    <glyph glyph-name="ucircumflex" unicode="&#xfb;" horiz-adv-x="406" 
d="M99 559q-8 0 -11 5t2 11l65 93q5 9 16 9h59q11 0 16 -9l65 -93q5 -6 2 -11t-11 -5h-39q-12 0 -17 8l-45 57l-45 -57q-5 -8 -17 -8h-40zM61 500h58q14 0 14 -14v-337q0 -36 18.5 -57.5t51.5 -21.5t51.5 21.5t18.5 57.5v337q0 14 14 14h58q14 0 14 -14v-334
q0 -72 -43.5 -117.5t-112.5 -45.5t-112.5 45.5t-43.5 117.5v334q0 14 14 14z" />
    <glyph glyph-name="udieresis" unicode="&#xfc;" horiz-adv-x="406" 
d="M142 568q-20 0 -32 12t-12 32t12 32t32 12t32 -12t12 -32t-12 -32t-32 -12zM260 568q-20 0 -32 12t-12 32t12 32t32 12t32 -12t12 -32t-12 -32t-32 -12zM61 500h58q14 0 14 -14v-337q0 -36 18.5 -57.5t51.5 -21.5t51.5 21.5t18.5 57.5v337q0 14 14 14h58q14 0 14 -14
v-334q0 -72 -43.5 -117.5t-112.5 -45.5t-112.5 45.5t-43.5 117.5v334q0 14 14 14z" />
    <glyph glyph-name="yacute" unicode="&#xfd;" horiz-adv-x="418" 
d="M164 559q-8 0 -10.5 4.5t1.5 11.5l57 92q5 10 16 10h56q9 0 11 -5t-3 -12l-70 -93q-5 -8 -17 -8h-41zM349 500q14 0 14 -13v-535q0 -74 -43 -118.5t-115 -44.5q-68 0 -110.5 43.5t-46.5 117.5q-2 14 13 14h59q12 0 13 -14q2 -38 21 -58.5t51 -20.5q34 0 53 20.5t19 57.5
v101q-31 -36 -79 -36q-66 0 -108.5 45.5t-42.5 116.5v311q0 13 14 13h58q14 0 14 -13v-314q0 -35 19.5 -56.5t52.5 -21.5t52.5 21.5t19.5 56.5v314q0 13 14 13h58z" />
    <glyph glyph-name="thorn" unicode="&#xfe;" horiz-adv-x="409" 
d="M69 -200q-14 0 -14 13v874q0 13 14 13h58q14 0 14 -13v-213q31 37 81 37q66 0 106.5 -45.5t40.5 -117.5v-196q0 -71 -42 -117t-106 -46q-46 0 -80 37v-213q0 -13 -14 -13h-58zM212 71q33 0 52.5 21t19.5 57v202q0 36 -19.5 57t-52.5 21t-52 -21.5t-19 -56.5v-202
q0 -35 19 -56.5t52 -21.5z" />
    <glyph glyph-name="ydieresis" unicode="&#xff;" horiz-adv-x="418" 
d="M149 568q-20 0 -32 12t-12 32t12 32t32 12q19 0 31.5 -12t12.5 -32t-12.5 -32t-31.5 -12zM267 568q-19 0 -31.5 12t-12.5 32t12.5 32t31.5 12t31.5 -12t12.5 -32t-12.5 -32t-31.5 -12zM349 500q14 0 14 -13v-535q0 -74 -43 -118.5t-115 -44.5q-68 0 -110.5 43.5
t-46.5 117.5q-2 14 13 14h59q12 0 13 -14q2 -38 21 -58.5t51 -20.5q34 0 53 20.5t19 57.5v101q-31 -36 -79 -36q-66 0 -108.5 45.5t-42.5 116.5v311q0 13 14 13h58q14 0 14 -13v-314q0 -35 19.5 -56.5t52.5 -21.5t52.5 21.5t19.5 56.5v314q0 13 14 13h58z" />
    <glyph glyph-name="Amacron" unicode="&#x100;" horiz-adv-x="451" 
d="M138 837q0 13 14 13h146q13 0 13 -13v-35q0 -14 -13 -14h-146q-14 0 -14 14v35zM67 0q-13 0 -13 14v512q0 83 47 133.5t124 50.5t124.5 -50.5t47.5 -133.5v-512q0 -14 -14 -14h-63q-14 0 -14 14v222h-162v-222q0 -14 -13 -14h-64zM144 319h162v211q0 45 -21 70t-60 25
q-38 0 -59.5 -25t-21.5 -70v-211z" />
    <glyph glyph-name="amacron" unicode="&#x101;" horiz-adv-x="389" 
d="M107 636q0 13 14 13h146q13 0 13 -13v-35q0 -14 -13 -14h-146q-14 0 -14 14v35zM194 -10q-72 0 -117 45t-45 116q0 63 44 105t114 42h75v55q0 34 -19.5 55t-52.5 21q-31 0 -48.5 -18.5t-19.5 -50.5q-1 -12 -14 -12h-58q-13 0 -13 14q5 66 46.5 107.5t107.5 41.5
q70 0 113 -45.5t43 -116.5v-201q0 -70 -42.5 -114t-113.5 -44zM193 72q34 0 53 20.5t19 55.5v73h-72q-34 0 -54.5 -20t-20.5 -50q0 -36 20 -57.5t55 -21.5z" />
    <glyph glyph-name="Abreve" unicode="&#x102;" horiz-adv-x="451" 
d="M225 768q-49 0 -79.5 27t-35.5 72q-2 14 13 14h39q10 0 15 -12q6 -37 48 -37q43 0 49 37q3 12 14 12h39q14 0 14 -14q-5 -45 -36 -72t-80 -27zM67 0q-13 0 -13 14v512q0 83 47 133.5t124 50.5t124.5 -50.5t47.5 -133.5v-512q0 -14 -14 -14h-63q-14 0 -14 14v222h-162
v-222q0 -14 -13 -14h-64zM144 319h162v211q0 45 -21 70t-60 25q-38 0 -59.5 -25t-21.5 -70v-211z" />
    <glyph glyph-name="abreve" unicode="&#x103;" horiz-adv-x="389" 
d="M194 561q-49 0 -80 27t-36 73q0 14 13 14h39q12 0 15 -13q6 -36 49 -36q42 0 48 36q4 13 15 13h39q13 0 13 -14q-5 -45 -36 -72.5t-79 -27.5zM194 -10q-72 0 -117 45t-45 116q0 63 44 105t114 42h75v55q0 34 -19.5 55t-52.5 21q-31 0 -48.5 -18.5t-19.5 -50.5
q-1 -12 -14 -12h-58q-13 0 -13 14q5 66 46.5 107.5t107.5 41.5q70 0 113 -45.5t43 -116.5v-201q0 -70 -42.5 -114t-113.5 -44zM193 72q34 0 53 20.5t19 55.5v73h-72q-34 0 -54.5 -20t-20.5 -50q0 -36 20 -57.5t55 -21.5z" />
    <glyph glyph-name="Aogonek" unicode="&#x104;" horiz-adv-x="457" 
d="M367 -204q-112 0 -112 87q0 55 49 117v236h-159v-222q0 -14 -13 -14h-65q-13 0 -13 14v512q0 83 47 133.5t124 50.5t124 -50.5t47 -133.5v-512q0 -11 -12 -22q-50 -42 -50 -85q0 -40 48 -40h8q13 0 13 -13v-43q0 -14 -12 -14q-4 0 -12 -0.5t-12 -0.5zM145 319h159v211
q0 45 -21 70t-58 25q-38 0 -59 -25t-21 -70v-211z" />
    <glyph glyph-name="aogonek" unicode="&#x105;" horiz-adv-x="390" 
d="M301 -204q-60 -6 -99.5 15.5t-39.5 68.5q0 48 48 111q-9 -2 -22 -2q-70 2 -113 47t-43 114q0 63 45.5 105.5t113.5 42.5h74v55q0 34 -20 55t-51 21q-30 0 -49 -18.5t-21 -48.5q0 -12 -13 -12h-58q-15 0 -13 14q5 65 48 106t107 41q68 0 111.5 -45.5t43.5 -116.5v-221
q0 -59 -45 -104q-26 -26 -44 -61.5t-18 -59.5q0 -36 57 -36q14 0 14 -13v-45q0 -13 -13 -13zM193 71q33 0 52.5 15.5t19.5 41.5v93h-72q-32 0 -53.5 -20.5t-21.5 -50.5q0 -36 20 -57.5t55 -21.5z" />
    <glyph glyph-name="Cacute" unicode="&#x106;" horiz-adv-x="410" 
d="M169 769q-8 0 -11 5t2 11l65 91q5 8 17 8h57q8 0 10.5 -5t-3.5 -12l-79 -90q-5 -8 -17 -8h-41zM214 -11q-77 0 -124 49.5t-47 130.5v362q0 81 47 130.5t124 49.5q74 0 120 -52.5t48 -139.5q0 -13 -13 -13h-64q-13 0 -13 13q-1 52 -22.5 79.5t-56.5 27.5q-37 0 -58 -24
t-21 -66v-372q0 -42 21 -66t58 -24q38 0 60.5 29.5t23.5 84.5q0 13 13 13h64q13 0 13 -14q-3 -91 -50 -144.5t-123 -53.5z" />
    <glyph glyph-name="cacute" unicode="&#x107;" horiz-adv-x="385" 
d="M271 677q9 0 11 -5t-3 -12l-70 -93q-5 -8 -17 -8h-41q-8 0 -10.5 4.5t1.5 11.5l57 92q5 10 16 10h56zM198 -11q-71 0 -115 45.5t-44 117.5v196q0 72 43.5 117.5t113.5 45.5q67 0 109 -42t47 -111q2 -13 -13 -13h-59q-13 0 -14 13q-3 34 -21 52.5t-49 18.5
q-33 0 -52 -21.5t-19 -56.5v-202q0 -36 19.5 -57t52.5 -21q31 0 50.5 20.5t22.5 57.5q1 14 13 14h60q13 0 13 -15q-5 -71 -47.5 -115t-110.5 -44z" />
    <glyph glyph-name="Cdotaccent" unicode="&#x10a;" horiz-adv-x="410" 
d="M209 770q-22 0 -36.5 14.5t-14.5 36.5q0 23 14.5 37.5t36.5 14.5t37 -15t15 -37q0 -21 -15.5 -36t-36.5 -15zM214 -11q-77 0 -124 49.5t-47 130.5v362q0 81 47 130.5t124 49.5q74 0 120 -52.5t48 -139.5q0 -13 -13 -13h-64q-13 0 -13 13q-1 52 -22.5 79.5t-56.5 27.5
q-37 0 -58 -24t-21 -66v-372q0 -42 21 -66t58 -24q38 0 60.5 29.5t23.5 84.5q0 13 13 13h64q13 0 13 -14q-3 -91 -50 -144.5t-123 -53.5z" />
    <glyph glyph-name="cdotaccent" unicode="&#x10b;" horiz-adv-x="385" 
d="M195 563q-22 0 -36.5 14.5t-14.5 36.5q0 23 14.5 37.5t36.5 14.5t37 -15t15 -37q0 -20 -15.5 -35.5t-36.5 -15.5zM198 -11q-71 0 -115 45.5t-44 117.5v196q0 72 43.5 117.5t113.5 45.5q67 0 109 -42t47 -111q2 -13 -13 -13h-59q-13 0 -14 13q-3 34 -21 52.5t-49 18.5
q-33 0 -52 -21.5t-19 -56.5v-202q0 -36 19.5 -57t52.5 -21q31 0 50.5 20.5t22.5 57.5q1 14 13 14h60q13 0 13 -15q-5 -71 -47.5 -115t-110.5 -44z" />
    <glyph glyph-name="Ccaron" unicode="&#x10c;" horiz-adv-x="410" 
d="M325 868l-69 -91q-6 -8 -17 -8h-62q-11 0 -17 8l-69 91q-4 7 -2 11.5t10 4.5h41q10 0 16 -7l52 -61l52 61q6 7 16 7h41q8 0 10 -4.5t-2 -11.5zM214 -11q-77 0 -124 49.5t-47 130.5v362q0 81 47 130.5t124 49.5q74 0 120 -52.5t48 -139.5q0 -13 -13 -13h-64q-13 0 -13 13
q-1 52 -22.5 79.5t-56.5 27.5q-37 0 -58 -24t-21 -66v-372q0 -42 21 -66t58 -24q38 0 60.5 29.5t23.5 84.5q0 13 13 13h64q13 0 13 -14q-3 -91 -50 -144.5t-123 -53.5z" />
    <glyph glyph-name="ccaron" unicode="&#x10d;" horiz-adv-x="385" 
d="M93 677h40q12 0 17 -8l45 -57l45 57q5 8 17 8h39q8 0 11 -5t-2 -11l-65 -93q-5 -9 -16 -9h-59q-11 0 -16 9l-65 93q-5 6 -2 11t11 5zM198 -11q-71 0 -115 45.5t-44 117.5v196q0 72 43.5 117.5t113.5 45.5q67 0 109 -42t47 -111q2 -13 -13 -13h-59q-13 0 -14 13
q-3 34 -21 52.5t-49 18.5q-33 0 -52 -21.5t-19 -56.5v-202q0 -36 19.5 -57t52.5 -21q31 0 50.5 20.5t22.5 57.5q1 14 13 14h60q13 0 13 -15q-5 -71 -47.5 -115t-110.5 -44z" />
    <glyph glyph-name="Dcaron" unicode="&#x10e;" horiz-adv-x="445" 
d="M329 868l-69 -91q-6 -8 -17 -8h-62q-11 0 -17 8l-69 91q-4 7 -2 11.5t10 4.5h41q10 0 16 -7l52 -61l52 61q6 7 16 7h41q8 0 10 -4.5t-2 -11.5zM101 -3q-41 0 -41 40v626q0 40 41 40h129q78 0 124.5 -50.5t46.5 -130.5v-344q0 -80 -47 -130.5t-124 -50.5h-129zM151 81h76
q39 0 61 26t22 69v348q0 43 -22 69t-61 26h-76v-538z" />
    <glyph glyph-name="dcaron" unicode="&#x10f;" horiz-adv-x="497" 
d="M473 702q15 0 13 -15l-33 -170q-1 -12 -14 -12h-32q-13 0 -13 14l10 170q0 13 14 13h55zM344 700q14 0 14 -13v-535q0 -72 -44 -117.5t-115 -45.5t-115 45.5t-44 117.5v196q0 72 41 117.5t108 45.5q51 0 83 -37v213q0 13 14 13h58zM272 149v202q0 36 -19.5 57t-53.5 21
t-54 -21t-20 -57v-202q0 -36 20 -57t54 -21t53.5 21t19.5 57z" />
    <glyph glyph-name="Dcroat" unicode="&#x110;" horiz-adv-x="481" 
d="M267 703q78 0 124.5 -50.5t46.5 -130.5v-344q0 -80 -47 -130.5t-124 -50.5h-129q-41 0 -41 40v287h-48q-14 0 -14 13v38q0 13 14 13h48v275q0 40 41 40h129zM347 176v348q0 43 -22 69t-61 26h-76v-231h54q13 0 13 -13v-38q0 -13 -13 -13h-54v-243h76q39 0 61 26t22 69z
" />
    <glyph glyph-name="dcroat" unicode="&#x111;" horiz-adv-x="416" 
d="M398 637q13 0 13 -13v-26q0 -14 -13 -14h-40v-432q0 -72 -44 -117.5t-115 -45.5t-115 45.5t-44 117.5v196q0 72 41 117.5t108 45.5q51 0 83 -37v110h-79q-13 0 -13 14v26q0 13 13 13h79v50q0 13 14 13h58q14 0 14 -13v-50h40zM272 149v202q0 36 -19.5 57t-53.5 21
t-54 -21t-20 -57v-202q0 -36 20 -57t54 -21t53.5 21t19.5 57z" />
    <glyph glyph-name="Emacron" unicode="&#x112;" horiz-adv-x="361" 
d="M118 837q0 13 14 13h146q13 0 13 -13v-35q0 -14 -13 -14h-146q-14 0 -14 14v35zM214 -3q-75 0 -123 50.5t-48 128.5v348q0 78 48 128.5t123 50.5h105q13 0 13 -13v-57q0 -14 -13 -14h-98q-39 0 -63 -27t-24 -70v-127h160q14 0 14 -14v-54q0 -14 -14 -14h-160v-135
q0 -43 24 -70t63 -27h98q13 0 13 -14v-57q0 -13 -13 -13h-105z" />
    <glyph glyph-name="emacron" unicode="&#x113;" horiz-adv-x="390" 
d="M109 636q0 13 14 13h146q13 0 13 -13v-35q0 -14 -13 -14h-146q-14 0 -14 14v35zM197 -10q-71 0 -114.5 45t-43.5 118v196q1 72 44.5 116.5t114.5 44.5q70 1 115 -44t45 -114q0 -66 -44 -108.5t-115 -42.5h-74v-52q0 -35 19.5 -56.5t53.5 -21.5q30 0 49.5 20.5t21.5 53.5
q1 13 14 13h59q13 0 13 -13q-4 -70 -47.5 -112.5t-110.5 -42.5zM125 279h74q34 0 53.5 19.5t19.5 51.5q0 36 -20 57.5t-54 21.5q-35 0 -54 -21t-19 -58v-71z" />
    <glyph glyph-name="Edotaccent" unicode="&#x116;" horiz-adv-x="361" 
d="M205 770q-22 0 -36.5 14.5t-14.5 36.5q0 23 14.5 37.5t36.5 14.5t37 -15t15 -37q0 -21 -15.5 -36t-36.5 -15zM214 -3q-75 0 -123 50.5t-48 128.5v348q0 78 48 128.5t123 50.5h105q13 0 13 -13v-57q0 -14 -13 -14h-98q-39 0 -63 -27t-24 -70v-127h160q14 0 14 -14v-54
q0 -14 -14 -14h-160v-135q0 -43 24 -70t63 -27h98q13 0 13 -14v-57q0 -13 -13 -13h-105z" />
    <glyph glyph-name="edotaccent" unicode="&#x117;" horiz-adv-x="390" 
d="M196 563q-22 0 -36.5 14.5t-14.5 36.5q0 23 14.5 37.5t36.5 14.5t37 -15t15 -37q0 -20 -15 -35.5t-37 -15.5zM197 -10q-71 0 -114.5 45t-43.5 118v196q1 72 44.5 116.5t114.5 44.5q70 1 115 -44t45 -114q0 -66 -44 -108.5t-115 -42.5h-74v-52q0 -35 19.5 -56.5
t53.5 -21.5q30 0 49.5 20.5t21.5 53.5q1 13 14 13h59q13 0 13 -13q-4 -70 -47.5 -112.5t-110.5 -42.5zM125 279h74q34 0 53.5 19.5t19.5 51.5q0 36 -20 57.5t-54 21.5q-35 0 -54 -21t-19 -58v-71z" />
    <glyph glyph-name="Eogonek" unicode="&#x118;" horiz-adv-x="365" 
d="M221 619q-39 0 -63 -27t-24 -70v-127h160q14 0 14 -14v-54q0 -14 -14 -14h-160v-135q0 -43 24 -70t63 -27h98q13 0 13 -14v-57q0 -13 -13 -13h-28q-51 -44 -51 -90q0 -40 48 -40h8q13 0 13 -13v-43q0 -13 -12 -13q-16 -2 -24 -2q-112 0 -112 87q0 53 51 114
q-75 1 -122 51.5t-47 127.5v348q0 78 48 128.5t123 50.5h105q13 0 13 -13v-57q0 -14 -13 -14h-98z" />
    <glyph glyph-name="eogonek" unicode="&#x119;" horiz-adv-x="390" 
d="M289 -204q-52 -10 -96 13.5t-44 72.5q0 62 46 111q-11 -2 -20 0q-61 3 -98.5 48t-37.5 111v199q0 69 44 114.5t113 45.5q70 0 114 -43.5t44 -113.5q0 -68 -44.5 -110t-114.5 -42h-70v-53q0 -36 19.5 -57t53.5 -21q33 0 52 21.5t20 57.5q1 13 14 13h58q14 0 14 -14
q0 -71 -62 -129q-29 -27 -47 -58.5t-18 -54.5q0 -42 58 -40q14 0 14 -13v-45q0 -11 -12 -13zM125 280h70q33 0 53 19.5t20 53.5q0 36 -19 56t-53 20q-33 0 -52 -21t-19 -56v-72z" />
    <glyph glyph-name="Ecaron" unicode="&#x11a;" horiz-adv-x="361" 
d="M321 868l-69 -91q-6 -8 -17 -8h-62q-11 0 -17 8l-69 91q-4 7 -2 11.5t10 4.5h41q10 0 16 -7l52 -61l52 61q6 7 16 7h41q8 0 10 -4.5t-2 -11.5zM214 -3q-75 0 -123 50.5t-48 128.5v348q0 78 48 128.5t123 50.5h105q13 0 13 -13v-57q0 -14 -13 -14h-98q-39 0 -63 -27
t-24 -70v-127h160q14 0 14 -14v-54q0 -14 -14 -14h-160v-135q0 -43 24 -70t63 -27h98q13 0 13 -14v-57q0 -13 -13 -13h-105z" />
    <glyph glyph-name="ecaron" unicode="&#x11b;" horiz-adv-x="390" 
d="M94 677h40q12 0 17 -8l45 -57l45 57q5 8 17 8h39q8 0 11 -5t-2 -11l-65 -93q-5 -9 -16 -9h-59q-11 0 -16 9l-65 93q-5 6 -2 11t11 5zM197 -10q-71 0 -114.5 45t-43.5 118v196q1 72 44.5 116.5t114.5 44.5q70 1 115 -44t45 -114q0 -66 -44 -108.5t-115 -42.5h-74v-52
q0 -35 19.5 -56.5t53.5 -21.5q30 0 49.5 20.5t21.5 53.5q1 13 14 13h59q13 0 13 -13q-4 -70 -47.5 -112.5t-110.5 -42.5zM125 279h74q34 0 53.5 19.5t19.5 51.5q0 36 -20 57.5t-54 21.5q-35 0 -54 -21t-19 -58v-71z" />
    <glyph glyph-name="Gbreve" unicode="&#x11e;" horiz-adv-x="428" 
d="M212 768q-49 0 -79.5 27t-35.5 72q-2 14 13 14h39q11 0 15 -12q6 -37 48 -37q43 0 49 37q3 12 14 12h39q14 0 14 -14q-5 -45 -36 -72t-80 -27zM219 -11q-78 0 -127 51.5t-49 133.5v353q0 82 47.5 133t125.5 51q75 0 122.5 -50.5t49.5 -131.5q0 -14 -13 -14h-64
q-12 0 -14 14q-2 46 -23.5 71.5t-57.5 25.5q-38 0 -60 -26t-22 -70v-360q0 -44 23.5 -70t62.5 -26q37 0 61 25t24 64v136h-69q-14 0 -14 13v53q0 14 14 14h118q41 0 41 -41v-170q0 -78 -49 -128.5t-127 -50.5z" />
    <glyph glyph-name="gbreve" unicode="&#x11f;" horiz-adv-x="405" 
d="M202 561q-49 0 -80 27t-36 73q0 14 13 14h39q12 0 15 -13q6 -36 49 -36q42 0 48 36q4 13 15 13h39q13 0 13 -14q-5 -45 -36 -72.5t-79 -27.5zM199 511q71 0 115 -45.5t44 -117.5v-396q0 -74 -43 -118.5t-116 -44.5q-70 0 -113 43.5t-46 117.5q-2 14 13 14h59q13 0 14 -14
q2 -37 21.5 -58t51.5 -21q34 0 53.5 20.5t19.5 57.5v99q-33 -35 -80 -35q-67 0 -110 46t-43 117v172q0 72 44 117.5t116 45.5zM199 94q34 0 53.5 21.5t19.5 57.5v178q0 36 -19.5 57t-53.5 21t-54 -21t-20 -57v-178q0 -36 20 -57.5t54 -21.5z" />
    <glyph glyph-name="Gdotaccent" unicode="&#x120;" horiz-adv-x="428" 
d="M212 770q-22 0 -36.5 14.5t-14.5 36.5q0 23 14.5 37.5t36.5 14.5t37 -15t15 -37q0 -21 -15 -36t-37 -15zM219 -11q-78 0 -127 51.5t-49 133.5v353q0 82 47.5 133t125.5 51q75 0 122.5 -50.5t49.5 -131.5q0 -14 -13 -14h-64q-12 0 -14 14q-2 46 -23.5 71.5t-57.5 25.5
q-38 0 -60 -26t-22 -70v-360q0 -44 23.5 -70t62.5 -26q37 0 61 25t24 64v136h-69q-14 0 -14 13v53q0 14 14 14h118q41 0 41 -41v-170q0 -78 -49 -128.5t-127 -50.5z" />
    <glyph glyph-name="gdotaccent" unicode="&#x121;" horiz-adv-x="405" 
d="M202 563q-22 0 -36.5 14.5t-14.5 36.5q0 23 14.5 37.5t36.5 14.5t37 -15t15 -37q0 -20 -15 -35.5t-37 -15.5zM199 511q71 0 115 -45.5t44 -117.5v-396q0 -74 -43 -118.5t-116 -44.5q-70 0 -113 43.5t-46 117.5q-2 14 13 14h59q13 0 14 -14q2 -37 21.5 -58t51.5 -21
q34 0 53.5 20.5t19.5 57.5v99q-33 -35 -80 -35q-67 0 -110 46t-43 117v172q0 72 44 117.5t116 45.5zM199 94q34 0 53.5 21.5t19.5 57.5v178q0 36 -19.5 57t-53.5 21t-54 -21t-20 -57v-178q0 -36 20 -57.5t54 -21.5z" />
    <glyph glyph-name="Gcommaaccent" unicode="&#x122;" horiz-adv-x="428" 
d="M219 -11q-78 0 -127 51.5t-49 133.5v353q0 82 47.5 133t125.5 51q75 0 122.5 -50.5t49.5 -131.5q0 -14 -13 -14h-64q-12 0 -14 14q-2 46 -23.5 71.5t-57.5 25.5q-38 0 -60 -26t-22 -70v-360q0 -44 23.5 -70t62.5 -26q37 0 61 25t24 64v136h-69q-14 0 -14 13v53
q0 14 14 14h118q41 0 41 -41v-170q0 -78 -49 -128.5t-127 -50.5zM171 -70q0 13 14 13h55q15 0 13 -15l-33 -170q-2 -12 -14 -12h-32q-13 0 -13 14z" />
    <glyph glyph-name="gcommaaccent" unicode="&#x123;" horiz-adv-x="407" 
d="M173 563q-14 0 -14 13l-10 142q0 13 13 13h33q12 0 15 -12l29 -141q2 -15 -13 -15h-53zM199 511q71 0 115 -45.5t44 -117.5v-396q0 -74 -43 -118.5t-116 -44.5q-70 0 -113 43.5t-46 117.5q-2 14 13 14h59q13 0 14 -14q2 -37 21.5 -58t51.5 -21q34 0 53.5 20.5t19.5 57.5
v99q-33 -35 -80 -35q-67 0 -110 46t-43 117v172q0 72 44 117.5t116 45.5zM199 94q34 0 53.5 21.5t19.5 57.5v178q0 36 -19.5 57t-53.5 21t-54 -21t-20 -57v-178q0 -36 20 -57.5t54 -21.5z" />
    <glyph glyph-name="Hbar" unicode="&#x126;" horiz-adv-x="521" 
d="M473 572q13 0 13 -13v-36q0 -14 -13 -14h-46v-495q0 -14 -13 -14h-64q-13 0 -13 14v299h-153v-299q0 -14 -13 -14h-63q-14 0 -14 14v495h-45q-14 0 -14 14v36q0 13 14 13h45v115q0 13 14 13h63q13 0 13 -13v-115h153v115q0 13 13 13h64q13 0 13 -13v-115h46zM337 396v113
h-153v-113h153z" />
    <glyph glyph-name="hbar" unicode="&#x127;" horiz-adv-x="456" 
d="M106 0q-13 0 -13 14v564h-67q-13 0 -13 13v31q0 13 13 13h67v52q0 13 13 13h59q13 0 13 -13v-52h129q14 0 14 -13v-31q0 -13 -14 -13h-129v-106q32 35 81 35q67 0 108 -45.5t41 -118.5v-329q0 -14 -13 -14h-59q-13 0 -13 14v332q0 36 -19.5 58t-53.5 22q-32 0 -52 -22
t-20 -58v-332q0 -14 -13 -14h-59z" />
    <glyph glyph-name="Imacron" unicode="&#x12a;" horiz-adv-x="211" 
d="M19 837q0 13 14 13h146q13 0 13 -13v-35q0 -14 -13 -14h-146q-14 0 -14 14v35zM60 687q0 13 14 13h63q13 0 13 -13v-673q0 -14 -13 -14h-63q-14 0 -14 14v673z" />
    <glyph glyph-name="imacron" unicode="&#x12b;" horiz-adv-x="167" 
d="M3 636q0 13 14 13h133q14 0 14 -13v-35q0 -14 -14 -14h-133q-14 0 -14 14v35zM54 0q-14 0 -14 14v473q0 13 14 13h58q14 0 14 -13v-473q0 -14 -14 -14h-58z" />
    <glyph glyph-name="Iogonek" unicode="&#x12e;" horiz-adv-x="208" 
d="M157 -133q14 0 14 -13v-43q0 -11 -13 -13q-16 -2 -23 -2q-59 0 -89 23.5t-30 63.5q0 61 54 117q-11 0 -11 14v673q0 13 13 13h63q14 0 14 -13v-673q0 -14 -12 -14q-44 -42 -44 -90q0 -43 57 -43h7z" />
    <glyph glyph-name="iogonek" unicode="&#x12f;" horiz-adv-x="216" 
d="M109 563q-22 0 -36.5 14.5t-14.5 36.5t15 37t37 15t36.5 -14.5t14.5 -36.5q0 -21 -15 -36.5t-37 -15.5zM130 -205q-52 0 -81 23t-29 64q0 58 48 118v487q0 13 14 13h58q14 0 14 -13v-477q0 -10 -14 -22q-44 -45 -44 -86q0 -35 56 -37h3q14 0 14 -13v-41q0 -16 -39 -16z
" />
    <glyph glyph-name="Idotaccent" unicode="&#x130;" horiz-adv-x="211" 
d="M106 770q-22 0 -36.5 14.5t-14.5 36.5q0 23 14.5 37.5t36.5 14.5t37 -15t15 -37q0 -21 -15 -36t-37 -15zM60 687q0 13 14 13h63q13 0 13 -13v-673q0 -14 -13 -14h-63q-14 0 -14 14v673z" />
    <glyph glyph-name="dotlessi" unicode="&#x131;" horiz-adv-x="196" 
d="M69 0q-14 0 -14 14v473q0 13 14 13h58q14 0 14 -13v-473q0 -14 -14 -14h-58z" />
    <glyph glyph-name="Kcommaaccent" unicode="&#x136;" horiz-adv-x="446" 
d="M74 0q-14 0 -14 14v673q0 13 14 13h63q13 0 13 -13v-293h80l82 295q3 11 15 11h63q15 0 12 -15l-92 -314q88 -40 88 -161v-196q0 -14 -14 -14h-63q-14 0 -14 14v198q0 45 -22.5 71.5t-61.5 26.5h-73v-296q0 -14 -13 -14h-63zM186 -70q0 13 14 13h55q15 0 13 -15l-33 -170
q-1 -12 -14 -12h-32q-13 0 -13 14z" />
    <glyph glyph-name="kcommaaccent" unicode="&#x137;" horiz-adv-x="400" 
d="M271 281q42 -17 66.5 -54t24.5 -87v-126q0 -14 -13 -14h-59q-13 0 -13 14v129q0 34 -21 54t-55 20h-60v-203q0 -14 -14 -14h-58q-14 0 -14 14v673q0 13 14 13h58q14 0 14 -13v-389h48l91 192q6 10 16 10h62q18 0 12 -16zM172 -70q0 13 14 13h55q15 0 13 -15l-33 -170
q-1 -12 -14 -12h-32q-13 0 -13 14z" />
    <glyph glyph-name="Lacute" unicode="&#x139;" horiz-adv-x="346" 
d="M63 769q-8 0 -11 5t2 11l65 91q5 8 17 8h57q8 0 10.5 -5t-3.5 -12l-79 -90q-5 -8 -17 -8h-41zM224 81h96q14 0 14 -14v-57q0 -13 -14 -13h-101q-75 0 -120 49.5t-45 126.5v514q0 13 13 13h64q14 0 14 -13v-511q0 -42 22 -68.5t57 -26.5z" />
    <glyph glyph-name="lacute" unicode="&#x13a;" horiz-adv-x="218" 
d="M69 769q-8 0 -11 5t2 11l65 91q5 8 17 8h57q8 0 10.5 -5t-3.5 -12l-79 -90q-5 -8 -17 -8h-41zM69 0q-14 0 -14 14v673q0 13 14 13h58q14 0 14 -13v-673q0 -14 -14 -14h-58z" />
    <glyph glyph-name="Lcommaaccent" unicode="&#x13b;" horiz-adv-x="346" 
d="M224 81h96q14 0 14 -14v-57q0 -13 -14 -13h-101q-75 0 -120 49.5t-45 126.5v514q0 13 13 13h64q14 0 14 -13v-511q0 -42 22 -68.5t57 -26.5zM135 -70q0 13 14 13h55q15 0 13 -15l-33 -170q-2 -12 -14 -12h-32q-13 0 -13 14z" />
    <glyph glyph-name="lcommaaccent" unicode="&#x13c;" horiz-adv-x="196" 
d="M69 0q-14 0 -14 14v673q0 13 14 13h58q14 0 14 -13v-673q0 -14 -14 -14h-58zM58 -70q0 13 14 13h55q15 0 13 -15l-33 -170q-1 -12 -14 -12h-32q-13 0 -13 14z" />
    <glyph glyph-name="Lcaron" unicode="&#x13d;" horiz-adv-x="342" 
d="M214 521q-15 0 -13 14l8 154q1 13 15 13h56q14 0 12 -15l-28 -153q-2 -13 -14 -13h-36zM215 -2q-74 0 -119.5 50t-45.5 126v513q0 13 14 13h64q14 0 14 -13v-510q0 -42 22 -68.5t57 -26.5h96q13 0 13 -14v-56q0 -14 -13 -14h-102z" />
    <glyph glyph-name="lcaron" unicode="&#x13e;" horiz-adv-x="292" 
d="M205 521q-13 0 -13 14l9 154q0 13 14 13h56q14 0 12 -15l-27 -153q-3 -13 -15 -13h-36zM69 0q-14 0 -14 14v673q0 13 14 13h58q14 0 14 -13v-673q0 -14 -14 -14h-58z" />
    <glyph glyph-name="Lslash" unicode="&#x141;" horiz-adv-x="408" 
d="M386 81q14 0 14 -14v-57q0 -13 -14 -13h-101q-75 0 -120 49.5t-45 126.5v136l-76 -29q-15 -5 -15 11v53q0 11 10 16l81 31v296q0 13 13 13h64q14 0 14 -13v-261l100 38q16 5 16 -11v-54q0 -10 -11 -15l-105 -40v-168q0 -42 22 -68.5t57 -26.5h96z" />
    <glyph glyph-name="lslash" unicode="&#x142;" horiz-adv-x="220" 
d="M198 476q16 7 16 -10v-46q0 -10 -11 -15l-49 -19v-372q0 -14 -14 -14h-58q-14 0 -14 14v337l-46 -18q-15 -7 -15 10v46q0 12 10 15l51 20v263q0 13 14 13h58q14 0 14 -13v-229z" />
    <glyph glyph-name="Nacute" unicode="&#x143;" horiz-adv-x="451" 
d="M187 769q-8 0 -11 5t2 11l65 91q5 8 17 8h57q8 0 10.5 -5t-3.5 -12l-79 -90q-5 -8 -17 -8h-41zM67 0q-13 0 -13 14v513q0 82 47 133t124 51t124.5 -51t47.5 -133v-513q0 -14 -14 -14h-63q-14 0 -14 14v517q0 43 -22 69t-59 26t-59 -26t-22 -69v-517q0 -14 -13 -14h-64z
" />
    <glyph glyph-name="nacute" unicode="&#x144;" horiz-adv-x="406" 
d="M279 677q9 0 11 -5t-3 -12l-70 -93q-5 -8 -17 -8h-41q-8 0 -10.5 4.5t1.5 11.5l57 92q5 10 16 10h56zM61 0q-14 0 -14 14v334q0 72 43.5 117.5t112.5 45.5t112.5 -45.5t43.5 -117.5v-334q0 -14 -14 -14h-58q-14 0 -14 14v337q0 36 -18.5 57.5t-51.5 21.5t-51.5 -21.5
t-18.5 -57.5v-337q0 -14 -14 -14h-58z" />
    <glyph glyph-name="Ncommaaccent" unicode="&#x145;" horiz-adv-x="451" 
d="M67 0q-13 0 -13 14v513q0 82 47 133t124 51t124.5 -51t47.5 -133v-513q0 -14 -14 -14h-63q-14 0 -14 14v517q0 43 -22 69t-59 26t-59 -26t-22 -69v-517q0 -14 -13 -14h-64zM187 -70q0 13 14 13h55q15 0 13 -15l-33 -170q-2 -12 -14 -12h-32q-13 0 -13 14z" />
    <glyph glyph-name="ncommaaccent" unicode="&#x146;" horiz-adv-x="405" 
d="M61 0q-14 0 -14 14v334q0 72 43.5 117.5t112.5 45.5t112.5 -45.5t43.5 -117.5v-334q0 -14 -14 -14h-58q-14 0 -14 14v337q0 36 -18.5 57.5t-51.5 21.5t-51.5 -21.5t-18.5 -57.5v-337q0 -14 -14 -14h-58zM169 -70q0 13 14 13h55q15 0 13 -15l-33 -170q-2 -12 -14 -12h-32
q-13 0 -13 14z" />
    <glyph glyph-name="Ncaron" unicode="&#x147;" horiz-adv-x="451" 
d="M343 868l-69 -91q-6 -8 -17 -8h-62q-11 0 -17 8l-69 91q-4 7 -2 11.5t10 4.5h41q10 0 16 -7l52 -61l52 61q6 7 16 7h41q8 0 10 -4.5t-2 -11.5zM67 0q-13 0 -13 14v513q0 82 47 133t124 51t124.5 -51t47.5 -133v-513q0 -14 -14 -14h-63q-14 0 -14 14v517q0 43 -22 69
t-59 26t-59 -26t-22 -69v-517q0 -14 -13 -14h-64z" />
    <glyph glyph-name="ncaron" unicode="&#x148;" horiz-adv-x="406" 
d="M101 677h40q12 0 17 -8l45 -57l45 57q5 8 17 8h39q8 0 11 -5t-2 -11l-65 -93q-5 -9 -16 -9h-59q-11 0 -16 9l-65 93q-5 6 -2 11t11 5zM61 0q-14 0 -14 14v334q0 72 43.5 117.5t112.5 45.5t112.5 -45.5t43.5 -117.5v-334q0 -14 -14 -14h-58q-14 0 -14 14v337
q0 36 -18.5 57.5t-51.5 21.5t-51.5 -21.5t-18.5 -57.5v-337q0 -14 -14 -14h-58z" />
    <glyph glyph-name="Eng" unicode="&#x14a;" horiz-adv-x="451" 
d="M225 -204q-15 0 -15 13v58q0 13 13 13q83 4 83 97v554q0 43 -22 69t-59 26t-59 -26t-22 -69v-517q0 -14 -13 -14h-64q-13 0 -13 14v513q0 82 47 133t124 51t124.5 -51t47.5 -133v-543q0 -88 -44 -137.5t-128 -50.5z" />
    <glyph glyph-name="eng" unicode="&#x14b;" horiz-adv-x="406" 
d="M191 -210q-14 0 -14 14v54q0 13 14 13q38 1 60 26.5t22 66.5v387q0 36 -18.5 57.5t-51.5 21.5t-51.5 -21.5t-18.5 -57.5v-337q0 -14 -14 -14h-58q-14 0 -14 14v334q0 72 43.5 117.5t112.5 45.5t112.5 -45.5t43.5 -117.5v-377q0 -82 -45.5 -131t-122.5 -50z" />
    <glyph glyph-name="Omacron" unicode="&#x14c;" horiz-adv-x="439" 
d="M132 837q0 13 14 13h146q13 0 13 -13v-35q0 -14 -13 -14h-146q-14 0 -14 14v35zM220 -10q-78 0 -127.5 52t-49.5 136v344q0 84 49.5 136t127.5 52t127 -51t49 -130v-358q0 -79 -49 -130t-127 -51zM220 74q38 0 61.5 26t23.5 67v366q0 41 -23.5 67t-61.5 26
q-39 0 -62.5 -27t-23.5 -73v-352q0 -46 23.5 -73t62.5 -27z" />
    <glyph glyph-name="omacron" unicode="&#x14d;" horiz-adv-x="399" 
d="M113 636q0 13 14 13h146q13 0 13 -13v-35q0 -14 -13 -14h-146q-14 0 -14 14v35zM199 -11q-72 0 -116 45.5t-44 117.5v196q0 72 44 117.5t116 45.5t116 -45.5t44 -117.5v-196q0 -72 -44 -117.5t-116 -45.5zM199 70q34 0 54 21.5t20 57.5v202q0 36 -20 57.5t-54 21.5
t-53.5 -21.5t-19.5 -57.5v-202q0 -36 19.5 -57.5t53.5 -21.5z" />
    <glyph glyph-name="Ohungarumlaut" unicode="&#x150;" horiz-adv-x="439" 
d="M115 769q-8 0 -10.5 5t2.5 11l65 91q5 8 17 8h57q8 0 10 -5t-3 -12l-80 -90q-5 -8 -16 -8h-42zM236 769q-8 0 -10.5 5t2.5 11l65 91q5 8 17 8h57q8 0 10 -5t-3 -12l-80 -90q-5 -8 -16 -8h-42zM220 -10q-78 0 -127.5 52t-49.5 136v344q0 84 49.5 136t127.5 52t127 -51
t49 -130v-358q0 -79 -49 -130t-127 -51zM220 74q38 0 61.5 26t23.5 67v366q0 41 -23.5 67t-61.5 26q-39 0 -62.5 -27t-23.5 -73v-352q0 -46 23.5 -73t62.5 -27z" />
    <glyph glyph-name="ohungarumlaut" unicode="&#x151;" horiz-adv-x="399" 
d="M231 677q8 0 10.5 -5t-2.5 -12l-70 -93q-7 -8 -17 -8h-34q-18 0 -9 16l57 92q7 10 16 10h49zM342 677q8 0 10.5 -5t-2.5 -12l-70 -93q-5 -8 -17 -8h-34q-18 0 -9 16l57 92q7 10 16 10h49zM199 -11q-72 0 -116 45.5t-44 117.5v196q0 72 44 117.5t116 45.5t116 -45.5
t44 -117.5v-196q0 -72 -44 -117.5t-116 -45.5zM199 70q34 0 54 21.5t20 57.5v202q0 36 -20 57.5t-54 21.5t-53.5 -21.5t-19.5 -57.5v-202q0 -36 19.5 -57.5t53.5 -21.5z" />
    <glyph glyph-name="OE" unicode="&#x152;" horiz-adv-x="610" 
d="M212 -9q-74 0 -121.5 50.5t-47.5 129.5v358q0 79 47.5 129.5t121.5 50.5q84 0 127 -72q41 67 120 67h109q13 0 13 -14v-56q0 -13 -13 -13h-102q-39 0 -62.5 -28.5t-23.5 -73.5v-124h155q13 0 13 -14v-54q0 -13 -13 -13h-155v-133q0 -45 23.5 -73t62.5 -28h102
q13 0 13 -14v-56q0 -14 -13 -14h-109q-79 0 -120 69q-42 -74 -127 -74zM212 75q35 0 56.5 27.5t21.5 69.5v356q0 42 -21.5 69.5t-56.5 27.5t-56.5 -25t-21.5 -66v-368q0 -41 21.5 -66t56.5 -25z" />
    <glyph glyph-name="oe" unicode="&#x153;" horiz-adv-x="607" 
d="M195 -11q-69 0 -112.5 45.5t-43.5 117.5v196q0 72 43.5 117.5t112.5 45.5q72 0 112 -58q39 58 111 58q67 0 110 -44t43 -114q0 -66 -44 -108.5t-110 -42.5h-67v-53q0 -36 18.5 -57t50.5 -21q29 0 47 18t21 48q3 13 14 13h59q13 0 13 -14q-5 -65 -47 -106t-108 -41
q-67 0 -111 63q-45 -63 -112 -63zM195 71q32 0 51 21.5t19 56.5v202q0 35 -19 56.5t-51 21.5q-33 0 -51.5 -21t-18.5 -57v-202q0 -36 18.5 -57t51.5 -21zM350 280h67q30 0 49 19.5t19 52.5q0 37 -17.5 57t-49.5 20q-31 0 -49.5 -21t-18.5 -56v-72z" />
    <glyph glyph-name="Racute" unicode="&#x154;" horiz-adv-x="444" 
d="M182 769q-8 0 -11 5t2 11l65 91q5 8 17 8h57q8 0 10.5 -5t-3.5 -12l-79 -90q-5 -8 -17 -8h-41zM67 0q-13 0 -13 14v512q0 82 47 133.5t123 51.5q77 0 125 -51.5t48 -133.5v-80q0 -56 -24 -97.5t-65 -63.5l107 -270q2 -6 -2 -10.5t-11 -4.5h-68q-11 0 -14 12l-95 252h-81
v-250q0 -14 -13 -14h-64zM144 347h77q39 0 62 26.5t23 70.5v86q0 43 -22.5 69.5t-58.5 26.5t-58.5 -26.5t-22.5 -69.5v-183z" />
    <glyph glyph-name="racute" unicode="&#x155;" horiz-adv-x="281" 
d="M243 677q9 0 11 -5t-3 -12l-70 -93q-5 -8 -17 -8h-41q-8 0 -10.5 4.5t1.5 11.5l57 92q5 10 16 10h56zM61 0q-14 0 -14 14v313q0 80 47 127.5t124 47.5h37q13 0 13 -14v-54q0 -13 -13 -13h-36q-39 0 -62.5 -23.5t-23.5 -63.5v-320q0 -14 -14 -14h-58z" />
    <glyph glyph-name="Rcommaaccent" unicode="&#x156;" horiz-adv-x="444" 
d="M67 0q-13 0 -13 14v512q0 82 47 133.5t123 51.5q77 0 125 -51.5t48 -133.5v-80q0 -56 -24 -97.5t-65 -63.5l107 -270q2 -6 -2 -10.5t-11 -4.5h-68q-11 0 -14 12l-95 252h-81v-250q0 -14 -13 -14h-64zM144 347h77q39 0 62 26.5t23 70.5v86q0 43 -22.5 69.5t-58.5 26.5
t-58.5 -26.5t-22.5 -69.5v-183zM182 -70q0 13 14 13h55q15 0 13 -15l-33 -170q-1 -12 -14 -12h-32q-13 0 -13 14z" />
    <glyph glyph-name="rcommaaccent" unicode="&#x157;" horiz-adv-x="281" 
d="M61 0q-14 0 -14 14v313q0 80 47 127.5t124 47.5h37q13 0 13 -14v-54q0 -13 -13 -13h-36q-39 0 -62.5 -23.5t-23.5 -63.5v-320q0 -14 -14 -14h-58zM58 -70q0 13 14 13h55q15 0 13 -15l-33 -170q-1 -12 -14 -12h-32q-13 0 -13 14z" />
    <glyph glyph-name="Rcaron" unicode="&#x158;" horiz-adv-x="444" 
d="M338 868l-69 -91q-6 -8 -17 -8h-62q-11 0 -17 8l-69 91q-4 7 -2 11.5t10 4.5h41q10 0 16 -7l52 -61l52 61q6 7 16 7h41q8 0 10 -4.5t-2 -11.5zM67 0q-13 0 -13 14v512q0 82 47 133.5t123 51.5q77 0 125 -51.5t48 -133.5v-80q0 -56 -24 -97.5t-65 -63.5l107 -270
q2 -6 -2 -10.5t-11 -4.5h-68q-11 0 -14 12l-95 252h-81v-250q0 -14 -13 -14h-64zM144 347h77q39 0 62 26.5t23 70.5v86q0 43 -22.5 69.5t-58.5 26.5t-58.5 -26.5t-22.5 -69.5v-183z" />
    <glyph glyph-name="rcaron" unicode="&#x159;" horiz-adv-x="281" 
d="M65 677h40q12 0 17 -8l45 -57l45 57q5 8 17 8h39q8 0 11 -5t-2 -11l-65 -93q-5 -9 -16 -9h-59q-11 0 -16 9l-65 93q-5 6 -2 11t11 5zM61 0q-14 0 -14 14v313q0 80 47 127.5t124 47.5h37q13 0 13 -14v-54q0 -13 -13 -13h-36q-39 0 -62.5 -23.5t-23.5 -63.5v-320
q0 -14 -14 -14h-58z" />
    <glyph glyph-name="Sacute" unicode="&#x15a;" horiz-adv-x="408" 
d="M163 769q-8 0 -11 5t2 11l65 91q5 8 17 8h57q8 0 10.5 -5t-3.5 -12l-79 -90q-5 -8 -17 -8h-41zM205 -11q-78 0 -125 53.5t-50 144.5q0 14 14 14h63q12 0 14 -13q3 -114 85 -114q81 0 81 83q0 42 -26 81t-63 70.5t-73.5 64.5t-62.5 79t-26 99q0 73 45 116.5t120 43.5
q73 0 118.5 -52t48.5 -140q0 -13 -13 -13h-63q-13 0 -13 13q-4 108 -77 108q-76 0 -76 -76q0 -39 26 -75.5t63 -67.5t74 -64.5t63 -82t26 -104.5q0 -77 -47.5 -122.5t-125.5 -45.5z" />
    <glyph glyph-name="sacute" unicode="&#x15b;" horiz-adv-x="386" 
d="M275 677q9 0 11 -5t-3 -12l-70 -93q-5 -8 -17 -8h-41q-8 0 -10.5 4.5t1.5 11.5l57 92q5 10 16 10h56zM199 -11q-75 0 -120 45t-47 114q0 15 14 15h58q13 0 14 -13q6 -79 80 -79q34 0 52 17t18 45q0 27 -23.5 47t-57.5 34t-68 31t-57.5 49t-23.5 77q0 61 42 100.5
t109 39.5q76 0 115.5 -41.5t41.5 -105.5q0 -14 -13 -14h-59q-12 0 -14 13q-2 30 -20 48.5t-49 18.5t-49.5 -17t-18.5 -44q0 -26 24 -44.5t57.5 -32.5t67.5 -31t58 -49.5t24 -79.5q0 -62 -43 -102.5t-112 -40.5z" />
    <glyph glyph-name="Scedilla" unicode="&#x15e;" horiz-adv-x="408" 
d="M378 157q0 -72 -42.5 -117t-113.5 -50l-6 -34h6q31 -2 52.5 -23t21.5 -52q0 -40 -26 -62.5t-68 -22.5q-37 0 -62 19t-29 54q-2 13 13 13h27q9 0 14 -11q8 -23 37 -23q17 0 28 9t11 24q0 13 -10.5 22t-27.5 9q-13 0 -35 -4q-5 -2 -9 2l-3 3q-5 5 -4 10l15 70
q-62 13 -98.5 64.5t-38.5 129.5q0 14 14 14h63q12 0 14 -13q3 -114 85 -114q81 0 81 83q0 42 -26 81t-63 70.5t-73.5 64.5t-62.5 79t-26 99q0 73 45 116.5t120 43.5q73 0 118.5 -52t48.5 -140q0 -13 -13 -13h-63q-13 0 -13 13q-4 108 -77 108q-76 0 -76 -76q0 -39 26 -75.5
t63 -67.5t74 -64.5t63 -82t26 -104.5z" />
    <glyph glyph-name="scedilla" unicode="&#x15f;" horiz-adv-x="386" 
d="M354 132q0 -55 -35 -94.5t-94 -46.5l-6 -35h6q31 -2 52.5 -23t21.5 -52q0 -40 -26 -62.5t-68 -22.5q-37 0 -62 19t-29 54q-2 13 13 13h27q9 0 14 -11q8 -23 37 -23q17 0 28 9t11 24q0 13 -10.5 22t-27.5 9q-13 0 -35 -4q-5 -2 -9 2l-3 3q-5 5 -4 10l14 68
q-62 9 -98.5 52.5t-38.5 104.5q0 15 14 15h58q13 0 14 -13q6 -79 80 -79q34 0 52 17t18 45q0 27 -23.5 47t-57.5 34t-68 31t-57.5 49t-23.5 77q0 61 42 100.5t109 39.5q76 0 115.5 -41.5t41.5 -105.5q0 -14 -13 -14h-59q-12 0 -14 13q-2 30 -20 48.5t-49 18.5t-49.5 -17
t-18.5 -44q0 -26 24 -44.5t57.5 -32.5t67.5 -31t58 -49.5t24 -79.5z" />
    <glyph glyph-name="Scaron" unicode="&#x160;" horiz-adv-x="408" 
d="M319 868l-69 -91q-6 -8 -17 -8h-62q-11 0 -17 8l-69 91q-4 7 -2 11.5t10 4.5h41q10 0 16 -7l52 -61l52 61q6 7 16 7h41q8 0 10 -4.5t-2 -11.5zM205 -11q-78 0 -125 53.5t-50 144.5q0 14 14 14h63q12 0 14 -13q3 -114 85 -114q81 0 81 83q0 42 -26 81t-63 70.5t-73.5 64.5
t-62.5 79t-26 99q0 73 45 116.5t120 43.5q73 0 118.5 -52t48.5 -140q0 -13 -13 -13h-63q-13 0 -13 13q-4 108 -77 108q-76 0 -76 -76q0 -39 26 -75.5t63 -67.5t74 -64.5t63 -82t26 -104.5q0 -77 -47.5 -122.5t-125.5 -45.5z" />
    <glyph glyph-name="scaron" unicode="&#x161;" horiz-adv-x="386" 
d="M97 677h40q12 0 17 -8l45 -57l45 57q5 8 17 8h39q8 0 11 -5t-2 -11l-65 -93q-5 -9 -16 -9h-59q-11 0 -16 9l-65 93q-5 6 -2 11t11 5zM199 -11q-75 0 -120 45t-47 114q0 15 14 15h58q13 0 14 -13q6 -79 80 -79q34 0 52 17t18 45q0 27 -23.5 47t-57.5 34t-68 31t-57.5 49
t-23.5 77q0 61 42 100.5t109 39.5q76 0 115.5 -41.5t41.5 -105.5q0 -14 -13 -14h-59q-12 0 -14 13q-2 30 -20 48.5t-49 18.5t-49.5 -17t-18.5 -44q0 -26 24 -44.5t57.5 -32.5t67.5 -31t58 -49.5t24 -79.5q0 -62 -43 -102.5t-112 -40.5z" />
    <glyph glyph-name="uni0162" unicode="&#x162;" horiz-adv-x="359" 
d="M333 700q14 0 14 -13v-57q0 -14 -14 -14h-108v-602q0 -14 -14 -14h-63q-13 0 -13 14v602h-109q-13 0 -13 14v57q0 13 13 13h307zM140 -70q0 13 14 13h55q15 0 13 -15l-33 -170q-1 -12 -14 -12h-32q-13 0 -13 14z" />
    <glyph glyph-name="uni0163" unicode="&#x163;" horiz-adv-x="289" 
d="M255 78q14 0 14 -13v-55q0 -13 -14 -13h-15q-74 0 -116 47t-42 130v248h-56q-13 0 -13 13v52q0 13 13 13h56v129q0 14 14 14h58q13 0 13 -14v-129h77q13 0 13 -13v-52q0 -13 -13 -13h-77v-249q0 -95 77 -95h11zM193 -57q15 0 13 -15l-33 -170q-1 -12 -14 -12h-32
q-13 0 -13 14l10 170q0 13 14 13h55z" />
    <glyph glyph-name="Tcaron" unicode="&#x164;" horiz-adv-x="359" 
d="M296 868l-69 -91q-6 -8 -17 -8h-62q-11 0 -17 8l-69 91q-4 7 -2 11.5t10 4.5h41q10 0 16 -7l52 -61l52 61q6 7 16 7h41q8 0 10 -4.5t-2 -11.5zM333 700q14 0 14 -13v-57q0 -14 -14 -14h-108v-602q0 -14 -14 -14h-63q-13 0 -13 14v602h-109q-13 0 -13 14v57q0 13 13 13
h307z" />
    <glyph glyph-name="tcaron" unicode="&#x165;" horiz-adv-x="311" 
d="M273 704q15 0 12 -15l-28 -143q-3 -12 -15 -12h-32q-13 0 -13 14l9 143q1 13 15 13h52zM255 78q14 0 14 -13v-55q0 -13 -14 -13h-15q-74 0 -116 47t-42 130v248h-56q-13 0 -13 13v52q0 13 13 13h56v129q0 14 14 14h58q13 0 13 -14v-129h77q13 0 13 -13v-52q0 -13 -13 -13
h-77v-249q0 -95 77 -95h11z" />
    <glyph glyph-name="Tbar" unicode="&#x166;" horiz-adv-x="361" 
d="M334 700q13 0 13 -13v-56q0 -14 -13 -14h-109v-203h66q13 0 13 -13v-39q0 -13 -13 -13h-66v-335q0 -14 -13 -14h-63q-14 0 -14 14v335h-65q-14 0 -14 13v39q0 13 14 13h65v203h-108q-14 0 -14 14v56q0 13 14 13h307z" />
    <glyph glyph-name="tbar" unicode="&#x167;" horiz-adv-x="289" 
d="M255 76q14 0 14 -13v-54q0 -14 -14 -14h-10q-75 0 -119 48t-44 132v88h-44q-13 0 -13 14v32q0 14 13 14h44v99h-56q-13 0 -13 13v52q0 13 13 13h56v129q0 14 14 14h58q13 0 13 -14v-129h77q13 0 13 -13v-52q0 -13 -13 -13h-77v-99h65q13 0 13 -14v-32q0 -14 -13 -14h-65
v-92q0 -46 20.5 -70.5t58.5 -24.5h9z" />
    <glyph glyph-name="Umacron" unicode="&#x16a;" horiz-adv-x="451" 
d="M135 837q0 13 14 13h146q13 0 13 -13v-35q0 -14 -13 -14h-146q-14 0 -14 14v35zM67 700h64q13 0 13 -14v-517q0 -43 22 -69t59 -26t59 26t22 69v517q0 14 14 14h63q14 0 14 -14v-513q0 -82 -47.5 -133t-124.5 -51t-124 51t-47 133v513q0 14 13 14z" />
    <glyph glyph-name="umacron" unicode="&#x16b;" horiz-adv-x="406" 
d="M114 636q0 13 14 13h146q13 0 13 -13v-35q0 -14 -13 -14h-146q-14 0 -14 14v35zM61 500h58q14 0 14 -14v-337q0 -36 18.5 -57.5t51.5 -21.5t51.5 21.5t18.5 57.5v337q0 14 14 14h58q14 0 14 -14v-334q0 -72 -43.5 -117.5t-112.5 -45.5t-112.5 45.5t-43.5 117.5v334
q0 14 14 14z" />
    <glyph glyph-name="Uring" unicode="&#x16e;" horiz-adv-x="451" 
d="M146 825q0 32 20.5 51.5t54.5 19.5q33 0 53.5 -19.5t20.5 -51.5q0 -33 -20.5 -53t-53.5 -20q-34 0 -54.5 20t-20.5 53zM194 824q0 -27 27 -27q12 0 19.5 7.5t7.5 19.5t-7.5 19.5t-19.5 7.5q-27 0 -27 -27zM67 700h64q13 0 13 -14v-517q0 -43 22 -69t59 -26t59 26t22 69
v517q0 14 14 14h63q14 0 14 -14v-513q0 -82 -47.5 -133t-124.5 -51t-124 51t-47 133v513q0 14 13 14z" />
    <glyph glyph-name="uring" unicode="&#x16f;" horiz-adv-x="406" 
d="M126 620q0 32 20.5 51.5t54.5 19.5q33 0 53.5 -19.5t20.5 -51.5q0 -33 -20.5 -53t-53.5 -20q-34 0 -54.5 20t-20.5 53zM174 619q0 -27 27 -27q12 0 19.5 7.5t7.5 19.5t-7.5 19.5t-19.5 7.5q-27 0 -27 -27zM61 500h58q14 0 14 -14v-337q0 -36 18.5 -57.5t51.5 -21.5
t51.5 21.5t18.5 57.5v337q0 14 14 14h58q14 0 14 -14v-334q0 -72 -43.5 -117.5t-112.5 -45.5t-112.5 45.5t-43.5 117.5v334q0 14 14 14z" />
    <glyph glyph-name="Uhungarumlaut" unicode="&#x170;" horiz-adv-x="451" 
d="M118 769q-8 0 -10.5 5t2.5 11l65 91q5 8 17 8h57q8 0 10 -5t-3 -12l-80 -90q-5 -8 -16 -8h-42zM239 769q-8 0 -10.5 5t2.5 11l65 91q5 8 17 8h57q8 0 10 -5t-3 -12l-80 -90q-5 -8 -16 -8h-42zM67 700h64q13 0 13 -14v-517q0 -43 22 -69t59 -26t59 26t22 69v517
q0 14 14 14h63q14 0 14 -14v-513q0 -82 -47.5 -133t-124.5 -51t-124 51t-47 133v513q0 14 13 14z" />
    <glyph glyph-name="uhungarumlaut" unicode="&#x171;" horiz-adv-x="406" 
d="M232 677q8 0 10.5 -5t-2.5 -12l-70 -93q-7 -8 -17 -8h-34q-18 0 -9 16l57 92q7 10 16 10h49zM343 677q8 0 10.5 -5t-2.5 -12l-70 -93q-5 -8 -17 -8h-34q-18 0 -9 16l57 92q7 10 16 10h49zM61 500h58q14 0 14 -14v-337q0 -36 18.5 -57.5t51.5 -21.5t51.5 21.5t18.5 57.5
v337q0 14 14 14h58q14 0 14 -14v-334q0 -72 -43.5 -117.5t-112.5 -45.5t-112.5 45.5t-43.5 117.5v334q0 14 14 14z" />
    <glyph glyph-name="Uogonek" unicode="&#x172;" horiz-adv-x="447" 
d="M303 687q0 13 13 13h64q13 0 13 -13v-521q0 -74 -63 -142q-62 -67 -62 -121q0 -39 56 -36q15 1 15 -13v-45q0 -13 -13 -13q-66 -6 -102.5 15.5t-36.5 68.5q0 52 47 111q-12 -2 -17 -2q-72 2 -117.5 52t-45.5 125v521q0 13 13 13h64q13 0 13 -13v-525q0 -38 22 -63t57 -25
q36 0 58 25t22 63v525z" />
    <glyph glyph-name="uogonek" unicode="&#x173;" horiz-adv-x="407" 
d="M306 -204q-59 -6 -98.5 15.5t-39.5 68.5q0 48 48 111l-10 -1h-14q-62 4 -103.5 48.5t-41.5 108.5v340q0 13 14 13h58q14 0 14 -13v-343q0 -32 20 -52.5t51 -20.5q30 0 50.5 21t20.5 52v343q0 13 13 13h58q14 0 14 -13v-340q0 -70 -41 -109q-30 -33 -49.5 -69.5
t-19.5 -62.5q0 -42 56 -39q14 2 14 -13v-45q0 -13 -14 -13z" />
    <glyph glyph-name="Wcircumflex" unicode="&#x174;" horiz-adv-x="669" 
d="M226 769q-8 0 -10 4.5t2 11.5l69 91q6 8 17 8h62q11 0 17 -8l69 -91q4 -7 2 -11.5t-10 -4.5h-41q-10 0 -16 7l-52 61l-52 -61q-6 -7 -16 -7h-41zM602 700q14 0 14 -13v-512q0 -85 -44 -135.5t-119 -50.5q-71 0 -119 63q-46 -63 -117 -63q-75 0 -119 50.5t-44 135.5v512
q0 13 13 13h63q13 0 13 -13v-516q0 -97 74 -97q33 0 53 25.5t20 71.5v516q0 13 13 13h63q13 0 13 -13v-516q0 -46 20.5 -71.5t53.5 -25.5q73 0 73 97v516q0 13 13 13h63z" />
    <glyph glyph-name="wcircumflex" unicode="&#x175;" horiz-adv-x="611" 
d="M205 559q-8 0 -11 5t2 11l65 93q5 9 16 9h59q11 0 16 -9l65 -93q5 -6 2 -11t-11 -5h-39q-12 0 -17 8l-45 57l-45 -57q-5 -8 -17 -8h-40zM414 -11q-69 0 -108 61q-39 -61 -108 -61q-68 0 -109.5 45.5t-41.5 117.5v334q0 14 14 14h57q14 0 14 -14v-337q0 -36 17.5 -57
t48.5 -21t48 21t17 57v337q0 14 14 14h58q13 0 13 -14v-337q0 -36 17.5 -57t48.5 -21t48 21t17 57v337q0 14 14 14h58q13 0 13 -14v-334q0 -72 -41 -117.5t-109 -45.5z" />
    <glyph glyph-name="Ycircumflex" unicode="&#x176;" horiz-adv-x="416" 
d="M325 785q4 -7 2 -11.5t-10 -4.5h-41q-10 0 -16 7l-52 61l-52 -61q-6 -7 -16 -7h-41q-8 0 -10 4.5t2 11.5l69 91q6 8 17 8h62q11 0 17 -8zM177 0q-14 0 -14 14v215q-56 14 -90.5 61t-34.5 112v285q0 13 14 13h63q14 0 14 -13v-289q0 -40 21.5 -65.5t57.5 -25.5t58 26
t22 65v289q0 13 13 13h63q14 0 14 -13v-285q0 -65 -34 -112.5t-91 -60.5v-215q0 -14 -13 -14h-63z" />
    <glyph glyph-name="ycircumflex" unicode="&#x177;" horiz-adv-x="418" 
d="M106 559q-8 0 -11 5t2 11l65 93q5 9 16 9h59q11 0 16 -9l65 -93q5 -6 2 -11t-11 -5h-39q-12 0 -17 8l-45 57l-45 -57q-5 -8 -17 -8h-40zM349 500q14 0 14 -13v-535q0 -74 -43 -118.5t-115 -44.5q-68 0 -110.5 43.5t-46.5 117.5q-2 14 13 14h59q12 0 13 -14
q2 -38 21 -58.5t51 -20.5q34 0 53 20.5t19 57.5v101q-31 -36 -79 -36q-66 0 -108.5 45.5t-42.5 116.5v311q0 13 14 13h58q14 0 14 -13v-314q0 -35 19.5 -56.5t52.5 -21.5t52.5 21.5t19.5 56.5v314q0 13 14 13h58z" />
    <glyph glyph-name="Ydieresis" unicode="&#x178;" horiz-adv-x="416" 
d="M149 775q-20 0 -32 12t-12 32t12 32t32 12q19 0 31.5 -12.5t12.5 -31.5t-12.5 -31.5t-31.5 -12.5zM267 775q-19 0 -31.5 12.5t-12.5 31.5t12.5 31.5t31.5 12.5t31.5 -12.5t12.5 -31.5t-12.5 -31.5t-31.5 -12.5zM177 0q-14 0 -14 14v215q-56 14 -90.5 61t-34.5 112v285
q0 13 14 13h63q14 0 14 -13v-289q0 -40 21.5 -65.5t57.5 -25.5t58 26t22 65v289q0 13 13 13h63q14 0 14 -13v-285q0 -65 -34 -112.5t-91 -60.5v-215q0 -14 -13 -14h-63z" />
    <glyph glyph-name="Zacute" unicode="&#x179;" horiz-adv-x="401" 
d="M169 769q-8 0 -11 5t2 11l65 91q5 8 17 8h57q8 0 10.5 -5t-3.5 -12l-79 -90q-5 -8 -17 -8h-41zM123 84h234q13 0 13 -14v-56q0 -14 -13 -14h-282q-44 0 -44 43v19q0 32 11 54l233 500h-209q-13 0 -13 14v57q0 13 13 13h257q43 0 44 -42v-19q2 -33 -9 -54z" />
    <glyph glyph-name="zacute" unicode="&#x17a;" horiz-adv-x="352" 
d="M250 677q9 0 11 -5t-3 -12l-70 -93q-5 -8 -17 -8h-41q-8 0 -10.5 4.5t1.5 11.5l57 92q5 10 16 10h56zM128 81h180q14 0 14 -14v-53q0 -14 -14 -14h-244q-34 0 -34 35v19q0 24 10 41l187 324h-174q-14 0 -14 14v54q0 13 14 13h235q34 0 34 -33v-25q0 -24 -10 -41z" />
    <glyph glyph-name="Zdotaccent" unicode="&#x17b;" horiz-adv-x="401" 
d="M209 763q-22 0 -36.5 14.5t-14.5 36.5q0 23 14.5 37.5t36.5 14.5t37 -15t15 -37q0 -20 -15.5 -35.5t-36.5 -15.5zM123 84h234q13 0 13 -14v-56q0 -14 -13 -14h-282q-44 0 -44 43v19q0 32 11 54l233 500h-209q-13 0 -13 14v57q0 13 13 13h257q43 0 44 -42v-19
q2 -33 -9 -54z" />
    <glyph glyph-name="zdotaccent" unicode="&#x17c;" horiz-adv-x="352" 
d="M174 563q-22 0 -36.5 14.5t-14.5 36.5q0 23 14.5 37.5t36.5 14.5t37 -15t15 -37q0 -20 -15 -35.5t-37 -15.5zM128 81h180q14 0 14 -14v-53q0 -14 -14 -14h-244q-34 0 -34 35v19q0 24 10 41l187 324h-174q-14 0 -14 14v54q0 13 14 13h235q34 0 34 -33v-25q0 -24 -10 -41z
" />
    <glyph glyph-name="Zcaron" unicode="&#x17d;" horiz-adv-x="401" 
d="M325 868l-69 -91q-6 -8 -17 -8h-62q-11 0 -17 8l-69 91q-4 7 -2 11.5t10 4.5h41q10 0 16 -7l52 -61l52 61q6 7 16 7h41q8 0 10 -4.5t-2 -11.5zM123 84h234q13 0 13 -14v-56q0 -14 -13 -14h-282q-44 0 -44 43v19q0 32 11 54l233 500h-209q-13 0 -13 14v57q0 13 13 13h257
q43 0 44 -42v-19q2 -33 -9 -54z" />
    <glyph glyph-name="zcaron" unicode="&#x17e;" horiz-adv-x="352" 
d="M72 677h40q12 0 17 -8l45 -57l45 57q5 8 17 8h39q8 0 11 -5t-2 -11l-65 -93q-5 -9 -16 -9h-59q-11 0 -16 9l-65 93q-5 6 -2 11t11 5zM128 81h180q14 0 14 -14v-53q0 -14 -14 -14h-244q-34 0 -34 35v19q0 24 10 41l187 324h-174q-14 0 -14 14v54q0 13 14 13h235
q34 0 34 -33v-25q0 -24 -10 -41z" />
    <glyph glyph-name="Scommaaccent" unicode="&#x218;" horiz-adv-x="408" 
d="M205 -11q-78 0 -125 53.5t-50 144.5q0 14 14 14h63q12 0 14 -13q3 -114 85 -114q81 0 81 83q0 42 -26 81t-63 70.5t-73.5 64.5t-62.5 79t-26 99q0 73 45 116.5t120 43.5q73 0 118.5 -52t48.5 -140q0 -13 -13 -13h-63q-13 0 -13 13q-4 108 -77 108q-76 0 -76 -76
q0 -39 26 -75.5t63 -67.5t74 -64.5t63 -82t26 -104.5q0 -77 -47.5 -122.5t-125.5 -45.5zM173 -70q0 13 14 13h55q15 0 13 -15l-33 -170q-2 -12 -14 -12h-32q-13 0 -13 14z" />
    <glyph glyph-name="scommaaccent" unicode="&#x219;" horiz-adv-x="386" 
d="M199 -11q-75 0 -120 45t-47 114q0 15 14 15h58q13 0 14 -13q6 -79 80 -79q34 0 52 17t18 45q0 27 -23.5 47t-57.5 34t-68 31t-57.5 49t-23.5 77q0 61 42 100.5t109 39.5q76 0 115.5 -41.5t41.5 -105.5q0 -14 -13 -14h-59q-12 0 -14 13q-2 30 -20 48.5t-49 18.5t-49.5 -17
t-18.5 -44q0 -26 24 -44.5t57.5 -32.5t67.5 -31t58 -49.5t24 -79.5q0 -62 -43 -102.5t-112 -40.5zM169 -70q0 13 14 13h55q15 0 13 -15l-33 -170q-2 -12 -14 -12h-32q-13 0 -13 14z" />
    <glyph glyph-name="uni021A" unicode="&#x21a;" horiz-adv-x="359" 
d="M333 700q14 0 14 -13v-57q0 -14 -14 -14h-108v-602q0 -14 -14 -14h-63q-13 0 -13 14v602h-109q-13 0 -13 14v57q0 13 13 13h307zM150 -70q0 13 14 13h55q15 0 13 -15l-33 -170q-1 -12 -14 -12h-32q-13 0 -13 14z" />
    <glyph glyph-name="uni021B" unicode="&#x21b;" horiz-adv-x="289" 
d="M255 78q14 0 14 -13v-55q0 -13 -14 -13h-15q-74 0 -116 47t-42 130v248h-56q-13 0 -13 13v52q0 13 13 13h56v129q0 14 14 14h58q13 0 13 -14v-129h77q13 0 13 -13v-52q0 -13 -13 -13h-77v-249q0 -95 77 -95h11zM193 -57q15 0 13 -15l-33 -170q-1 -12 -14 -12h-32
q-13 0 -13 14l10 170q0 13 14 13h55z" />
    <glyph glyph-name="gravecomb" unicode="&#x300;" 
d="M-132 677h56q11 0 16 -10l57 -92q4 -7 1.5 -11.5t-10.5 -4.5h-41q-12 0 -17 8l-70 93q-5 7 -3 12t11 5z" />
    <glyph glyph-name="acutecomb" unicode="&#x301;" 
d="M-11 677q9 0 11 -5t-3 -12l-70 -93q-5 -8 -17 -8h-41q-8 0 -10.5 4.5t1.5 11.5l57 92q5 10 16 10h56z" />
    <glyph glyph-name="uni0302" unicode="&#x302;" 
d="M-219 559q-8 0 -11 5t2 11l65 93q5 9 16 9h59q11 0 16 -9l65 -93q5 -6 2 -11t-11 -5h-39q-12 0 -17 8l-45 57l-45 -57q-5 -8 -17 -8h-40z" />
    <glyph glyph-name="tildecomb" unicode="&#x303;" 
d="M-151 602q-13 0 -17 -16q-4 -12 -15 -12h-33q-14 0 -14 13q3 29 22 51.5t51 22.5q22 0 46 -15t31 -15q13 0 18 16q4 13 14 13h34q13 0 13 -14q-2 -30 -22 -51.5t-50 -21.5q-21 0 -45.5 14.5t-32.5 14.5z" />
    <glyph glyph-name="uni0304" unicode="&#x304;" 
d="M-173 636q0 13 14 13h146q13 0 13 -13v-35q0 -14 -13 -14h-146q-14 0 -14 14v35z" />
    <glyph glyph-name="uni0306" unicode="&#x306;" 
d="M-118 561q-49 0 -80 27t-36 73q0 14 13 14h39q12 0 15 -13q6 -36 49 -36q42 0 48 36q4 13 15 13h39q13 0 13 -14q-5 -45 -36 -72.5t-79 -27.5z" />
    <glyph glyph-name="uni0307" unicode="&#x307;" 
d="M-54 563q-22 0 -36.5 14.5t-14.5 36.5q0 23 14.5 37.5t36.5 14.5t37 -15t15 -37q0 -20 -15 -35.5t-37 -15.5z" />
    <glyph glyph-name="uni0308" unicode="&#x308;" 
d="M-162 568q-20 0 -32 12t-12 32t12 32t32 12t32 -12t12 -32t-12 -32t-32 -12zM-44 568q-20 0 -32 12t-12 32t12 32t32 12t32 -12t12 -32t-12 -32t-32 -12z" />
    <glyph glyph-name="uni030A" unicode="&#x30a;" 
d="M-158 620q0 32 20.5 51.5t54.5 19.5q33 0 53.5 -19.5t20.5 -51.5q0 -33 -20.5 -53t-53.5 -20q-34 0 -54.5 20t-20.5 53zM-110 619q0 -27 27 -27q12 0 19.5 7.5t7.5 19.5t-7.5 19.5t-19.5 7.5q-27 0 -27 -27z" />
    <glyph glyph-name="uni030B" unicode="&#x30b;" 
d="M-126 677q8 0 10.5 -5t-2.5 -12l-70 -93q-7 -8 -17 -8h-34q-18 0 -9 16l57 92q7 10 16 10h49zM-15 677q8 0 10.5 -5t-2.5 -12l-70 -93q-5 -8 -17 -8h-34q-18 0 -9 16l57 92q7 10 16 10h49z" />
    <glyph glyph-name="uni030C" unicode="&#x30c;" 
d="M-219 677h40q12 0 17 -8l45 -57l45 57q5 8 17 8h39q8 0 11 -5t-2 -11l-65 -93q-5 -9 -16 -9h-59q-11 0 -16 9l-65 93q-5 6 -2 11t11 5z" />
    <glyph glyph-name="uni0312" unicode="&#x312;" 
d="M-90 576l-10 170q0 14 13 14h32q13 0 14 -12l33 -170q2 -15 -13 -15h-55q-14 0 -14 13z" />
    <glyph glyph-name="uni0326" unicode="&#x326;" 
d="M-92 -70q0 13 14 13h55q15 0 13 -15l-33 -170q-1 -12 -14 -12h-32q-13 0 -13 14z" />
    <glyph glyph-name="uni0327" unicode="&#x327;" 
d="M-94 -204q-37 0 -62 19t-29 54q-2 13 13 13h27q9 0 14 -11q8 -23 37 -23q17 0 28 9t11 24q0 13 -10.5 22t-27.5 9q-13 0 -35 -4q-5 -2 -9 2l-3 3q-5 5 -4 10l16 77h56l-8 -44h6q31 -2 52.5 -23t21.5 -52q0 -40 -26 -62.5t-68 -22.5z" />
    <glyph glyph-name="uni0328" unicode="&#x328;" 
d="M0 -189q0 -13 -12 -13q-16 -2 -24 -2q-112 0 -112 87q0 54 53 117h81q-55 -45 -55 -93q0 -40 48 -40h8q13 0 13 -13v-43z" />
    <glyph glyph-name="uni0335" unicode="&#x335;" 
d="M-210 372v53h200v-53h-200z" />
    <glyph glyph-name="uni0336" unicode="&#x336;" 
d="M-330 425h320v-53h-320v53z" />
    <glyph glyph-name="uni0337" unicode="&#x337;" 
d="M-249 -45q-17 0 -12 15l157 564q3 11 15 11h67q17 0 12 -15l-157 -564q-3 -11 -15 -11h-67z" />
    <glyph glyph-name="uni0338" unicode="&#x338;" 
d="M-333 -45q-17 0 -12 15l213 764q3 11 15 11h67q17 0 12 -15l-213 -764q-3 -11 -15 -11h-67z" />
    <glyph glyph-name="uni0401" unicode="&#x401;" horiz-adv-x="361" 
d="M147 775q-20 0 -32 12t-12 32t12 32t32 12q19 0 31.5 -12.5t12.5 -31.5t-12.5 -31.5t-31.5 -12.5zM265 775q-19 0 -31.5 12.5t-12.5 31.5t12.5 31.5t31.5 12.5t31.5 -12.5t12.5 -31.5t-12.5 -31.5t-31.5 -12.5zM214 -3q-75 0 -123 50.5t-48 128.5v348q0 78 48 128.5
t123 50.5h105q13 0 13 -13v-57q0 -14 -13 -14h-98q-39 0 -63 -27t-24 -70v-127h160q14 0 14 -14v-54q0 -14 -14 -14h-160v-135q0 -43 24 -70t63 -27h98q13 0 13 -14v-57q0 -13 -13 -13h-105z" />
    <glyph glyph-name="uni0402" unicode="&#x402;" horiz-adv-x="499" 
d="M306 -3q-15 0 -15 14v54q0 14 14 14q28 2 46 24t18 55v189q0 39 -19 60.5t-54 21.5q-72 0 -72 -82v-333q0 -14 -14 -14h-62q-13 0 -13 14v602h-109q-13 0 -13 14v57q0 13 13 13h307q14 0 14 -13v-57q0 -14 -14 -14h-109v-139q34 34 82 34q69 0 111 -46t42 -119v-184
q0 -71 -43 -116.5t-110 -48.5z" />
    <glyph glyph-name="uni0403" unicode="&#x403;" horiz-adv-x="359" 
d="M190 769q-8 0 -11 5t2 11l65 91q5 8 17 8h57q8 0 10.5 -5t-3.5 -12l-79 -90q-5 -8 -17 -8h-41zM67 0q-13 0 -13 14v504q0 86 47.5 135.5t129.5 49.5h102q13 0 13 -14v-56q0 -14 -13 -14h-100q-43 0 -66 -25t-23 -72v-508q0 -14 -13 -14h-64z" />
    <glyph glyph-name="uni0404" unicode="&#x404;" horiz-adv-x="410" 
d="M374 201q13 0 13 -14q-3 -91 -50 -144.5t-123 -53.5q-77 0 -124 49.5t-47 130.5v362q0 81 47 130.5t124 49.5q74 0 120 -52.5t48 -139.5q0 -13 -13 -13h-64q-13 0 -13 13q-1 52 -22.5 79.5t-56.5 27.5q-37 0 -58 -24t-21 -66v-142h162q13 0 13 -14v-50q0 -13 -13 -13
h-162v-153q0 -42 21 -66t58 -24q38 0 60.5 29.5t23.5 84.5q0 13 13 13h64z" />
    <glyph glyph-name="uni0405" unicode="&#x405;" horiz-adv-x="408" 
d="M205 -11q-78 0 -125 53.5t-50 144.5q0 14 14 14h63q12 0 14 -13q3 -114 85 -114q81 0 81 83q0 42 -26 81t-63 70.5t-73.5 64.5t-62.5 79t-26 99q0 73 45 116.5t120 43.5q73 0 118.5 -52t48.5 -140q0 -13 -13 -13h-63q-13 0 -13 13q-4 108 -77 108q-76 0 -76 -76
q0 -39 26 -75.5t63 -67.5t74 -64.5t63 -82t26 -104.5q0 -77 -47.5 -122.5t-125.5 -45.5z" />
    <glyph glyph-name="uni0406" unicode="&#x406;" horiz-adv-x="211" 
d="M60 687q0 13 14 13h63q13 0 13 -13v-673q0 -14 -13 -14h-63q-14 0 -14 14v673z" />
    <glyph glyph-name="uni0407" unicode="&#x407;" horiz-adv-x="211" 
d="M47 775q-20 0 -32 12t-12 32t12 32t32 12q19 0 31.5 -12.5t12.5 -31.5t-12.5 -31.5t-31.5 -12.5zM165 775q-19 0 -31.5 12.5t-12.5 31.5t12.5 31.5t31.5 12.5t31.5 -12.5t12.5 -31.5t-12.5 -31.5t-31.5 -12.5zM60 687q0 13 14 13h63q13 0 13 -13v-673q0 -14 -13 -14h-63
q-14 0 -14 14v673z" />
    <glyph glyph-name="uni0408" unicode="&#x408;" horiz-adv-x="406" 
d="M182 -11q-76 0 -121.5 54t-47.5 144q0 14 13 14h64q13 0 13 -13q2 -53 23 -83.5t58 -30.5t57.5 26.5t20.5 73.5v513q0 13 14 13h63q14 0 14 -13v-507q0 -88 -44.5 -139.5t-126.5 -51.5z" />
    <glyph glyph-name="uni0409" unicode="&#x409;" horiz-adv-x="686" 
d="M26 -1q-6 -1 -9.5 2.5t-3.5 10.5v57q0 13 13 14q34 4 54 31.5t20 73.5v334q0 79 47.5 129.5t122.5 50.5h98q54 0 54 -54v-227h72q76 0 121.5 -51.5t45.5 -128.5v-63q0 -81 -44.5 -130.5t-122.5 -49.5h-109q-53 0 -53 54v566h-61q-36 0 -58 -26.5t-22 -68.5v-342
q0 -78 -46 -127.5t-119 -54.5zM422 82h68q36 0 58 27t22 69v62q0 42 -22 69.5t-58 27.5h-68v-255z" />
    <glyph glyph-name="uni040A" unicode="&#x40a;" horiz-adv-x="653" 
d="M464 403q75 0 119 -50t44 -126v-52q0 -82 -43.5 -130t-119.5 -48h-112q-54 0 -54 53v270h-147v-306q0 -14 -13 -14h-64q-14 0 -14 14v673q0 13 14 13h64q13 0 13 -13v-284h147v284q0 13 14 13h63q13 0 13 -13v-284h76zM536 172v54q0 43 -21 68.5t-56 25.5h-71v-239h71
q35 0 56 25t21 66z" />
    <glyph glyph-name="uni040B" unicode="&#x40b;" horiz-adv-x="506" 
d="M148 0q-13 0 -13 14v602h-109q-13 0 -13 14v57q0 13 13 13h307q14 0 14 -13v-57q0 -14 -14 -14h-108v-143q34 34 80 34q71 0 112.5 -45.5t41.5 -120.5v-327q0 -14 -14 -14h-62q-14 0 -14 14v328q0 39 -19 61.5t-54 22.5q-31 0 -51 -22.5t-20 -58.5v-331q0 -14 -14 -14
h-63z" />
    <glyph glyph-name="uni040C" unicode="&#x40c;" horiz-adv-x="446" 
d="M185 769q-8 0 -11 5t2 11l65 91q5 8 17 8h57q8 0 10.5 -5t-3.5 -12l-79 -90q-5 -8 -17 -8h-41zM74 0q-14 0 -14 14v673q0 13 14 13h63q13 0 13 -13v-293h80l82 295q3 11 15 11h63q15 0 12 -15l-92 -314q88 -40 88 -161v-196q0 -14 -14 -14h-63q-14 0 -14 14v198
q0 45 -22.5 71.5t-61.5 26.5h-73v-296q0 -14 -13 -14h-63z" />
    <glyph glyph-name="uni040D" unicode="&#x40d;" horiz-adv-x="452" 
d="M286 769h-41q-12 0 -17 8l-79 90q-6 7 -3.5 12t10.5 5h57q12 0 17 -8l65 -91q5 -6 2 -11t-11 -5zM301 687q0 13 14 13h63q13 0 13 -13v-650q0 -40 -40 -40h-125q-81 0 -126.5 52t-45.5 134v504q0 13 13 13h64q13 0 13 -13v-505q0 -45 22.5 -73t60.5 -28h74v606z" />
    <glyph glyph-name="uni040E" unicode="&#x40e;" horiz-adv-x="420" 
d="M200 768q-49 0 -79.5 27t-35.5 72q-2 14 13 14h39q11 0 15 -12q6 -37 48 -37q43 0 49 37q3 12 14 12h39q14 0 14 -14q-5 -45 -36 -72t-80 -27zM52 -4q-13 0 -13 14v56q0 14 13 14h140q38 0 61 27t23 71v78h-75q-78 0 -125.5 51t-47.5 132v248q0 13 14 13h63q14 0 14 -13
v-250q0 -43 23 -70.5t60 -27.5h74v348q0 13 13 13h64q13 0 13 -13v-507q0 -81 -47 -132.5t-125 -51.5h-142z" />
    <glyph glyph-name="uni040F" unicode="&#x40f;" horiz-adv-x="454" 
d="M197 -111q-14 0 -14 13v98h-69q-54 0 -54 54v633q0 13 14 13h63q13 0 13 -13v-603h154v603q0 13 14 13h63q13 0 13 -13v-633q0 -54 -53 -54h-69v-98q0 -13 -14 -13h-61z" />
    <glyph glyph-name="uni0410" unicode="&#x410;" horiz-adv-x="451" 
d="M67 0q-13 0 -13 14v512q0 83 47 133.5t124 50.5t124.5 -50.5t47.5 -133.5v-512q0 -14 -14 -14h-63q-14 0 -14 14v222h-162v-222q0 -14 -13 -14h-64zM144 319h162v211q0 45 -21 70t-60 25q-38 0 -59.5 -25t-21.5 -70v-211z" />
    <glyph glyph-name="uni0411" unicode="&#x411;" horiz-adv-x="417" 
d="M95 -3q-19 0 -30 11t-11 30v484q0 79 49.5 130t127.5 51h117q14 0 14 -13v-57q0 -14 -14 -14h-117q-39 0 -63 -27t-24 -70v-111h81q79 0 124 -52t45 -132v-47q0 -84 -44.5 -133.5t-124.5 -49.5h-130zM144 81h77q38 0 60 27.5t22 71.5v47q0 44 -22 72t-60 28h-77v-246z
" />
    <glyph glyph-name="uni0412" unicode="&#x412;" horiz-adv-x="428" 
d="M316 360q38 -19 59.5 -55.5t21.5 -83.5v-46q0 -81 -47 -129.5t-123 -48.5h-133q-17 0 -28.5 11.5t-11.5 29.5v496q0 79 44.5 127.5t117.5 48.5q75 0 120.5 -48t45.5 -128v-44q0 -93 -66 -130zM144 539v-144h72q35 0 55.5 23.5t20.5 64.5v56q0 41 -20 64t-56 23
q-34 0 -53 -23t-19 -64zM305 170v52q0 43 -21 67t-59 24h-81v-233h81q38 0 59 24t21 66z" />
    <glyph glyph-name="uni0413" unicode="&#x413;" horiz-adv-x="359" 
d="M67 0q-13 0 -13 14v504q0 86 47.5 135.5t129.5 49.5h102q13 0 13 -14v-56q0 -14 -13 -14h-100q-43 0 -66 -25t-23 -72v-508q0 -14 -13 -14h-64z" />
    <glyph glyph-name="uni0414" unicode="&#x414;" horiz-adv-x="502" 
d="M25 -113q-14 0 -14 14v146q0 29 32 44q33 13 47.5 51t14.5 118v266q0 77 47 127.5t122 50.5h102q54 0 54 -54v-562l5 -4q25 0 39.5 -16t14.5 -43v-124q0 -14 -13 -14h-61q-14 0 -14 14v99h-302v-99q0 -14 -13 -14h-61zM146 84h194v536h-64q-36 0 -58.5 -26.5t-22.5 -66.5
v-279q0 -69 -11 -106.5t-38 -57.5z" />
    <glyph glyph-name="uni0415" unicode="&#x415;" horiz-adv-x="361" 
d="M214 -3q-75 0 -123 50.5t-48 128.5v348q0 78 48 128.5t123 50.5h105q13 0 13 -13v-57q0 -14 -13 -14h-98q-39 0 -63 -27t-24 -70v-127h160q14 0 14 -14v-54q0 -14 -14 -14h-160v-135q0 -43 24 -70t63 -27h98q13 0 13 -14v-57q0 -13 -13 -13h-105z" />
    <glyph glyph-name="uni0416" unicode="&#x416;" horiz-adv-x="666" 
d="M64 0q-14 0 -14 14v203q0 52 22.5 93t62.5 61l-91 314q-3 15 12 15h62q13 0 16 -11l82 -295h73v293q0 13 13 13h62q14 0 14 -13v-293h73l82 295q3 11 15 11h63q14 0 11 -15l-90 -314q39 -20 61.5 -61t22.5 -93v-203q0 -14 -13 -14h-64q-13 0 -13 14v205q0 40 -22.5 65.5
t-59.5 25.5h-66v-296q0 -14 -14 -14h-62q-13 0 -13 14v296h-67q-37 0 -59 -25.5t-22 -65.5v-205q0 -14 -14 -14h-63z" />
    <glyph glyph-name="uni0417" unicode="&#x417;" horiz-adv-x="409" 
d="M199 -8q-74 0 -120.5 47t-51.5 125q0 13 14 13h64q13 0 13 -13q3 -40 25 -64t57 -24q39 0 63 26t24 67v53q0 40 -23.5 66t-62.5 26h-68q-13 0 -13 14v54q0 14 13 14h65q34 0 53.5 25t19.5 65v53q0 41 -19 64.5t-53 23.5q-67 0 -72 -91q-2 -14 -14 -14h-64q-13 0 -13 14
q4 81 47.5 128t115.5 47t117 -49.5t45 -128.5v-42q0 -90 -64 -132q38 -20 59 -57t21 -81v-49q0 -80 -49 -130t-129 -50z" />
    <glyph glyph-name="uni0418" unicode="&#x418;" horiz-adv-x="452" 
d="M301 687q0 13 14 13h63q13 0 13 -13v-650q0 -40 -40 -40h-125q-81 0 -126.5 52t-45.5 134v504q0 13 13 13h64q13 0 13 -13v-505q0 -45 22.5 -73t60.5 -28h74v606z" />
    <glyph glyph-name="uni0419" unicode="&#x419;" horiz-adv-x="452" 
d="M222 768q-49 0 -79.5 27t-35.5 72q-2 14 13 14h39q11 0 15 -12q6 -37 48 -37q43 0 49 37q3 12 14 12h39q14 0 14 -14q-5 -45 -36 -72t-80 -27zM301 687q0 13 14 13h63q13 0 13 -13v-650q0 -40 -40 -40h-125q-81 0 -126.5 52t-45.5 134v504q0 13 13 13h64q13 0 13 -13
v-505q0 -45 22.5 -73t60.5 -28h74v606z" />
    <glyph glyph-name="uni041A" unicode="&#x41a;" horiz-adv-x="446" 
d="M74 0q-14 0 -14 14v673q0 13 14 13h63q13 0 13 -13v-293h80l82 295q3 11 15 11h63q15 0 12 -15l-92 -314q88 -40 88 -161v-196q0 -14 -14 -14h-63q-14 0 -14 14v198q0 45 -22.5 71.5t-61.5 26.5h-73v-296q0 -14 -13 -14h-63z" />
    <glyph glyph-name="uni041B" unicode="&#x41b;" horiz-adv-x="485" 
d="M26 -3q-6 -1 -9.5 2.5t-3.5 10.5v57q0 13 13 14q35 4 54.5 33.5t19.5 80.5v332q0 79 46.5 127.5t123.5 48.5h102q53 0 53 -53v-637q0 -13 -13 -13h-63q-14 0 -14 13v606h-64q-38 0 -59 -24.5t-21 -67.5v-339q0 -83 -44.5 -135t-120.5 -56z" />
    <glyph glyph-name="uni041C" unicode="&#x41c;" horiz-adv-x="633" 
d="M74 0q-14 0 -14 14v647q0 42 41 42h58q31 0 42 -35l78 -247q27 -89 37 -124h2q9 37 36 124l78 247q11 35 42 35h59q40 0 40 -42v-647q0 -14 -13 -14h-63q-13 0 -13 14l1 364q0 107 3 215h-2q-27 -102 -39 -140l-73 -229q-9 -34 -45 -34h-25q-36 0 -45 34l-73 229
q-25 85 -38 140h-3q2 -75 4 -215v-364q0 -14 -13 -14h-62z" />
    <glyph glyph-name="uni041D" unicode="&#x41d;" horiz-adv-x="454" 
d="M304 687q0 13 14 13h63q13 0 13 -13v-673q0 -14 -13 -14h-63q-14 0 -14 14v299h-154v-299q0 -14 -13 -14h-63q-14 0 -14 14v673q0 13 14 13h63q13 0 13 -13v-291h154v291z" />
    <glyph glyph-name="uni041E" unicode="&#x41e;" horiz-adv-x="439" 
d="M220 -10q-78 0 -127.5 52t-49.5 136v344q0 84 49.5 136t127.5 52t127 -51t49 -130v-358q0 -79 -49 -130t-127 -51zM220 74q38 0 61.5 26t23.5 67v366q0 41 -23.5 67t-61.5 26q-39 0 -62.5 -27t-23.5 -73v-352q0 -46 23.5 -73t62.5 -27z" />
    <glyph glyph-name="uni041F" unicode="&#x41f;" horiz-adv-x="457" 
d="M74 0q-14 0 -14 14v633q0 53 54 53h230q53 0 53 -53v-633q0 -14 -13 -14h-65q-13 0 -13 14v602h-154v-602q0 -14 -14 -14h-64z" />
    <glyph glyph-name="uni0420" unicode="&#x420;" horiz-adv-x="420" 
d="M67 0q-13 0 -13 14v512q0 83 45.5 134t122.5 51q78 0 125 -51.5t47 -133.5v-102q0 -77 -46.5 -124.5t-124.5 -47.5h-79v-238q0 -14 -13 -14h-64zM144 336h76q39 0 61 23t22 63v108q0 44 -21.5 70t-58.5 26t-58 -26t-21 -70v-194z" />
    <glyph glyph-name="uni0421" unicode="&#x421;" horiz-adv-x="410" 
d="M214 -11q-77 0 -124 49.5t-47 130.5v362q0 81 47 130.5t124 49.5q74 0 120 -52.5t48 -139.5q0 -13 -13 -13h-64q-13 0 -13 13q-1 52 -22.5 79.5t-56.5 27.5q-37 0 -58 -24t-21 -66v-372q0 -42 21 -66t58 -24q38 0 60.5 29.5t23.5 84.5q0 13 13 13h64q13 0 13 -14
q-3 -91 -50 -144.5t-123 -53.5z" />
    <glyph glyph-name="uni0422" unicode="&#x422;" horiz-adv-x="359" 
d="M333 700q14 0 14 -13v-57q0 -14 -14 -14h-108v-602q0 -14 -14 -14h-63q-13 0 -13 14v602h-109q-13 0 -13 14v57q0 13 13 13h307z" />
    <glyph glyph-name="uni0423" unicode="&#x423;" horiz-adv-x="420" 
d="M52 -4q-13 0 -13 14v56q0 14 13 14h140q38 0 61 27t23 71v78h-75q-78 0 -125.5 51t-47.5 132v248q0 13 14 13h63q14 0 14 -13v-250q0 -43 23 -70.5t60 -27.5h74v348q0 13 13 13h64q13 0 13 -13v-507q0 -81 -47 -132.5t-125 -51.5h-142z" />
    <glyph glyph-name="uni0424" unicode="&#x424;" horiz-adv-x="621" 
d="M279 -52q-13 0 -13 14v86h-59q-80 0 -128 52.5t-48 139.5v232q0 86 48 138.5t128 52.5h59v72q0 14 13 14h63q13 0 13 -14v-72h58q81 0 128.5 -52t47.5 -139v-232q0 -87 -47.5 -139.5t-128.5 -52.5h-58v-86q0 -14 -13 -14h-63zM211 132h55v447h-55q-43 0 -66 -27.5
t-23 -76.5v-239q0 -49 23 -76.5t66 -27.5zM355 132h55q42 0 65.5 27.5t23.5 76.5v239q0 49 -23.5 76.5t-65.5 27.5h-55v-447z" />
    <glyph glyph-name="uni0425" unicode="&#x425;" horiz-adv-x="426" 
d="M383 492q0 -90 -70 -137q70 -48 70 -138v-203q0 -14 -14 -14h-63q-14 0 -14 14v207q0 40 -22 65.5t-57 25.5t-57 -25.5t-22 -65.5v-207q0 -14 -14 -14h-63q-14 0 -14 14v203q0 90 70 138q-70 47 -70 137v195q0 13 14 13h63q14 0 14 -13v-199q0 -40 22 -66t57 -26t57 26
t22 66v199q0 13 14 13h63q14 0 14 -13v-195z" />
    <glyph glyph-name="uni0426" unicode="&#x426;" horiz-adv-x="463" 
d="M377 -111q-13 0 -13 13v97h-140q-80 0 -125 52t-45 136v500q0 13 13 13h64q13 0 13 -13v-502q0 -46 22.5 -74.5t59.5 -28.5h75v605q0 13 14 13h63q14 0 14 -13v-604l5 -1q53 0 53 -53v-127q0 -13 -13 -13h-60z" />
    <glyph glyph-name="uni0427" unicode="&#x427;" horiz-adv-x="416" 
d="M280 0q-14 0 -14 14v225h-75q-80 0 -126.5 49t-46.5 131v268q0 13 14 13h64q13 0 13 -13v-270q0 -44 21.5 -69t61.5 -25h74v364q0 13 14 13h63q13 0 13 -13v-673q0 -14 -13 -14h-63z" />
    <glyph glyph-name="uni0428" unicode="&#x428;" horiz-adv-x="675" 
d="M223 -1q-78 0 -123.5 51t-45.5 129v508q0 13 13 13h63q14 0 14 -13v-509q0 -41 22.5 -68.5t58.5 -27.5h66v605q0 13 14 13h62q13 0 13 -13v-605h145v605q0 13 14 13h62q14 0 14 -13v-635q0 -53 -54 -53h-338z" />
    <glyph glyph-name="uni0429" unicode="&#x429;" horiz-adv-x="689" 
d="M603 -111q-13 0 -13 13v98h-367q-78 0 -123.5 51.5t-45.5 129.5v506q0 13 13 13h63q14 0 14 -13v-508q0 -41 22.5 -68t58.5 -27h67v603q0 13 13 13h63q13 0 13 -13v-603h147v603q0 13 13 13h63q14 0 14 -13v-603h5q53 0 53 -54v-128q0 -13 -13 -13h-60z" />
    <glyph glyph-name="uni042A" unicode="&#x42a;" horiz-adv-x="475" 
d="M283 421q74 0 120 -50.5t46 -129.5v-63q0 -79 -46 -129.5t-120 -50.5h-118q-54 0 -54 54v564h-85q-13 0 -13 14v57q0 13 13 13h123q52 0 52 -53v-226h82zM358 174v70q0 39 -22 66t-58 27h-77v-255h77q36 0 58 26.5t22 65.5z" />
    <glyph glyph-name="uni042B" unicode="&#x42b;" horiz-adv-x="618" 
d="M482 0q-14 0 -14 14v674q0 13 14 13h63q13 0 13 -13v-674q0 -14 -13 -14h-63zM114 -2q-54 0 -54 54v635q0 13 14 13h63q13 0 13 -13v-266h82q74 0 120 -50.5t46 -129.5v-63q0 -79 -46 -129.5t-120 -50.5h-118zM150 82h77q36 0 58 26t22 64v74q0 39 -22 65t-58 26h-77
v-255z" />
    <glyph glyph-name="uni042C" unicode="&#x42c;" horiz-adv-x="424" 
d="M114 -2q-54 0 -54 54v635q0 13 14 13h63q13 0 13 -13v-266h82q73 0 119.5 -51t46.5 -129v-63q0 -78 -46.5 -129t-119.5 -51h-118zM150 82h77q36 0 58 26t22 66v70q0 40 -22 66.5t-58 26.5h-77v-255z" />
    <glyph glyph-name="uni042D" unicode="&#x42d;" horiz-adv-x="410" 
d="M196 711q77 0 124 -49.5t47 -130.5v-362q0 -81 -47 -130.5t-124 -49.5q-76 0 -123 53.5t-50 144.5q0 14 13 14h64q13 0 13 -13q1 -55 23.5 -84.5t60.5 -29.5q37 0 58 24t21 66v153h-162q-13 0 -13 13v50q0 14 13 14h162v142q0 42 -21 66t-58 24q-35 0 -56.5 -27.5
t-22.5 -79.5q0 -13 -13 -13h-64q-13 0 -13 13q2 87 48 139.5t120 52.5z" />
    <glyph glyph-name="uni042E" unicode="&#x42e;" horiz-adv-x="627" 
d="M415 711q74 0 121.5 -49.5t47.5 -127.5v-368q0 -78 -47.5 -127.5t-121.5 -49.5q-73 0 -120.5 49.5t-47.5 127.5v146h-97v-298q0 -14 -13 -14h-63q-14 0 -14 14v673q0 13 14 13h63q13 0 13 -13v-291h97v138q0 78 47.5 127.5t120.5 49.5zM493 162v376q0 40 -22 64t-56 24
t-55.5 -24t-21.5 -64v-376q0 -40 21.5 -64t55.5 -24t56 24t22 64z" />
    <glyph glyph-name="uni042F" unicode="&#x42f;" horiz-adv-x="437" 
d="M212 711q78 0 124.5 -51t46.5 -134v-512q0 -14 -14 -14h-63q-14 0 -14 14v240h-78l-89 -242q-3 -12 -14 -12h-67q-18 0 -13 15l100 259q-43 20 -67.5 63t-24.5 99v90q0 83 47 134t126 51zM292 337v193q0 44 -21.5 70t-59.5 26t-59.5 -26t-21.5 -70v-96q0 -44 22.5 -70.5
t61.5 -26.5h78z" />
    <glyph glyph-name="uni0430" unicode="&#x430;" horiz-adv-x="389" 
d="M194 -10q-72 0 -117 45t-45 116q0 63 44 105t114 42h75v55q0 34 -19.5 55t-52.5 21q-31 0 -48.5 -18.5t-19.5 -50.5q-1 -12 -14 -12h-58q-13 0 -13 14q5 66 46.5 107.5t107.5 41.5q70 0 113 -45.5t43 -116.5v-201q0 -70 -42.5 -114t-113.5 -44zM193 72q34 0 53 20.5
t19 55.5v73h-72q-34 0 -54.5 -20t-20.5 -50q0 -36 20 -57.5t55 -21.5z" />
    <glyph glyph-name="uni0431" unicode="&#x431;" horiz-adv-x="405" 
d="M206 -11q-71 0 -115 43.5t-44 111.5v339q0 154 142 195q42 12 125 31q15 2 15 -12v-54q0 -13 -12 -14q-77 -15 -112 -27q-38 -14 -55 -39.5t-17 -78.5v-30q36 36 94 36q60 0 99 -44.5t39 -114.5v-187q0 -68 -44 -111.5t-115 -43.5zM206 71q34 0 54 22t20 58v177
q0 36 -20 58.5t-54 22.5t-53.5 -22t-19.5 -59v-177q0 -36 19.5 -58t53.5 -22z" />
    <glyph glyph-name="uni0432" unicode="&#x432;" horiz-adv-x="399" 
d="M293 270q34 -15 54 -48t20 -77q0 -65 -42 -106t-107 -41h-120q-51 0 -51 50v312q0 67 41 109t109 42q67 0 107.5 -39t40.5 -102q0 -69 -52 -100zM132 367v-66h62q33 0 51 17.5t18 48.5q0 66 -66 66q-31 0 -48 -17.5t-17 -48.5zM205 79q35 0 56 19.5t21 52.5q0 34 -21 54
t-56 20h-73v-146h73z" />
    <glyph glyph-name="uni0433" unicode="&#x433;" horiz-adv-x="296" 
d="M61 0q-14 0 -14 14v319q0 82 42 125.5t121 43.5h53q13 0 13 -13v-55q0 -13 -13 -13h-52q-78 0 -78 -81v-326q0 -14 -14 -14h-58z" />
    <glyph glyph-name="uni0434" unicode="&#x434;" horiz-adv-x="458" 
d="M26 -111q-14 0 -14 13v144q0 25 25 35q51 19 51 89v169q0 70 43.5 116.5t109.5 46.5h91q52 0 52 -49v-373l7 -2q47 0 47 -49v-127q0 -13 -14 -13h-54q-14 0 -14 13v98h-262v-98q0 -13 -14 -13h-54zM135 78h164v346h-52q-34 0 -54.5 -24.5t-20.5 -66.5v-150
q0 -65 -37 -105z" />
    <glyph glyph-name="uni0435" unicode="&#x435;" horiz-adv-x="390" 
d="M197 -10q-71 0 -114.5 45t-43.5 118v196q1 72 44.5 116.5t114.5 44.5q70 1 115 -44t45 -114q0 -66 -44 -108.5t-115 -42.5h-74v-52q0 -35 19.5 -56.5t53.5 -21.5q30 0 49.5 20.5t21.5 53.5q1 13 14 13h59q13 0 13 -13q-4 -70 -47.5 -112.5t-110.5 -42.5zM125 279h74
q34 0 53.5 19.5t19.5 51.5q0 36 -20 57.5t-54 21.5q-35 0 -54 -21t-19 -58v-71z" />
    <glyph glyph-name="uni0436" unicode="&#x436;" horiz-adv-x="589" 
d="M52 0q-13 0 -13 14v126q0 50 24.5 87t65.5 54l-99 203q-6 16 12 16h62q12 0 16 -10l91 -192h42v189q0 13 13 13h57q14 0 14 -13v-189h41l91 192q4 10 16 10h63q17 0 11 -16l-99 -203q41 -17 65.5 -54t24.5 -87v-126q0 -14 -13 -14h-58q-13 0 -13 14v129q0 34 -21 54
t-55 20h-53v-203q0 -14 -14 -14h-57q-13 0 -13 14v203h-54q-34 0 -55 -20t-21 -54v-129q0 -14 -13 -14h-58z" />
    <glyph glyph-name="uni0437" unicode="&#x437;" horiz-adv-x="372" 
d="M180 -11q-68 0 -112 41.5t-49 107.5q0 14 14 14h59q11 0 14 -13q3 -31 22.5 -49.5t52.5 -18.5q34 0 53.5 20.5t19.5 58.5q0 35 -20 55t-58 20h-39q-14 0 -14 13v49q0 14 14 14h35q33 0 51.5 18t18.5 48t-17 47.5t-48 17.5q-59 0 -63 -68q-2 -14 -14 -14h-58q-15 0 -13 14
q4 69 44 108t104 39q66 0 106.5 -39t40.5 -102q0 -70 -58 -101q34 -14 54.5 -45t20.5 -74q0 -72 -44.5 -116.5t-116.5 -44.5z" />
    <glyph glyph-name="uni0438" unicode="&#x438;" horiz-adv-x="409" 
d="M208 -1q-71 0 -116 44t-45 114v330q0 13 14 13h58q14 0 14 -13v-333q0 -34 20.5 -54t54.5 -20h61v407q0 13 13 13h59q13 0 13 -13v-438q0 -50 -50 -50h-96z" />
    <glyph glyph-name="uni0439" unicode="&#x439;" horiz-adv-x="409" 
d="M198 561q-49 0 -80 27t-36 73q0 14 13 14h39q12 0 15 -13q6 -36 49 -36q42 0 48 36q4 13 15 13h39q13 0 13 -14q-5 -45 -36 -72.5t-79 -27.5zM208 -1q-71 0 -116 44t-45 114v330q0 13 14 13h58q14 0 14 -13v-333q0 -34 20.5 -54t54.5 -20h61v407q0 13 13 13h59
q13 0 13 -13v-438q0 -50 -50 -50h-96z" />
    <glyph glyph-name="uni043A" unicode="&#x43a;" horiz-adv-x="401" 
d="M272 281q41 -17 65.5 -54.5t24.5 -86.5v-126q0 -14 -13 -14h-59q-13 0 -13 14v129q0 34 -21 54t-55 20h-60v-203q0 -14 -14 -14h-58q-14 0 -14 14v473q0 13 14 13h58q14 0 14 -13v-189h49l92 192q4 10 16 10h62q17 0 11 -16z" />
    <glyph glyph-name="uni043B" unicode="&#x43b;" horiz-adv-x="426" 
d="M26 -2q-14 0 -14 14v54q0 14 14 14q47 5 47 76v189q0 70 45 114t116 44h87q50 0 50 -50v-439q0 -14 -14 -14h-57q-14 0 -14 14v408h-52q-34 0 -55 -20t-21 -54v-190q0 -72 -35 -114.5t-97 -45.5z" />
    <glyph glyph-name="uni043C" unicode="&#x43c;" horiz-adv-x="550" 
d="M69 0q-14 0 -14 14v447q0 40 41 40h35q35 0 47 -30l58 -130q20 -45 38 -98h2q19 58 38 99l58 129q12 30 47 30h35q40 0 40 -40v-447q0 -14 -13 -14h-57q-15 0 -13 14v226q0 88 3 143h-2q-19 -52 -38 -99l-45 -107q-12 -31 -47 -31h-14q-35 0 -47 31l-46 107
q-10 23 -37 99h-2q3 -55 3 -143v-226q0 -14 -14 -14h-56z" />
    <glyph glyph-name="uni043D" unicode="&#x43d;" horiz-adv-x="414" 
d="M274 487q0 13 14 13h58q13 0 13 -13v-473q0 -14 -13 -14h-58q-14 0 -14 14v203h-134v-203q0 -14 -13 -14h-58q-14 0 -14 14v473q0 13 14 13h58q13 0 13 -13v-190h134v190z" />
    <glyph glyph-name="uni043E" unicode="&#x43e;" horiz-adv-x="399" 
d="M199 -11q-72 0 -116 45.5t-44 117.5v196q0 72 44 117.5t116 45.5t116 -45.5t44 -117.5v-196q0 -72 -44 -117.5t-116 -45.5zM199 70q34 0 54 21.5t20 57.5v202q0 36 -20 57.5t-54 21.5t-53.5 -21.5t-19.5 -57.5v-202q0 -36 19.5 -57.5t53.5 -21.5z" />
    <glyph glyph-name="uni043F" unicode="&#x43f;" horiz-adv-x="415" 
d="M310 500q50 0 50 -50v-436q0 -14 -14 -14h-58q-13 0 -13 14v405h-134v-405q0 -14 -14 -14h-58q-14 0 -14 14v436q0 50 50 50h205z" />
    <glyph glyph-name="uni0440" unicode="&#x440;" horiz-adv-x="405" 
d="M207 511q71 0 115 -45.5t44 -117.5v-196q0 -71 -42 -117t-103 -46q-51 0 -88 34v-210q0 -13 -13 -13h-59q-14 0 -14 13v535q0 72 44 117.5t116 45.5zM280 149v202q0 36 -19.5 57t-53.5 21t-54 -21t-20 -57v-202q0 -36 20 -57t54 -21t53.5 21t19.5 57z" />
    <glyph glyph-name="uni0441" unicode="&#x441;" horiz-adv-x="385" 
d="M198 -11q-71 0 -115 45.5t-44 117.5v196q0 72 43.5 117.5t113.5 45.5q67 0 109 -42t47 -111q2 -13 -13 -13h-59q-13 0 -14 13q-3 34 -21 52.5t-49 18.5q-33 0 -52 -21.5t-19 -56.5v-202q0 -36 19.5 -57t52.5 -21q31 0 50.5 20.5t22.5 57.5q1 14 13 14h60q13 0 13 -15
q-5 -71 -47.5 -115t-110.5 -44z" />
    <glyph glyph-name="uni0442" unicode="&#x442;" horiz-adv-x="335" 
d="M138 0q-14 0 -14 14v405h-98q-14 0 -14 14v54q0 13 14 13h283q13 0 13 -13v-54q0 -14 -13 -14h-99v-405q0 -14 -14 -14h-58z" />
    <glyph glyph-name="uni0443" unicode="&#x443;" horiz-adv-x="418" 
d="M349 500q14 0 14 -13v-535q0 -74 -43 -118.5t-115 -44.5q-68 0 -110.5 43.5t-46.5 117.5q-2 14 13 14h59q12 0 13 -14q2 -38 21 -58.5t51 -20.5q34 0 53 20.5t19 57.5v101q-31 -36 -79 -36q-66 0 -108.5 45.5t-42.5 116.5v311q0 13 14 13h58q14 0 14 -13v-314
q0 -35 19.5 -56.5t52.5 -21.5t52.5 21.5t19.5 56.5v314q0 13 14 13h58z" />
    <glyph glyph-name="uni0444" unicode="&#x444;" horiz-adv-x="599" 
d="M271 -200q-13 0 -13 13v184h-64q-69 0 -112 45.5t-43 117.5v180q0 72 43 117.5t112 45.5h64v184q0 13 13 13h57q14 0 14 -13v-184h64q69 0 111.5 -45.5t42.5 -117.5v-180q0 -72 -42.5 -117.5t-111.5 -45.5h-64v-184q0 -13 -14 -13h-57zM194 78h64v344h-64
q-32 0 -50.5 -21.5t-18.5 -56.5v-188q0 -35 18.5 -56.5t50.5 -21.5zM342 78h64q32 0 50.5 21.5t18.5 56.5v188q0 35 -18.5 56.5t-50.5 21.5h-64v-344z" />
    <glyph glyph-name="uni0445" unicode="&#x445;" horiz-adv-x="391" 
d="M53 0q-14 0 -14 14v113q0 78 67 123q-67 43 -67 121v116q0 13 14 13h59q13 0 13 -13v-119q0 -35 19 -56.5t51 -21.5q33 0 52 21.5t19 56.5v119q0 13 13 13h59q13 0 13 -13v-116q0 -79 -66 -121q66 -44 66 -123v-113q0 -14 -13 -14h-59q-13 0 -13 14v116q0 36 -19 57.5
t-52 21.5q-32 0 -51 -21.5t-19 -57.5v-116q0 -14 -13 -14h-59z" />
    <glyph glyph-name="uni0446" unicode="&#x446;" horiz-adv-x="443" 
d="M349 -111q-13 0 -13 13v95h-128q-71 0 -116 44t-45 114v332q0 13 14 13h58q14 0 14 -13v-335q0 -34 20.5 -54t54.5 -20h68v409q0 13 13 13h59q13 0 13 -13v-408l7 -1q51 0 51 -50v-126q0 -13 -14 -13h-56z" />
    <glyph glyph-name="uni0447" unicode="&#x447;" horiz-adv-x="395" 
d="M274 0q-13 0 -13 14v151h-73q-67 0 -112 44.5t-45 111.5v166q0 13 14 13h60q14 0 14 -13v-169q0 -31 20 -51.5t49 -20.5h73v241q0 13 13 13h60q14 0 14 -13v-473q0 -14 -14 -14h-60z" />
    <glyph glyph-name="uni0448" unicode="&#x448;" horiz-adv-x="608" 
d="M205 -2q-71 0 -114.5 45t-43.5 117v327q0 13 14 13h57q14 0 14 -13v-330q0 -35 19.5 -56.5t52.5 -21.5h59v408q0 13 13 13h58q13 0 13 -13v-408h129v408q0 13 14 13h57q14 0 14 -13v-439q0 -50 -50 -50h-306z" />
    <glyph glyph-name="uni0449" unicode="&#x449;" horiz-adv-x="631" 
d="M549 -111q-14 0 -14 13v96h-330q-71 0 -114.5 45t-43.5 117v327q0 13 14 13h57q14 0 14 -13v-330q0 -35 19.5 -56.5t52.5 -21.5h59v408q0 13 13 13h58q13 0 13 -13v-408h129v408q0 13 14 13h57q14 0 14 -13v-407l7 -1q50 0 50 -50v-127q0 -13 -13 -13h-56z" />
    <glyph glyph-name="uni044A" unicode="&#x44a;" horiz-adv-x="453" 
d="M260 316q71 0 115.5 -44t44.5 -114q0 -72 -45 -116.5t-116 -44.5h-102q-51 0 -51 50v373h-80q-14 0 -14 14v53q0 13 14 13h116q49 0 49 -50v-134h69zM259 78q34 0 55 21.5t21 59.5q0 37 -21 58.5t-55 21.5h-68v-161h68z" />
    <glyph glyph-name="uni044B" unicode="&#x44b;" horiz-adv-x="555" 
d="M105 -3q-50 0 -50 50v440q0 13 14 13h58q13 0 13 -13v-180h69q70 0 115.5 -42.5t45.5 -110.5q0 -69 -46 -113t-116 -44h-103zM428 0q-13 0 -13 14v473q0 13 13 13h59q13 0 13 -13v-473q0 -14 -13 -14h-59zM140 78h68q34 0 55 20.5t21 56.5q0 34 -21 54t-55 20h-68v-151z
" />
    <glyph glyph-name="uni044C" unicode="&#x44c;" horiz-adv-x="394" 
d="M105 -3q-50 0 -50 50v440q0 13 14 13h58q13 0 13 -13v-171h69q71 0 115.5 -44t44.5 -114q0 -72 -45 -116.5t-116 -44.5h-103zM140 77h68q35 0 55.5 21.5t20.5 60.5q0 37 -20.5 58.5t-55.5 21.5h-68v-162z" />
    <glyph glyph-name="uni044D" unicode="&#x44d;" horiz-adv-x="390" 
d="M192 -11q-68 0 -111 43t-47 115q0 15 13 15h60q12 0 13 -14q5 -77 73 -77q34 0 53 20.5t19 57.5v75h-157q-14 0 -14 13v39q0 13 14 13h157v62q0 37 -19 57.5t-53 20.5q-67 0 -73 -71q-1 -13 -13 -13h-60q-13 0 -13 13q4 70 47.5 111.5t111.5 41.5q71 0 114.5 -45
t43.5 -118v-196q0 -73 -44 -118t-115 -45z" />
    <glyph glyph-name="uni044E" unicode="&#x44e;" horiz-adv-x="561" 
d="M368 -11q-69 0 -111 45.5t-42 117.5v64h-75v-202q0 -14 -14 -14h-57q-14 0 -14 14v473q0 13 14 13h57q14 0 14 -13v-190h75v51q0 72 42 117.5t111 45.5t111.5 -45.5t42.5 -117.5v-196q0 -72 -42.5 -117.5t-111.5 -45.5zM368 71q32 0 50.5 21t18.5 57v202q0 36 -18.5 57
t-50.5 21t-50.5 -21t-18.5 -57v-202q0 -36 18.5 -57t50.5 -21z" />
    <glyph glyph-name="uni044F" unicode="&#x44f;" horiz-adv-x="407" 
d="M207 511q67 0 109.5 -43t42.5 -113v-341q0 -14 -13 -14h-58q-13 0 -13 14v168h-74l-84 -170q-4 -12 -17 -12h-62q-8 0 -11.5 4.5t0.5 11.5l97 186q-38 19 -60 57t-22 88q0 74 46.5 119t118.5 45zM275 262v92q0 36 -18.5 55.5t-49.5 19.5q-36 0 -57.5 -21.5t-21.5 -61.5
t20.5 -62t56.5 -22h70z" />
    <glyph glyph-name="uni0451" unicode="&#x451;" horiz-adv-x="390" 
d="M132 568q-20 0 -32 12t-12 32t12 32t32 12t32 -12t12 -32t-12 -32t-32 -12zM250 568q-20 0 -32 12t-12 32t12 32t32 12t32 -12t12 -32t-12 -32t-32 -12zM197 -10q-71 0 -114.5 45t-43.5 118v196q1 72 44.5 116.5t114.5 44.5q70 1 115 -44t45 -114q0 -66 -44 -108.5
t-115 -42.5h-74v-52q0 -35 19.5 -56.5t53.5 -21.5q30 0 49.5 20.5t21.5 53.5q1 13 14 13h59q13 0 13 -13q-4 -70 -47.5 -112.5t-110.5 -42.5zM125 279h74q34 0 53.5 19.5t19.5 51.5q0 36 -20 57.5t-54 21.5q-35 0 -54 -21t-19 -58v-71z" />
    <glyph glyph-name="uni0452" unicode="&#x452;" horiz-adv-x="455" 
d="M259 507q67 0 108 -45.5t41 -118.5v-363q0 -88 -45.5 -137t-126.5 -51q-14 0 -14 13v54q0 14 14 14q87 5 87 100v373q0 36 -19.5 58t-53.5 22q-32 0 -52 -22t-20 -58v-332q0 -14 -13 -14h-59q-13 0 -13 14v564h-67q-13 0 -13 13v31q0 13 13 13h67v52q0 13 13 13h59
q13 0 13 -13v-52h129q14 0 14 -13v-31q0 -13 -14 -13h-129v-105q34 34 81 34z" />
    <glyph glyph-name="uni0453" unicode="&#x453;" horiz-adv-x="298" 
d="M275 677q9 0 11 -5t-3 -12l-70 -93q-5 -8 -17 -8h-41q-8 0 -10.5 4.5t1.5 11.5l57 92q5 10 16 10h56zM61 0q-14 0 -14 14v319q0 82 42 125.5t121 43.5h53q13 0 13 -13v-55q0 -13 -13 -13h-52q-78 0 -78 -81v-326q0 -14 -14 -14h-58z" />
    <glyph glyph-name="uni0454" unicode="&#x454;" horiz-adv-x="390" 
d="M198 -11q-71 0 -115 45t-44 118v196q0 73 43.5 118t114.5 45q68 0 111.5 -41.5t47.5 -111.5q0 -13 -13 -13h-60q-12 0 -13 13q-6 71 -73 71q-34 0 -53 -20.5t-19 -57.5v-62h157q14 0 14 -13v-39q0 -13 -14 -13h-157v-75q0 -37 19 -57.5t53 -20.5q68 0 73 77q1 14 13 14
h60q13 0 13 -15q-4 -72 -47 -115t-111 -43z" />
    <glyph glyph-name="uni0455" unicode="&#x455;" horiz-adv-x="386" 
d="M199 -11q-75 0 -120 45t-47 114q0 15 14 15h58q13 0 14 -13q6 -79 80 -79q34 0 52 17t18 45q0 27 -23.5 47t-57.5 34t-68 31t-57.5 49t-23.5 77q0 61 42 100.5t109 39.5q76 0 115.5 -41.5t41.5 -105.5q0 -14 -13 -14h-59q-12 0 -14 13q-2 30 -20 48.5t-49 18.5t-49.5 -17
t-18.5 -44q0 -26 24 -44.5t57.5 -32.5t67.5 -31t58 -49.5t24 -79.5q0 -62 -43 -102.5t-112 -40.5z" />
    <glyph glyph-name="uni0456" unicode="&#x456;" horiz-adv-x="196" 
d="M98 563q-22 0 -36.5 14.5t-14.5 36.5q0 23 14.5 37.5t36.5 14.5t37 -15t15 -37q0 -20 -15 -35.5t-37 -15.5zM69 0q-14 0 -14 14v473q0 13 14 13h58q14 0 14 -13v-473q0 -14 -14 -14h-58z" />
    <glyph glyph-name="uni0457" unicode="&#x457;" horiz-adv-x="201" 
d="M48 570q-18 0 -29 11t-12 30q1 19 12 30t29 11t30 -11.5t12 -29.5t-12 -29.5t-30 -11.5zM155 570q-19 0 -30.5 11t-11.5 30t11.5 30t30.5 11q17 0 28.5 -11t11.5 -30t-11.5 -30t-28.5 -11zM72 0q-14 0 -14 14v473q0 13 14 13h58q14 0 14 -13v-473q0 -14 -14 -14h-58z" />
    <glyph glyph-name="uni0458" unicode="&#x458;" horiz-adv-x="255" 
d="M148 563q-22 0 -36.5 14.5t-14.5 36.5q0 23 14.5 37.5t36.5 14.5t37 -15t15 -37q0 -20 -15 -35.5t-37 -15.5zM14 -205q-14 0 -14 13v55q0 13 14 13h7q86 3 86 91v520q0 13 13 13h59q13 0 13 -13v-513q0 -83 -44 -130.5t-125 -48.5h-9z" />
    <glyph glyph-name="uni0459" unicode="&#x459;" horiz-adv-x="626" 
d="M441 307q70 0 115 -43t45 -112q0 -68 -45.5 -111t-115.5 -43h-96q-50 0 -50 50v373h-61q-34 0 -55 -20t-21 -54v-206q0 -60 -36.5 -100t-94.5 -43q-14 0 -14 14v54q0 14 14 14q20 2 33.5 18.5t13.5 40.5v205q0 70 45 114t115 44h94q51 0 51 -50v-145h63zM440 79
q34 0 55.5 20.5t21.5 55.5q0 34 -21.5 54t-55.5 20h-62v-150h62z" />
    <glyph glyph-name="uni045A" unicode="&#x45a;" horiz-adv-x="611" 
d="M69 0q-14 0 -14 14v473q0 13 14 13h58q13 0 13 -13v-185h137v185q0 13 13 13h58q14 0 14 -13v-183h64q71 0 116 -43t45 -111t-46 -110.5t-116 -42.5h-98q-50 0 -50 50v174h-137v-207q0 -14 -13 -14h-58zM362 78h63q34 0 55.5 20t21.5 55q0 33 -21.5 53t-55.5 20h-63v-148
z" />
    <glyph glyph-name="uni045B" unicode="&#x45b;" horiz-adv-x="455" 
d="M106 0q-14 0 -14 14v564h-66q-14 0 -14 13v31q0 13 14 13h66v52q0 13 14 13h58q14 0 14 -13v-52h129q14 0 14 -13v-31q0 -13 -14 -13h-129v-106q32 35 80 35q68 0 109 -45.5t41 -118.5v-329q0 -14 -13 -14h-59q-14 0 -14 14v332q0 37 -19 58.5t-54 21.5q-32 0 -51.5 -22
t-19.5 -58v-332q0 -14 -14 -14h-58z" />
    <glyph glyph-name="uni045C" unicode="&#x45c;" horiz-adv-x="401" 
d="M292 677q9 0 11 -5t-3 -12l-70 -93q-5 -8 -17 -8h-41q-8 0 -10.5 4.5t1.5 11.5l57 92q5 10 16 10h56zM272 281q41 -17 65.5 -54.5t24.5 -86.5v-126q0 -14 -13 -14h-59q-13 0 -13 14v129q0 34 -21 54t-55 20h-60v-203q0 -14 -14 -14h-58q-14 0 -14 14v473q0 13 14 13h58
q14 0 14 -13v-189h49l92 192q4 10 16 10h62q17 0 11 -16z" />
    <glyph glyph-name="uni045D" unicode="&#x45d;" horiz-adv-x="409" 
d="M108 677h56q11 0 16 -10l57 -92q4 -7 1.5 -11.5t-10.5 -4.5h-41q-12 0 -17 8l-70 93q-5 7 -3 12t11 5zM208 -1q-71 0 -116 44t-45 114v330q0 13 14 13h58q14 0 14 -13v-333q0 -34 20.5 -54t54.5 -20h61v407q0 13 13 13h59q13 0 13 -13v-438q0 -50 -50 -50h-96z" />
    <glyph glyph-name="uni045E" unicode="&#x45e;" horiz-adv-x="418" 
d="M203 561q-49 0 -80 27t-36 73q0 14 13 14h39q12 0 15 -13q6 -36 49 -36q42 0 48 36q4 13 15 13h39q13 0 13 -14q-5 -45 -36 -72.5t-79 -27.5zM349 500q14 0 14 -13v-535q0 -74 -43 -118.5t-115 -44.5q-68 0 -110.5 43.5t-46.5 117.5q-2 14 13 14h59q12 0 13 -14
q2 -38 21 -58.5t51 -20.5q34 0 53 20.5t19 57.5v101q-31 -36 -79 -36q-66 0 -108.5 45.5t-42.5 116.5v311q0 13 14 13h58q14 0 14 -13v-314q0 -35 19.5 -56.5t52.5 -21.5t52.5 21.5t19.5 56.5v314q0 13 14 13h58z" />
    <glyph glyph-name="uni045F" unicode="&#x45f;" horiz-adv-x="422" 
d="M185 -111q-13 0 -13 13v98h-67q-50 0 -50 50v437q0 13 14 13h58q14 0 14 -13v-406h140v406q0 13 14 13h58q13 0 13 -13v-437q0 -50 -50 -50h-66v-98q0 -13 -13 -13h-52z" />
    <glyph glyph-name="uni0490" unicode="&#x490;" horiz-adv-x="357" 
d="M331 790q14 0 14 -13v-143q0 -14 -14 -14h-100q-41 0 -64 -25.5t-23 -70.5v-510q0 -14 -13 -14h-64q-13 0 -13 14v510q0 81 48 130.5t129 49.5h36v73q0 13 14 13h50z" />
    <glyph glyph-name="uni0491" unicode="&#x491;" horiz-adv-x="312" 
d="M61 0q-14 0 -14 14v335q0 69 41.5 111t108.5 42l21 2v61q0 13 13 13h48q13 0 13 -13v-92q0 -51 -50 -51h-38q-33 0 -52 -18.5t-19 -51.5v-338q0 -14 -14 -14h-58z" />
    <glyph glyph-name="Wgrave" unicode="&#x1e80;" horiz-adv-x="669" 
d="M341 777l-79 90q-6 7 -3.5 12t10.5 5h57q12 0 17 -8l65 -91q5 -6 2 -11t-11 -5h-41q-12 0 -17 8zM602 700q14 0 14 -13v-512q0 -85 -44 -135.5t-119 -50.5q-71 0 -119 63q-46 -63 -117 -63q-75 0 -119 50.5t-44 135.5v512q0 13 13 13h63q13 0 13 -13v-516q0 -97 74 -97
q33 0 53 25.5t20 71.5v516q0 13 13 13h63q13 0 13 -13v-516q0 -46 20.5 -71.5t53.5 -25.5q73 0 73 97v516q0 13 13 13h63z" />
    <glyph glyph-name="wgrave" unicode="&#x1e81;" horiz-adv-x="611" 
d="M217 677h56q11 0 16 -10l57 -92q4 -7 1.5 -11.5t-10.5 -4.5h-41q-12 0 -17 8l-70 93q-5 7 -3 12t11 5zM414 -11q-69 0 -108 61q-39 -61 -108 -61q-68 0 -109.5 45.5t-41.5 117.5v334q0 14 14 14h57q14 0 14 -14v-337q0 -36 17.5 -57t48.5 -21t48 21t17 57v337q0 14 14 14
h58q13 0 13 -14v-337q0 -36 17.5 -57t48.5 -21t48 21t17 57v337q0 14 14 14h58q13 0 13 -14v-334q0 -72 -41 -117.5t-109 -45.5z" />
    <glyph glyph-name="Wacute" unicode="&#x1e82;" horiz-adv-x="669" 
d="M295 769q-8 0 -11 5t2 11l65 91q5 8 17 8h57q8 0 10.5 -5t-3.5 -12l-79 -90q-5 -8 -17 -8h-41zM602 700q14 0 14 -13v-512q0 -85 -44 -135.5t-119 -50.5q-71 0 -119 63q-46 -63 -117 -63q-75 0 -119 50.5t-44 135.5v512q0 13 13 13h63q13 0 13 -13v-516q0 -97 74 -97
q33 0 53 25.5t20 71.5v516q0 13 13 13h63q13 0 13 -13v-516q0 -46 20.5 -71.5t53.5 -25.5q73 0 73 97v516q0 13 13 13h63z" />
    <glyph glyph-name="wacute" unicode="&#x1e83;" horiz-adv-x="611" 
d="M383 677q9 0 11 -5t-3 -12l-70 -93q-5 -8 -17 -8h-41q-8 0 -10.5 4.5t1.5 11.5l57 92q5 10 16 10h56zM414 -11q-69 0 -108 61q-39 -61 -108 -61q-68 0 -109.5 45.5t-41.5 117.5v334q0 14 14 14h57q14 0 14 -14v-337q0 -36 17.5 -57t48.5 -21t48 21t17 57v337q0 14 14 14
h58q13 0 13 -14v-337q0 -36 17.5 -57t48.5 -21t48 21t17 57v337q0 14 14 14h58q13 0 13 -14v-334q0 -72 -41 -117.5t-109 -45.5z" />
    <glyph glyph-name="Wdieresis" unicode="&#x1e84;" horiz-adv-x="669" 
d="M276 775q-20 0 -32 12t-12 32t12 32t32 12t32 -12.5t12 -31.5t-12 -31.5t-32 -12.5zM394 775q-20 0 -32 12.5t-12 31.5t12 31.5t32 12.5t32 -12.5t12 -31.5t-12 -31.5t-32 -12.5zM602 700q14 0 14 -13v-512q0 -85 -44 -135.5t-119 -50.5q-71 0 -119 63q-46 -63 -117 -63
q-75 0 -119 50.5t-44 135.5v512q0 13 13 13h63q13 0 13 -13v-516q0 -97 74 -97q33 0 53 25.5t20 71.5v516q0 13 13 13h63q13 0 13 -13v-516q0 -46 20.5 -71.5t53.5 -25.5q73 0 73 97v516q0 13 13 13h63z" />
    <glyph glyph-name="wdieresis" unicode="&#x1e85;" horiz-adv-x="611" 
d="M248 568q-20 0 -32 12t-12 32t12 32t32 12t32 -12t12 -32t-12 -32t-32 -12zM366 568q-20 0 -32 12t-12 32t12 32t32 12t32 -12t12 -32t-12 -32t-32 -12zM414 -11q-69 0 -108 61q-39 -61 -108 -61q-68 0 -109.5 45.5t-41.5 117.5v334q0 14 14 14h57q14 0 14 -14v-337
q0 -36 17.5 -57t48.5 -21t48 21t17 57v337q0 14 14 14h58q13 0 13 -14v-337q0 -36 17.5 -57t48.5 -21t48 21t17 57v337q0 14 14 14h58q13 0 13 -14v-334q0 -72 -41 -117.5t-109 -45.5z" />
    <glyph glyph-name="Ygrave" unicode="&#x1ef2;" horiz-adv-x="416" 
d="M272 769h-41q-12 0 -17 8l-79 90q-6 7 -3.5 12t10.5 5h57q12 0 17 -8l65 -91q5 -6 2 -11t-11 -5zM177 0q-14 0 -14 14v215q-56 14 -90.5 61t-34.5 112v285q0 13 14 13h63q14 0 14 -13v-289q0 -40 21.5 -65.5t57.5 -25.5t58 26t22 65v289q0 13 13 13h63q14 0 14 -13v-285
q0 -65 -34 -112.5t-91 -60.5v-215q0 -14 -13 -14h-63z" />
    <glyph glyph-name="ygrave" unicode="&#x1ef3;" horiz-adv-x="418" 
d="M180 567l-70 93q-5 7 -3 12t11 5h56q11 0 16 -10l57 -92q4 -7 1.5 -11.5t-10.5 -4.5h-41q-12 0 -17 8zM349 500q14 0 14 -13v-535q0 -74 -43 -118.5t-115 -44.5q-68 0 -110.5 43.5t-46.5 117.5q-2 14 13 14h59q12 0 13 -14q2 -38 21 -58.5t51 -20.5q34 0 53 20.5t19 57.5
v101q-31 -36 -79 -36q-66 0 -108.5 45.5t-42.5 116.5v311q0 13 14 13h58q14 0 14 -13v-314q0 -35 19.5 -56.5t52.5 -21.5t52.5 21.5t19.5 56.5v314q0 13 14 13h58z" />
    <glyph glyph-name="endash" unicode="&#x2013;" horiz-adv-x="386" 
d="M28 219q-13 0 -13 13v50q0 14 13 14h330q14 0 14 -14v-50q0 -13 -14 -13h-330z" />
    <glyph glyph-name="emdash" unicode="&#x2014;" horiz-adv-x="517" 
d="M17 282q0 14 13 14h457q14 0 14 -14v-50q0 -13 -14 -13h-457q-13 0 -13 13v50z" />
    <glyph glyph-name="quoteleft" unicode="&#x2018;" horiz-adv-x="115" 
d="M94 516q0 -13 -14 -13h-55q-15 0 -13 15l33 170q1 12 14 12h32q13 0 13 -14z" />
    <glyph glyph-name="quoteright" unicode="&#x2019;" horiz-adv-x="115" 
d="M22 687q0 13 14 13h55q15 0 13 -15l-33 -170q-1 -12 -14 -12h-32q-13 0 -13 14z" />
    <glyph glyph-name="quotesinglbase" unicode="&#x201a;" horiz-adv-x="125" 
d="M23 77q0 13 14 13h55q15 0 13 -15l-33 -170q-2 -12 -14 -12h-32q-13 0 -13 14z" />
    <glyph glyph-name="quotedblleft" unicode="&#x201c;" horiz-adv-x="228" 
d="M92 516q0 -13 -14 -13h-55q-15 0 -13 15l33 170q1 12 14 12h32q13 0 13 -14zM206 516q0 -13 -14 -13h-55q-15 0 -13 15l33 170q1 12 14 12h32q13 0 13 -14z" />
    <glyph glyph-name="quotedblright" unicode="&#x201d;" horiz-adv-x="234" 
d="M24 687q0 13 14 13h55q15 0 13 -15l-33 -170q-1 -12 -14 -12h-32q-13 0 -13 14zM138 687q0 13 14 13h55q15 0 13 -15l-33 -170q-1 -12 -14 -12h-32q-13 0 -13 14z" />
    <glyph glyph-name="quotedblbase" unicode="&#x201e;" horiz-adv-x="126" 
d="M23 77q0 13 14 13h55q15 0 13 -15l-33 -170q-2 -12 -14 -12h-32q-13 0 -13 14z" />
    <glyph glyph-name="dagger" unicode="&#x2020;" horiz-adv-x="352" 
d="M319 514q14 0 14 -14v-51q0 -14 -14 -14h-102v-522q0 -13 -13 -13h-56q-14 0 -14 13v522h-102q-13 0 -13 14v51q0 14 13 14h102v173q0 13 14 13h56q13 0 13 -13v-173h102z" />
    <glyph glyph-name="daggerdbl" unicode="&#x2021;" horiz-adv-x="358" 
d="M322 435h-102v-226h102q14 0 14 -13v-52q0 -13 -14 -13h-102v-218q0 -13 -13 -13h-56q-14 0 -14 13v218h-102q-13 0 -13 13v52q0 13 13 13h102v226h-102q-13 0 -13 14v51q0 14 13 14h102v173q0 13 14 13h56q13 0 13 -13v-173h102q14 0 14 -14v-51q0 -14 -14 -14z" />
    <glyph glyph-name="bullet" unicode="&#x2022;" horiz-adv-x="198" 
d="M98 175q-31 0 -53 21.5t-22 53.5t22 54.5t53 22.5q32 0 54.5 -22.5t22.5 -54.5t-22.5 -53.5t-54.5 -21.5z" />
    <glyph glyph-name="ellipsis" unicode="&#x2026;" horiz-adv-x="502" 
d="M81 -10q-25 0 -40.5 16t-15.5 40q0 25 15.5 40.5t40.5 15.5q24 0 40 -15.5t16 -40.5q0 -24 -16 -40t-40 -16zM251 -10q-24 0 -40 16t-16 40q0 25 16 40.5t40 15.5t40 -15.5t16 -40.5q0 -24 -16 -40t-40 -16zM422 -10q-25 0 -40.5 16t-15.5 40q0 25 15.5 40.5t40.5 15.5
q24 0 40 -15.5t16 -40.5q0 -24 -16 -40t-40 -16z" />
    <glyph glyph-name="perthousand" unicode="&#x2030;" horiz-adv-x="834" 
d="M116 391q-40 0 -65.5 25t-25.5 63v141q0 38 25.5 64t65.5 26q38 0 63.5 -26t25.5 -64v-141q0 -38 -25.5 -63t-63.5 -25zM34 -4q-7 0 -11.5 5t-0.5 10l501 682q9 11 17 11h40q8 0 12 -5t0 -10l-500 -682q-9 -11 -17 -11h-41zM116 445q13 0 21.5 9.5t8.5 24.5v142
q0 16 -8 25.5t-22 9.5t-22.5 -9.5t-8.5 -25.5v-142q0 -15 8.5 -24.5t22.5 -9.5zM500 -9q-39 0 -64.5 25t-25.5 63v141q0 38 25.5 64t64.5 26t64.5 -26t25.5 -64v-141q0 -38 -25.5 -63t-64.5 -25zM730 -9q-39 0 -64.5 25t-25.5 63v141q0 38 25.5 64t64.5 26t64.5 -26
t25.5 -64v-141q0 -38 -25.5 -63t-64.5 -25zM500 45q13 0 21.5 9.5t8.5 24.5v142q0 16 -8 25.5t-22 9.5t-22.5 -9.5t-8.5 -25.5v-142q0 -15 8.5 -24.5t22.5 -9.5zM730 45q13 0 21.5 9.5t8.5 24.5v142q0 16 -8 25.5t-22 9.5t-22.5 -9.5t-8.5 -25.5v-142q0 -15 8.5 -24.5
t22.5 -9.5z" />
    <glyph glyph-name="guilsinglleft" unicode="&#x2039;" horiz-adv-x="255" 
d="M153 83q-11 0 -16 8l-103 138q-21 28 0 56l103 138q5 8 16 8h60q8 0 10.5 -5t-2.5 -11l-120 -158l120 -158q5 -6 2.5 -11t-10.5 -5h-60z" />
    <glyph glyph-name="guilsinglright" unicode="&#x203a;" horiz-adv-x="255" 
d="M102 83h-60q-8 0 -10.5 5t2.5 11l120 158l-120 158q-5 6 -2.5 11t10.5 5h60q11 0 16 -8l103 -138q21 -28 0 -56l-103 -138q-5 -8 -16 -8z" />
    <glyph glyph-name="Euro" unicode="&#x20ac;" horiz-adv-x="476" 
d="M435 201q13 0 13 -14q-3 -91 -50 -144.5t-123 -53.5q-77 0 -124 49.5t-47 130.5v96h-62q-14 0 -14 14v30q0 13 14 13h62v58h-62q-14 0 -14 14v30q0 13 14 13h62v94q0 81 47 130.5t124 49.5q74 0 120 -52.5t48 -139.5q0 -13 -13 -13h-64q-13 0 -13 13q-1 52 -22.5 79.5
t-56.5 27.5q-37 0 -58 -24t-21 -66v-99h163q14 0 14 -13v-30q0 -14 -14 -14h-163v-58h163q14 0 14 -13v-30q0 -14 -14 -14h-163v-101q0 -42 21 -66t58 -24q38 0 60.5 29.5t23.5 84.5q0 13 13 13h64z" />
    <glyph glyph-name="trademark" unicode="&#x2122;" horiz-adv-x="498" 
d="M392 704q38 0 60.5 -24.5t22.5 -67.5v-179q0 -7 -6 -7h-37q-6 0 -6 7v179q0 45 -34 45q-32 0 -32 -45v-179q0 -7 -6 -7h-36q-7 0 -7 7v179q0 45 -32 45q-34 0 -34 -45v-179q0 -7 -6 -7h-37q-6 0 -6 7v179q0 43 22 67.5t61 24.5q35 0 57 -32q21 32 56 32zM168 700
q6 0 6 -6v-32q0 -7 -6 -7h-49v-223q0 -6 -6 -6h-36q-7 0 -7 6v223h-47q-6 0 -6 7v32q0 6 6 6h145z" />
    <glyph glyph-name="partialdiff" unicode="&#x2202;" horiz-adv-x="405" 
d="M144 710q98 0 155.5 -59t57.5 -157v-340q0 -73 -43.5 -119t-115.5 -46t-115.5 46t-43.5 119v191q0 72 41 117t109 45q51 0 83 -37v30q0 58 -35 95t-94 37h-24q-13 0 -13 14v51q0 13 13 13h25zM272 151v197q0 35 -20 56.5t-54 21.5t-53.5 -21.5t-19.5 -56.5v-197
q0 -37 19.5 -58.5t53.5 -21.5q35 0 54.5 21.5t19.5 58.5z" />
    <glyph glyph-name="emptyset" unicode="&#x2205;" horiz-adv-x="791" 
d="M737 745q8 0 12 -4.5t0 -10.5l-98 -121q94 -99 94 -259q0 -163 -97 -261.5t-256 -98.5q-114 0 -198 52l-61 -76q-9 -11 -18 -11h-61q-8 0 -12 4.5t0 10.5l95 118q-98 100 -98 262q0 163 97 261.5t256 98.5q118 0 202 -55l64 79q9 11 18 11h61zM115 350q0 -123 71 -202
l361 448q-68 41 -155 41q-125 0 -201 -79t-76 -208zM669 350q0 120 -67 198l-360 -446q66 -39 150 -39q125 0 201 79t76 208z" />
    <glyph glyph-name="product" unicode="&#x220f;" horiz-adv-x="467" 
d="M74 -100q-14 0 -14 13v734q0 53 54 53h240q53 0 53 -53v-734q0 -13 -13 -13h-65q-13 0 -13 13v703h-164v-703q0 -13 -14 -13h-64z" />
    <glyph glyph-name="summation" unicode="&#x2211;" horiz-adv-x="340" 
d="M54 -4q-30 0 -30 28q0 36 6 47l140 279l-140 279q-6 11 -6 47q0 28 30 28h258q13 0 13 -14v-57q0 -13 -13 -13h-193l121 -236q4 -8 4 -17v-34q0 -9 -4 -17l-121 -236h193q13 0 13 -13v-57q0 -14 -13 -14h-258z" />
    <glyph glyph-name="minus" unicode="&#x2212;" horiz-adv-x="467" 
d="M57 320q-14 0 -14 14v51q0 14 14 14h354q13 0 13 -14v-51q0 -14 -13 -14h-354z" />
    <glyph glyph-name="radical" unicode="&#x221a;" horiz-adv-x="474" 
d="M461 800q15 0 12 -15l-152 -753q-7 -36 -43 -36h-49q-35 0 -43 36l-81 390h-79q-13 0 -13 14v51q0 13 13 13h115q38 0 44 -37l69 -376l130 701q2 12 15 12h62z" />
    <glyph glyph-name="infinity" unicode="&#x221e;" horiz-adv-x="612" 
d="M429 406q62 0 102.5 -42.5t40.5 -112.5q0 -68 -40 -110.5t-101 -42.5q-80 0 -125 77q-45 -77 -125 -77q-62 0 -102 42.5t-40 110.5q0 70 41 112.5t103 42.5q76 0 123 -68q47 68 123 68zM187 177q27 0 42.5 19t32.5 59q-15 36 -31.5 54.5t-43.5 18.5q-28 0 -46 -19.5
t-18 -56.5q0 -34 18 -54.5t46 -20.5zM425 177q28 0 46 20.5t18 54.5q0 37 -18 56.5t-46 19.5q-27 0 -43.5 -18.5t-31.5 -54.5q11 -26 19 -40.5t22.5 -26t33.5 -11.5z" />
    <glyph glyph-name="integral" unicode="&#x222b;" horiz-adv-x="316" 
d="M294 704q13 0 13 -14v-54q0 -14 -13 -14h-7q-87 -1 -87 -90v-558q0 -83 -44 -130.5t-125 -48.5h-9q-14 0 -14 13v55q0 13 14 13h7q86 3 86 91v558q0 83 44 130.5t126 48.5h9z" />
    <glyph glyph-name="approxequal" unicode="&#x2248;" horiz-adv-x="467" 
d="M380 479q10 11 18 0l26 -41q7 -11 0 -19q-40 -53 -98 -53q-32 0 -94 23t-84 23q-37 0 -61 -32q-11 -12 -18 0l-26 42q-6 11 1 19q40 51 97 51q32 0 94 -23t84 -23q36 0 61 33zM380 318q9 12 18 0l26 -41q7 -10 0 -19q-40 -53 -98 -53q-32 0 -94 23t-84 23q-37 0 -61 -32
q-11 -12 -18 0l-26 43q-6 9 1 19q41 51 97 51q32 0 94 -23t84 -23q37 0 61 32z" />
    <glyph glyph-name="notequal" unicode="&#x2260;" horiz-adv-x="467" 
d="M411 386h-116l-41 -83h157q13 0 13 -14v-52q0 -13 -13 -13h-196l-36 -72q-4 -10 -16 -10h-51q-8 0 -11.5 4.5t0.5 11.5l33 66h-77q-14 0 -14 13v52q0 14 14 14h116l41 83h-157q-14 0 -14 13v52q0 14 14 14h197l35 71q3 10 16 10h51q17 0 11 -16l-32 -65h76q13 0 13 -14
v-52q0 -13 -13 -13z" />
    <glyph glyph-name="lessequal" unicode="&#x2264;" horiz-adv-x="415" 
d="M344 491q0 -9 -7 -11l-198 -91l198 -91q7 -3 7 -11v-50q0 -10 -7.5 -14.5t-16.5 -0.5l-250 122q-6 2 -6 11v68q0 8 6 11l250 122q9 4 16.5 -0.5t7.5 -14.5v-50zM331 187q13 0 13 -14v-50q0 -13 -13 -13h-253q-14 0 -14 13v50q0 14 14 14h253z" />
    <glyph glyph-name="greaterequal" unicode="&#x2265;" horiz-adv-x="432" 
d="M324 434q6 -3 6 -11v-68q0 -9 -6 -11l-250 -122q-9 -4 -16.5 0.5t-7.5 14.5v50q0 8 7 11l198 91l-198 91q-7 2 -7 11v50q0 10 7.5 14.5t16.5 0.5zM316 187q14 0 14 -14v-50q0 -13 -14 -13h-253q-13 0 -13 13v50q0 14 13 14h253z" />
    <glyph glyph-name="lozenge" unicode="&#x25ca;" horiz-adv-x="453" 
d="M207 -4q-31 0 -45 35l-118 293q-9 26 0 53l118 292q14 35 45 35h39q32 0 46 -35l117 -292q9 -26 0 -53l-117 -293q-14 -35 -46 -35h-39zM227 82l101 268l-101 268l-102 -268z" />
    <glyph glyph-name="uni0162.ss01" horiz-adv-x="361" 
d="M334 700q13 0 13 -13v-57q0 -14 -13 -14h-109v-602q0 -14 -11 -14h-5l-8 -44h6q31 -2 52 -23t21 -52q0 -40 -26 -62.5t-67 -22.5q-37 0 -62 19.5t-29 53.5q-3 13 13 13h27q9 0 14 -11q8 -23 37 -23q17 0 27.5 9t10.5 24q0 13 -10.5 22t-26.5 9q-13 0 -35 -4q-5 -1 -10 2
l-3 3q-4 6 -3 10l15 77h-5q-12 0 -12 14v602h-108q-14 0 -14 14v57q0 13 14 13h307z" />
    <glyph glyph-name="i.loclTRK" horiz-adv-x="196" 
d="M98 563q-22 0 -36.5 14.5t-14.5 36.5q0 23 14.5 37.5t36.5 14.5t37 -15t15 -37q0 -20 -15 -35.5t-37 -15.5zM69 0q-14 0 -14 14v473q0 13 14 13h58q14 0 14 -13v-473q0 -14 -14 -14h-58z" />
    <glyph glyph-name="uni0163.ss01" horiz-adv-x="294" 
d="M198 -44q31 -2 52.5 -23t21.5 -52q0 -40 -26 -62.5t-67 -22.5q-37 0 -62 19.5t-29 53.5q-3 13 12 13h28q9 0 14 -11q8 -23 37 -23q17 0 27.5 9t10.5 24q0 13 -10.5 22t-26.5 9q-15 0 -35 -4q-5 -1 -10 2l-3 3q-4 6 -3 10l19 98q-66 43 -66 151v250h-56q-13 0 -13 13v52
q0 13 13 13h56v129q0 14 14 14h58q13 0 13 -14v-129h77q13 0 13 -13v-52q0 -13 -13 -13h-77v-251q0 -95 77 -95h11q14 0 14 -13v-54q0 -14 -14 -14h-15q-23 0 -40 4l-7 -43h5z" />
    <glyph glyph-name="uni0414.loclBGR" horiz-adv-x="489" 
d="M20 -113q-13 0 -13 14v124q0 26 14.5 42.5t40.5 16.5h2l106 581q6 37 43 37h64q37 0 43 -37l106 -581h2q26 0 40.5 -16t14.5 -43v-124q0 -14 -14 -14h-61q-14 0 -14 14v99h-299v-99q0 -14 -13 -14h-62zM155 84h180l-90 515z" />
    <glyph glyph-name="uni0418.loclBGR" horiz-adv-x="457" 
d="M217 -11q-74 0 -118.5 51t-44.5 133v514q0 13 13 13h64q13 0 13 -13v-518q0 -44 21 -70t56 -26q40 0 62.5 26.5t22.5 73.5v514q0 13 14 13h63q14 0 14 -13v-673q0 -14 -14 -14h-34q-11 0 -15 11l-7 35q-37 -57 -110 -57z" />
    <glyph glyph-name="uni0419.loclBGR" horiz-adv-x="457" 
d="M225 768q-49 0 -79.5 27t-35.5 72q-2 14 13 14h39q10 0 15 -12q6 -37 48 -37q43 0 49 37q3 12 14 12h39q14 0 14 -14q-5 -45 -36 -72t-80 -27zM217 -11q-74 0 -118.5 51t-44.5 133v514q0 13 13 13h64q13 0 13 -13v-518q0 -44 21 -70t56 -26q40 0 62.5 26.5t22.5 73.5v514
q0 13 14 13h63q14 0 14 -13v-673q0 -14 -14 -14h-34q-11 0 -15 11l-7 35q-37 -57 -110 -57z" />
    <glyph glyph-name="uni040D.loclBGR" horiz-adv-x="457" 
d="M289 769h-41q-12 0 -17 8l-79 90q-6 7 -3.5 12t10.5 5h57q12 0 17 -8l65 -91q5 -6 2 -11t-11 -5zM217 -11q-74 0 -118.5 51t-44.5 133v514q0 13 13 13h64q13 0 13 -13v-518q0 -44 21 -70t56 -26q40 0 62.5 26.5t22.5 73.5v514q0 13 14 13h63q14 0 14 -13v-673
q0 -14 -14 -14h-34q-11 0 -15 11l-7 35q-37 -57 -110 -57z" />
    <glyph glyph-name="uni041B.loclBGR" horiz-adv-x="397" 
d="M388 14q4 -14 -12 -14h-65q-13 0 -14 12l-98 586l-98 -586q-1 -12 -15 -12h-65q-14 0 -12 14l119 653q6 37 43 37h55q37 0 43 -37z" />
    <glyph glyph-name="uni041F.loclBGR" horiz-adv-x="451" 
d="M67 0q-13 0 -13 14v513q0 82 47 133t124 51t124.5 -51t47.5 -133v-513q0 -14 -14 -14h-63q-14 0 -14 14v517q0 43 -22 69t-59 26t-59 -26t-22 -69v-517q0 -14 -13 -14h-64z" />
    <glyph glyph-name="uni0422.loclBGR" horiz-adv-x="359" 
d="M333 700q14 0 14 -13v-57q0 -14 -14 -14h-108v-602q0 -14 -14 -14h-63q-13 0 -13 14v602h-109q-13 0 -13 14v57q0 13 13 13h307z" />
    <glyph glyph-name="uni0423.loclBGR" horiz-adv-x="408" 
d="M351 700q13 0 13 -13v-506q0 -80 -47 -131.5t-125 -51.5h-143q-14 0 -14 14v56q0 14 14 14h138q40 0 63.5 27t23.5 71v88q-34 -32 -83 -32q-75 0 -121.5 51.5t-46.5 133.5v266q0 13 14 13h63q14 0 14 -13v-270q0 -44 21.5 -70t58.5 -26t58.5 26.5t21.5 72.5v267
q0 13 13 13h64z" />
    <glyph glyph-name="uni040E.loclBGR" horiz-adv-x="408" 
d="M201 768q-49 0 -79.5 27t-35.5 72q-2 14 13 14h39q10 0 15 -12q6 -37 48 -37q43 0 49 37q3 12 14 12h39q14 0 14 -14q-5 -45 -36 -72t-80 -27zM351 700q13 0 13 -13v-506q0 -80 -47 -131.5t-125 -51.5h-143q-14 0 -14 14v56q0 14 14 14h138q40 0 63.5 27t23.5 71v88
q-34 -32 -83 -32q-75 0 -121.5 51.5t-46.5 133.5v266q0 13 14 13h63q14 0 14 -13v-270q0 -44 21.5 -70t58.5 -26t58.5 26.5t21.5 72.5v267q0 13 13 13h64z" />
    <glyph glyph-name="uni0424.loclBGR" horiz-adv-x="650" 
d="M448 709q69 0 113.5 -48t44.5 -124v-374q0 -76 -44.5 -124.5t-113.5 -48.5q-43 0 -78 27v-104q0 -14 -14 -14h-62q-14 0 -14 14v104q-37 -28 -78 -28q-70 0 -114.5 48.5t-44.5 124.5v376q0 75 44.5 123.5t114.5 48.5q40 0 78 -27v97q0 13 14 13h62q14 0 14 -13v-97
q36 26 78 26zM207 73q32 0 52.5 23.5t20.5 60.5v386q0 37 -20.5 60t-52.5 23q-33 0 -53.5 -23t-20.5 -60v-386q0 -37 20.5 -60.5t53.5 -23.5zM517 158v384q0 37 -21 60t-53 23t-52.5 -23t-20.5 -59v-386q0 -36 20.5 -59.5t52.5 -23.5t53 23.5t21 60.5z" />
    <glyph glyph-name="uni0427.loclBGR" horiz-adv-x="429" 
d="M292 0q-13 0 -13 14v249q-31 -34 -83 -34q-75 0 -121.5 51.5t-46.5 133.5v273q0 13 14 13h63q14 0 14 -13v-277q0 -44 21.5 -70t58.5 -26t58.5 26.5t21.5 72.5v274q0 13 13 13h64q13 0 13 -13v-673q0 -14 -13 -14h-64z" />
    <glyph glyph-name="uni0426.loclBGR" horiz-adv-x="489" 
d="M404 -111q-13 0 -13 13v98q-44 7 -60 45q-39 -56 -115 -56q-74 0 -118 51t-44 133v514q0 13 13 13h64q13 0 13 -13v-518q0 -43 21 -69.5t58 -26.5t60 26.5t23 73.5v514q0 13 14 13h63q14 0 14 -13v-561q0 -27 12.5 -38t27 -11.5t27 -12.5t12.5 -40v-122q0 -13 -14 -13
h-58z" />
    <glyph glyph-name="uni0428.loclBGR" horiz-adv-x="693" 
d="M221 -11q-77 0 -122 51t-45 134v513q0 13 13 13h63q13 0 13 -13v-517q0 -44 21 -70t57 -26t56.5 26t20.5 70v517q0 13 14 13h62q14 0 14 -13v-518q0 -44 20 -70t54 -26q38 0 59.5 27t21.5 73v514q0 13 13 13h63q14 0 14 -13v-673q0 -14 -13 -14h-36q-12 0 -15 12l-4 31
q-38 -54 -107 -54q-82 0 -116 67q-38 -67 -121 -67z" />
    <glyph glyph-name="uni0429.loclBGR" horiz-adv-x="723" 
d="M640 -111q-13 0 -13 13v98q-44 7 -60 44q-38 -55 -108 -55q-75 0 -118 56q-43 -56 -121 -56q-75 0 -120.5 51.5t-45.5 133.5v513q0 13 13 13h63q13 0 13 -13v-518q0 -43 21 -69t56 -26q36 0 57 26t21 69v518q0 13 13 13h63q14 0 14 -13v-518q0 -43 20.5 -69.5t56.5 -26.5
t56.5 26.5t20.5 73.5v514q0 13 14 13h62q14 0 14 -13v-561q0 -26 12.5 -36.5t27 -11t27 -12t12.5 -38.5v-126q0 -13 -14 -13h-57z" />
    <glyph glyph-name="uni041B.ss01" horiz-adv-x="484" 
d="M26 -2q-13 0 -13 14v59q0 14 13 14q74 10 74 101v341q0 83 45.5 133.5t119.5 50.5t120 -50.5t46 -133.5v-513q0 -14 -14 -14h-63q-14 0 -14 14v517q0 45 -19.5 69t-55.5 24q-35 0 -54.5 -24t-19.5 -69v-351q0 -79 -45 -129t-120 -53z" />
    <glyph glyph-name="uni0432.loclBGR" horiz-adv-x="407" 
d="M296 372q77 -38 77 -125v-95q0 -72 -45.5 -117.5t-117.5 -45.5t-117.5 45.5t-45.5 117.5v394q0 74 41.5 119.5t112.5 45.5q70 0 111.5 -45.5t41.5 -119.5v-61q0 -74 -58 -113zM133 549v-144h55q36 0 58 20.5t22 55.5v68q0 80 -67 80q-68 0 -68 -80zM287 149v102
q0 34 -22.5 54.5t-59.5 20.5h-72v-177q0 -36 20.5 -57t56.5 -21t56.5 21t20.5 57z" />
    <glyph glyph-name="uni0433.loclBGR" horiz-adv-x="386" 
d="M188 -11q-71 0 -113.5 39t-42.5 103q0 47 24 80t58 50t67.5 31t57.5 32.5t24 44.5q0 29 -18 45t-50 16q-31 0 -49 -17.5t-20 -49.5q-2 -13 -14 -13h-58q-14 0 -14 14q5 67 46.5 107t108.5 40q70 0 111.5 -38t41.5 -101q0 -46 -23.5 -78t-57.5 -49t-68 -31t-57.5 -33.5
t-23.5 -46.5q0 -29 18.5 -46t52.5 -17t55 20.5t24 57.5q1 13 14 13h59q13 0 13 -14q-5 -72 -49.5 -115.5t-116.5 -43.5z" />
    <glyph glyph-name="uni0434.loclBGR" horiz-adv-x="405" 
d="M199 511q71 0 115 -45.5t44 -117.5v-396q0 -74 -43 -118.5t-116 -44.5q-70 0 -113 43.5t-46 117.5q-2 14 13 14h59q13 0 14 -14q2 -37 21.5 -58t51.5 -21q34 0 53.5 20.5t19.5 57.5v99q-33 -35 -80 -35q-67 0 -110 46t-43 117v172q0 72 44 117.5t116 45.5zM199 94
q34 0 53.5 21.5t19.5 57.5v178q0 36 -19.5 57t-53.5 21t-54 -21t-20 -57v-178q0 -36 20 -57.5t54 -21.5z" />
    <glyph glyph-name="uni0436.loclBGR" horiz-adv-x="589" 
d="M548 500q17 0 11 -16l-99 -203q41 -17 65.5 -54t24.5 -87v-126q0 -14 -13 -14h-58q-13 0 -13 14v129q0 34 -21 54t-55 20h-53v-203q0 -14 -14 -14h-57q-13 0 -13 14v203h-54q-34 0 -55 -20t-21 -54v-129q0 -14 -13 -14h-58q-13 0 -13 14v126q0 50 24.5 87t65.5 54
l-99 203q-6 16 12 16h62q12 0 16 -10l91 -192h42v389q0 13 13 13h57q14 0 14 -13v-389h41l91 192q4 10 16 10h63z" />
    <glyph glyph-name="uni0437.loclBGR" horiz-adv-x="380" 
d="M266 179q75 -41 75 -133v-72q0 -86 -43.5 -135.5t-119.5 -49.5q-79 0 -120 54.5t-44 152.5q0 13 14 13h58q13 0 13 -12q3 -126 78 -126q78 0 78 101v80q0 40 -22.5 63t-63.5 23h-51q-14 0 -14 13v53q0 13 14 13h45q38 0 58 21.5t20 57.5v55q0 78 -61 78q-65 0 -70 -71
q0 -13 -13 -13h-59q-15 0 -13 13q4 70 45.5 111.5t108.5 41.5t107.5 -45.5t40.5 -117.5v-55q0 -78 -61 -114z" />
    <glyph glyph-name="uni0438.loclBGR" horiz-adv-x="414" 
d="M199 -11q-68 0 -110 45.5t-42 117.5v335q0 13 14 13h58q14 0 14 -13v-338q0 -36 18.5 -57t51.5 -21t51.5 21t18.5 57v338q0 13 14 13h58q14 0 14 -13v-473q0 -14 -14 -14h-37q-12 0 -15 12l-2 25q-38 -48 -92 -48z" />
    <glyph glyph-name="uni0439.loclBGR" horiz-adv-x="414" 
d="M208 561q-49 0 -80 27t-36 73q0 14 13 14h39q12 0 15 -13q6 -36 49 -36q42 0 48 36q4 13 15 13h39q13 0 13 -14q-5 -45 -36 -72.5t-79 -27.5zM199 -11q-68 0 -110 45.5t-42 117.5v335q0 13 14 13h58q14 0 14 -13v-338q0 -36 18.5 -57t51.5 -21t51.5 21t18.5 57v338
q0 13 14 13h58q14 0 14 -13v-473q0 -14 -14 -14h-37q-12 0 -15 12l-2 25q-38 -48 -92 -48z" />
    <glyph glyph-name="uni045D.loclBGR" horiz-adv-x="406" 
d="M116 677h56q11 0 16 -10l57 -92q4 -7 1.5 -11.5t-10.5 -4.5h-41q-12 0 -17 8l-70 93q-5 7 -3 12t11 5zM199 -11q-68 0 -110 45.5t-42 117.5v335q0 13 14 13h58q14 0 14 -13v-338q0 -36 18.5 -57t51.5 -21t51.5 21t18.5 57v338q0 13 14 13h58q14 0 14 -13v-473
q0 -14 -14 -14h-37q-12 0 -15 12l-2 25q-38 -48 -92 -48z" />
    <glyph glyph-name="uni043A.loclBGR" horiz-adv-x="400" 
d="M271 281q42 -17 66.5 -54t24.5 -87v-126q0 -14 -13 -14h-59q-13 0 -13 14v129q0 34 -21 54t-55 20h-60v-203q0 -14 -14 -14h-58q-14 0 -14 14v673q0 13 14 13h58q14 0 14 -13v-389h48l91 192q6 10 16 10h62q18 0 12 -16z" />
    <glyph glyph-name="uni043B.loclBGR" horiz-adv-x="376" 
d="M279 12l-91 411l-90 -411q-2 -12 -15 -12h-62q-14 0 -11 15l113 453q7 36 45 36h41q38 0 45 -36l113 -453q3 -15 -12 -15h-61q-14 0 -15 12z" />
    <glyph glyph-name="uni043F.loclBGR" horiz-adv-x="406" 
d="M61 0q-14 0 -14 14v334q0 72 43.5 117.5t112.5 45.5t112.5 -45.5t43.5 -117.5v-334q0 -14 -14 -14h-58q-14 0 -14 14v337q0 36 -18.5 57.5t-51.5 21.5t-51.5 -21.5t-18.5 -57.5v-337q0 -14 -14 -14h-58z" />
    <glyph glyph-name="uni0442.loclBGR" horiz-adv-x="611" 
d="M414 511q68 0 109 -45.5t41 -117.5v-334q0 -14 -13 -14h-58q-14 0 -14 14v337q0 36 -17 57t-48 21t-48.5 -21t-17.5 -57v-337q0 -14 -13 -14h-58q-14 0 -14 14v337q0 36 -17 57t-48 21t-48.5 -21t-17.5 -57v-337q0 -14 -14 -14h-57q-14 0 -14 14v334q0 72 41.5 117.5
t109.5 45.5q69 0 108 -61q39 61 108 61z" />
    <glyph glyph-name="uni0443.loclBGR" horiz-adv-x="418" 
d="M349 500q14 0 14 -13v-535q0 -74 -43 -118.5t-115 -44.5q-68 0 -110.5 43.5t-46.5 117.5q-2 14 13 14h59q12 0 13 -14q2 -38 21 -58.5t51 -20.5q34 0 53 20.5t19 57.5v101q-31 -36 -79 -36q-66 0 -108.5 45.5t-42.5 116.5v311q0 13 14 13h58q14 0 14 -13v-314
q0 -35 19.5 -56.5t52.5 -21.5t52.5 21.5t19.5 56.5v314q0 13 14 13h58z" />
    <glyph glyph-name="uni0444.loclBGR" horiz-adv-x="609" 
d="M421 511q66 0 107 -45.5t41 -117.5v-196q0 -72 -41 -117.5t-107 -45.5q-44 0 -74 33v-209q0 -13 -14 -13h-58q-13 0 -13 13v209q-31 -33 -75 -33q-66 0 -107 45.5t-41 117.5v196q0 72 41 117.5t107 45.5q45 0 75 -33v209q0 13 13 13h58q14 0 14 -13v-209q30 33 74 33z
M192 71q32 0 51 21.5t19 56.5v202q0 35 -19 56.5t-51 21.5t-49.5 -21t-17.5 -57v-202q0 -36 17.5 -57t49.5 -21zM484 149v202q0 36 -18 57t-49 21q-32 0 -51 -21.5t-19 -56.5v-202q0 -35 19 -56.5t51 -21.5q31 0 49 21t18 57z" />
    <glyph glyph-name="uni0447.loclBGR" horiz-adv-x="402" 
d="M275 0q-14 0 -14 14v173q-33 -36 -80 -36q-66 0 -108 44.5t-42 117.5v174q0 13 14 13h58q14 0 14 -13v-177q0 -35 19.5 -56.5t52.5 -21.5q34 0 53 20.5t19 57.5v177q0 13 14 13h58q14 0 14 -13v-473q0 -14 -14 -14h-58z" />
    <glyph glyph-name="uni0446.loclBGR" horiz-adv-x="450" 
d="M360 -111q-13 0 -13 13v101q-13 3 -25 13t-16 21q-36 -48 -103 -48q-69 0 -112.5 46t-43.5 117v335q2 13 14 13h58q14 0 14 -13v-338q0 -35 19 -56.5t52 -21.5q32 0 50.5 21.5t18.5 56.5v338q0 13 14 13h58q13 0 13 -13v-372q0 -24 11 -35.5t25 -13.5t25 -11.5t11 -30.5
v-122q0 -13 -13 -13h-57z" />
    <glyph glyph-name="uni0448.loclBGR" horiz-adv-x="619" 
d="M197 -11q-66 0 -108 45.5t-42 117.5v335q0 13 14 13h58q13 0 13 -13v-338q0 -35 17.5 -56.5t47.5 -21.5q31 0 48.5 21t17.5 57v338q0 13 14 13h57q14 0 14 -13v-338q0 -36 17.5 -57t48.5 -21q30 0 47.5 21.5t17.5 56.5v338q0 13 13 13h58q12 0 14 -13v-473q0 -14 -14 -14
h-36q-12 0 -15 12l-2 23q-35 -46 -87 -46q-69 0 -105 57q-37 -57 -108 -57z" />
    <glyph glyph-name="uni0449.loclBGR" horiz-adv-x="655" 
d="M566 -111q-14 0 -14 13l1 101q-32 8 -42 34q-36 -48 -98 -48q-70 0 -107 58q-37 -58 -108 -58q-67 0 -109 45.5t-42 117.5v335q0 13 14 13h58q13 0 13 -13v-338q0 -35 18 -56.5t48 -21.5t47.5 21.5t17.5 56.5v338q0 13 14 13h57q14 0 14 -13v-338q0 -35 17.5 -56.5
t47.5 -21.5t48 21.5t18 56.5v338q0 13 13 13h58q14 0 14 -13v-372q0 -24 11 -35.5t24.5 -13.5t24.5 -11.5t11 -30.5v-122q0 -13 -13 -13h-56z" />
    <glyph glyph-name="uni044C.loclBGR" horiz-adv-x="390" 
d="M218 354q66 0 106.5 -45t40.5 -117v-40q0 -72 -44 -117.5t-115 -45.5t-115 45.5t-44 117.5v335q0 13 14 13h58q14 0 14 -13v-170q35 37 85 37zM280 149v46q0 35 -20 56.5t-54 21.5t-53.5 -21.5t-19.5 -56.5v-46q0 -36 19.5 -57t53.5 -21t54 21t20 57z" />
    <glyph glyph-name="uni044A.loclBGR" horiz-adv-x="440" 
d="M267 354q67 0 108 -45t41 -117v-40q0 -72 -44 -117.5t-115 -45.5t-115 45.5t-44 117.5v268h-77q-14 0 -14 14v53q0 13 14 13h121q17 0 29 -12t12 -29v-143q35 38 84 38zM331 149v46q0 35 -20 56.5t-54 21.5t-54 -21.5t-20 -56.5v-46q0 -36 20 -57t54 -21t54 21t20 57z
" />
    <glyph glyph-name="uni044E.loclBGR" horiz-adv-x="561" 
d="M368 -11q-69 0 -111 45.5t-42 117.5v64h-75v-202q0 -14 -14 -14h-57q-14 0 -14 14v673q0 13 14 13h57q14 0 14 -13v-390h75v51q0 72 42 117.5t111 45.5t111.5 -45.5t42.5 -117.5v-196q0 -72 -42.5 -117.5t-111.5 -45.5zM368 71q32 0 50.5 21t18.5 57v202q0 36 -18.5 57
t-50.5 21t-50.5 -21t-18.5 -57v-202q0 -36 18.5 -57t50.5 -21z" />
    <glyph glyph-name="uni043B.ss01" horiz-adv-x="423" 
d="M224 511q71 0 111.5 -45t40.5 -118v-334q0 -14 -14 -14h-58q-13 0 -13 14v337q0 78 -67 78q-66 0 -66 -78v-193q0 -72 -35 -114.5t-97 -45.5q-14 0 -14 14v54q0 14 14 14q47 5 47 76v192q0 73 40.5 118t110.5 45z" />
    <glyph glyph-name="emdash.case" horiz-adv-x="513" 
d="M15 382q0 14 13 14h457q14 0 14 -14v-50q0 -13 -14 -13h-457q-13 0 -13 13v50z" />
    <glyph glyph-name="endash.case" horiz-adv-x="386" 
d="M28 319q-13 0 -13 13v50q0 14 13 14h330q14 0 14 -14v-50q0 -13 -14 -13h-330z" />
    <glyph glyph-name="hyphen.case" horiz-adv-x="279" 
d="M28 319q-13 0 -13 13v50q0 14 13 14h223q14 0 14 -14v-50q0 -13 -14 -13h-223z" />
    <glyph glyph-name="guillemotleft.case" horiz-adv-x="437" 
d="M149 143q-11 0 -16 8l-103 138q-21 28 0 56l103 138q5 8 16 8h60q8 0 10.5 -5t-2.5 -11l-120 -158l120 -158q5 -6 2.5 -11t-10.5 -5h-60zM324 143q-11 0 -16 8l-103 138q-21 28 0 56l103 138q5 8 16 8h60q8 0 10.5 -5t-2.5 -11l-120 -158l120 -158q5 -6 2.5 -11t-10.5 -5
h-60z" />
    <glyph glyph-name="guillemotright.case" horiz-adv-x="437" 
d="M105 143h-60q-8 0 -10.5 5t2.5 11l120 158l-120 158q-5 6 -2.5 11t10.5 5h60q11 0 16 -8l103 -138q21 -28 0 -56l-103 -138q-5 -8 -16 -8zM280 143h-60q-8 0 -10.5 5t2.5 11l120 158l-120 158q-5 6 -2.5 11t10.5 5h60q11 0 16 -8l103 -138q21 -28 0 -56l-103 -138
q-5 -8 -16 -8z" />
    <glyph glyph-name="guilsinglleft.case" horiz-adv-x="252" 
d="M152 143q-11 0 -16 8l-103 138q-21 28 0 56l103 138q5 8 16 8h60q8 0 10.5 -5t-2.5 -11l-120 -158l120 -158q5 -6 2.5 -11t-10.5 -5h-60z" />
    <glyph glyph-name="guilsinglright.case" horiz-adv-x="264" 
d="M102 143h-60q-8 0 -10.5 5t2.5 11l120 158l-120 158q-5 6 -2.5 11t10.5 5h60q11 0 16 -8l103 -138q21 -28 0 -56l-103 -138q-5 -8 -16 -8z" />
    <glyph glyph-name="uni0308.case" 
d="M-162 775q-20 0 -32 12t-12 32t12 32t32 12t32 -12.5t12 -31.5t-12 -31.5t-32 -12.5zM-44 775q-20 0 -32 12.5t-12 31.5t12 31.5t32 12.5t32 -12.5t12 -31.5t-12 -31.5t-32 -12.5z" />
    <glyph glyph-name="uni0307.case" 
d="M-54 770q-22 0 -36.5 14.5t-14.5 36.5q0 23 14.5 37.5t36.5 14.5t37 -15t15 -37q0 -21 -15 -36t-37 -15z" />
    <glyph glyph-name="gravecomb.case" 
d="M-16 769h-41q-12 0 -17 8l-79 90q-6 7 -3.5 12t10.5 5h57q12 0 17 -8l65 -91q5 -6 2 -11t-11 -5z" />
    <glyph glyph-name="acutecomb.case" 
d="M-145 769q-8 0 -11 5t2 11l65 91q5 8 17 8h57q8 0 10.5 -5t-3.5 -12l-79 -90q-5 -8 -17 -8h-41z" />
    <glyph glyph-name="uni030B.case" 
d="M-263 769q-8 0 -10.5 5t2.5 11l65 91q5 8 17 8h57q8 0 10 -5t-3 -12l-80 -90q-5 -8 -16 -8h-42zM-142 769q-8 0 -10.5 5t2.5 11l65 91q5 8 17 8h57q8 0 10 -5t-3 -12l-80 -90q-5 -8 -16 -8h-42z" />
    <glyph glyph-name="uni0302.case" 
d="M-8 785q4 -7 2 -11.5t-10 -4.5h-41q-10 0 -16 7l-52 61l-52 -61q-6 -7 -16 -7h-41q-8 0 -10 4.5t2 11.5l69 91q6 8 17 8h62q11 0 17 -8z" />
    <glyph glyph-name="uni030C.case" 
d="M-10 868l-69 -91q-6 -8 -17 -8h-62q-11 0 -17 8l-69 91q-4 7 -2 11.5t10 4.5h41q10 0 16 -7l52 -61l52 61q6 7 16 7h41q8 0 10 -4.5t-2 -11.5z" />
    <glyph glyph-name="uni0306.case" 
d="M-118 768q-49 0 -79.5 27t-35.5 72q-2 14 13 14h39q11 0 15 -12q6 -37 48 -37q43 0 49 37q3 12 14 12h39q14 0 14 -14q-5 -45 -36 -72t-80 -27z" />
    <glyph glyph-name="uni030A.case" 
d="M-159 825q0 32 20.5 51.5t54.5 19.5q33 0 53.5 -19.5t20.5 -51.5q0 -33 -20.5 -53t-53.5 -20q-34 0 -54.5 20t-20.5 53zM-111 824q0 -27 27 -27q12 0 19.5 7.5t7.5 19.5t-7.5 19.5t-19.5 7.5q-27 0 -27 -27z" />
    <glyph glyph-name="tildecomb.case" 
d="M-151 802q-13 0 -17 -16q-4 -12 -15 -12h-33q-14 0 -14 13q3 29 22 51.5t51 22.5q22 0 46 -15t31 -15q13 0 18 16q4 13 14 13h34q13 0 13 -14q-2 -30 -22 -51.5t-50 -21.5q-21 0 -45.5 14.5t-32.5 14.5z" />
    <glyph glyph-name="uni0304.case" 
d="M-177 837q0 13 14 13h146q13 0 13 -13v-35q0 -14 -13 -14h-146q-14 0 -14 14v35z" />
    <glyph glyph-name="uni0312.case" 
d="M-116 770l-10 170q0 14 13 14h32q13 0 14 -12l33 -170q2 -15 -13 -15h-55q-14 0 -14 13z" />
    <glyph glyph-name="uni0326.case" 
d="M-92 -70q0 13 14 13h55q15 0 13 -15l-33 -170q-1 -12 -14 -12h-32q-13 0 -13 14z" />
    <glyph glyph-name="uni0327.case" 
d="M-94 -204q-37 0 -62 19t-29 54q-2 13 13 13h27q9 0 14 -11q8 -23 37 -23q17 0 28 9t11 24q0 13 -10.5 22t-27.5 9q-13 0 -35 -4q-5 -2 -9 2l-3 3q-5 5 -4 10l16 77h56l-8 -44h6q31 -2 52.5 -23t21.5 -52q0 -40 -26 -62.5t-68 -22.5z" />
    <glyph glyph-name="uni0328.case" 
d="M-44 -189q0 -13 -12 -13q-16 -2 -24 -2q-112 0 -112 87q0 54 53 117h81q-55 -45 -55 -93q0 -40 48 -40h8q13 0 13 -13v-43z" />
    <glyph glyph-name="uni0337.case" 
d="M-240 -45q-17 0 -12 15l157 564q3 11 15 11h67q17 0 12 -15l-157 -564q-3 -11 -15 -11h-67z" />
    <glyph glyph-name="uni0338.case" 
d="M-438 -45q-17 0 -12 15l213 764q3 11 15 11h67q17 0 12 -15l-213 -764q-3 -11 -15 -11h-67z" />
    <glyph glyph-name="brevecombcy" 
d="M-118 561q-49 0 -80 27t-36 73q0 14 13 14h39q12 0 15 -13q6 -36 49 -36q42 0 48 36q4 13 15 13h39q13 0 13 -14q-5 -45 -36 -72.5t-79 -27.5z" />
    <glyph glyph-name="brevecombcy.case" 
d="M-118 768q-49 0 -79.5 27t-35.5 72q-2 14 13 14h39q11 0 15 -12q6 -37 48 -37q43 0 49 37q3 12 14 12h39q14 0 14 -14q-5 -45 -36 -72t-80 -27z" />
    </font>
</defs>
</svg>
