<?xml version="1.0" standalone="no"?>
<!DOCTYPE svg PUBLIC "-//W3C//DTD SVG 1.1//EN" "http://www.w3.org/Graphics/SVG/1.1/DTD/svg11.dtd" >
<svg xmlns="http://www.w3.org/2000/svg" xmlns:xlink="http://www.w3.org/1999/xlink" version="1.1">
<metadata>
Created by FontForge 20161013 at Tue May 17 14:54:34 2016
 By ,,,
Copyright (c) 2016 by Fontfabric LLC. All rights reserved.
</metadata>
<defs>
<font id="Phenomena-Light" horiz-adv-x="0" >
  <font-face 
    font-family="Phenomena Light"
    font-weight="300"
    font-stretch="normal"
    units-per-em="1000"
    panose-1="0 0 4 0 0 0 0 0 0 0"
    ascent="800"
    descent="-200"
    x-height="500"
    cap-height="700"
    bbox="-358.333 -226 827 921"
    underline-thickness="50"
    underline-position="-200"
    unicode-range="U+0020-25CA"
  />
<missing-glyph horiz-adv-x="500" 
d="M410 800v-1000h-317v1000h317zM333 733h-165v-33h65v-37h-66v-33h166v33h-66v37h66v33zM267 604h-100v-104h166v34h-66v70zM233 570v-36h-33v36h33zM333 473h-166v-33h66v-37h-66v-33h100v70h66v33zM333 413h-33v-66h-133v-34h166v100zM333 291h-100v-56h34v23h33v-47
h-100v80h-33v-113h166v113zM333 118h-166v-113h166v113zM300 85v-47h-100v47h100zM333 -18h-166v-33h70l-70 -47v-33h166v33h-102l70 47h32v33z" />
    <glyph glyph-name=".notdef" horiz-adv-x="500" 
d="M410 800v-1000h-317v1000h317zM333 733h-165v-33h65v-37h-66v-33h166v33h-66v37h66v33zM267 604h-100v-104h166v34h-66v70zM233 570v-36h-33v36h33zM333 473h-166v-33h66v-37h-66v-33h100v70h66v33zM333 413h-33v-66h-133v-34h166v100zM333 291h-100v-56h34v23h33v-47
h-100v80h-33v-113h166v113zM333 118h-166v-113h166v113zM300 85v-47h-100v47h100zM333 -18h-166v-33h70l-70 -47v-33h166v33h-102l70 47h32v33z" />
    <glyph glyph-name=".null" 
 />
    <glyph glyph-name="nonmarkingreturn" horiz-adv-x="333" 
 />
    <glyph glyph-name="space" unicode=" " horiz-adv-x="239" 
 />
    <glyph glyph-name="exclam" unicode="!" horiz-adv-x="221" 
d="M96 128q-9 0 -9 8v556q0 8 9 8h30q8 0 8 -8v-556q0 -8 -8 -8h-30zM111 -9q-16 0 -26.5 10.5t-10.5 26.5t10.5 26t26.5 10q15 0 25.5 -10t10.5 -26t-10.5 -26.5t-25.5 -10.5z" />
    <glyph glyph-name="quotedbl" unicode="&#x22;" horiz-adv-x="197" 
d="M30 692q0 8 9 8h35q8 0 7 -9l-26 -147q0 -8 -9 -8h-18q-7 0 -7 9zM123 692q0 8 9 8h35q9 0 7 -9l-26 -147q0 -8 -9 -8h-18q-7 0 -7 9z" />
    <glyph glyph-name="numbersign" unicode="#" horiz-adv-x="534" 
d="M88 0q-9 0 -7 9l41 180h-94q-10 0 -7 9l5 23q2 7 10 7h94l54 233h-94q-9 0 -7 9l5 23q2 7 9 7h96l44 193q2 7 9 7h26q9 0 7 -9l-44 -191h134l44 193q2 7 9 7h27q9 0 7 -9l-44 -191h94q10 0 8 -9l-5 -23q-2 -7 -10 -7h-96l-53 -233h95q9 0 7 -9l-6 -23q-2 -7 -9 -7h-96
l-41 -182q-2 -7 -9 -7h-27q-9 0 -7 9l41 180h-134l-41 -182q-2 -7 -9 -7h-26zM173 228h134l53 233h-134z" />
    <glyph glyph-name="dollar" unicode="$" horiz-adv-x="407" 
d="M367 150q0 -66 -40.5 -110t-106.5 -48v-69q0 -8 -8 -8h-19q-9 0 -9 8v69q-64 7 -103 51.5t-41 114.5q0 8 9 8h30q8 0 8 -8q2 -57 33 -90t84 -33q54 0 85 31.5t31 83.5q0 49 -28.5 91t-68.5 73.5t-80.5 63.5t-69 77t-28.5 99q0 65 38 106.5t101 47.5v69q0 8 9 8h19
q8 0 8 -8v-69q61 -5 99 -49t40 -117q0 -8 -8 -8h-30q-9 0 -9 8q-1 60 -30 91.5t-79 31.5q-51 0 -81 -30t-30 -81q0 -46 28.5 -85.5t69 -70.5t80.5 -64t68.5 -80t28.5 -104z" />
    <glyph glyph-name="percent" unicode="%" horiz-adv-x="579" 
d="M113 395q-36 0 -59.5 24.5t-23.5 61.5v140q0 37 23.5 62t59.5 25t59.5 -25t23.5 -62v-140q0 -37 -23.5 -61.5t-59.5 -24.5zM39 -3q-5 0 -7.5 3t-0.5 7l473 689q5 7 10 7h27q5 0 7.5 -2.5t-0.5 -7.5l-472 -689q-4 -7 -10 -7h-27zM113 432q21 0 33 14t12 35v140
q0 22 -12 36t-33 14q-20 0 -32.5 -14t-12.5 -36v-140q0 -21 12.5 -35t32.5 -14zM466 -8q-36 0 -59.5 24.5t-23.5 61.5v140q0 37 23.5 62t59.5 25t59.5 -25t23.5 -62v-140q0 -37 -23.5 -61.5t-59.5 -24.5zM466 29q21 0 33 14t12 35v140q0 22 -12 36t-33 14q-20 0 -32.5 -14
t-12.5 -36v-140q0 -21 12.5 -35t32.5 -14z" />
    <glyph glyph-name="ampersand" unicode="&#x26;" horiz-adv-x="468" 
d="M211 -3q-68 0 -113 44.5t-45 111.5v72q0 45 22 82t60 53q-38 17 -59 53.5t-21 81.5v41q0 73 42 123t117 50q74 0 117.5 -50.5t45.5 -126.5q0 -8 -9 -8h-30q-8 0 -8 8q-2 58 -31 95.5t-85 37.5q-57 0 -85 -36.5t-28 -92.5v-44q0 -48 31.5 -79t81.5 -31h211q8 0 8 -9v-26
q0 -9 -8 -9h-54v-317q0 -24 -23 -24h-137zM211 41h114v297h-111q-52 0 -83 -30.5t-31 -79.5v-75q0 -49 31 -80.5t80 -31.5z" />
    <glyph glyph-name="quotesingle" unicode="'" horiz-adv-x="109" 
d="M33 692q0 8 9 8h35q9 0 7 -9l-26 -147q0 -8 -9 -8h-18q-7 0 -7 8z" />
    <glyph glyph-name="parenleft" unicode="(" horiz-adv-x="225" 
d="M194 -120q-57 3 -93 44.5t-36 106.5v639q0 64 36 105.5t93 44.5q8 0 8 -8v-27q0 -9 -8 -9q-37 -3 -59.5 -31t-22.5 -75v-639q0 -47 22.5 -75.5t59.5 -31.5q8 0 8 -9v-27q0 -8 -8 -8z" />
    <glyph glyph-name="parenright" unicode=")" horiz-adv-x="225" 
d="M31 -120q-8 0 -8 8v27q0 9 8 9q37 3 59.5 31.5t22.5 75.5v639q0 47 -22.5 75t-59.5 31q-8 0 -8 9v27q0 8 8 8q57 -3 93 -44.5t36 -105.5v-639q0 -65 -36 -106.5t-93 -44.5z" />
    <glyph glyph-name="asterisk" unicode="*" horiz-adv-x="309" 
d="M93 502l-16 11q-6 6 -2 12l50 69l-80 26q-8 2 -5 10l6 19q1 8 10 5l80 -26v84q0 9 9 9h19q9 0 9 -9v-84l80 26q9 2 10 -5l7 -18q2 -9 -6 -11l-81 -26l50 -69q5 -6 -1 -12l-16 -11q-6 -6 -12 1l-50 69l-49 -68q-5 -8 -12 -2z" />
    <glyph glyph-name="plus" unicode="+" horiz-adv-x="440" 
d="M384 380q8 0 8 -9v-25q0 -8 -8 -8h-143v-145q0 -9 -8 -9h-26q-8 0 -8 9v145h-143q-8 0 -8 8v25q0 9 8 9h143v145q0 8 8 8h26q8 0 8 -8v-145h143z" />
    <glyph glyph-name="comma" unicode="," horiz-adv-x="94" 
d="M26 55q0 8 9 8h35q8 0 7 -9l-26 -147q0 -8 -9 -8h-18q-7 0 -7 9z" />
    <glyph glyph-name="hyphen" unicode="-" horiz-adv-x="286" 
d="M28 235q-8 0 -8 8v27q0 8 8 8h230q8 0 8 -8v-27q0 -8 -8 -8h-230z" />
    <glyph glyph-name="period" unicode="." horiz-adv-x="109" 
d="M55 -9q-16 0 -27 11t-11 27q0 17 10.5 27.5t27.5 10.5q16 0 27 -11t11 -27t-11 -27t-27 -11z" />
    <glyph glyph-name="slash" unicode="/" horiz-adv-x="346" 
d="M280 693q1 7 9 7h30q10 0 7 -10l-260 -683q-1 -7 -9 -7h-30q-10 0 -7 10z" />
    <glyph glyph-name="zero" unicode="0" horiz-adv-x="407" 
d="M203 -10q-64 0 -108 44.5t-44 108.5v414q0 64 44 108.5t108 44.5t108 -44.5t44 -108.5v-414q0 -64 -44 -108.5t-108 -44.5zM106 107l173 526q-28 33 -76 33q-44 0 -74.5 -31.5t-30.5 -77.5v-414q0 -18 8 -36zM203 34q45 0 75.5 31.5t30.5 77.5v414q0 18 -8 36l-174 -526
q31 -33 76 -33z" />
    <glyph glyph-name="one" unicode="1" horiz-adv-x="241" 
d="M127 700q40 0 40 -40v-652q0 -8 -9 -8h-30q-8 0 -8 8v648h-92q-8 0 -8 8v28q0 8 8 8h99z" />
    <glyph glyph-name="two" unicode="2" horiz-adv-x="382" 
d="M341 552q0 -55 -26 -109t-63.5 -98.5l-75 -89t-63.5 -99.5t-26 -112h246q8 0 8 -8v-28q0 -8 -8 -8h-269q-24 0 -24 23v17q0 64 26.5 124.5t63.5 106.5t74.5 90t64 93.5t26.5 97.5q0 50 -29 82t-76 31q-46 0 -74.5 -32.5t-29.5 -90.5q0 -8 -9 -8h-28q-9 0 -9 8
q3 74 44.5 120.5t105.5 46.5q67 1 109 -44t42 -113z" />
    <glyph glyph-name="three" unicode="3" horiz-adv-x="386" 
d="M187 -9q-65 0 -106.5 45.5t-43.5 122.5q0 8 8 8h30q9 0 9 -8q1 -59 29.5 -91.5t73.5 -32.5q48 0 76.5 32.5t28.5 87.5v114q0 54 -32 87.5t-83 33.5h-39q-7 0 -7 8v8q0 8 4 15l137 235h-217q-9 0 -9 9v27q0 9 9 9l266 -1q12 0 12 -12v-6q0 -8 -4 -15l-135 -237l5 -3
q64 -5 101.5 -49.5t37.5 -108.5v-114q0 -73 -42 -118.5t-109 -45.5z" />
    <glyph glyph-name="four" unicode="4" horiz-adv-x="398" 
d="M360 259q9 0 9 -8v-27q0 -9 -9 -9h-48v-207q0 -8 -8 -8h-30q-9 0 -9 8v207h-218q-23 0 -23 21v8q0 17 3 27l147 422q2 7 9 7h31q8 0 7 -9l-148 -432h192v239q0 9 9 9h30q8 0 8 -9v-239h48z" />
    <glyph glyph-name="five" unicode="5" horiz-adv-x="395" 
d="M203 470q63 0 106 -45t43 -114v-156q0 -74 -42 -119.5t-110 -45.5q-66 0 -108 45.5t-44 123.5q0 8 8 8h30q9 0 9 -8q1 -60 29.5 -92.5t75.5 -32.5q49 0 77 32.5t28 88.5v155q0 52 -29.5 84t-76.5 32q-39 0 -67 -26t-32 -65q0 -16 -16 -16h-16q-16 0 -16 16v340
q0 27 27 27h254q8 0 8 -8v-28q0 -8 -8 -8h-234v-240q39 52 104 52z" />
    <glyph glyph-name="six" unicode="6" horiz-adv-x="403" 
d="M203 -9q-63 0 -107.5 44.5t-44.5 109.5v401q0 72 43 117.5t109 45.5q64 0 107 -44t45 -115q0 -8 -8 -8h-30q-8 0 -8 8q-3 53 -32 84t-74 31q-46 0 -75.5 -32.5t-29.5 -85.5v-142q40 55 109 55q61 0 104.5 -44.5t43.5 -109.5v-161q0 -65 -44 -109.5t-108 -44.5zM203 35
q45 0 75.5 31.5t30.5 78.5v159q0 48 -30.5 80t-75.5 32q-44 0 -74.5 -32t-30.5 -80v-159q0 -47 30.5 -78.5t74.5 -31.5z" />
    <glyph glyph-name="seven" unicode="7" horiz-adv-x="334" 
d="M20 692q0 8 8 8h254q19 0 19 -17q0 -13 -3 -26l-161 -650q-1 -7 -9 -7h-31q-10 0 -7 9l160 647h-222q-8 0 -8 9v27z" />
    <glyph glyph-name="eight" unicode="8" horiz-adv-x="407" 
d="M275 361q85 -40 85 -137v-76q0 -67 -44.5 -112t-111.5 -45q-68 0 -112.5 44.5t-44.5 112.5v76q0 97 86 137q-34 20 -54 55t-20 77v67q0 64 40 106.5t105 42.5t104.5 -42.5t39.5 -106.5v-67q0 -42 -19.5 -77t-53.5 -55zM106 560v-69q0 -46 28 -77.5t70 -31.5
q41 0 69.5 31.5t28.5 77.5v69q0 44 -27 74.5t-71 30.5t-71 -30.5t-27 -74.5zM313 148v78q0 48 -31.5 80t-77.5 32t-78 -32t-32 -80v-78q0 -49 31 -81t79 -32t78.5 32t30.5 81z" />
    <glyph glyph-name="nine" unicode="9" horiz-adv-x="409" 
d="M206 709q63 0 107.5 -44.5t44.5 -109.5v-401q0 -72 -43 -117.5t-109 -45.5q-64 0 -107 44t-45 115q0 8 8 8h30q8 0 8 -8q3 -53 32 -84t74 -31q46 0 75.5 32.5t29.5 85.5v142q-40 -55 -109 -55q-61 0 -104.5 44.5t-43.5 109.5v161q0 65 44 109.5t108 44.5zM206 665
q-45 0 -75.5 -31.5t-30.5 -78.5v-159q0 -48 30.5 -80t75.5 -32q44 0 74.5 32t30.5 80v159q0 47 -30.5 78.5t-74.5 31.5z" />
    <glyph glyph-name="colon" unicode=":" horiz-adv-x="147" 
d="M57 339q-16 0 -27 11t-11 27q0 17 10.5 27.5t27.5 10.5q16 0 27 -11t11 -27t-11 -27t-27 -11zM57 -9q-16 0 -27 11t-11 27q0 17 10.5 27.5t27.5 10.5q16 0 27 -11t11 -27t-11 -27t-27 -11z" />
    <glyph glyph-name="semicolon" unicode=";" horiz-adv-x="138" 
d="M64 339q-16 0 -27 11t-11 27q0 17 11 27.5t27 10.5t27 -11t11 -27t-11 -27t-27 -11zM41 55q0 8 9 8h35q9 0 7 -9l-26 -147q0 -8 -9 -8h-18q-7 0 -7 9z" />
    <glyph glyph-name="less" unicode="&#x3c;" horiz-adv-x="367" 
d="M330 485q0 -6 -4 -7l-214 -119l214 -120q4 -1 4 -7v-25q0 -6 -4.5 -9t-10.5 0l-241 135q-4 2 -4 6v38q0 5 4 7l241 135q6 3 10.5 0t4.5 -9v-25z" />
    <glyph glyph-name="equal" unicode="=" horiz-adv-x="400" 
d="M36 398q-8 0 -8 8v25q0 9 8 9h328q8 0 8 -9v-25q0 -8 -8 -8h-328zM36 266q-8 0 -8 9v25q0 8 8 8h328q8 0 8 -8v-25q0 -9 -8 -9h-328z" />
    <glyph glyph-name="greater" unicode="&#x3e;" horiz-adv-x="333" 
d="M293 384q4 -2 4 -7v-38q0 -4 -4 -6l-241 -135q-6 -3 -10.5 0t-4.5 9v25q0 6 4 7l214 120l-214 119q-4 1 -4 7v25q0 6 4.5 9t10.5 0z" />
    <glyph glyph-name="question" unicode="?" horiz-adv-x="317" 
d="M128 132q-8 0 -8 9v61q0 47 14 85.5t35 66t41.5 53.5t35 61.5t14.5 77.5q0 53 -30 86t-77 33q-46 0 -75.5 -33t-30.5 -90q0 -8 -9 -8h-30q-8 0 -8 8q2 75 45 121t108 46q67 0 110.5 -46t43.5 -117q0 -47 -14.5 -85.5t-35.5 -66t-41.5 -54t-35 -63t-14.5 -80.5l1 -56
q0 -9 -9 -9h-30zM145 -9q-16 0 -26 10.5t-10 26.5t10 26t26 10t26.5 -10t10.5 -26t-10.5 -26.5t-26.5 -10.5z" />
    <glyph glyph-name="at" unicode="@" horiz-adv-x="613" 
d="M243 -100q-87 0 -140.5 54.5t-53.5 143.5v242q0 88 53.5 142t140.5 54h64q59 0 95.5 -38.5t36.5 -102.5v-198q0 -60 -35.5 -96.5t-93.5 -36.5q-63 0 -101.5 39t-38.5 103q0 65 38 103t99 38h89v48q0 45 -24.5 72.5t-64.5 27.5h-64q-68 0 -109.5 -42.5t-41.5 -112.5v-242
q0 -71 41.5 -114t109.5 -43h127q68 0 110 43t42 114v407q0 70 -42 113.5t-110 43.5h-175q-8 0 -8 8v24q0 9 8 9h175q87 0 140.5 -54.5t53.5 -143.5v-407q0 -89 -53.5 -143.5t-140.5 -54.5h-127zM310 105q39 0 62.5 25.5t23.5 66.5v109h-89q-42 0 -68 -27t-27 -73
q0 -46 27 -73.5t71 -27.5z" />
    <glyph glyph-name="A" unicode="A" horiz-adv-x="454" 
d="M74 0q-9 0 -9 8v522q0 80 44.5 129t117.5 49q72 0 116.5 -49t44.5 -129v-522q2 -8 -8 -8h-30q-8 0 -8 8v254h-230v-254q0 -8 -8 -8h-30zM112 305h230v225q0 63 -30.5 99t-84.5 36t-84.5 -36t-30.5 -99v-225z" />
    <glyph glyph-name="B" unicode="B" horiz-adv-x="429" 
d="M288 361q46 -14 73 -53.5t27 -91.5v-54q0 -74 -44 -119t-116 -45h-139q-24 0 -24 23v523q0 73 41.5 118.5t109.5 45.5q70 0 112.5 -45t42.5 -119v-46q0 -51 -22.5 -87.5t-60.5 -49.5zM112 544v-165h107q49 0 77 32t28 87v46q0 56 -29 88.5t-79 32.5q-48 0 -76 -32.5
t-28 -88.5zM341 162v54q0 55 -30.5 87t-82.5 32h-116v-293h116q52 0 82.5 32t30.5 88z" />
    <glyph glyph-name="C" unicode="C" horiz-adv-x="413" 
d="M215 -9q-72 0 -117 47.5t-45 122.5v378q0 75 45 122.5t117 47.5q69 0 113 -49.5t46 -127.5q0 -8 -8 -8h-30q-8 0 -8 8q-2 61 -32.5 97t-80.5 36q-53 0 -84 -34t-31 -92v-378q0 -58 31 -92t84 -34t84.5 37t33.5 99q0 8 8 8h30q8 0 8 -8q-2 -80 -47 -130t-117 -50z" />
    <glyph glyph-name="D" unicode="D" horiz-adv-x="446" 
d="M97 -2q-23 0 -23 23v658q0 23 23 23h134q72 0 116.5 -47.5t44.5 -119.5v-366q0 -73 -44.5 -122t-116.5 -49h-134zM121 42h110q51 0 83 36t32 91v366q0 54 -31.5 88.5t-83.5 34.5h-110v-616z" />
    <glyph glyph-name="E" unicode="E" horiz-adv-x="360" 
d="M214 -2q-71 0 -116 48t-45 122v364q0 74 45 122t116 48h99q8 0 8 -8v-27q0 -9 -8 -9h-99q-51 0 -82.5 -35.5t-31.5 -90.5v-155h190q9 0 9 -8v-27q0 -8 -9 -8h-190v-166q0 -55 31.5 -90.5t82.5 -35.5h99q8 0 8 -9v-27q0 -8 -8 -8h-99z" />
    <glyph glyph-name="F" unicode="F" horiz-adv-x="344" 
d="M74 0q-9 0 -9 8v526q0 71 45 118.5t117 47.5h83q9 0 9 -8v-27q0 -9 -9 -9h-83q-52 0 -83.5 -34.5t-31.5 -87.5v-166h178q9 0 9 -8v-27q0 -8 -9 -8h-178v-317q0 -8 -8 -8h-30z" />
    <glyph glyph-name="G" unicode="G" horiz-adv-x="431" 
d="M220 -9q-72 0 -119.5 49.5t-47.5 126.5v360q0 81 46 131.5t119 50.5q70 0 115.5 -47t47.5 -120q0 -8 -8 -8h-30q-8 0 -8 8q-3 55 -35 89t-82 34q-53 0 -85.5 -37.5t-32.5 -101.5v-359q0 -59 34 -95.5t86 -36.5q53 0 87 35.5t34 90.5v164h-107q-8 0 -8 8v27q0 8 8 8h130
q23 0 23 -23v-184q0 -73 -47.5 -121.5t-119.5 -48.5z" />
    <glyph glyph-name="H" unicode="H" horiz-adv-x="459" 
d="M339 692q0 8 8 8h30q8 0 8 -8v-684q0 -8 -8 -8h-30q-8 0 -8 8v326h-218v-326q0 -8 -9 -8h-30q-8 0 -8 8v684q0 8 8 8h30q9 0 9 -8v-315h218v315z" />
    <glyph glyph-name="I" unicode="I" horiz-adv-x="195" 
d="M74 692q0 8 8 8h30q9 0 9 -8v-684q0 -8 -9 -8h-30q-8 0 -8 8v684z" />
    <glyph glyph-name="J" unicode="J" horiz-adv-x="405" 
d="M180 -9q-71 0 -114.5 50t-45.5 130q0 8 8 8h30q9 0 9 -8q2 -62 32 -99t82 -37q55 0 83.5 37t28.5 104v516q0 8 8 8h30q8 0 8 -8v-516q0 -86 -40.5 -135.5t-118.5 -49.5z" />
    <glyph glyph-name="K" unicode="K" horiz-adv-x="449" 
d="M82 0q-8 0 -8 8v684q0 8 8 8h30q9 0 9 -8v-313h109l119 314q2 7 10 7h30q10 0 6 -9l-121 -319q52 -14 83.5 -60t31.5 -108v-196q0 -8 -8 -8h-30q-8 0 -8 8v196q0 57 -32 94t-82 37h-108v-327q0 -8 -9 -8h-30z" />
    <glyph glyph-name="L" unicode="L" horiz-adv-x="337" 
d="M224 42h85q8 0 8 -8v-27q0 -8 -8 -8h-85q-70 0 -114.5 48.5t-44.5 120.5v524q0 8 9 8h30q8 0 8 -8v-524q0 -53 31.5 -89.5t80.5 -36.5z" />
    <glyph glyph-name="M" unicode="M" horiz-adv-x="684" 
d="M468 709q70 0 110.5 -48t40.5 -128v-525q0 -8 -9 -8h-30q-8 0 -8 8v525q0 62 -27 97t-77 35q-46 0 -74.5 -36t-28.5 -96v-525q0 -8 -8 -8h-30q-8 0 -8 8v525q0 60 -28.5 96t-74.5 36q-50 0 -77 -35t-27 -97v-525q0 -8 -8 -8h-30q-9 0 -9 8v525q0 80 40.5 128t110.5 48
q84 0 126 -90q42 90 126 90z" />
    <glyph glyph-name="N" unicode="N" horiz-adv-x="453" 
d="M74 0q-9 0 -9 8v523q0 79 44.5 128.5t117.5 49.5q72 0 116.5 -49.5t44.5 -128.5v-523q0 -8 -8 -8h-30q-9 0 -9 8v523q0 61 -31 97.5t-83 36.5t-83.5 -36.5t-31.5 -97.5v-523q0 -8 -8 -8h-30z" />
    <glyph glyph-name="O" unicode="O" horiz-adv-x="441" 
d="M220 -8q-75 0 -121 50.5t-46 133.5v347q0 84 46 134.5t121 50.5t121 -49t46 -129v-360q0 -80 -46 -129t-121 -49zM220 35q54 0 87.5 37t33.5 98v360q0 61 -33.5 98t-87.5 37t-87 -38.5t-33 -103.5v-347q0 -65 33 -103t87 -38z" />
    <glyph glyph-name="P" unicode="P" horiz-adv-x="416" 
d="M74 0q-9 0 -9 8v526q0 78 42.5 126.5t114.5 48.5t115 -49t43 -126v-104q0 -71 -44 -117t-114 -46h-110v-259q0 -8 -8 -8h-30zM112 311h110q49 0 80 32.5t31 86.5v104q0 59 -30 95t-81 36t-80.5 -36t-29.5 -95v-223z" />
    <glyph glyph-name="Q" unicode="Q" horiz-adv-x="446" 
d="M390 8q6 -6 0 -12l-16 -17q-7 -5 -12 0l-42 43q-43 -30 -99 -30q-75 0 -121.5 49.5t-46.5 128.5v360q0 79 46.5 128.5t121.5 49.5t121.5 -49.5t46.5 -128.5v-360q0 -73 -40 -121zM221 35q37 0 67 19l-53 54q-6 4 0 12l16 16q6 6 12 0l53 -54q25 36 25 88v360q0 61 -33 98
t-87 37t-87 -37t-33 -98v-360q0 -61 33 -98t87 -37z" />
    <glyph glyph-name="R" unicode="R" horiz-adv-x="437" 
d="M74 0q-9 0 -9 8v526q0 77 45 126t115 49t115 -49t45 -126v-73q0 -62 -32 -107t-80 -58l125 -286q3 -10 -7 -10h-33q-6 0 -9 7l-120 281h-117v-280q0 -8 -8 -8h-30zM112 332h113q51 0 82.5 36t31.5 93v73q0 59 -31.5 95t-82.5 36q-50 0 -81.5 -36.5t-31.5 -94.5v-202z" />
    <glyph glyph-name="S" unicode="S" horiz-adv-x="407" 
d="M204 -9q-72 0 -117 49.5t-47 130.5q0 8 9 8h30q8 0 8 -8q2 -65 32.5 -100.5t84.5 -35.5q56 0 86 30.5t30 84.5q0 49 -28.5 91t-68.5 73.5t-80.5 63.5t-69 77t-28.5 99q0 70 43.5 112.5t114.5 42.5q67 0 110.5 -48.5t45.5 -128.5q0 -8 -8 -8h-30q-9 0 -9 8
q-2 66 -30.5 99.5t-78.5 33.5q-52 0 -81.5 -29t-29.5 -82q0 -46 28.5 -85.5t69 -70.5t80.5 -64t68.5 -80t28.5 -104q0 -70 -44.5 -114.5t-118.5 -44.5z" />
    <glyph glyph-name="T" unicode="T" horiz-adv-x="353" 
d="M325 700q8 0 8 -8v-27q0 -9 -8 -9h-125v-648q0 -8 -8 -8h-30q-9 0 -9 8v648h-125q-8 0 -8 9v27q0 8 8 8h297z" />
    <glyph glyph-name="U" unicode="U" horiz-adv-x="453" 
d="M74 700h30q8 0 8 -8v-523q0 -61 31.5 -97.5t83.5 -36.5t83 36.5t31 97.5v523q0 8 9 8h30q8 0 8 -8v-523q0 -79 -44.5 -128.5t-116.5 -49.5q-73 0 -117.5 49.5t-44.5 128.5v523q0 8 9 8z" />
    <glyph glyph-name="V" unicode="V" horiz-adv-x="389" 
d="M362 700q10 0 8 -9l-136 -673q-5 -21 -25 -21h-29q-20 0 -25 21l-136 673q-2 9 8 9h30q8 0 9 -7l129 -643l128 643q1 7 10 7h29z" />
    <glyph glyph-name="W" unicode="W" horiz-adv-x="684" 
d="M610 700q9 0 9 -8v-525q0 -80 -40.5 -128t-110.5 -48q-84 0 -126 90q-42 -90 -126 -90q-70 0 -110.5 48t-40.5 128v525q0 8 9 8h30q8 0 8 -8v-525q0 -62 27 -97t77 -35q46 0 74.5 36t28.5 96v525q0 8 8 8h30q8 0 8 -8v-525q0 -60 29 -96t74 -36q50 0 77 35t27 97v525
q0 8 8 8h30z" />
    <glyph glyph-name="X" unicode="X" horiz-adv-x="424" 
d="M371 501q0 -103 -91 -146q91 -43 91 -148v-199q0 -8 -9 -8h-30q-8 0 -8 8v199q0 55 -31.5 90.5t-80.5 35.5q-48 0 -80 -35.5t-32 -90.5v-199q0 -8 -8 -8h-30q-9 0 -9 8v199q0 106 90 148q-90 43 -90 146v191q0 8 9 8h30q8 0 8 -8v-191q0 -53 32 -89t80 -36
q49 0 80.5 35.5t31.5 89.5v191q0 8 8 8h30q9 0 9 -8v-191z" />
    <glyph glyph-name="Y" unicode="Y" horiz-adv-x="414" 
d="M192 0q-8 0 -8 8v221q-60 8 -98 54.5t-38 113.5v295q0 8 9 8h30q8 0 8 -8v-295q0 -55 32 -91t80 -36q49 0 80.5 36t31.5 91v295q0 8 8 8h30q9 0 9 -8v-295q0 -66 -38 -113t-98 -55v-221q0 -8 -8 -8h-30z" />
    <glyph glyph-name="Z" unicode="Z" horiz-adv-x="402" 
d="M86 44h267q8 0 8 -9v-27q0 -8 -8 -8h-288q-24 0 -24 24v14q0 17 6 30l268 588h-248q-8 0 -8 9v27q0 8 8 8h269q22 0 24 -24l1 -14q0 -17 -6 -30z" />
    <glyph glyph-name="bracketleft" unicode="[" horiz-adv-x="246" 
d="M205 785q0 -9 -9 -9h-81v-852h81q9 0 9 -9v-27q0 -8 -9 -8h-105q-23 0 -23 23v894q0 23 23 23h105q9 0 9 -8v-27z" />
    <glyph glyph-name="backslash" unicode="\" horiz-adv-x="343" 
d="M56 700q6 0 9 -7l260 -683q2 -10 -7 -10h-30q-7 0 -10 7l-259 683q-3 10 6 10h31z" />
    <glyph glyph-name="bracketright" unicode="]" horiz-adv-x="242" 
d="M37 785v27q0 8 9 8h105q23 0 23 -23v-894q0 -23 -23 -23h-105q-9 0 -9 8v27q0 9 9 9h81v852h-81q-9 0 -9 9z" />
    <glyph glyph-name="asciicircum" unicode="^" horiz-adv-x="291" 
d="M281 485q5 -10 -6 -10h-32q-9 0 -10 6l-84 173l-85 -173q-2 -6 -10 -6h-32q-11 0 -6 10l104 209q3 6 10 6h37q7 0 10 -6z" />
    <glyph glyph-name="underscore" unicode="_" horiz-adv-x="377" 
d="M13 -17q0 9 9 9h333q8 0 8 -9v-26q0 -8 -8 -8h-333q-9 0 -9 8v26z" />
    <glyph glyph-name="a" unicode="a" horiz-adv-x="390" 
d="M195 -8q-70 0 -111.5 42.5t-41.5 112.5q0 62 42 102t112 40h100v66q0 51 -27 81t-74 30q-44 0 -70.5 -26.5t-29.5 -70.5q-1 -9 -9 -9h-27q-9 0 -9 9q4 62 43 101t102 39q66 0 106 -42.5t40 -111.5v-208q0 -69 -39.5 -112t-106.5 -43zM195 34q47 0 74 30.5t27 82.5v100
h-100q-51 0 -80 -27.5t-29 -72.5q0 -52 28.5 -82.5t79.5 -30.5z" />
    <glyph glyph-name="b" unicode="b" horiz-adv-x="406" 
d="M208 509q65 0 107 -44.5t42 -110.5v-208q0 -66 -42 -110.5t-107 -44.5q-66 0 -108 44t-42 111v546q0 8 9 8h27q9 0 9 -8v-242q39 59 105 59zM313 146v208q0 49 -29.5 80.5t-75.5 31.5q-47 0 -76 -31.5t-29 -80.5v-208q0 -49 29 -80.5t76 -31.5q46 0 75.5 31.5t29.5 80.5z
" />
    <glyph glyph-name="c" unicode="c" horiz-adv-x="386" 
d="M198 -9q-66 0 -107.5 43.5t-41.5 111.5v205q0 69 40.5 113.5t106.5 44.5q63 0 103 -39t43 -101q0 -9 -8 -9h-28q-8 0 -8 9q-3 44 -30.5 70.5t-71.5 26.5q-47 0 -74.5 -31.5t-27.5 -83.5v-205q0 -50 28 -81t76 -31q45 0 73.5 30t30.5 79q0 8 9 8h27q9 0 9 -8
q-4 -67 -44.5 -109.5t-104.5 -42.5z" />
    <glyph glyph-name="d" unicode="d" horiz-adv-x="406" 
d="M339 700q9 0 9 -8v-546q0 -67 -42 -111t-108 -44q-65 0 -107 44.5t-42 110.5v208q0 66 42 110.5t107 44.5q66 0 105 -59v242q0 8 9 8h27zM303 146v208q0 49 -29 80.5t-76 31.5q-46 0 -75.5 -31.5t-29.5 -80.5v-208q0 -49 29.5 -80.5t75.5 -31.5q47 0 76 31.5t29 80.5z
" />
    <glyph glyph-name="e" unicode="e" horiz-adv-x="389" 
d="M197 -8q-68 0 -108 42.5t-40 111.5v207q0 68 41 111.5t108 43.5q66 0 107.5 -43t41.5 -108q0 -64 -42 -104.5t-114 -40.5h-97v-66q0 -50 27 -81t76 -31q47 0 74 30.5t29 79.5q0 8 9 8h27q9 0 9 -8q-2 -68 -42 -110t-106 -42zM94 255h97q53 0 82 28t29 74q0 47 -28.5 78
t-75.5 31q-49 0 -76.5 -31t-27.5 -82v-98z" />
    <glyph glyph-name="f" unicode="f" horiz-adv-x="283" 
d="M251 500q8 0 8 -8v-26q0 -8 -8 -8h-117v-450q0 -8 -8 -8h-28q-8 0 -8 8v450h-65q-9 0 -9 8v26q0 8 9 8h65v40q0 76 41 119.5t108 43.5q9 0 9 -9v-25q0 -8 -9 -8q-49 0 -77 -31t-28 -90v-40h117z" />
    <glyph glyph-name="g" unicode="g" horiz-adv-x="406" 
d="M199 509q66 0 107.5 -44.5t41.5 -111.5v-408q0 -69 -41 -112t-109 -43q-65 0 -106 42.5t-43 109.5q0 8 9 8h27q9 0 9 -8q2 -50 29.5 -79.5t74.5 -29.5q49 0 77.5 30.5t28.5 81.5v122q-40 -60 -105 -60q-67 0 -108.5 44.5t-41.5 112.5v189q0 68 41.5 112t108.5 44zM199 49
q48 0 76.5 32t28.5 83v189q0 50 -28.5 81.5t-76.5 31.5t-76.5 -31.5t-28.5 -81.5v-189q0 -51 28.5 -83t76.5 -32z" />
    <glyph glyph-name="h" unicode="h" horiz-adv-x="424" 
d="M76 0q-8 0 -8 8v684q0 8 8 8h28q8 0 8 -8v-239q38 56 108 56q65 0 105.5 -44.5t40.5 -112.5v-344q0 -8 -8 -8h-28q-8 0 -8 8v344q0 51 -28.5 82.5t-77.5 31.5q-46 0 -75 -32t-29 -82v-344q0 -8 -8 -8h-28z" />
    <glyph glyph-name="i" unicode="i" horiz-adv-x="180" 
d="M90 572q-15 0 -24 9.5t-9 23.5q0 15 9 24t24 9q14 0 23.5 -9t9.5 -24q0 -14 -9.5 -23.5t-23.5 -9.5zM76 0q-8 0 -8 8v484q0 8 8 8h28q8 0 8 -8v-484q0 -8 -8 -8h-28z" />
    <glyph glyph-name="j" unicode="j" horiz-adv-x="240" 
d="M139 572q-15 0 -24.5 9.5t-9.5 23.5q0 15 9.5 24t24.5 9q14 0 23.5 -9t9.5 -24q0 -14 -9.5 -23.5t-23.5 -9.5zM8 -205q-8 0 -8 8v26q0 9 8 9h2q107 3 107 117v537q0 8 8 8h28q8 0 8 -8v-537q0 -72 -39 -115.5t-112 -44.5h-2z" />
    <glyph glyph-name="k" unicode="k" horiz-adv-x="397" 
d="M230 279q55 -9 88 -47t33 -95v-129q0 -8 -8 -8h-28q-8 0 -8 8v129q0 48 -29 76t-77 28h-89v-233q0 -8 -8 -8h-28q-8 0 -8 8v684q0 8 8 8h28q8 0 8 -8v-408h72l125 210q3 6 10 6h32q11 0 6 -10z" />
    <glyph glyph-name="l" unicode="l" horiz-adv-x="180" 
d="M76 0q-8 0 -8 8v684q0 8 8 8h28q8 0 8 -8v-684q0 -8 -8 -8h-28z" />
    <glyph glyph-name="m" unicode="m" horiz-adv-x="628" 
d="M430 509q63 0 101 -43.5t38 -110.5v-347q0 -8 -8 -8h-28q-8 0 -8 8v347q0 50 -25 80.5t-70 30.5q-43 0 -68.5 -31t-25.5 -80v-347q0 -8 -8 -8h-28q-8 0 -8 8v347q0 49 -25.5 80t-68.5 31q-45 0 -70 -30.5t-25 -80.5v-347q0 -8 -9 -8h-27q-9 0 -9 8v347q0 67 38 110.5
t102 43.5q80 0 116 -80q15 36 46 58t70 22z" />
    <glyph glyph-name="n" unicode="n" horiz-adv-x="406" 
d="M67 0q-9 0 -9 8v343q0 69 39.5 113.5t105.5 44.5t105.5 -44.5t39.5 -113.5v-343q0 -8 -9 -8h-27q-9 0 -9 8v343q0 53 -26 84.5t-74 31.5t-74 -31.5t-26 -84.5v-343q0 -8 -9 -8h-27z" />
    <glyph glyph-name="o" unicode="o" horiz-adv-x="399" 
d="M199 -9q-67 0 -108.5 44t-41.5 111v208q0 67 41.5 111t108.5 44q68 0 109 -44t41 -111v-208q0 -67 -41 -111t-109 -44zM199 33q49 0 77 31.5t28 81.5v208q0 50 -28 81.5t-77 31.5q-48 0 -76.5 -31.5t-28.5 -81.5v-208q0 -50 28.5 -81.5t76.5 -31.5z" />
    <glyph glyph-name="p" unicode="p" horiz-adv-x="406" 
d="M208 509q65 0 107 -44t42 -111v-208q0 -66 -41 -110.5t-102 -44.5q-72 0 -111 59v-242q0 -8 -9 -8h-27q-9 0 -9 8v546q0 67 42 111t108 44zM313 146v208q0 49 -29 80.5t-76 31.5t-76 -31.5t-29 -80.5v-208q0 -49 29 -80.5t76 -31.5t76 31.5t29 80.5z" />
    <glyph glyph-name="q" unicode="q" horiz-adv-x="406" 
d="M198 509q66 0 108 -44t42 -111v-546q0 -8 -9 -8h-27q-9 0 -9 8v242q-39 -59 -111 -59q-61 0 -102 44.5t-41 110.5v208q0 67 42 111t107 44zM198 34q47 0 76 31.5t29 80.5v208q0 49 -29 80.5t-76 31.5t-76 -31.5t-29 -80.5v-208q0 -49 29 -80.5t76 -31.5z" />
    <glyph glyph-name="r" unicode="r" horiz-adv-x="277" 
d="M67 0q-9 0 -9 8v340q0 68 44 111.5t111 43.5h39q9 0 9 -9v-26q0 -8 -9 -8h-39q-49 0 -79.5 -30.5t-30.5 -81.5v-340q0 -8 -9 -8h-27z" />
    <glyph glyph-name="s" unicode="s" horiz-adv-x="382" 
d="M197 -9q-70 0 -111 40.5t-44 111.5q0 8 9 8h27q9 0 9 -8q3 -109 110 -109q45 0 71.5 24t26.5 65q0 36 -25.5 60t-62 38.5t-73.5 30.5t-62.5 47.5t-25.5 78.5q0 56 39.5 93.5t101.5 37.5q67 0 105 -37.5t40 -102.5q0 -9 -8 -9h-28q-8 0 -8 9q-2 44 -28 70.5t-71 26.5
q-44 0 -71.5 -24.5t-27.5 -63.5q0 -35 26 -59t62.5 -38t73 -30.5t62.5 -48.5t26 -79q0 -56 -40.5 -94t-102.5 -38z" />
    <glyph glyph-name="t" unicode="t" horiz-adv-x="271" 
d="M239 41q8 0 8 -9v-26q0 -8 -8 -8h-14q-65 0 -100.5 42t-35.5 119v299h-64q-9 0 -9 8v26q0 8 9 8h64v132q0 8 9 8h27q9 0 9 -8v-132h94q8 0 8 -8v-26q0 -8 -8 -8h-94v-299q0 -118 91 -118h14z" />
    <glyph glyph-name="u" unicode="u" horiz-adv-x="406" 
d="M67 500h27q9 0 9 -8v-343q0 -53 26 -84.5t74 -31.5t74 31.5t26 84.5v343q0 8 9 8h27q9 0 9 -8v-343q0 -69 -39.5 -113.5t-105.5 -44.5t-105.5 44.5t-39.5 113.5v343q0 8 9 8z" />
    <glyph glyph-name="v" unicode="v" horiz-adv-x="353" 
d="M293 493q2 7 9 7h29q9 0 6 -9l-124 -473q-5 -21 -26 -21h-21q-21 0 -26 21l-125 473q-1 9 7 9h29q7 0 9 -7l116 -454z" />
    <glyph glyph-name="w" unicode="w" horiz-adv-x="628" 
d="M430 -9q-39 0 -70 22t-46 58q-36 -80 -116 -80q-64 0 -102 43.5t-38 110.5v347q0 8 9 8h27q9 0 9 -8v-347q0 -50 25 -80.5t70 -30.5q43 0 68.5 31t25.5 80v347q0 8 8 8h28q8 0 8 -8v-347q0 -49 25.5 -80t68.5 -31q45 0 70 30.5t25 80.5v347q0 8 8 8h28q8 0 8 -8v-347
q0 -67 -38 -110.5t-101 -43.5z" />
    <glyph glyph-name="x" unicode="x" horiz-adv-x="389" 
d="M58 0q-9 0 -9 8v109q0 93 81 134q-38 17 -59.5 52t-21.5 81v108q0 8 9 8h28q8 0 8 -8v-108q0 -50 28 -81t72 -31q46 0 73.5 31t27.5 81v108q0 8 8 8h28q8 0 8 -8v-108q0 -96 -80 -133q80 -40 80 -134v-109q0 -8 -8 -8h-28q-8 0 -8 8v109q0 49 -28.5 80.5t-72.5 31.5
q-45 0 -72.5 -31t-27.5 -81v-109q0 -8 -8 -8h-28z" />
    <glyph glyph-name="y" unicode="y" horiz-adv-x="420" 
d="M343 500q9 0 9 -8v-547q0 -69 -40.5 -112t-106.5 -43q-63 0 -103.5 42.5t-43.5 109.5q0 8 9 8h27q9 0 9 -8q2 -50 28.5 -79.5t73.5 -29.5q48 0 75 30.5t27 81.5v119q-39 -57 -102 -57q-66 0 -106.5 44t-40.5 112v329q0 8 9 8h27q9 0 9 -8v-329q0 -51 27.5 -82.5
t74.5 -31.5t74.5 31.5t27.5 82.5v329q0 8 9 8h27z" />
    <glyph glyph-name="z" unicode="z" horiz-adv-x="355" 
d="M88 43h218q9 0 9 -9v-26q0 -8 -9 -8h-246q-20 0 -20 19v15q0 13 6 24l224 399h-213q-9 0 -9 9v26q0 8 9 8h238q20 0 20 -19v-18q0 -13 -6 -24z" />
    <glyph glyph-name="braceleft" unicode="{" horiz-adv-x="268" 
d="M152 484q0 -87 -69 -130q69 -43 69 -130v-191q0 -45 25 -75t63 -34q8 0 8 -9v-27q0 -8 -8 -8q-58 4 -96.5 47t-38.5 106v191q0 38 -19.5 65t-52.5 40q-7 1 -7 9v32q0 8 7 9q33 13 52.5 40t19.5 65v183q0 63 38.5 106t96.5 47q8 0 8 -8v-27q0 -9 -8 -9q-38 -4 -63 -34
t-25 -75v-183z" />
    <glyph glyph-name="bar" unicode="|" horiz-adv-x="183" 
d="M68 792q0 8 8 8h30q9 0 9 -8v-854q0 -8 -9 -8h-30q-8 0 -8 8v854z" />
    <glyph glyph-name="braceright" unicode="}" horiz-adv-x="272" 
d="M239 379q7 -1 7 -9v-32q0 -8 -7 -9q-33 -13 -52.5 -40t-19.5 -65v-191q0 -63 -38.5 -106t-96.5 -47q-8 0 -8 8v27q0 9 8 9q38 4 63 34t25 75v191q0 87 69 130q-69 43 -69 130v183q0 45 -25 75t-63 34q-8 0 -8 9v27q0 8 8 8q58 -4 96.5 -47t38.5 -106v-183q0 -38 19.5 -65
t52.5 -40z" />
    <glyph glyph-name="asciitilde" unicode="~" horiz-adv-x="417" 
d="M355 399q5 9 11 0l14 -21q4 -6 0 -11q-35 -55 -87 -55q-30 0 -87 25.5t-79 25.5q-40 0 -65 -42q-7 -9 -12 0l-13 23q-5 6 0 12q38 52 87 52q30 0 88 -25.5t79 -25.5q38 0 64 42z" />
    <glyph glyph-name="exclamdown" unicode="&#xa1;" horiz-adv-x="209" 
d="M105 508q15 0 25.5 -10.5t10.5 -26.5t-10.5 -26t-25.5 -10q-16 0 -26.5 10t-10.5 26t10.5 26.5t26.5 10.5zM90 371h30q8 0 8 -8v-556q0 -8 -8 -8h-30q-9 0 -9 8v556q0 8 9 8z" />
    <glyph glyph-name="cent" unicode="&#xa2;" horiz-adv-x="386" 
d="M186 -85q-9 0 -9 8v70q-57 7 -92.5 49.5t-35.5 103.5v205q0 64 35.5 107t92.5 49v70q0 8 9 8h19q8 0 8 -8v-69q56 -5 92.5 -44t39.5 -95q0 -9 -8 -9h-28q-8 0 -8 9q-3 43 -31.5 70t-72.5 27q-46 0 -74.5 -31.5t-28.5 -83.5v-205q0 -49 29 -80.5t75 -31.5q44 0 73 28.5
t31 73.5q0 9 9 9h27q9 0 9 -9q-4 -59 -41 -99.5t-93 -44.5v-69q0 -8 -8 -8h-19z" />
    <glyph glyph-name="sterling" unicode="&#xa3;" horiz-adv-x="462" 
d="M420 46q8 0 8 -8v-30q0 -8 -8 -8h-383q-9 0 -9 8v24q0 12 15 15q55 8 55 100v186h-59q-9 0 -9 8v27q0 8 9 8h59v163q0 73 44.5 121.5t113.5 48.5t113 -47t47 -120q0 -8 -9 -8h-30q-8 0 -8 8q-2 54 -33 88.5t-80 34.5t-80 -35.5t-31 -90.5v-163h195q8 0 8 -8v-27
q0 -8 -8 -8h-195v-189q0 -65 -30 -98h305z" />
    <glyph glyph-name="currency" unicode="&#xa4;" horiz-adv-x="435" 
d="M217 112q-66 0 -108 42l-37 -43q-6 -7 -12 -2l-17 15q-6 6 -2 12l43 51q-20 37 -20 83v82q0 46 20 83l-43 52q-5 6 2 11l17 16q6 4 12 -2l37 -44q40 42 108 42q69 0 109 -42l37 44q5 7 12 2l17 -16q7 -5 2 -11l-43 -51q20 -37 20 -84v-82q0 -46 -20 -83l43 -51
q4 -6 -2 -12l-17 -15q-7 -5 -12 2l-37 43q-42 -42 -109 -42zM217 154q50 0 79.5 32t29.5 84v82q0 52 -29.5 84t-79.5 32t-79 -32t-29 -84v-82q0 -52 29 -84t79 -32z" />
    <glyph glyph-name="yen" unicode="&#xa5;" horiz-adv-x="502" 
d="M441 230h-168v-69h168q8 0 8 -9v-21q0 -9 -8 -9h-168v-114q0 -8 -8 -8h-30q-8 0 -8 8v114h-165q-9 0 -9 9v21q0 9 9 9h165v69h-165q-9 0 -9 8v22q0 8 9 8h89q-59 46 -59 120v304q0 8 8 8h30q9 0 9 -8v-304q0 -49 32.5 -82t78.5 -33q47 0 79 33t32 82v304q0 8 9 8h30
q8 0 8 -8v-304q0 -75 -60 -120h93q8 0 8 -8v-22q0 -8 -8 -8z" />
    <glyph glyph-name="brokenbar" unicode="&#xa6;" horiz-adv-x="163" 
d="M66 506q-8 0 -8 8v278q0 8 8 8h30q9 0 9 -8v-278q0 -8 -9 -8h-30zM66 -70q-8 0 -8 8v278q0 8 8 8h30q9 0 9 -8v-278q0 -8 -9 -8h-30z" />
    <glyph glyph-name="section" unicode="&#xa7;" horiz-adv-x="389" 
d="M267 230q71 -44 71 -117q0 -52 -39.5 -86.5t-102.5 -34.5q-69 0 -108 39.5t-41 95.5q0 8 8 8h30q8 0 8 -8q8 -92 102 -92q46 0 71.5 21.5t25.5 57.5t-26 59.5t-63 37.5t-74 30t-63 48t-26 80q0 37 21 65.5t58 42.5q-70 40 -70 109q0 53 39.5 87.5t102.5 34.5
q66 0 102.5 -34.5t38.5 -88.5q0 -8 -9 -8h-29q-9 0 -9 8q-8 80 -94 80q-43 0 -69.5 -21t-26.5 -58q0 -34 26 -57t63.5 -37.5t75 -30t63.5 -44.5t26 -71q0 -83 -82 -116zM86 365q0 -75 131 -111q37 5 61.5 29.5t24.5 60.5q0 41 -38 65.5t-99 42.5q-38 -7 -59 -31t-21 -56z
" />
    <glyph glyph-name="copyright" unicode="&#xa9;" horiz-adv-x="618" 
d="M246 -3q-85 0 -136.5 52t-51.5 138v322q0 87 51.5 140.5t136.5 53.5h127q84 0 135.5 -53.5t51.5 -140.5v-322q0 -85 -51.5 -137.5t-135.5 -52.5h-127zM246 26h127q73 0 115 43t42 118v322q0 76 -42 120.5t-115 44.5h-127q-73 0 -115.5 -44t-42.5 -121v-322q0 -75 42 -118
t116 -43zM309 136q-55 0 -89 35t-34 93v169q0 58 33.5 94t88.5 36q52 0 85.5 -32.5t36.5 -85.5q0 -6 -6 -6h-27q-6 0 -6 6q-3 37 -25.5 58t-57.5 21q-39 0 -61 -24.5t-22 -66.5v-169q0 -41 22.5 -65t61.5 -24q37 0 59.5 22.5t25.5 61.5q0 6 6 6h26q7 0 7 -6
q-3 -56 -37 -89.5t-87 -33.5z" />
    <glyph glyph-name="guillemotleft" unicode="&#xab;" horiz-adv-x="392" 
d="M157 83q-7 0 -10 5l-114 153q-13 16 0 32l114 153q3 5 10 5h30q5 0 6.5 -3t-1.5 -7l-124 -164l124 -164q3 -4 1.5 -7t-6.5 -3h-30zM320 83q-8 0 -10 5l-114 153q-13 16 0 32l114 153q2 5 10 5h30q5 0 6.5 -3t-1.5 -7l-124 -164l124 -164q3 -4 1.5 -7t-6.5 -3h-30z" />
    <glyph glyph-name="logicalnot" unicode="&#xac;" horiz-adv-x="440" 
d="M384 380q8 0 8 -9v-110q0 -9 -8 -9h-24q-8 0 -8 9v77h-296q-8 0 -8 8v25q0 9 8 9h328z" />
    <glyph glyph-name="registered" unicode="&#xae;" horiz-adv-x="443" 
d="M161 264q-44 0 -76 31.5t-32 75.5v223q0 45 32 77t76 32h121q44 0 75.5 -32t31.5 -77v-223q0 -44 -31.5 -75.5t-75.5 -31.5h-121zM161 285h121q36 0 61.5 25.5t25.5 60.5v223q0 37 -25.5 62.5t-61.5 25.5h-121q-36 0 -61.5 -25.5t-25.5 -62.5v-223q0 -35 25.5 -60.5
t61.5 -25.5zM155 344q-3 0 -3 3v214q0 32 19.5 51.5t50.5 19.5q30 0 49 -20t19 -51v-29q0 -26 -13 -44.5t-34 -24.5l51 -115q2 -4 -2 -4h-19q-4 0 -4 3l-49 112h-44v-112q0 -3 -4 -3h-17zM176 481h46q19 0 31.5 14t12.5 37v29q0 22 -12.5 36t-31.5 14q-21 0 -33.5 -14
t-12.5 -36v-80z" />
    <glyph glyph-name="degree" unicode="&#xb0;" horiz-adv-x="301" 
d="M29 581q0 58 33.5 93t88.5 35q54 0 87.5 -35t33.5 -93t-33.5 -93t-87.5 -35q-55 0 -88.5 35t-33.5 93zM69 581q0 -41 22.5 -66t59.5 -25t59.5 25t22.5 66t-22.5 66t-59.5 25t-59.5 -25t-22.5 -66z" />
    <glyph glyph-name="plusminus" unicode="&#xb1;" horiz-adv-x="440" 
d="M384 405q8 0 8 -8v-26q0 -8 -8 -8h-143v-143q0 -8 -8 -8h-26q-8 0 -8 8v143h-143q-8 0 -8 8v26q0 8 8 8h143v143q0 8 8 8h26q8 0 8 -8v-143h143zM384 170q8 0 8 -8v-25q0 -9 -8 -9h-328q-8 0 -8 9v25q0 8 8 8h328z" />
    <glyph glyph-name="paragraph" unicode="&#xb6;" horiz-adv-x="462" 
d="M361 701q27 0 27 -27v-764q0 -9 -8 -9h-30q-9 0 -9 9v747h-124v-747q0 -9 -8 -9h-30q-8 0 -8 9v499q-69 0 -110.5 39t-41.5 107t41.5 107t110.5 39h190z" />
    <glyph glyph-name="periodcentered" unicode="&#xb7;" horiz-adv-x="147" 
d="M57 217q-16 0 -27 11t-11 27q0 17 10.5 27.5t27.5 10.5q16 0 27 -11t11 -27t-11 -27t-27 -11z" />
    <glyph glyph-name="guillemotright" unicode="&#xbb;" horiz-adv-x="392" 
d="M72 83h-30q-5 0 -6.5 3t1.5 7l124 164l-124 164q-3 4 -1.5 7t6.5 3h30q8 0 10 -5l114 -153q13 -16 0 -32l-114 -153q-2 -5 -10 -5zM235 83h-30q-5 0 -6.5 3t1.5 7l124 164l-124 164q-3 4 -1.5 7t6.5 3h30q7 0 10 -5l114 -153q13 -16 0 -32l-114 -153q-3 -5 -10 -5z" />
    <glyph glyph-name="questiondown" unicode="&#xbf;" horiz-adv-x="317" 
d="M172 508q16 0 26 -10.5t10 -26.5t-10 -26t-26 -10t-26.5 10t-10.5 26t10.5 26.5t26.5 10.5zM189 367q8 0 8 -9v-61q0 -47 -14 -85.5t-35 -66t-41.5 -53.5t-35 -61.5t-14.5 -77.5q0 -53 30 -86t77 -33q46 0 75.5 33t30.5 90q0 8 9 8h30q8 0 8 -8q-2 -75 -45 -121t-108 -46
q-67 0 -110.5 46t-43.5 117q0 47 14.5 85.5t35 66t41.5 54t35.5 63t14.5 80.5l-1 56q0 9 9 9h30z" />
    <glyph glyph-name="Agrave" unicode="&#xc0;" horiz-adv-x="454" 
d="M253 769h-24q-7 0 -10 5l-81 91q-4 4 -2 7t7 3h35q8 0 10 -5l70 -91q3 -4 1.5 -7t-6.5 -3zM74 0q-9 0 -9 8v522q0 80 44.5 129t117.5 49q72 0 116.5 -49t44.5 -129v-522q2 -8 -8 -8h-30q-8 0 -8 8v254h-230v-254q0 -8 -8 -8h-30zM112 305h230v225q0 63 -30.5 99t-84.5 36
t-84.5 -36t-30.5 -99v-225z" />
    <glyph glyph-name="Aacute" unicode="&#xc1;" horiz-adv-x="454" 
d="M198 769q-5 0 -6.5 3t1.5 7l70 91q3 5 10 5h35q5 0 7 -3t-2 -7l-81 -91q-3 -5 -10 -5h-24zM74 0q-9 0 -9 8v522q0 80 44.5 129t117.5 49q72 0 116.5 -49t44.5 -129v-522q2 -8 -8 -8h-30q-8 0 -8 8v254h-230v-254q0 -8 -8 -8h-30zM112 305h230v225q0 63 -30.5 99t-84.5 36
t-84.5 -36t-30.5 -99v-225z" />
    <glyph glyph-name="Acircumflex" unicode="&#xc2;" horiz-adv-x="454" 
d="M332 779q7 -10 -5 -10h-25q-6 0 -10 4l-65 75l-65 -75q-4 -4 -10 -4h-25q-12 0 -5 10l75 91q3 5 10 5h40q7 0 10 -5zM74 0q-9 0 -9 8v522q0 80 44.5 129t117.5 49q72 0 116.5 -49t44.5 -129v-522q2 -8 -8 -8h-30q-8 0 -8 8v254h-230v-254q0 -8 -8 -8h-30zM112 305h230
v225q0 63 -30.5 99t-84.5 36t-84.5 -36t-30.5 -99v-225z" />
    <glyph glyph-name="Atilde" unicode="&#xc3;" horiz-adv-x="454" 
d="M187 814q-21 0 -24 -30q-1 -8 -9 -8h-24q-8 0 -8 8q2 31 19 49.5t43 18.5q22 0 46 -19.5t35 -19.5q22 0 24 30q1 8 9 8h24q8 0 8 -8q-2 -31 -19.5 -49.5t-42.5 -18.5q-21 0 -45 19.5t-36 19.5zM74 0q-9 0 -9 8v522q0 80 44.5 129t117.5 49q72 0 116.5 -49t44.5 -129v-522
q2 -8 -8 -8h-30q-8 0 -8 8v254h-230v-254q0 -8 -8 -8h-30zM112 305h230v225q0 63 -30.5 99t-84.5 36t-84.5 -36t-30.5 -99v-225z" />
    <glyph glyph-name="Adieresis" unicode="&#xc4;" horiz-adv-x="454" 
d="M178 787q-14 0 -23 9t-9 23t9 23t23 9t23 -9t9 -23t-9 -23t-23 -9zM277 787q-14 0 -23 9t-9 23t9 23t23 9t23 -9t9 -23t-9 -23t-23 -9zM74 0q-9 0 -9 8v522q0 80 44.5 129t117.5 49q72 0 116.5 -49t44.5 -129v-522q2 -8 -8 -8h-30q-8 0 -8 8v254h-230v-254q0 -8 -8 -8
h-30zM112 305h230v225q0 63 -30.5 99t-84.5 36t-84.5 -36t-30.5 -99v-225z" />
    <glyph glyph-name="Aring" unicode="&#xc5;" horiz-adv-x="454" 
d="M159 821q0 29 18.5 46.5t48.5 17.5t48 -17.5t18 -46.5t-18 -47t-48 -18t-48.5 18t-18.5 47zM192 820q0 -34 34 -34q15 0 24.5 9t9.5 25t-9.5 25t-24.5 9q-34 0 -34 -34zM74 0q-9 0 -9 8v522q0 80 44.5 129t117.5 49q72 0 116.5 -49t44.5 -129v-522q2 -8 -8 -8h-30
q-8 0 -8 8v254h-230v-254q0 -8 -8 -8h-30zM112 305h230v225q0 63 -30.5 99t-84.5 36t-84.5 -36t-30.5 -99v-225z" />
    <glyph glyph-name="AE" unicode="&#xc6;" horiz-adv-x="616" 
d="M74 0q-9 0 -9 8v530q0 76 41.5 123t110.5 47q42 0 75 -24t53 -63q45 83 137 83h81q8 0 8 -8v-27q0 -9 -8 -9h-81q-54 0 -84 -32t-30 -88v-169h168q9 0 9 -9v-27q0 -8 -9 -8h-168v-162q0 -57 30 -90t84 -33h88q8 0 8 -8v-27q0 -8 -8 -8h-88q-73 0 -117 46t-44 120v162
h-209v-319q0 -8 -8 -8h-30zM112 371h209v168q0 56 -28.5 91t-75.5 35q-49 0 -77 -34.5t-28 -92.5v-167z" />
    <glyph glyph-name="Ccedilla" unicode="&#xc7;" horiz-adv-x="413" 
d="M379 171q-2 -77 -44.5 -126.5t-110.5 -53.5l-7 -41q4 1 13 1q32 -2 53 -22t21 -50q0 -35 -24 -56t-62 -21q-36 0 -59.5 19t-25.5 51q-2 8 7 8h22q6 0 8 -8q6 -35 48 -35q21 0 34.5 11.5t13.5 30.5q0 17 -12.5 28.5t-30.5 11.5q-14 0 -36 -6q-4 -1 -7 2l-2 1q-3 3 -3 7
l14 70q-62 9 -99 54.5t-37 113.5v378q0 75 45 122.5t117 47.5q69 0 113 -49.5t46 -127.5q0 -8 -8 -8h-30q-8 0 -8 8q-2 61 -32.5 97t-80.5 36q-53 0 -84 -34t-31 -92v-378q0 -58 31 -92t84 -34t84.5 37t33.5 99q0 8 8 8h30q8 0 8 -8z" />
    <glyph glyph-name="Egrave" unicode="&#xc8;" horiz-adv-x="361" 
d="M242 769h-24q-7 0 -10 5l-81 91q-4 4 -2 7t7 3h35q7 0 10 -5l70 -91q3 -4 1.5 -7t-6.5 -3zM214 -2q-71 0 -116 48t-45 122v364q0 74 45 122t116 48h99q8 0 8 -8v-27q0 -9 -8 -9h-99q-51 0 -82.5 -35.5t-31.5 -90.5v-155h190q9 0 9 -8v-27q0 -8 -9 -8h-190v-166
q0 -55 31.5 -90.5t82.5 -35.5h99q8 0 8 -9v-27q0 -8 -8 -8h-99z" />
    <glyph glyph-name="Eacute" unicode="&#xc9;" horiz-adv-x="361" 
d="M176 769q-5 0 -6.5 3t1.5 7l70 91q3 5 10 5h35q5 0 7 -3t-2 -7l-81 -91q-3 -5 -10 -5h-24zM214 -2q-71 0 -116 48t-45 122v364q0 74 45 122t116 48h99q8 0 8 -8v-27q0 -9 -8 -9h-99q-51 0 -82.5 -35.5t-31.5 -90.5v-155h190q9 0 9 -8v-27q0 -8 -9 -8h-190v-166
q0 -55 31.5 -90.5t82.5 -35.5h99q8 0 8 -9v-27q0 -8 -8 -8h-99z" />
    <glyph glyph-name="Ecircumflex" unicode="&#xca;" horiz-adv-x="360" 
d="M313 779q7 -10 -5 -10h-25q-6 0 -10 4l-65 75l-65 -75q-4 -4 -10 -4h-25q-12 0 -5 10l75 91q3 5 10 5h40q7 0 10 -5zM214 -2q-71 0 -116 48t-45 122v364q0 74 45 122t116 48h99q8 0 8 -8v-27q0 -9 -8 -9h-99q-51 0 -82.5 -35.5t-31.5 -90.5v-155h190q9 0 9 -8v-27
q0 -8 -9 -8h-190v-166q0 -55 31.5 -90.5t82.5 -35.5h99q8 0 8 -9v-27q0 -8 -8 -8h-99z" />
    <glyph glyph-name="Edieresis" unicode="&#xcb;" horiz-adv-x="360" 
d="M159 787q-14 0 -23 9t-9 23t9 23t23 9t23 -9t9 -23t-9 -23t-23 -9zM258 787q-14 0 -23 9t-9 23t9 23t23 9t23 -9t9 -23t-9 -23t-23 -9zM214 -2q-71 0 -116 48t-45 122v364q0 74 45 122t116 48h99q8 0 8 -8v-27q0 -9 -8 -9h-99q-51 0 -82.5 -35.5t-31.5 -90.5v-155h190
q9 0 9 -8v-27q0 -8 -9 -8h-190v-166q0 -55 31.5 -90.5t82.5 -35.5h99q8 0 8 -9v-27q0 -8 -8 -8h-99z" />
    <glyph glyph-name="Igrave" unicode="&#xcc;" horiz-adv-x="195" 
d="M143 769h-24q-7 0 -10 5l-81 91q-4 4 -2 7t7 3h35q8 0 10 -5l70 -91q3 -4 1.5 -7t-6.5 -3zM74 692q0 8 8 8h30q9 0 9 -8v-684q0 -8 -9 -8h-30q-8 0 -8 8v684z" />
    <glyph glyph-name="Iacute" unicode="&#xcd;" horiz-adv-x="210" 
d="M77 769q-5 0 -6.5 3t1.5 7l70 91q2 5 10 5h35q5 0 7 -3t-2 -7l-81 -91q-3 -5 -10 -5h-24zM82 692q0 8 8 8h30q9 0 9 -8v-684q0 -8 -9 -8h-30q-8 0 -8 8v684z" />
    <glyph glyph-name="Icircumflex" unicode="&#xce;" horiz-adv-x="235" 
d="M222 779q7 -10 -5 -10h-25q-6 0 -10 4l-65 75l-65 -75q-4 -4 -10 -4h-25q-12 0 -5 10l75 91q3 5 10 5h40q7 0 10 -5zM94 692q0 8 8 8h30q9 0 9 -8v-684q0 -8 -9 -8h-30q-8 0 -8 8v684z" />
    <glyph glyph-name="Idieresis" unicode="&#xcf;" horiz-adv-x="195" 
d="M48 787q-14 0 -23 9t-9 23t9 23t23 9t23 -9t9 -23t-9 -23t-23 -9zM147 787q-14 0 -23 9t-9 23t9 23t23 9t23 -9t9 -23t-9 -23t-23 -9zM74 692q0 8 8 8h30q9 0 9 -8v-684q0 -8 -9 -8h-30q-8 0 -8 8v684z" />
    <glyph glyph-name="Eth" unicode="&#xd0;" horiz-adv-x="489" 
d="M275 702q72 0 116.5 -47.5t44.5 -119.5v-366q0 -73 -44.5 -122t-116.5 -49h-134q-23 0 -23 23v313h-61q-8 0 -8 8v26q0 9 8 9h61v302q0 23 23 23h134zM390 169v366q0 54 -31.5 88.5t-83.5 34.5h-110v-281h79q8 0 8 -9v-26q0 -8 -8 -8h-79v-292h110q51 0 83 36t32 91z" />
    <glyph glyph-name="Ntilde" unicode="&#xd1;" horiz-adv-x="453" 
d="M189 814q-21 0 -24 -30q-1 -8 -9 -8h-24q-8 0 -8 8q2 31 19 49.5t43 18.5q22 0 46 -19.5t35 -19.5q22 0 24 30q1 8 9 8h24q8 0 8 -8q-2 -31 -19.5 -49.5t-42.5 -18.5q-21 0 -45 19.5t-36 19.5zM74 0q-9 0 -9 8v523q0 79 44.5 128.5t117.5 49.5q72 0 116.5 -49.5
t44.5 -128.5v-523q0 -8 -8 -8h-30q-9 0 -9 8v523q0 61 -31 97.5t-83 36.5t-83.5 -36.5t-31.5 -97.5v-523q0 -8 -8 -8h-30z" />
    <glyph glyph-name="Ograve" unicode="&#xd2;" horiz-adv-x="441" 
d="M266 769h-24q-7 0 -10 5l-81 91q-4 4 -2 7t7 3h35q7 0 10 -5l70 -91q3 -4 1.5 -7t-6.5 -3zM220 -8q-75 0 -121 50.5t-46 133.5v347q0 84 46 134.5t121 50.5t121 -49t46 -129v-360q0 -80 -46 -129t-121 -49zM220 35q54 0 87.5 37t33.5 98v360q0 61 -33.5 98t-87.5 37
t-87 -38.5t-33 -103.5v-347q0 -65 33 -103t87 -38z" />
    <glyph glyph-name="Oacute" unicode="&#xd3;" horiz-adv-x="441" 
d="M191 769q-5 0 -6.5 3t1.5 7l70 91q2 5 10 5h35q5 0 7 -3t-2 -7l-81 -91q-3 -5 -10 -5h-24zM220 -8q-75 0 -121 50.5t-46 133.5v347q0 84 46 134.5t121 50.5t121 -49t46 -129v-360q0 -80 -46 -129t-121 -49zM220 35q54 0 87.5 37t33.5 98v360q0 61 -33.5 98t-87.5 37
t-87 -38.5t-33 -103.5v-347q0 -65 33 -103t87 -38z" />
    <glyph glyph-name="Ocircumflex" unicode="&#xd4;" horiz-adv-x="441" 
d="M325 779q7 -10 -5 -10h-25q-6 0 -10 4l-65 75l-65 -75q-4 -4 -10 -4h-25q-12 0 -5 10l75 91q3 5 10 5h40q7 0 10 -5zM220 -8q-75 0 -121 50.5t-46 133.5v347q0 84 46 134.5t121 50.5t121 -49t46 -129v-360q0 -80 -46 -129t-121 -49zM220 35q54 0 87.5 37t33.5 98v360
q0 61 -33.5 98t-87.5 37t-87 -38.5t-33 -103.5v-347q0 -65 33 -103t87 -38z" />
    <glyph glyph-name="Otilde" unicode="&#xd5;" horiz-adv-x="441" 
d="M180 814q-21 0 -24 -30q-1 -8 -9 -8h-24q-8 0 -8 8q2 31 19 49.5t43 18.5q23 0 47 -19.5t34 -19.5q22 0 24 30q1 8 9 8h24q8 0 8 -8q-2 -31 -19.5 -49.5t-42.5 -18.5q-21 0 -45 19.5t-36 19.5zM220 -8q-75 0 -121 50.5t-46 133.5v347q0 84 46 134.5t121 50.5t121 -49
t46 -129v-360q0 -80 -46 -129t-121 -49zM220 35q54 0 87.5 37t33.5 98v360q0 61 -33.5 98t-87.5 37t-87 -38.5t-33 -103.5v-347q0 -65 33 -103t87 -38z" />
    <glyph glyph-name="Odieresis" unicode="&#xd6;" horiz-adv-x="441" 
d="M171 787q-14 0 -23 9t-9 23t9 23t23 9t23 -9t9 -23t-9 -23t-23 -9zM270 787q-14 0 -23 9t-9 23t9 23t23 9t23 -9t9 -23t-9 -23t-23 -9zM220 -8q-75 0 -121 50.5t-46 133.5v347q0 84 46 134.5t121 50.5t121 -49t46 -129v-360q0 -80 -46 -129t-121 -49zM220 35
q54 0 87.5 37t33.5 98v360q0 61 -33.5 98t-87.5 37t-87 -38.5t-33 -103.5v-347q0 -65 33 -103t87 -38z" />
    <glyph glyph-name="multiply" unicode="&#xd7;" horiz-adv-x="440" 
d="M72 193l-18 17q-6 6 0 13l136 136l-136 136q-6 6 0 12l18 18q6 5 12 0l136 -136l136 136q6 5 12 0l18 -18q6 -6 0 -12l-136 -136l136 -136q6 -7 0 -13l-18 -17q-6 -6 -12 0l-136 136l-136 -136q-6 -6 -12 0z" />
    <glyph glyph-name="Oslash" unicode="&#xd8;" horiz-adv-x="442" 
d="M88 -45q-10 0 -8 9l22 75q-49 52 -49 137v347q0 84 46.5 134.5t121.5 50.5q42 0 71 -14l13 44q3 7 9 7h27q10 0 7 -9l-19 -66q60 -49 60 -140v-360q0 -79 -46.5 -128.5t-121.5 -49.5q-49 0 -83 21l-15 -51q-3 -7 -9 -7h-26zM119 97l160 554q-28 14 -58 14
q-54 0 -87 -38.5t-33 -103.5v-347q0 -48 18 -79zM221 35q54 0 87 37t33 98v360q0 55 -28 85l-162 -557q29 -23 70 -23z" />
    <glyph glyph-name="Ugrave" unicode="&#xd9;" horiz-adv-x="453" 
d="M269 769h-24q-7 0 -10 5l-81 91q-4 4 -2 7t7 3h35q8 0 10 -5l70 -91q3 -4 1.5 -7t-6.5 -3zM74 700h30q8 0 8 -8v-523q0 -61 31.5 -97.5t83.5 -36.5t83 36.5t31 97.5v523q0 8 9 8h30q8 0 8 -8v-523q0 -79 -44.5 -128.5t-116.5 -49.5q-73 0 -117.5 49.5t-44.5 128.5v523
q0 8 9 8z" />
    <glyph glyph-name="Uacute" unicode="&#xda;" horiz-adv-x="453" 
d="M194 769q-5 0 -6.5 3t1.5 7l70 91q3 5 10 5h35q5 0 7 -3t-2 -7l-81 -91q-3 -5 -10 -5h-24zM74 700h30q8 0 8 -8v-523q0 -61 31.5 -97.5t83.5 -36.5t83 36.5t31 97.5v523q0 8 9 8h30q8 0 8 -8v-523q0 -79 -44.5 -128.5t-116.5 -49.5q-73 0 -117.5 49.5t-44.5 128.5v523
q0 8 9 8z" />
    <glyph glyph-name="Ucircumflex" unicode="&#xdb;" horiz-adv-x="453" 
d="M328 779q7 -10 -5 -10h-25q-6 0 -10 4l-65 75l-65 -75q-4 -4 -10 -4h-25q-12 0 -5 10l75 91q3 5 10 5h40q7 0 10 -5zM74 700h30q8 0 8 -8v-523q0 -61 31.5 -97.5t83.5 -36.5t83 36.5t31 97.5v523q0 8 9 8h30q8 0 8 -8v-523q0 -79 -44.5 -128.5t-116.5 -49.5
q-73 0 -117.5 49.5t-44.5 128.5v523q0 8 9 8z" />
    <glyph glyph-name="Udieresis" unicode="&#xdc;" horiz-adv-x="453" 
d="M174 787q-14 0 -23 9t-9 23t9 23t23 9t23 -9t9 -23t-9 -23t-23 -9zM273 787q-14 0 -23 9t-9 23t9 23t23 9t23 -9t9 -23t-9 -23t-23 -9zM74 700h30q8 0 8 -8v-523q0 -61 31.5 -97.5t83.5 -36.5t83 36.5t31 97.5v523q0 8 9 8h30q8 0 8 -8v-523q0 -79 -44.5 -128.5
t-116.5 -49.5q-73 0 -117.5 49.5t-44.5 128.5v523q0 8 9 8z" />
    <glyph glyph-name="Yacute" unicode="&#xdd;" horiz-adv-x="414" 
d="M178 769q-5 0 -6.5 3t1.5 7l70 91q3 5 10 5h35q5 0 7 -3t-2 -7l-81 -91q-3 -5 -10 -5h-24zM192 0q-8 0 -8 8v221q-60 8 -98 54.5t-38 113.5v295q0 8 9 8h30q8 0 8 -8v-295q0 -55 32 -91t80 -36q49 0 80.5 36t31.5 91v295q0 8 8 8h30q9 0 9 -8v-295q0 -66 -38 -113
t-98 -55v-221q0 -8 -8 -8h-30z" />
    <glyph glyph-name="Thorn" unicode="&#xde;" horiz-adv-x="415" 
d="M82 0q-8 0 -8 8v684q0 9 8 9h30q9 0 9 -9v-128h105q63 0 108 -46t45 -112v-111q0 -66 -45 -112t-108 -46h-105v-129q0 -8 -9 -8h-30zM121 180h105q44 0 75 32t31 80v116q0 48 -31 80t-75 32h-105v-340z" />
    <glyph glyph-name="germandbls" unicode="&#xdf;" horiz-adv-x="399" 
d="M74 0q-9 0 -9 8l1 554q0 65 37.5 106t95.5 41q59 0 98 -41t39 -106l-1 -78q0 -74 -74 -110q43 -17 69.5 -53.5t26.5 -83.5v-89q0 -63 -40.5 -105.5t-101.5 -42.5h-65q-8 0 -8 8v27q0 8 8 8h65q42 0 69.5 30t27.5 75v89q0 50 -31 81t-79 31h-52q-8 0 -8 8v26q0 9 8 9h41
q44 0 72 25.5t28 66.5l1 78q0 47 -26 75.5t-67 28.5q-39 0 -64 -28.5t-25 -75.5v-554q0 -8 -9 -8h-27z" />
    <glyph glyph-name="agrave" unicode="&#xe0;" horiz-adv-x="390" 
d="M118 670h34q7 0 10 -6l60 -95q7 -10 -5 -10h-25q-8 0 -10 5l-69 96q-3 4 -1.5 7t6.5 3zM195 -8q-70 0 -111.5 42.5t-41.5 112.5q0 62 42 102t112 40h100v66q0 51 -27 81t-74 30q-44 0 -70.5 -26.5t-29.5 -70.5q-1 -9 -9 -9h-27q-9 0 -9 9q4 62 43 101t102 39
q66 0 106 -42.5t40 -111.5v-208q0 -69 -39.5 -112t-106.5 -43zM195 34q47 0 74 30.5t27 82.5v100h-100q-51 0 -80 -27.5t-29 -72.5q0 -52 28.5 -82.5t79.5 -30.5z" />
    <glyph glyph-name="aacute" unicode="&#xe1;" horiz-adv-x="390" 
d="M262 670q5 0 6.5 -3t-1.5 -7l-69 -96q-2 -5 -10 -5h-25q-12 0 -5 10l60 95q3 6 10 6h34zM195 -8q-70 0 -111.5 42.5t-41.5 112.5q0 62 42 102t112 40h100v66q0 51 -27 81t-74 30q-44 0 -70.5 -26.5t-29.5 -70.5q-1 -9 -9 -9h-27q-9 0 -9 9q4 62 43 101t102 39
q66 0 106 -42.5t40 -111.5v-208q0 -69 -39.5 -112t-106.5 -43zM195 34q47 0 74 30.5t27 82.5v100h-100q-51 0 -80 -27.5t-29 -72.5q0 -52 28.5 -82.5t79.5 -30.5z" />
    <glyph glyph-name="acircumflex" unicode="&#xe2;" horiz-adv-x="390" 
d="M101 559q-5 0 -6.5 3t1.5 7l71 96q3 5 10 5h36q7 0 10 -5l71 -96q3 -4 1.5 -7t-6.5 -3h-24q-8 0 -11 5l-59 73l-59 -73q-3 -5 -11 -5h-24zM195 -8q-70 0 -111.5 42.5t-41.5 112.5q0 62 42 102t112 40h100v66q0 51 -27 81t-74 30q-44 0 -70.5 -26.5t-29.5 -70.5
q-1 -9 -9 -9h-27q-9 0 -9 9q4 62 43 101t102 39q66 0 106 -42.5t40 -111.5v-208q0 -69 -39.5 -112t-106.5 -43zM195 34q47 0 74 30.5t27 82.5v100h-100q-51 0 -80 -27.5t-29 -72.5q0 -52 28.5 -82.5t79.5 -30.5z" />
    <glyph glyph-name="atilde" unicode="&#xe3;" horiz-adv-x="390" 
d="M154 617q-21 0 -24 -30q-1 -8 -9 -8h-24q-8 0 -8 8q2 31 19 49.5t43 18.5q23 0 47 -19.5t34 -19.5q22 0 24 30q1 8 9 8h24q8 0 8 -8q-2 -31 -19.5 -49.5t-42.5 -18.5q-21 0 -45 19.5t-36 19.5zM195 -8q-70 0 -111.5 42.5t-41.5 112.5q0 62 42 102t112 40h100v66
q0 51 -27 81t-74 30q-44 0 -70.5 -26.5t-29.5 -70.5q-1 -9 -9 -9h-27q-9 0 -9 9q4 62 43 101t102 39q66 0 106 -42.5t40 -111.5v-208q0 -69 -39.5 -112t-106.5 -43zM195 34q47 0 74 30.5t27 82.5v100h-100q-51 0 -80 -27.5t-29 -72.5q0 -52 28.5 -82.5t79.5 -30.5z" />
    <glyph glyph-name="adieresis" unicode="&#xe4;" horiz-adv-x="390" 
d="M146 574q-14 0 -23 9t-9 23t9 23t23 9t23 -9t9 -23t-9 -23t-23 -9zM245 574q-14 0 -23 9t-9 23t9 23t23 9t23 -9t9 -23t-9 -23t-23 -9zM195 -8q-70 0 -111.5 42.5t-41.5 112.5q0 62 42 102t112 40h100v66q0 51 -27 81t-74 30q-44 0 -70.5 -26.5t-29.5 -70.5q-1 -9 -9 -9
h-27q-9 0 -9 9q4 62 43 101t102 39q66 0 106 -42.5t40 -111.5v-208q0 -69 -39.5 -112t-106.5 -43zM195 34q47 0 74 30.5t27 82.5v100h-100q-51 0 -80 -27.5t-29 -72.5q0 -52 28.5 -82.5t79.5 -30.5z" />
    <glyph glyph-name="aring" unicode="&#xe5;" horiz-adv-x="390" 
d="M128 615q0 29 18.5 46.5t48.5 17.5t48 -17.5t18 -46.5t-18 -47t-48 -18t-48.5 18t-18.5 47zM161 614q0 -34 34 -34q15 0 24.5 9t9.5 25t-9.5 25t-24.5 9q-34 0 -34 -34zM195 -8q-70 0 -111.5 42.5t-41.5 112.5q0 62 42 102t112 40h100v66q0 51 -27 81t-74 30
q-44 0 -70.5 -26.5t-29.5 -70.5q-1 -9 -9 -9h-27q-9 0 -9 9q4 62 43 101t102 39q66 0 106 -42.5t40 -111.5v-208q0 -69 -39.5 -112t-106.5 -43zM195 34q47 0 74 30.5t27 82.5v100h-100q-51 0 -80 -27.5t-29 -72.5q0 -52 28.5 -82.5t79.5 -30.5z" />
    <glyph glyph-name="ae" unicode="&#xe6;" horiz-adv-x="619" 
d="M188 -9q-66 0 -106 40.5t-40 104.5q0 62 42.5 101.5t110.5 39.5h92v78q0 50 -27 80.5t-71 30.5q-41 0 -67 -26.5t-29 -70.5q0 -9 -8 -9h-28q-8 0 -8 9q3 62 41.5 101t98.5 39q83 0 120 -79q42 79 124 79q64 0 104 -40t40 -102q0 -58 -42 -95.5t-115 -37.5h-88v-88
q0 -50 26 -81t74 -31q47 0 72 29.5t27 81.5q0 8 8 8h28q8 0 8 -8q-2 -70 -40 -112t-103 -42q-84 0 -122 78q-37 -78 -122 -78zM332 277h88q56 0 84 24.5t28 65.5q0 44 -26.5 71.5t-72.5 27.5t-73.5 -31t-27.5 -80v-78zM188 34q46 0 72.5 30.5t26.5 82.5v87h-92
q-50 0 -79 -27t-29 -71q0 -46 27 -74t74 -28z" />
    <glyph glyph-name="ccedilla" unicode="&#xe7;" horiz-adv-x="386" 
d="M347 143q-4 -63 -39.5 -104.5t-92.5 -46.5l-8 -42q4 1 13 1q32 -2 53 -22t21 -50q0 -35 -24 -56t-62 -21q-36 0 -59.5 19t-25.5 51q-2 8 7 8h22q6 0 8 -8q6 -35 48 -35q21 0 34.5 11.5t13.5 30.5q0 17 -12.5 28.5t-30.5 11.5q-14 0 -36 -6q-4 -1 -7 2l-2 1q-3 3 -3 7
l13 69q-58 7 -93.5 49.5t-35.5 104.5v205q0 69 40.5 113.5t106.5 44.5q63 0 103 -39t43 -101q0 -9 -8 -9h-28q-8 0 -8 9q-3 44 -30.5 70.5t-71.5 26.5q-47 0 -74.5 -31.5t-27.5 -83.5v-205q0 -50 28 -81t76 -31q45 0 73.5 30t30.5 79q0 8 9 8h27q9 0 9 -8z" />
    <glyph glyph-name="egrave" unicode="&#xe8;" horiz-adv-x="389" 
d="M119 670h34q7 0 10 -6l60 -95q7 -10 -5 -10h-25q-7 0 -10 5l-69 96q-3 4 -1.5 7t6.5 3zM197 -8q-68 0 -108 42.5t-40 111.5v207q0 68 41 111.5t108 43.5q66 0 107.5 -43t41.5 -108q0 -64 -42 -104.5t-114 -40.5h-97v-66q0 -50 27 -81t76 -31q47 0 74 30.5t29 79.5
q0 8 9 8h27q9 0 9 -8q-2 -68 -42 -110t-106 -42zM94 255h97q53 0 82 28t29 74q0 47 -28.5 78t-75.5 31q-49 0 -76.5 -31t-27.5 -82v-98z" />
    <glyph glyph-name="eacute" unicode="&#xe9;" horiz-adv-x="389" 
d="M263 670q5 0 6.5 -3t-1.5 -7l-69 -96q-3 -5 -10 -5h-25q-12 0 -5 10l60 95q3 6 10 6h34zM197 -8q-68 0 -108 42.5t-40 111.5v207q0 68 41 111.5t108 43.5q66 0 107.5 -43t41.5 -108q0 -64 -42 -104.5t-114 -40.5h-97v-66q0 -50 27 -81t76 -31q47 0 74 30.5t29 79.5
q0 8 9 8h27q9 0 9 -8q-2 -68 -42 -110t-106 -42zM94 255h97q53 0 82 28t29 74q0 47 -28.5 78t-75.5 31q-49 0 -76.5 -31t-27.5 -82v-98z" />
    <glyph glyph-name="ecircumflex" unicode="&#xea;" horiz-adv-x="389" 
d="M102 559q-5 0 -6.5 3t1.5 7l71 96q2 5 10 5h36q8 0 10 -5l71 -96q3 -4 1.5 -7t-6.5 -3h-24q-8 0 -11 5l-59 73l-59 -73q-3 -5 -11 -5h-24zM197 -8q-68 0 -108 42.5t-40 111.5v207q0 68 41 111.5t108 43.5q66 0 107.5 -43t41.5 -108q0 -64 -42 -104.5t-114 -40.5h-97v-66
q0 -50 27 -81t76 -31q47 0 74 30.5t29 79.5q0 8 9 8h27q9 0 9 -8q-2 -68 -42 -110t-106 -42zM94 255h97q53 0 82 28t29 74q0 47 -28.5 78t-75.5 31q-49 0 -76.5 -31t-27.5 -82v-98z" />
    <glyph glyph-name="edieresis" unicode="&#xeb;" horiz-adv-x="389" 
d="M147 574q-14 0 -23 9t-9 23t9 23t23 9t23 -9t9 -23t-9 -23t-23 -9zM246 574q-14 0 -23 9t-9 23t9 23t23 9t23 -9t9 -23t-9 -23t-23 -9zM197 -8q-68 0 -108 42.5t-40 111.5v207q0 68 41 111.5t108 43.5q66 0 107.5 -43t41.5 -108q0 -64 -42 -104.5t-114 -40.5h-97v-66
q0 -50 27 -81t76 -31q47 0 74 30.5t29 79.5q0 8 9 8h27q9 0 9 -8q-2 -68 -42 -110t-106 -42zM94 255h97q53 0 82 28t29 74q0 47 -28.5 78t-75.5 31q-49 0 -76.5 -31t-27.5 -82v-98z" />
    <glyph glyph-name="igrave" unicode="&#xec;" horiz-adv-x="180" 
d="M13 670h34q7 0 10 -6l60 -95q7 -10 -5 -10h-25q-7 0 -10 5l-69 96q-3 4 -1.5 7t6.5 3zM76 0q-8 0 -8 8v484q0 8 8 8h28q8 0 8 -8v-484q0 -8 -8 -8h-28z" />
    <glyph glyph-name="iacute" unicode="&#xed;" horiz-adv-x="180" 
d="M157 670q5 0 6.5 -3t-1.5 -7l-69 -96q-3 -5 -10 -5h-25q-12 0 -5 10l60 95q3 6 10 6h34zM76 0q-8 0 -8 8v484q0 8 8 8h28q8 0 8 -8v-484q0 -8 -8 -8h-28z" />
    <glyph glyph-name="icircumflex" unicode="&#xee;" horiz-adv-x="200" 
d="M17 559q-5 0 -6.5 3t1.5 7l71 96q3 5 10 5h36q7 0 10 -5l71 -96q3 -4 1.5 -7t-6.5 -3h-24q-8 0 -11 5l-59 73l-59 -73q-3 -5 -11 -5h-24zM97 0q-8 0 -8 8v484q0 8 8 8h28q8 0 8 -8v-484q0 -8 -8 -8h-28z" />
    <glyph glyph-name="idieresis" unicode="&#xef;" horiz-adv-x="169" 
d="M43 575q-13 0 -21 8.5t-8 21.5t8 21t21 8q14 0 22.5 -8t8.5 -21t-8.5 -21.5t-22.5 -8.5zM127 575q-13 0 -21.5 8.5t-8.5 21.5t8.5 21t21.5 8t21.5 -8t8.5 -21t-8.5 -21.5t-21.5 -8.5zM71 0q-8 0 -8 8v484q0 8 8 8h28q8 0 8 -8v-484q0 -8 -8 -8h-28z" />
    <glyph glyph-name="eth" unicode="&#xf0;" horiz-adv-x="419" 
d="M306 638q45 -57 45 -151v-339q0 -68 -42.5 -112.5t-108.5 -44.5t-108.5 44.5t-42.5 112.5v206q0 66 42.5 110.5t108.5 44.5q63 0 106 -59v37q0 81 -38 127l-97 -60q-10 -5 -10 6v20q0 5 5 10l77 48q-40 28 -102 28h-22q-8 0 -8 8v26q0 8 8 8h22q88 0 142 -46l57 35
q10 6 10 -6v-20q0 -5 -6 -10zM306 148v206q0 49 -29.5 80.5t-76.5 31.5t-76.5 -31.5t-29.5 -80.5v-206q0 -51 29 -82.5t77 -31.5t77 31.5t29 82.5z" />
    <glyph glyph-name="ntilde" unicode="&#xf1;" horiz-adv-x="406" 
d="M162 617q-21 0 -24 -30q-1 -8 -9 -8h-24q-8 0 -8 8q2 31 19 49.5t43 18.5q23 0 47 -19.5t34 -19.5q22 0 24 30q1 8 9 8h24q8 0 8 -8q-2 -31 -19.5 -49.5t-42.5 -18.5q-21 0 -45 19.5t-36 19.5zM67 0q-9 0 -9 8v343q0 69 39.5 113.5t105.5 44.5t105.5 -44.5t39.5 -113.5
v-343q0 -8 -9 -8h-27q-9 0 -9 8v343q0 53 -26 84.5t-74 31.5t-74 -31.5t-26 -84.5v-343q0 -8 -9 -8h-27z" />
    <glyph glyph-name="ograve" unicode="&#xf2;" horiz-adv-x="399" 
d="M122 670h34q7 0 10 -6l60 -95q7 -10 -5 -10h-25q-8 0 -10 5l-69 96q-3 4 -1.5 7t6.5 3zM199 -9q-67 0 -108.5 44t-41.5 111v208q0 67 41.5 111t108.5 44q68 0 109 -44t41 -111v-208q0 -67 -41 -111t-109 -44zM199 33q49 0 77 31.5t28 81.5v208q0 50 -28 81.5t-77 31.5
q-48 0 -76.5 -31.5t-28.5 -81.5v-208q0 -50 28.5 -81.5t76.5 -31.5z" />
    <glyph glyph-name="oacute" unicode="&#xf3;" horiz-adv-x="399" 
d="M266 670q5 0 6.5 -3t-1.5 -7l-69 -96q-2 -5 -10 -5h-25q-12 0 -5 10l60 95q3 6 10 6h34zM199 -9q-67 0 -108.5 44t-41.5 111v208q0 67 41.5 111t108.5 44q68 0 109 -44t41 -111v-208q0 -67 -41 -111t-109 -44zM199 33q49 0 77 31.5t28 81.5v208q0 50 -28 81.5t-77 31.5
q-48 0 -76.5 -31.5t-28.5 -81.5v-208q0 -50 28.5 -81.5t76.5 -31.5z" />
    <glyph glyph-name="ocircumflex" unicode="&#xf4;" horiz-adv-x="399" 
d="M105 559q-5 0 -6.5 3t1.5 7l71 96q3 5 10 5h36q7 0 10 -5l71 -96q3 -4 1.5 -7t-6.5 -3h-24q-8 0 -11 5l-59 73l-59 -73q-3 -5 -11 -5h-24zM199 -9q-67 0 -108.5 44t-41.5 111v208q0 67 41.5 111t108.5 44q68 0 109 -44t41 -111v-208q0 -67 -41 -111t-109 -44zM199 33
q49 0 77 31.5t28 81.5v208q0 50 -28 81.5t-77 31.5q-48 0 -76.5 -31.5t-28.5 -81.5v-208q0 -50 28.5 -81.5t76.5 -31.5z" />
    <glyph glyph-name="otilde" unicode="&#xf5;" horiz-adv-x="399" 
d="M158 617q-21 0 -24 -30q-1 -8 -9 -8h-24q-8 0 -8 8q2 31 19 49.5t43 18.5q23 0 47 -19.5t34 -19.5q22 0 24 30q1 8 9 8h24q8 0 8 -8q-2 -31 -19.5 -49.5t-42.5 -18.5q-21 0 -45 19.5t-36 19.5zM199 -9q-67 0 -108.5 44t-41.5 111v208q0 67 41.5 111t108.5 44
q68 0 109 -44t41 -111v-208q0 -67 -41 -111t-109 -44zM199 33q49 0 77 31.5t28 81.5v208q0 50 -28 81.5t-77 31.5q-48 0 -76.5 -31.5t-28.5 -81.5v-208q0 -50 28.5 -81.5t76.5 -31.5z" />
    <glyph glyph-name="odieresis" unicode="&#xf6;" horiz-adv-x="399" 
d="M150 574q-14 0 -23 9t-9 23t9 23t23 9t23 -9t9 -23t-9 -23t-23 -9zM249 574q-14 0 -23 9t-9 23t9 23t23 9t23 -9t9 -23t-9 -23t-23 -9zM199 -9q-67 0 -108.5 44t-41.5 111v208q0 67 41.5 111t108.5 44q68 0 109 -44t41 -111v-208q0 -67 -41 -111t-109 -44zM199 33
q49 0 77 31.5t28 81.5v208q0 50 -28 81.5t-77 31.5q-48 0 -76.5 -31.5t-28.5 -81.5v-208q0 -50 28.5 -81.5t76.5 -31.5z" />
    <glyph glyph-name="divide" unicode="&#xf7;" horiz-adv-x="440" 
d="M220 456q-16 0 -27.5 11.5t-11.5 27.5q0 17 11.5 28t27.5 11t27.5 -11.5t11.5 -27.5t-11.5 -27.5t-27.5 -11.5zM56 338q-8 0 -8 8v26q0 8 8 8h328q8 0 8 -8v-26q0 -8 -8 -8h-328zM220 178q-16 0 -27.5 11.5t-11.5 27.5q0 17 11.5 28t27.5 11t27.5 -11.5t11.5 -27.5
t-11.5 -27.5t-27.5 -11.5z" />
    <glyph glyph-name="oslash" unicode="&#xf8;" horiz-adv-x="399" 
d="M275 490q35 -19 54.5 -55t19.5 -81v-208q0 -67 -41 -111t-109 -44q-31 0 -59 11l-11 -40q-2 -7 -9 -7h-25q-9 0 -8 9l16 59q-54 44 -54 123v208q0 67 41.5 111t108.5 44q23 0 39 -4l9 33q2 7 9 7h25q10 0 7 -9zM94 146q0 -44 23 -75l109 393q-12 3 -27 3
q-48 0 -76.5 -31.5t-28.5 -81.5v-208zM304 146v208q0 63 -41 93l-112 -404q23 -10 48 -10q49 0 77 31.5t28 81.5z" />
    <glyph glyph-name="ugrave" unicode="&#xf9;" horiz-adv-x="406" 
d="M125 670h34q7 0 10 -6l60 -95q7 -10 -5 -10h-25q-7 0 -10 5l-69 96q-3 4 -1.5 7t6.5 3zM67 500h27q9 0 9 -8v-343q0 -53 26 -84.5t74 -31.5t74 31.5t26 84.5v343q0 8 9 8h27q9 0 9 -8v-343q0 -69 -39.5 -113.5t-105.5 -44.5t-105.5 44.5t-39.5 113.5v343q0 8 9 8z" />
    <glyph glyph-name="uacute" unicode="&#xfa;" horiz-adv-x="406" 
d="M269 670q5 0 6.5 -3t-1.5 -7l-69 -96q-3 -5 -10 -5h-25q-12 0 -5 10l60 95q3 6 10 6h34zM67 500h27q9 0 9 -8v-343q0 -53 26 -84.5t74 -31.5t74 31.5t26 84.5v343q0 8 9 8h27q9 0 9 -8v-343q0 -69 -39.5 -113.5t-105.5 -44.5t-105.5 44.5t-39.5 113.5v343q0 8 9 8z" />
    <glyph glyph-name="ucircumflex" unicode="&#xfb;" horiz-adv-x="406" 
d="M108 559q-5 0 -6.5 3t1.5 7l71 96q2 5 10 5h36q8 0 10 -5l71 -96q3 -4 1.5 -7t-6.5 -3h-24q-8 0 -11 5l-59 73l-59 -73q-3 -5 -11 -5h-24zM67 500h27q9 0 9 -8v-343q0 -53 26 -84.5t74 -31.5t74 31.5t26 84.5v343q0 8 9 8h27q9 0 9 -8v-343q0 -69 -39.5 -113.5
t-105.5 -44.5t-105.5 44.5t-39.5 113.5v343q0 8 9 8z" />
    <glyph glyph-name="udieresis" unicode="&#xfc;" horiz-adv-x="406" 
d="M153 574q-14 0 -23 9t-9 23t9 23t23 9t23 -9t9 -23t-9 -23t-23 -9zM252 574q-14 0 -23 9t-9 23t9 23t23 9t23 -9t9 -23t-9 -23t-23 -9zM67 500h27q9 0 9 -8v-343q0 -53 26 -84.5t74 -31.5t74 31.5t26 84.5v343q0 8 9 8h27q9 0 9 -8v-343q0 -69 -39.5 -113.5t-105.5 -44.5
t-105.5 44.5t-39.5 113.5v343q0 8 9 8z" />
    <glyph glyph-name="yacute" unicode="&#xfd;" horiz-adv-x="420" 
d="M176 559q-12 0 -5 10l60 95q3 6 10 6h34q5 0 6.5 -3t-1.5 -7l-69 -96q-3 -5 -10 -5h-25zM343 500q9 0 9 -8v-547q0 -69 -40.5 -112t-106.5 -43q-63 0 -103.5 42.5t-43.5 109.5q0 8 9 8h27q9 0 9 -8q2 -50 28.5 -79.5t73.5 -29.5q48 0 75 30.5t27 81.5v119
q-39 -57 -102 -57q-66 0 -106.5 44t-40.5 112v329q0 8 9 8h27q9 0 9 -8v-329q0 -51 27.5 -82.5t74.5 -31.5t74.5 31.5t27.5 82.5v329q0 8 9 8h27z" />
    <glyph glyph-name="thorn" unicode="&#xfe;" horiz-adv-x="415" 
d="M76 -200q-8 0 -8 8v884q0 8 8 8h28q8 0 8 -8v-241q40 58 105 58t106.5 -44t41.5 -111v-208q0 -67 -41.5 -111t-106.5 -44t-105 58v-241q0 -8 -8 -8h-28zM217 34q46 0 75 31.5t29 80.5v208q0 49 -29 80.5t-75 31.5t-75.5 -31.5t-29.5 -80.5v-208q0 -49 29.5 -80.5
t75.5 -31.5z" />
    <glyph glyph-name="ydieresis" unicode="&#xff;" horiz-adv-x="420" 
d="M159 574q-14 0 -23 9t-9 23t9 23t23 9t23 -9t9 -23t-9 -23t-23 -9zM258 574q-14 0 -23 9t-9 23t9 23t23 9t23 -9t9 -23t-9 -23t-23 -9zM343 500q9 0 9 -8v-547q0 -69 -40.5 -112t-106.5 -43q-63 0 -103.5 42.5t-43.5 109.5q0 8 9 8h27q9 0 9 -8q2 -50 28.5 -79.5
t73.5 -29.5q48 0 75 30.5t27 81.5v119q-39 -57 -102 -57q-66 0 -106.5 44t-40.5 112v329q0 8 9 8h27q9 0 9 -8v-329q0 -51 27.5 -82.5t74.5 -31.5t74.5 31.5t27.5 82.5v329q0 8 9 8h27z" />
    <glyph glyph-name="Amacron" unicode="&#x100;" horiz-adv-x="454" 
d="M147 828q0 8 8 8h143q8 0 8 -8v-24q0 -9 -8 -9h-143q-8 0 -8 9v24zM74 0q-9 0 -9 8v522q0 80 44.5 129t117.5 49q72 0 116.5 -49t44.5 -129v-522q2 -8 -8 -8h-30q-8 0 -8 8v254h-230v-254q0 -8 -8 -8h-30zM112 305h230v225q0 63 -30.5 99t-84.5 36t-84.5 -36t-30.5 -99
v-225z" />
    <glyph glyph-name="amacron" unicode="&#x101;" horiz-adv-x="390" 
d="M115 627q0 8 8 8h143q8 0 8 -8v-24q0 -9 -8 -9h-143q-8 0 -8 9v24zM195 -8q-70 0 -111.5 42.5t-41.5 112.5q0 62 42 102t112 40h100v66q0 51 -27 81t-74 30q-44 0 -70.5 -26.5t-29.5 -70.5q-1 -9 -9 -9h-27q-9 0 -9 9q4 62 43 101t102 39q66 0 106 -42.5t40 -111.5v-208
q0 -69 -39.5 -112t-106.5 -43zM195 34q47 0 74 30.5t27 82.5v100h-100q-51 0 -80 -27.5t-29 -72.5q0 -52 28.5 -82.5t79.5 -30.5z" />
    <glyph glyph-name="Abreve" unicode="&#x102;" horiz-adv-x="454" 
d="M227 768q-46 0 -75 26t-32 70q0 9 8 9h25q7 0 9 -9q2 -26 19.5 -41t45.5 -15q61 0 66 56q0 9 9 9h25q8 0 8 -9q-3 -43 -32 -69.5t-76 -26.5zM74 0q-9 0 -9 8v522q0 80 44.5 129t117.5 49q72 0 116.5 -49t44.5 -129v-522q2 -8 -8 -8h-30q-8 0 -8 8v254h-230v-254
q0 -8 -8 -8h-30zM112 305h230v225q0 63 -30.5 99t-84.5 36t-84.5 -36t-30.5 -99v-225z" />
    <glyph glyph-name="abreve" unicode="&#x103;" horiz-adv-x="390" 
d="M195 562q-46 0 -75 27t-32 71q0 8 8 8h25q8 0 9 -8q5 -58 65 -58q61 0 66 58q0 8 9 8h25q8 0 8 -8q-3 -44 -32 -71t-76 -27zM195 -8q-70 0 -111.5 42.5t-41.5 112.5q0 62 42 102t112 40h100v66q0 51 -27 81t-74 30q-44 0 -70.5 -26.5t-29.5 -70.5q-1 -9 -9 -9h-27
q-9 0 -9 9q4 62 43 101t102 39q66 0 106 -42.5t40 -111.5v-208q0 -69 -39.5 -112t-106.5 -43zM195 34q47 0 74 30.5t27 82.5v100h-100q-51 0 -80 -27.5t-29 -72.5q0 -52 28.5 -82.5t79.5 -30.5z" />
    <glyph glyph-name="Aogonek" unicode="&#x104;" horiz-adv-x="460" 
d="M364 -198q-43 0 -65 22.5t-22 55.5q0 51 62 120v262h-227v-254q0 -8 -8 -8h-30q-9 0 -9 8v522q0 80 44 129t116 49t116 -49t44 -129v-524q0 -6 -5 -11q-60 -53 -60 -104q0 -46 55 -46h11q9 0 9 -7v-25q0 -7 -8 -9q-16 -2 -23 -2zM112 305h227v225q0 63 -30.5 99t-83.5 36
t-83 -36t-30 -99v-225z" />
    <glyph glyph-name="aogonek" unicode="&#x105;" horiz-adv-x="389" 
d="M286 -198q-49 -6 -81.5 15.5t-32.5 60.5q0 48 57 116q-13 -3 -35 -3q-67 0 -109.5 43.5t-42.5 108.5q0 63 44 104.5t112 41.5h97v66q0 49 -28 80t-73 31q-41 0 -69 -28t-31 -69q0 -9 -8 -9h-28q-8 0 -8 9q3 60 43.5 100t100.5 40q64 0 105 -44t41 -110v-245
q0 -50 -48 -92q-27 -25 -50.5 -66.5t-23.5 -66.5q0 -44 67 -39q9 0 9 -8v-27q0 -7 -8 -9zM195 34q48 0 74 20.5t26 55.5v137h-97q-50 0 -80.5 -29.5t-30.5 -74.5q0 -48 29.5 -78.5t78.5 -30.5z" />
    <glyph glyph-name="Cacute" unicode="&#x106;" horiz-adv-x="413" 
d="M181 769q-5 0 -6.5 3t1.5 7l70 91q2 5 10 5h35q5 0 7 -3t-2 -7l-81 -91q-3 -5 -10 -5h-24zM215 -9q-72 0 -117 47.5t-45 122.5v378q0 75 45 122.5t117 47.5q69 0 113 -49.5t46 -127.5q0 -8 -8 -8h-30q-8 0 -8 8q-2 61 -32.5 97t-80.5 36q-53 0 -84 -34t-31 -92v-378
q0 -58 31 -92t84 -34t84.5 37t33.5 99q0 8 8 8h30q8 0 8 -8q-2 -80 -47 -130t-117 -50z" />
    <glyph glyph-name="cacute" unicode="&#x107;" horiz-adv-x="386" 
d="M262 670q5 0 6.5 -3t-1.5 -7l-69 -96q-2 -5 -10 -5h-25q-12 0 -5 10l60 95q3 6 10 6h34zM198 -9q-66 0 -107.5 43.5t-41.5 111.5v205q0 69 40.5 113.5t106.5 44.5q63 0 103 -39t43 -101q0 -9 -8 -9h-28q-8 0 -8 9q-3 44 -30.5 70.5t-71.5 26.5q-47 0 -74.5 -31.5
t-27.5 -83.5v-205q0 -50 28 -81t76 -31q45 0 73.5 30t30.5 79q0 8 9 8h27q9 0 9 -8q-4 -67 -44.5 -109.5t-104.5 -42.5z" />
    <glyph glyph-name="Cdotaccent" unicode="&#x10a;" horiz-adv-x="413" 
d="M210 777q-15 0 -24 9.5t-9 23.5q0 15 9 24t24 9q14 0 23.5 -9t9.5 -24q0 -14 -9.5 -23.5t-23.5 -9.5zM215 -9q-72 0 -117 47.5t-45 122.5v378q0 75 45 122.5t117 47.5q69 0 113 -49.5t46 -127.5q0 -8 -8 -8h-30q-8 0 -8 8q-2 61 -32.5 97t-80.5 36q-53 0 -84 -34t-31 -92
v-378q0 -58 31 -92t84 -34t84.5 37t33.5 99q0 8 8 8h30q8 0 8 -8q-2 -80 -47 -130t-117 -50z" />
    <glyph glyph-name="cdotaccent" unicode="&#x10b;" horiz-adv-x="386" 
d="M195 572q-15 0 -24 9.5t-9 23.5q0 15 9 24t24 9q14 0 23.5 -9t9.5 -24q0 -14 -9.5 -23.5t-23.5 -9.5zM198 -9q-66 0 -107.5 43.5t-41.5 111.5v205q0 69 40.5 113.5t106.5 44.5q63 0 103 -39t43 -101q0 -9 -8 -9h-28q-8 0 -8 9q-3 44 -30.5 70.5t-71.5 26.5
q-47 0 -74.5 -31.5t-27.5 -83.5v-205q0 -50 28 -81t76 -31q45 0 73.5 30t30.5 79q0 8 9 8h27q9 0 9 -8q-4 -67 -44.5 -109.5t-104.5 -42.5z" />
    <glyph glyph-name="Ccaron" unicode="&#x10c;" horiz-adv-x="413" 
d="M314 865l-75 -91q-3 -5 -10 -5h-40q-7 0 -10 5l-75 91q-7 10 5 10h25q6 0 10 -4l65 -75l65 75q4 4 10 4h25q12 0 5 -10zM215 -9q-72 0 -117 47.5t-45 122.5v378q0 75 45 122.5t117 47.5q69 0 113 -49.5t46 -127.5q0 -8 -8 -8h-30q-8 0 -8 8q-2 61 -32.5 97t-80.5 36
q-53 0 -84 -34t-31 -92v-378q0 -58 31 -92t84 -34t84.5 37t33.5 99q0 8 8 8h30q8 0 8 -8q-2 -80 -47 -130t-117 -50z" />
    <glyph glyph-name="ccaron" unicode="&#x10d;" horiz-adv-x="386" 
d="M101 670h24q8 0 11 -5l59 -73l59 73q3 5 11 5h24q5 0 6.5 -3t-1.5 -7l-71 -96q-3 -5 -10 -5h-36q-7 0 -10 5l-71 96q-3 4 -1.5 7t6.5 3zM198 -9q-66 0 -107.5 43.5t-41.5 111.5v205q0 69 40.5 113.5t106.5 44.5q63 0 103 -39t43 -101q0 -9 -8 -9h-28q-8 0 -8 9
q-3 44 -30.5 70.5t-71.5 26.5q-47 0 -74.5 -31.5t-27.5 -83.5v-205q0 -50 28 -81t76 -31q45 0 73.5 30t30.5 79q0 8 9 8h27q9 0 9 -8q-4 -67 -44.5 -109.5t-104.5 -42.5z" />
    <glyph glyph-name="Dcaron" unicode="&#x10e;" horiz-adv-x="446" 
d="M315 865l-75 -91q-3 -5 -10 -5h-40q-7 0 -10 5l-75 91q-7 10 5 10h25q6 0 10 -4l65 -75l65 75q4 4 10 4h25q12 0 5 -10zM97 -2q-23 0 -23 23v658q0 23 23 23h134q72 0 116.5 -47.5t44.5 -119.5v-366q0 -73 -44.5 -122t-116.5 -49h-134zM121 42h110q51 0 83 36t32 91v366
q0 54 -31.5 88.5t-83.5 34.5h-110v-616z" />
    <glyph glyph-name="dcaron" unicode="&#x10f;" horiz-adv-x="466" 
d="M339 700q9 0 9 -8v-546q0 -67 -42 -111t-108 -44q-65 0 -107 44.5t-42 110.5v208q0 66 42 110.5t107 44.5q66 0 105 -59v242q0 8 9 8h27zM447 699q9 0 7 -9l-26 -147q0 -8 -9 -8h-18q-7 0 -7 9l9 147q0 8 9 8h35zM303 146v208q0 49 -29 80.5t-76 31.5q-46 0 -75.5 -31.5
t-29.5 -80.5v-208q0 -49 29.5 -80.5t75.5 -31.5q47 0 76 31.5t29 80.5z" />
    <glyph glyph-name="Dcroat" unicode="&#x110;" horiz-adv-x="489" 
d="M275 702q72 0 116.5 -47.5t44.5 -119.5v-366q0 -73 -44.5 -122t-116.5 -49h-134q-23 0 -23 23v313h-61q-8 0 -8 8v26q0 9 8 9h61v302q0 23 23 23h134zM390 169v366q0 54 -31.5 88.5t-83.5 34.5h-110v-281h79q8 0 8 -9v-26q0 -8 -8 -8h-79v-292h110q51 0 83 36t32 91z" />
    <glyph glyph-name="dcroat" unicode="&#x111;" horiz-adv-x="412" 
d="M394 632q8 0 8 -8v-20q0 -9 -8 -9h-46v-449q0 -67 -42 -111t-108 -44q-65 0 -107 44.5t-42 110.5v208q0 66 42 110.5t107 44.5q66 0 105 -59v145h-95q-8 0 -8 9v20q0 8 8 8h95v60q0 8 9 8h27q9 0 9 -8v-60h46zM303 146v208q0 49 -29 80.5t-76 31.5q-46 0 -75.5 -31.5
t-29.5 -80.5v-208q0 -49 29.5 -80.5t75.5 -31.5q47 0 76 31.5t29 80.5z" />
    <glyph glyph-name="Emacron" unicode="&#x112;" horiz-adv-x="360" 
d="M128 828q0 8 8 8h143q8 0 8 -8v-24q0 -9 -8 -9h-143q-8 0 -8 9v24zM214 -2q-71 0 -116 48t-45 122v364q0 74 45 122t116 48h99q8 0 8 -8v-27q0 -9 -8 -9h-99q-51 0 -82.5 -35.5t-31.5 -90.5v-155h190q9 0 9 -8v-27q0 -8 -9 -8h-190v-166q0 -55 31.5 -90.5t82.5 -35.5h99
q8 0 8 -9v-27q0 -8 -8 -8h-99z" />
    <glyph glyph-name="emacron" unicode="&#x113;" horiz-adv-x="389" 
d="M116 627q0 8 8 8h143q8 0 8 -8v-24q0 -9 -8 -9h-143q-8 0 -8 9v24zM197 -8q-68 0 -108 42.5t-40 111.5v207q0 68 41 111.5t108 43.5q66 0 107.5 -43t41.5 -108q0 -64 -42 -104.5t-114 -40.5h-97v-66q0 -50 27 -81t76 -31q47 0 74 30.5t29 79.5q0 8 9 8h27q9 0 9 -8
q-2 -68 -42 -110t-106 -42zM94 255h97q53 0 82 28t29 74q0 47 -28.5 78t-75.5 31q-49 0 -76.5 -31t-27.5 -82v-98z" />
    <glyph glyph-name="Edotaccent" unicode="&#x116;" horiz-adv-x="360" 
d="M208 777q-15 0 -24 9.5t-9 23.5q0 15 9 24t24 9q14 0 23.5 -9t9.5 -24q0 -14 -9.5 -23.5t-23.5 -9.5zM214 -2q-71 0 -116 48t-45 122v364q0 74 45 122t116 48h99q8 0 8 -8v-27q0 -9 -8 -9h-99q-51 0 -82.5 -35.5t-31.5 -90.5v-155h190q9 0 9 -8v-27q0 -8 -9 -8h-190v-166
q0 -55 31.5 -90.5t82.5 -35.5h99q8 0 8 -9v-27q0 -8 -8 -8h-99z" />
    <glyph glyph-name="edotaccent" unicode="&#x117;" horiz-adv-x="389" 
d="M196 572q-15 0 -24 9.5t-9 23.5q0 15 9 24t24 9q14 0 23.5 -9t9.5 -24q0 -14 -9.5 -23.5t-23.5 -9.5zM197 -8q-68 0 -108 42.5t-40 111.5v207q0 68 41 111.5t108 43.5q66 0 107.5 -43t41.5 -108q0 -64 -42 -104.5t-114 -40.5h-97v-66q0 -50 27 -81t76 -31q47 0 74 30.5
t29 79.5q0 8 9 8h27q9 0 9 -8q-2 -68 -42 -110t-106 -42zM94 255h97q53 0 82 28t29 74q0 47 -28.5 78t-75.5 31q-49 0 -76.5 -31t-27.5 -82v-98z" />
    <glyph glyph-name="Eogonek" unicode="&#x118;" horiz-adv-x="362" 
d="M214 658q-51 0 -82.5 -35.5t-31.5 -90.5v-155h190q9 0 9 -8v-27q0 -8 -9 -8h-190v-166q0 -55 31.5 -90.5t82.5 -35.5h99q8 0 8 -9v-27q0 -8 -8 -8h-31q-62 -55 -62 -107q0 -46 56 -46h11q8 0 8 -7v-25q0 -8 -7 -9q-16 -2 -24 -2q-42 0 -64 22.5t-22 55.5q0 51 59 118h-23
q-71 0 -116 48t-45 122v364q0 74 45 122t116 48h99q8 0 8 -8v-27q0 -9 -8 -9h-99z" />
    <glyph glyph-name="eogonek" unicode="&#x119;" horiz-adv-x="389" 
d="M284 -198q-40 -7 -76.5 14.5t-36.5 61.5q0 60 53 116q-10 -3 -27 -3q-68 0 -108 43.5t-40 111.5v209q0 67 40.5 110.5t105.5 43.5q66 0 107 -42.5t41 -108.5q0 -64 -43 -104.5t-114 -40.5h-92v-67q0 -50 27 -81t77 -31q49 0 76 34t27 77q0 8 8 8h28q8 0 8 -8
q0 -71 -55 -124q-74 -68 -74 -130q0 -48 67 -45q9 0 9 -8v-27q0 -7 -8 -9zM94 256h92q53 0 82.5 27.5t29.5 74.5q0 49 -28 78.5t-75 29.5q-46 0 -73.5 -31t-27.5 -80v-99z" />
    <glyph glyph-name="Ecaron" unicode="&#x11a;" horiz-adv-x="360" 
d="M312 865l-75 -91q-3 -5 -10 -5h-40q-7 0 -10 5l-75 91q-7 10 5 10h25q6 0 10 -4l65 -75l65 75q4 4 10 4h25q12 0 5 -10zM214 -2q-71 0 -116 48t-45 122v364q0 74 45 122t116 48h99q8 0 8 -8v-27q0 -9 -8 -9h-99q-51 0 -82.5 -35.5t-31.5 -90.5v-155h190q9 0 9 -8v-27
q0 -8 -9 -8h-190v-166q0 -55 31.5 -90.5t82.5 -35.5h99q8 0 8 -9v-27q0 -8 -8 -8h-99z" />
    <glyph glyph-name="ecaron" unicode="&#x11b;" horiz-adv-x="389" 
d="M102 670h24q8 0 11 -5l59 -73l59 73q3 5 11 5h24q5 0 6.5 -3t-1.5 -7l-71 -96q-2 -5 -10 -5h-36q-8 0 -10 5l-71 96q-3 4 -1.5 7t6.5 3zM197 -8q-68 0 -108 42.5t-40 111.5v207q0 68 41 111.5t108 43.5q66 0 107.5 -43t41.5 -108q0 -64 -42 -104.5t-114 -40.5h-97v-66
q0 -50 27 -81t76 -31q47 0 74 30.5t29 79.5q0 8 9 8h27q9 0 9 -8q-2 -68 -42 -110t-106 -42zM94 255h97q53 0 82 28t29 74q0 47 -28.5 78t-75.5 31q-49 0 -76.5 -31t-27.5 -82v-98z" />
    <glyph glyph-name="Gbreve" unicode="&#x11e;" horiz-adv-x="431" 
d="M210 768q-46 0 -75 26t-32 70q0 9 8 9h25q8 0 9 -9q2 -26 19.5 -41t45.5 -15q61 0 66 56q0 9 9 9h25q8 0 8 -9q-3 -43 -32 -69.5t-76 -26.5zM220 -9q-72 0 -119.5 49.5t-47.5 126.5v360q0 81 46 131.5t119 50.5q70 0 115.5 -47t47.5 -120q0 -8 -8 -8h-30q-8 0 -8 8
q-3 55 -35 89t-82 34q-53 0 -85.5 -37.5t-32.5 -101.5v-359q0 -59 34 -95.5t86 -36.5q53 0 87 35.5t34 90.5v164h-107q-8 0 -8 8v27q0 8 8 8h130q23 0 23 -23v-184q0 -73 -47.5 -121.5t-119.5 -48.5z" />
    <glyph glyph-name="gbreve" unicode="&#x11f;" horiz-adv-x="406" 
d="M203 562q-46 0 -75 27t-32 71q0 8 8 8h25q8 0 9 -8q5 -58 65 -58q61 0 66 58q0 8 9 8h25q8 0 8 -8q-3 -44 -32 -71t-76 -27zM199 509q66 0 107.5 -44.5t41.5 -111.5v-408q0 -69 -41 -112t-109 -43q-65 0 -106 42.5t-43 109.5q0 8 9 8h27q9 0 9 -8q2 -50 29.5 -79.5
t74.5 -29.5q49 0 77.5 30.5t28.5 81.5v122q-40 -60 -105 -60q-67 0 -108.5 44.5t-41.5 112.5v189q0 68 41.5 112t108.5 44zM199 49q48 0 76.5 32t28.5 83v189q0 50 -28.5 81.5t-76.5 31.5t-76.5 -31.5t-28.5 -81.5v-189q0 -51 28.5 -83t76.5 -32z" />
    <glyph glyph-name="Gdotaccent" unicode="&#x120;" horiz-adv-x="431" 
d="M210 777q-15 0 -24 9.5t-9 23.5q0 15 9 24t24 9q14 0 23.5 -9t9.5 -24q0 -14 -9.5 -23.5t-23.5 -9.5zM220 -9q-72 0 -119.5 49.5t-47.5 126.5v360q0 81 46 131.5t119 50.5q70 0 115.5 -47t47.5 -120q0 -8 -8 -8h-30q-8 0 -8 8q-3 55 -35 89t-82 34q-53 0 -85.5 -37.5
t-32.5 -101.5v-359q0 -59 34 -95.5t86 -36.5q53 0 87 35.5t34 90.5v164h-107q-8 0 -8 8v27q0 8 8 8h130q23 0 23 -23v-184q0 -73 -47.5 -121.5t-119.5 -48.5z" />
    <glyph glyph-name="gdotaccent" unicode="&#x121;" horiz-adv-x="406" 
d="M203 572q-15 0 -24 9.5t-9 23.5q0 15 9 24t24 9q14 0 23.5 -9t9.5 -24q0 -14 -9.5 -23.5t-23.5 -9.5zM199 509q66 0 107.5 -44.5t41.5 -111.5v-408q0 -69 -41 -112t-109 -43q-65 0 -106 42.5t-43 109.5q0 8 9 8h27q9 0 9 -8q2 -50 29.5 -79.5t74.5 -29.5q49 0 77.5 30.5
t28.5 81.5v122q-40 -60 -105 -60q-67 0 -108.5 44.5t-41.5 112.5v189q0 68 41.5 112t108.5 44zM199 49q48 0 76.5 32t28.5 83v189q0 50 -28.5 81.5t-76.5 31.5t-76.5 -31.5t-28.5 -81.5v-189q0 -51 28.5 -83t76.5 -32z" />
    <glyph glyph-name="Gcommaaccent" unicode="&#x122;" horiz-adv-x="431" 
d="M220 -9q-72 0 -119.5 49.5t-47.5 126.5v360q0 81 46 131.5t119 50.5q70 0 115.5 -47t47.5 -120q0 -8 -8 -8h-30q-8 0 -8 8q-3 55 -35 89t-82 34q-53 0 -85.5 -37.5t-32.5 -101.5v-359q0 -59 34 -95.5t86 -36.5q53 0 87 35.5t34 90.5v164h-107q-8 0 -8 8v27q0 8 8 8h130
q23 0 23 -23v-184q0 -73 -47.5 -121.5t-119.5 -48.5zM189 -70q0 8 9 8h35q9 0 7 -9l-26 -147q0 -8 -9 -8h-18q-7 0 -7 9z" />
    <glyph glyph-name="gcommaaccent" unicode="&#x123;" horiz-adv-x="408" 
d="M182 562q-9 0 -9 8l-9 127q0 9 8 9h18q7 0 9 -8l23 -127q2 -9 -7 -9h-33zM199 509q66 0 107.5 -44.5t41.5 -111.5v-408q0 -69 -41 -112t-109 -43q-65 0 -106 42.5t-43 109.5q0 8 9 8h27q9 0 9 -8q2 -50 29.5 -79.5t74.5 -29.5q49 0 77.5 30.5t28.5 81.5v122
q-40 -60 -105 -60q-67 0 -108.5 44.5t-41.5 112.5v189q0 68 41.5 112t108.5 44zM199 49q48 0 76.5 32t28.5 83v189q0 50 -28.5 81.5t-76.5 31.5t-76.5 -31.5t-28.5 -81.5v-189q0 -51 28.5 -83t76.5 -32z" />
    <glyph glyph-name="Hbar" unicode="&#x126;" horiz-adv-x="521" 
d="M464 561q8 0 8 -9v-19q0 -9 -8 -9h-48v-516q0 -8 -9 -8h-30q-8 0 -8 8v326h-217v-326q0 -8 -8 -8h-30q-8 0 -8 8v516h-49q-8 0 -8 9v19q0 9 8 9h49v131q0 8 8 8h30q8 0 8 -8v-131h217v131q0 8 8 8h30q9 0 9 -8v-131h48zM369 377v147h-217v-147h217z" />
    <glyph glyph-name="hbar" unicode="&#x127;" horiz-adv-x="453" 
d="M105 0q-8 0 -8 8v587h-72q-9 0 -9 8v19q0 9 9 9h72v61q0 8 8 8h28q8 0 8 -8v-61h148q8 0 8 -9v-19q0 -8 -8 -8h-148v-142q38 56 107 56q66 0 106.5 -44.5t40.5 -112.5v-344q0 -8 -9 -8h-27q-9 0 -9 8v344q0 51 -28.5 82.5t-76.5 31.5q-46 0 -75 -32t-29 -82v-344
q0 -8 -8 -8h-28z" />
    <glyph glyph-name="Imacron" unicode="&#x12a;" horiz-adv-x="195" 
d="M17 828q0 8 8 8h143q8 0 8 -8v-24q0 -9 -8 -9h-143q-8 0 -8 9v24zM74 692q0 8 8 8h30q9 0 9 -8v-684q0 -8 -9 -8h-30q-8 0 -8 8v684z" />
    <glyph glyph-name="imacron" unicode="&#x12b;" horiz-adv-x="153" 
d="M7 627q0 8 8 8h123q8 0 8 -8v-24q0 -9 -8 -9h-123q-8 0 -8 9v24zM63 0q-8 0 -8 8v484q0 8 8 8h28q8 0 8 -8v-484q0 -8 -8 -8h-28z" />
    <glyph glyph-name="Iogonek" unicode="&#x12e;" horiz-adv-x="191" 
d="M136 -155q8 0 8 -7v-25q0 -8 -7 -9q-16 -2 -24 -2q-46 0 -69 23t-23 56q0 59 57 119q-6 0 -6 8v684q0 8 9 8h30q8 0 8 -8v-684q0 -8 -6 -8q-51 -53 -51 -106q0 -49 63 -49h11z" />
    <glyph glyph-name="iogonek" unicode="&#x12f;" horiz-adv-x="206" 
d="M107 572q-15 0 -24.5 9.5t-9.5 23.5q0 15 9.5 24t24.5 9q14 0 23.5 -9t9.5 -24q0 -14 -9.5 -23.5t-23.5 -9.5zM124 -198q-40 0 -65.5 21.5t-25.5 57.5q0 52 51 119v492q0 8 8 8h28q8 0 8 -8v-486q0 -7 -6 -14q-48 -57 -48 -107q0 -43 58 -43h8q9 0 9 -8v-22
q0 -10 -25 -10z" />
    <glyph glyph-name="Idotaccent" unicode="&#x130;" horiz-adv-x="195" 
d="M97 777q-15 0 -24 9.5t-9 23.5q0 15 9 24t24 9q14 0 23.5 -9t9.5 -24q0 -14 -9.5 -23.5t-23.5 -9.5zM74 692q0 8 8 8h30q9 0 9 -8v-684q0 -8 -9 -8h-30q-8 0 -8 8v684z" />
    <glyph glyph-name="dotlessi" unicode="&#x131;" horiz-adv-x="180" 
d="M76 0q-8 0 -8 8v484q0 8 8 8h28q8 0 8 -8v-484q0 -8 -8 -8h-28z" />
    <glyph glyph-name="Kcommaaccent" unicode="&#x136;" horiz-adv-x="449" 
d="M82 0q-8 0 -8 8v684q0 8 8 8h30q9 0 9 -8v-313h109l119 314q2 7 10 7h30q10 0 6 -9l-121 -319q52 -14 83.5 -60t31.5 -108v-196q0 -8 -8 -8h-30q-8 0 -8 8v196q0 57 -32 94t-82 37h-108v-327q0 -8 -9 -8h-30zM211 -70q0 8 9 8h35q9 0 7 -9l-26 -147q0 -8 -9 -8h-18
q-7 0 -7 9z" />
    <glyph glyph-name="kcommaaccent" unicode="&#x137;" horiz-adv-x="397" 
d="M230 279q55 -9 88 -47t33 -95v-129q0 -8 -8 -8h-28q-8 0 -8 8v129q0 48 -29 76t-77 28h-89v-233q0 -8 -8 -8h-28q-8 0 -8 8v684q0 8 8 8h28q8 0 8 -8v-408h72l125 210q3 6 10 6h32q11 0 6 -10zM200 -70q0 8 9 8h35q8 0 7 -9l-26 -147q0 -8 -9 -8h-18q-7 0 -7 9z" />
    <glyph glyph-name="Lacute" unicode="&#x139;" horiz-adv-x="337" 
d="M63 769q-5 0 -6.5 3t1.5 7l70 91q2 5 10 5h35q5 0 7 -3t-2 -7l-81 -91q-3 -5 -10 -5h-24zM224 42h85q8 0 8 -8v-27q0 -8 -8 -8h-85q-70 0 -114.5 48.5t-44.5 120.5v524q0 8 9 8h30q8 0 8 -8v-524q0 -53 31.5 -89.5t80.5 -36.5z" />
    <glyph glyph-name="lacute" unicode="&#x13a;" horiz-adv-x="196" 
d="M72 769q-5 0 -6.5 3t1.5 7l70 91q3 5 10 5h35q5 0 7 -3t-2 -7l-81 -91q-3 -5 -10 -5h-24zM76 0q-8 0 -8 8v684q0 8 8 8h28q8 0 8 -8v-684q0 -8 -8 -8h-28z" />
    <glyph glyph-name="Lcommaaccent" unicode="&#x13b;" horiz-adv-x="337" 
d="M224 42h85q8 0 8 -8v-27q0 -8 -8 -8h-85q-70 0 -114.5 48.5t-44.5 120.5v524q0 8 9 8h30q8 0 8 -8v-524q0 -53 31.5 -89.5t80.5 -36.5zM150 -70q0 8 9 8h35q8 0 7 -9l-26 -147q0 -8 -9 -8h-18q-7 0 -7 9z" />
    <glyph glyph-name="lcommaaccent" unicode="&#x13c;" horiz-adv-x="196" 
d="M81 0q-8 0 -8 8v684q0 8 8 8h28q8 0 8 -8v-684q0 -8 -8 -8h-28zM77 -70q0 8 9 8h35q9 0 7 -9l-26 -147q0 -8 -9 -8h-18q-7 0 -7 9z" />
    <glyph glyph-name="Lcaron" unicode="&#x13d;" horiz-adv-x="330" 
d="M199 556q-7 0 -7 9l8 129q0 8 9 8h35q9 0 7 -9l-23 -129q-2 -8 -10 -8h-19zM220 0q-69 0 -113.5 48.5t-44.5 120.5v523q0 8 8 8h30q8 0 8 -8v-523q0 -53 31 -89t81 -36h85q8 0 8 -9v-27q0 -8 -8 -8h-85z" />
    <glyph glyph-name="lcaron" unicode="&#x13e;" horiz-adv-x="239" 
d="M177 556q-7 0 -7 9l8 129q0 8 9 8h33q10 0 8 -9l-22 -129q-2 -8 -10 -8h-19zM76 0q-8 0 -8 8v684q0 8 8 8h28q9 0 9 -8v-684q0 -8 -9 -8h-28z" />
    <glyph glyph-name="Lslash" unicode="&#x141;" horiz-adv-x="403" 
d="M382 42q8 0 8 -8v-27q0 -8 -8 -8h-85q-70 0 -114.5 48.5t-44.5 120.5v166l-88 -34q-10 -4 -10 7v30q0 5 7 9l91 35v311q0 8 9 8h30q8 0 8 -8v-293l116 44q10 5 10 -6v-30q0 -7 -7 -10l-119 -45v-184q0 -53 31.5 -89.5t80.5 -36.5h85z" />
    <glyph glyph-name="lslash" unicode="&#x142;" horiz-adv-x="199" 
d="M177 456q10 3 10 -6v-28q0 -6 -7 -9l-56 -22v-383q0 -8 -8 -8h-28q-8 0 -8 8v365l-58 -23q-10 -3 -10 6v28q0 6 7 9l61 24v275q0 8 8 8h28q8 0 8 -8v-257z" />
    <glyph glyph-name="Nacute" unicode="&#x143;" horiz-adv-x="453" 
d="M200 769q-5 0 -6.5 3t1.5 7l70 91q3 5 10 5h35q5 0 7 -3t-2 -7l-81 -91q-3 -5 -10 -5h-24zM74 0q-9 0 -9 8v523q0 79 44.5 128.5t117.5 49.5q72 0 116.5 -49.5t44.5 -128.5v-523q0 -8 -8 -8h-30q-9 0 -9 8v523q0 61 -31 97.5t-83 36.5t-83.5 -36.5t-31.5 -97.5v-523
q0 -8 -8 -8h-30z" />
    <glyph glyph-name="nacute" unicode="&#x144;" horiz-adv-x="406" 
d="M270 670q5 0 6.5 -3t-1.5 -7l-69 -96q-2 -5 -10 -5h-25q-12 0 -5 10l60 95q3 6 10 6h34zM67 0q-9 0 -9 8v343q0 69 39.5 113.5t105.5 44.5t105.5 -44.5t39.5 -113.5v-343q0 -8 -9 -8h-27q-9 0 -9 8v343q0 53 -26 84.5t-74 31.5t-74 -31.5t-26 -84.5v-343q0 -8 -9 -8h-27z
" />
    <glyph glyph-name="Ncommaaccent" unicode="&#x145;" horiz-adv-x="453" 
d="M74 0q-9 0 -9 8v523q0 79 44.5 128.5t117.5 49.5q72 0 116.5 -49.5t44.5 -128.5v-523q0 -8 -8 -8h-30q-9 0 -9 8v523q0 61 -31 97.5t-83 36.5t-83.5 -36.5t-31.5 -97.5v-523q0 -8 -8 -8h-30zM209 -70q0 8 9 8h35q9 0 7 -9l-26 -147q0 -8 -9 -8h-18q-7 0 -7 9z" />
    <glyph glyph-name="ncommaaccent" unicode="&#x146;" horiz-adv-x="406" 
d="M67 0q-9 0 -9 8v343q0 69 39.5 113.5t105.5 44.5t105.5 -44.5t39.5 -113.5v-343q0 -8 -9 -8h-27q-9 0 -9 8v343q0 53 -26 84.5t-74 31.5t-74 -31.5t-26 -84.5v-343q0 -8 -9 -8h-27zM186 -70q0 8 9 8h35q8 0 7 -9l-26 -147q0 -8 -9 -8h-18q-7 0 -7 9z" />
    <glyph glyph-name="Ncaron" unicode="&#x147;" horiz-adv-x="453" 
d="M333 865l-75 -91q-3 -5 -10 -5h-40q-7 0 -10 5l-75 91q-7 10 5 10h25q6 0 10 -4l65 -75l65 75q4 4 10 4h25q12 0 5 -10zM74 0q-9 0 -9 8v523q0 79 44.5 128.5t117.5 49.5q72 0 116.5 -49.5t44.5 -128.5v-523q0 -8 -8 -8h-30q-9 0 -9 8v523q0 61 -31 97.5t-83 36.5
t-83.5 -36.5t-31.5 -97.5v-523q0 -8 -8 -8h-30z" />
    <glyph glyph-name="ncaron" unicode="&#x148;" horiz-adv-x="406" 
d="M109 670h24q8 0 11 -5l59 -73l59 73q3 5 11 5h24q5 0 6.5 -3t-1.5 -7l-71 -96q-3 -5 -10 -5h-36q-7 0 -10 5l-71 96q-3 4 -1.5 7t6.5 3zM67 0q-9 0 -9 8v343q0 69 39.5 113.5t105.5 44.5t105.5 -44.5t39.5 -113.5v-343q0 -8 -9 -8h-27q-9 0 -9 8v343q0 53 -26 84.5
t-74 31.5t-74 -31.5t-26 -84.5v-343q0 -8 -9 -8h-27z" />
    <glyph glyph-name="Eng" unicode="&#x14a;" horiz-adv-x="453" 
d="M240 -204q-9 0 -9 8v30q0 8 9 8q101 4 101 124v565q0 61 -31 97.5t-83 36.5t-83.5 -36.5t-31.5 -97.5v-523q0 -8 -8 -8h-30q-9 0 -9 8v523q0 79 44.5 128.5t117.5 49.5q72 0 116.5 -49.5t44.5 -128.5v-565q0 -77 -37.5 -122.5t-110.5 -47.5z" />
    <glyph glyph-name="eng" unicode="&#x14b;" horiz-adv-x="406" 
d="M202 -209q-9 0 -9 9v25q0 8 9 8q45 1 73 33.5t28 80.5v406q0 51 -26.5 82.5t-73.5 31.5t-73.5 -31.5t-26.5 -82.5v-345q0 -8 -9 -8h-27q-9 0 -9 8v345q0 68 40 112t105 44t105 -44t40 -112v-406q0 -66 -40.5 -110.5t-105.5 -45.5z" />
    <glyph glyph-name="Omacron" unicode="&#x14c;" horiz-adv-x="441" 
d="M140 828q0 8 8 8h143q8 0 8 -8v-24q0 -9 -8 -9h-143q-8 0 -8 9v24zM220 -8q-75 0 -121 50.5t-46 133.5v347q0 84 46 134.5t121 50.5t121 -49t46 -129v-360q0 -80 -46 -129t-121 -49zM220 35q54 0 87.5 37t33.5 98v360q0 61 -33.5 98t-87.5 37t-87 -38.5t-33 -103.5v-347
q0 -65 33 -103t87 -38z" />
    <glyph glyph-name="omacron" unicode="&#x14d;" horiz-adv-x="399" 
d="M119 627q0 8 8 8h143q8 0 8 -8v-24q0 -9 -8 -9h-143q-8 0 -8 9v24zM199 -9q-67 0 -108.5 44t-41.5 111v208q0 67 41.5 111t108.5 44q68 0 109 -44t41 -111v-208q0 -67 -41 -111t-109 -44zM199 33q49 0 77 31.5t28 81.5v208q0 50 -28 81.5t-77 31.5q-48 0 -76.5 -31.5
t-28.5 -81.5v-208q0 -50 28.5 -81.5t76.5 -31.5z" />
    <glyph glyph-name="Ohungarumlaut" unicode="&#x150;" horiz-adv-x="441" 
d="M126 769q-5 0 -6.5 3t1.5 7l70 91q3 5 10 5h35q5 0 7 -3t-2 -7l-81 -91q-3 -5 -10 -5h-24zM226 769q-5 0 -6.5 3t1.5 7l70 91q3 5 10 5h35q5 0 7 -3t-2 -7l-81 -91q-3 -5 -10 -5h-24zM220 -8q-75 0 -121 50.5t-46 133.5v347q0 84 46 134.5t121 50.5t121 -49t46 -129v-360
q0 -80 -46 -129t-121 -49zM220 35q54 0 87.5 37t33.5 98v360q0 61 -33.5 98t-87.5 37t-87 -38.5t-33 -103.5v-347q0 -65 33 -103t87 -38z" />
    <glyph glyph-name="ohungarumlaut" unicode="&#x151;" horiz-adv-x="399" 
d="M225 670q5 0 6.5 -3t-1.5 -7l-69 -96q-3 -5 -10 -5h-21q-11 0 -6 10l61 95q3 6 10 6h30zM321 670q5 0 6.5 -3t-1.5 -7l-69 -96q-3 -5 -10 -5h-21q-11 0 -6 10l61 95q3 6 10 6h30zM199 -9q-67 0 -108.5 44t-41.5 111v208q0 67 41.5 111t108.5 44q68 0 109 -44t41 -111
v-208q0 -67 -41 -111t-109 -44zM199 33q49 0 77 31.5t28 81.5v208q0 50 -28 81.5t-77 31.5q-48 0 -76.5 -31.5t-28.5 -81.5v-208q0 -50 28.5 -81.5t76.5 -31.5z" />
    <glyph glyph-name="OE" unicode="&#x152;" horiz-adv-x="620" 
d="M208 -8q-68 0 -111.5 48.5t-43.5 122.5v374q0 74 43.5 122.5t111.5 48.5q47 0 82 -25t52 -68q38 87 132 87h99q8 0 8 -8v-27q0 -8 -8 -8h-99q-50 0 -80.5 -37t-30.5 -93v-152h179q8 0 8 -8v-26q0 -9 -8 -9h-179v-163q0 -56 30.5 -92.5t80.5 -36.5h99q8 0 8 -9v-27
q0 -8 -8 -8h-99q-94 0 -132 87q-17 -43 -52 -68t-82 -25zM208 36q49 0 79 37t30 96v362q0 59 -30 96t-79 37q-48 0 -78 -35.5t-30 -91.5v-374q0 -56 30 -91.5t78 -35.5z" />
    <glyph glyph-name="oe" unicode="&#x153;" horiz-adv-x="618" 
d="M193 -9q-64 0 -104 43.5t-40 111.5v208q0 68 40 111.5t104 43.5q84 0 120 -77q37 77 119 77q62 0 100.5 -42.5t38.5 -107.5t-41.5 -106.5t-106.5 -41.5h-87v-65q0 -50 25.5 -81t71.5 -31q44 0 69 28t28 74q0 9 8 9h28q8 0 8 -9q-3 -64 -41 -104.5t-100 -40.5
q-83 0 -120 82q-39 -82 -120 -82zM193 34q45 0 71.5 32t26.5 83v202q0 51 -26.5 83t-71.5 32q-46 0 -72.5 -31t-26.5 -81v-208q0 -50 26.5 -81t72.5 -31zM336 253h87q48 0 76 29t28 77t-26 77.5t-69 29.5q-44 0 -70 -30.5t-26 -79.5v-103z" />
    <glyph glyph-name="Racute" unicode="&#x154;" horiz-adv-x="437" 
d="M191 769q-5 0 -6.5 3t1.5 7l70 91q2 5 10 5h35q5 0 7 -3t-2 -7l-81 -91q-3 -5 -10 -5h-24zM74 0q-9 0 -9 8v526q0 77 45 126t115 49t115 -49t45 -126v-73q0 -62 -32 -107t-80 -58l125 -286q3 -10 -7 -10h-33q-6 0 -9 7l-120 281h-117v-280q0 -8 -8 -8h-30zM112 332h113
q51 0 82.5 36t31.5 93v73q0 59 -31.5 95t-82.5 36q-50 0 -81.5 -36.5t-31.5 -94.5v-202z" />
    <glyph glyph-name="racute" unicode="&#x155;" horiz-adv-x="277" 
d="M239 670q5 0 6.5 -3t-1.5 -7l-69 -96q-3 -5 -10 -5h-25q-12 0 -5 10l60 95q3 6 10 6h34zM67 0q-9 0 -9 8v340q0 68 44 111.5t111 43.5h39q9 0 9 -9v-26q0 -8 -9 -8h-39q-49 0 -79.5 -30.5t-30.5 -81.5v-340q0 -8 -9 -8h-27z" />
    <glyph glyph-name="Rcommaaccent" unicode="&#x156;" horiz-adv-x="437" 
d="M74 0q-9 0 -9 8v526q0 77 45 126t115 49t115 -49t45 -126v-73q0 -62 -32 -107t-80 -58l125 -286q3 -10 -7 -10h-33q-6 0 -9 7l-120 281h-117v-280q0 -8 -8 -8h-30zM112 332h113q51 0 82.5 36t31.5 93v73q0 59 -31.5 95t-82.5 36q-50 0 -81.5 -36.5t-31.5 -94.5v-202z
M200 -70q0 8 9 8h35q8 0 7 -9l-26 -147q0 -8 -9 -8h-18q-7 0 -7 9z" />
    <glyph glyph-name="rcommaaccent" unicode="&#x157;" horiz-adv-x="277" 
d="M67 0q-9 0 -9 8v340q0 68 44 111.5t111 43.5h39q9 0 9 -9v-26q0 -8 -9 -8h-39q-49 0 -79.5 -30.5t-30.5 -81.5v-340q0 -8 -9 -8h-27zM63 -70q0 8 9 8h35q9 0 7 -9l-26 -147q0 -8 -9 -8h-18q-7 0 -7 9z" />
    <glyph glyph-name="Rcaron" unicode="&#x158;" horiz-adv-x="437" 
d="M324 865l-75 -91q-3 -5 -10 -5h-40q-7 0 -10 5l-75 91q-7 10 5 10h25q6 0 10 -4l65 -75l65 75q4 4 10 4h25q12 0 5 -10zM74 0q-9 0 -9 8v526q0 77 45 126t115 49t115 -49t45 -126v-73q0 -62 -32 -107t-80 -58l125 -286q3 -10 -7 -10h-33q-6 0 -9 7l-120 281h-117v-280
q0 -8 -8 -8h-30zM112 332h113q51 0 82.5 36t31.5 93v73q0 59 -31.5 95t-82.5 36q-50 0 -81.5 -36.5t-31.5 -94.5v-202z" />
    <glyph glyph-name="rcaron" unicode="&#x159;" horiz-adv-x="277" 
d="M78 670h24q8 0 11 -5l59 -73l59 73q3 5 11 5h24q5 0 6.5 -3t-1.5 -7l-71 -96q-2 -5 -10 -5h-36q-8 0 -10 5l-71 96q-3 4 -1.5 7t6.5 3zM67 0q-9 0 -9 8v340q0 68 44 111.5t111 43.5h39q9 0 9 -9v-26q0 -8 -9 -8h-39q-49 0 -79.5 -30.5t-30.5 -81.5v-340q0 -8 -9 -8h-27z
" />
    <glyph glyph-name="Sacute" unicode="&#x15a;" horiz-adv-x="407" 
d="M179 769q-5 0 -6.5 3t1.5 7l70 91q2 5 10 5h35q5 0 7 -3t-2 -7l-81 -91q-3 -5 -10 -5h-24zM204 -9q-72 0 -117 49.5t-47 130.5q0 8 9 8h30q8 0 8 -8q2 -65 32.5 -100.5t84.5 -35.5q56 0 86 30.5t30 84.5q0 49 -28.5 91t-68.5 73.5t-80.5 63.5t-69 77t-28.5 99
q0 70 43.5 112.5t114.5 42.5q67 0 110.5 -48.5t45.5 -128.5q0 -8 -8 -8h-30q-9 0 -9 8q-2 66 -30.5 99.5t-78.5 33.5q-52 0 -81.5 -29t-29.5 -82q0 -46 28.5 -85.5t69 -70.5t80.5 -64t68.5 -80t28.5 -104q0 -70 -44.5 -114.5t-118.5 -44.5z" />
    <glyph glyph-name="sacute" unicode="&#x15b;" horiz-adv-x="382" 
d="M259 670q5 0 6.5 -3t-1.5 -7l-69 -96q-3 -5 -10 -5h-25q-12 0 -5 10l60 95q3 6 10 6h34zM197 -9q-70 0 -111 40.5t-44 111.5q0 8 9 8h27q9 0 9 -8q3 -109 110 -109q45 0 71.5 24t26.5 65q0 36 -25.5 60t-62 38.5t-73.5 30.5t-62.5 47.5t-25.5 78.5q0 56 39.5 93.5
t101.5 37.5q67 0 105 -37.5t40 -102.5q0 -9 -8 -9h-28q-8 0 -8 9q-2 44 -28 70.5t-71 26.5q-44 0 -71.5 -24.5t-27.5 -63.5q0 -35 26 -59t62.5 -38t73 -30.5t62.5 -48.5t26 -79q0 -56 -40.5 -94t-102.5 -38z" />
    <glyph glyph-name="Scedilla" unicode="&#x15e;" horiz-adv-x="407" 
d="M367 150q0 -66 -40 -109.5t-107 -48.5l-7 -42q4 1 13 1q32 -2 53 -22t21 -50q0 -35 -24 -56t-62 -21q-36 0 -59.5 19t-25.5 51q-2 8 7 8h22q6 0 8 -8q6 -35 48 -35q21 0 34.5 11.5t13.5 30.5q0 17 -12.5 28.5t-30.5 11.5q-14 0 -36 -6q-4 -1 -7 2l-2 1q-3 3 -3 7l13 69
q-64 7 -103 55.5t-41 123.5q0 8 9 8h30q8 0 8 -8q2 -65 32.5 -100.5t84.5 -35.5q56 0 86 30.5t30 84.5q0 49 -28.5 91t-68.5 73.5t-80.5 63.5t-69 77t-28.5 99q0 70 43.5 112.5t114.5 42.5q67 0 110.5 -48.5t45.5 -128.5q0 -8 -8 -8h-30q-9 0 -9 8q-2 66 -30.5 99.5
t-78.5 33.5q-52 0 -81.5 -29t-29.5 -82q0 -46 28.5 -85.5t69 -70.5t80.5 -64t68.5 -80t28.5 -104z" />
    <glyph glyph-name="scedilla" unicode="&#x15f;" horiz-adv-x="382" 
d="M340 123q0 -54 -38 -91.5t-97 -40.5l-7 -41q4 1 13 1q32 -2 53 -22t21 -50q0 -35 -24 -56t-62 -21q-36 0 -59.5 19t-25.5 51q-2 8 7 8h22q6 0 8 -8q6 -35 48 -35q21 0 34.5 11.5t13.5 30.5q0 17 -12.5 28.5t-30.5 11.5q-14 0 -36 -6q-4 -1 -7 2l-2 1q-3 3 -3 7l14 70
q-58 7 -91.5 47t-36.5 103q0 8 9 8h27q9 0 9 -8q3 -109 110 -109q45 0 71.5 24t26.5 65q0 36 -25.5 60t-62 38.5t-73.5 30.5t-62.5 47.5t-25.5 78.5q0 56 39.5 93.5t101.5 37.5q67 0 105 -37.5t40 -102.5q0 -9 -8 -9h-28q-8 0 -8 9q-2 44 -28 70.5t-71 26.5
q-44 0 -71.5 -24.5t-27.5 -63.5q0 -35 26 -59t62.5 -38t73 -30.5t62.5 -48.5t26 -79z" />
    <glyph glyph-name="Scaron" unicode="&#x160;" horiz-adv-x="407" 
d="M312 865l-75 -91q-3 -5 -10 -5h-40q-7 0 -10 5l-75 91q-7 10 5 10h25q6 0 10 -4l65 -75l65 75q4 4 10 4h25q12 0 5 -10zM204 -9q-72 0 -117 49.5t-47 130.5q0 8 9 8h30q8 0 8 -8q2 -65 32.5 -100.5t84.5 -35.5q56 0 86 30.5t30 84.5q0 49 -28.5 91t-68.5 73.5t-80.5 63.5
t-69 77t-28.5 99q0 70 43.5 112.5t114.5 42.5q67 0 110.5 -48.5t45.5 -128.5q0 -8 -8 -8h-30q-9 0 -9 8q-2 66 -30.5 99.5t-78.5 33.5q-52 0 -81.5 -29t-29.5 -82q0 -46 28.5 -85.5t69 -70.5t80.5 -64t68.5 -80t28.5 -104q0 -70 -44.5 -114.5t-118.5 -44.5z" />
    <glyph glyph-name="scaron" unicode="&#x161;" horiz-adv-x="382" 
d="M98 670h24q8 0 11 -5l59 -73l59 73q3 5 11 5h24q5 0 6.5 -3t-1.5 -7l-71 -96q-2 -5 -10 -5h-36q-8 0 -10 5l-71 96q-3 4 -1.5 7t6.5 3zM197 -9q-70 0 -111 40.5t-44 111.5q0 8 9 8h27q9 0 9 -8q3 -109 110 -109q45 0 71.5 24t26.5 65q0 36 -25.5 60t-62 38.5t-73.5 30.5
t-62.5 47.5t-25.5 78.5q0 56 39.5 93.5t101.5 37.5q67 0 105 -37.5t40 -102.5q0 -9 -8 -9h-28q-8 0 -8 9q-2 44 -28 70.5t-71 26.5q-44 0 -71.5 -24.5t-27.5 -63.5q0 -35 26 -59t62.5 -38t73 -30.5t62.5 -48.5t26 -79q0 -56 -40.5 -94t-102.5 -38z" />
    <glyph glyph-name="uni0162" unicode="&#x162;" horiz-adv-x="353" 
d="M325 700q8 0 8 -8v-27q0 -9 -8 -9h-125v-648q0 -8 -8 -8h-30q-9 0 -9 8v648h-125q-8 0 -8 9v27q0 8 8 8h297zM157 -70q0 8 9 8h35q9 0 7 -9l-26 -147q0 -8 -9 -8h-18q-7 0 -7 9z" />
    <glyph glyph-name="uni0163" unicode="&#x163;" horiz-adv-x="271" 
d="M239 41q8 0 8 -9v-26q0 -8 -8 -8h-14q-65 0 -100.5 42t-35.5 119v299h-64q-9 0 -9 8v26q0 8 9 8h64v132q0 8 9 8h27q9 0 9 -8v-132h94q8 0 8 -8v-26q0 -8 -8 -8h-94v-299q0 -118 91 -118h14zM170 -62q8 0 7 -9l-26 -147q0 -8 -9 -8h-18q-7 0 -7 9l9 147q0 8 9 8h35z" />
    <glyph glyph-name="Tcaron" unicode="&#x164;" horiz-adv-x="353" 
d="M281 865l-75 -91q-3 -5 -10 -5h-40q-7 0 -10 5l-75 91q-7 10 5 10h25q6 0 10 -4l65 -75l65 75q4 4 10 4h25q12 0 5 -10zM325 700q8 0 8 -8v-27q0 -9 -8 -9h-125v-648q0 -8 -8 -8h-30q-9 0 -9 8v648h-125q-8 0 -8 9v27q0 8 8 8h297z" />
    <glyph glyph-name="tcaron" unicode="&#x165;" horiz-adv-x="271" 
d="M180 539q-7 0 -7 8l9 129q0 9 9 9h30q10 0 8 -9l-23 -129q-2 -8 -9 -8h-17zM239 41q8 0 8 -9v-26q0 -8 -8 -8h-14q-65 0 -100.5 42t-35.5 119v299h-64q-9 0 -9 8v26q0 8 9 8h64v132q0 8 9 8h27q9 0 9 -8v-132h94q8 0 8 -8v-26q0 -8 -8 -8h-94v-299q0 -118 91 -118h14z
" />
    <glyph glyph-name="Tbar" unicode="&#x166;" horiz-adv-x="353" 
d="M325 700q8 0 8 -8v-27q0 -8 -8 -8h-125v-255h75q8 0 8 -9v-22q0 -8 -8 -8h-75v-355q0 -8 -8 -8h-30q-9 0 -9 8v355h-75q-8 0 -8 8v22q0 9 8 9h75v255h-125q-8 0 -8 8v27q0 8 8 8h297z" />
    <glyph glyph-name="tbar" unicode="&#x167;" horiz-adv-x="271" 
d="M239 38q8 0 8 -8v-26q0 -9 -8 -9h-7q-66 0 -104.5 44.5t-38.5 121.5v123h-53q-8 0 -8 9v19q0 8 8 8h53v138h-64q-9 0 -9 8v26q0 8 9 8h64v132q0 8 9 8h27q9 0 9 -8v-132h94q8 0 8 -8v-26q0 -8 -8 -8h-94v-138h82q8 0 8 -8v-19q0 -9 -8 -9h-82v-123q0 -59 25.5 -91
t72.5 -32h7z" />
    <glyph glyph-name="Umacron" unicode="&#x16a;" horiz-adv-x="453" 
d="M143 828q0 8 8 8h143q8 0 8 -8v-24q0 -9 -8 -9h-143q-8 0 -8 9v24zM74 700h30q8 0 8 -8v-523q0 -61 31.5 -97.5t83.5 -36.5t83 36.5t31 97.5v523q0 8 9 8h30q8 0 8 -8v-523q0 -79 -44.5 -128.5t-116.5 -49.5q-73 0 -117.5 49.5t-44.5 128.5v523q0 8 9 8z" />
    <glyph glyph-name="umacron" unicode="&#x16b;" horiz-adv-x="406" 
d="M122 627q0 8 8 8h143q8 0 8 -8v-24q0 -9 -8 -9h-143q-8 0 -8 9v24zM67 500h27q9 0 9 -8v-343q0 -53 26 -84.5t74 -31.5t74 31.5t26 84.5v343q0 8 9 8h27q9 0 9 -8v-343q0 -69 -39.5 -113.5t-105.5 -44.5t-105.5 44.5t-39.5 113.5v343q0 8 9 8z" />
    <glyph glyph-name="Uring" unicode="&#x16e;" horiz-adv-x="453" 
d="M155 821q0 29 18.5 46.5t48.5 17.5t48 -17.5t18 -46.5t-18 -47t-48 -18t-48.5 18t-18.5 47zM188 820q0 -34 34 -34q15 0 24.5 9t9.5 25t-9.5 25t-24.5 9q-34 0 -34 -34zM74 700h30q8 0 8 -8v-523q0 -61 31.5 -97.5t83.5 -36.5t83 36.5t31 97.5v523q0 8 9 8h30q8 0 8 -8
v-523q0 -79 -44.5 -128.5t-116.5 -49.5q-73 0 -117.5 49.5t-44.5 128.5v523q0 8 9 8z" />
    <glyph glyph-name="uring" unicode="&#x16f;" horiz-adv-x="406" 
d="M135 615q0 29 18.5 46.5t48.5 17.5t48 -17.5t18 -46.5t-18 -47t-48 -18t-48.5 18t-18.5 47zM168 614q0 -34 34 -34q15 0 24.5 9t9.5 25t-9.5 25t-24.5 9q-34 0 -34 -34zM67 500h27q9 0 9 -8v-343q0 -53 26 -84.5t74 -31.5t74 31.5t26 84.5v343q0 8 9 8h27q9 0 9 -8v-343
q0 -69 -39.5 -113.5t-105.5 -44.5t-105.5 44.5t-39.5 113.5v343q0 8 9 8z" />
    <glyph glyph-name="Uhungarumlaut" unicode="&#x170;" horiz-adv-x="453" 
d="M129 769q-5 0 -6.5 3t1.5 7l70 91q2 5 10 5h35q5 0 7 -3t-2 -7l-81 -91q-3 -5 -10 -5h-24zM229 769q-5 0 -6.5 3t1.5 7l70 91q2 5 10 5h35q5 0 7 -3t-2 -7l-81 -91q-3 -5 -10 -5h-24zM74 700h30q8 0 8 -8v-523q0 -61 31.5 -97.5t83.5 -36.5t83 36.5t31 97.5v523q0 8 9 8
h30q8 0 8 -8v-523q0 -79 -44.5 -128.5t-116.5 -49.5q-73 0 -117.5 49.5t-44.5 128.5v523q0 8 9 8z" />
    <glyph glyph-name="uhungarumlaut" unicode="&#x171;" horiz-adv-x="406" 
d="M228 670q5 0 6.5 -3t-1.5 -7l-69 -96q-2 -5 -10 -5h-21q-11 0 -6 10l61 95q3 6 10 6h30zM324 670q5 0 6.5 -3t-1.5 -7l-69 -96q-2 -5 -10 -5h-21q-11 0 -6 10l61 95q3 6 10 6h30zM67 500h27q9 0 9 -8v-343q0 -53 26 -84.5t74 -31.5t74 31.5t26 84.5v343q0 8 9 8h27
q9 0 9 -8v-343q0 -69 -39.5 -113.5t-105.5 -44.5t-105.5 44.5t-39.5 113.5v343q0 8 9 8z" />
    <glyph glyph-name="Uogonek" unicode="&#x172;" horiz-adv-x="447" 
d="M335 692q0 8 8 8h30q8 0 8 -8v-533q0 -75 -63 -138q-35 -33 -55.5 -70.5t-20.5 -65.5q0 -45 66 -40q9 1 9 -7v-27q0 -8 -7 -9q-49 -6 -81.5 15.5t-32.5 60.5q0 50 57 116q-15 -3 -30 -3q-69 0 -113.5 48t-44.5 120v533q0 8 9 8h30q8 0 8 -8v-533q0 -54 31.5 -89t79.5 -35
q49 0 80.5 35t31.5 89v533z" />
    <glyph glyph-name="uogonek" unicode="&#x173;" horiz-adv-x="407" 
d="M295 -198q-48 -4 -81 16t-33 60q0 50 55 116q-12 -3 -32 -3q-64 0 -105 44t-41 109v348q0 8 9 8h27q9 0 9 -8v-348q0 -48 27.5 -79t73.5 -31q45 0 73 31t28 79v348q0 8 8 8h28q8 0 8 -8v-348q0 -66 -43 -111q-36 -36 -57.5 -74.5t-21.5 -67.5q0 -48 67 -46q9 2 9 -7v-27
q0 -9 -8 -9z" />
    <glyph glyph-name="Wcircumflex" unicode="&#x174;" horiz-adv-x="684" 
d="M242 769q-12 0 -5 10l75 91q3 5 10 5h40q7 0 10 -5l75 -91q7 -10 -5 -10h-25q-6 0 -10 4l-65 75l-65 -75q-4 -4 -10 -4h-25zM610 700q9 0 9 -8v-525q0 -80 -40.5 -128t-110.5 -48q-84 0 -126 90q-42 -90 -126 -90q-70 0 -110.5 48t-40.5 128v525q0 8 9 8h30q8 0 8 -8
v-525q0 -62 27 -97t77 -35q46 0 74.5 36t28.5 96v525q0 8 8 8h30q8 0 8 -8v-525q0 -60 29 -96t74 -36q50 0 77 35t27 97v525q0 8 8 8h30z" />
    <glyph glyph-name="wcircumflex" unicode="&#x175;" horiz-adv-x="628" 
d="M212 559q-5 0 -6.5 3t1.5 7l71 96q2 5 10 5h36q8 0 10 -5l71 -96q3 -4 1.5 -7t-6.5 -3h-24q-8 0 -11 5l-59 73l-59 -73q-3 -5 -11 -5h-24zM430 -9q-39 0 -70 22t-46 58q-36 -80 -116 -80q-64 0 -102 43.5t-38 110.5v347q0 8 9 8h27q9 0 9 -8v-347q0 -50 25 -80.5
t70 -30.5q43 0 68.5 31t25.5 80v347q0 8 8 8h28q8 0 8 -8v-347q0 -49 25.5 -80t68.5 -31q45 0 70 30.5t25 80.5v347q0 8 8 8h28q8 0 8 -8v-347q0 -67 -38 -110.5t-101 -43.5z" />
    <glyph glyph-name="Ycircumflex" unicode="&#x176;" horiz-adv-x="414" 
d="M312 779q7 -10 -5 -10h-25q-6 0 -10 4l-65 75l-65 -75q-4 -4 -10 -4h-25q-12 0 -5 10l75 91q3 5 10 5h40q7 0 10 -5zM192 0q-8 0 -8 8v221q-60 8 -98 54.5t-38 113.5v295q0 8 9 8h30q8 0 8 -8v-295q0 -55 32 -91t80 -36q49 0 80.5 36t31.5 91v295q0 8 8 8h30q9 0 9 -8
v-295q0 -66 -38 -113t-98 -55v-221q0 -8 -8 -8h-30z" />
    <glyph glyph-name="ycircumflex" unicode="&#x177;" horiz-adv-x="420" 
d="M114 559q-5 0 -6.5 3t1.5 7l71 96q2 5 10 5h36q8 0 10 -5l71 -96q3 -4 1.5 -7t-6.5 -3h-24q-8 0 -11 5l-59 73l-59 -73q-3 -5 -11 -5h-24zM343 500q9 0 9 -8v-547q0 -69 -40.5 -112t-106.5 -43q-63 0 -103.5 42.5t-43.5 109.5q0 8 9 8h27q9 0 9 -8q2 -50 28.5 -79.5
t73.5 -29.5q48 0 75 30.5t27 81.5v119q-39 -57 -102 -57q-66 0 -106.5 44t-40.5 112v329q0 8 9 8h27q9 0 9 -8v-329q0 -51 27.5 -82.5t74.5 -31.5t74.5 31.5t27.5 82.5v329q0 8 9 8h27z" />
    <glyph glyph-name="Ydieresis" unicode="&#x178;" horiz-adv-x="414" 
d="M158 787q-14 0 -23 9t-9 23t9 23t23 9t23 -9t9 -23t-9 -23t-23 -9zM257 787q-14 0 -23 9t-9 23t9 23t23 9t23 -9t9 -23t-9 -23t-23 -9zM192 0q-8 0 -8 8v221q-60 8 -98 54.5t-38 113.5v295q0 8 9 8h30q8 0 8 -8v-295q0 -55 32 -91t80 -36q49 0 80.5 36t31.5 91v295
q0 8 8 8h30q9 0 9 -8v-295q0 -66 -38 -113t-98 -55v-221q0 -8 -8 -8h-30z" />
    <glyph glyph-name="Zacute" unicode="&#x179;" horiz-adv-x="402" 
d="M182 769q-5 0 -6.5 3t1.5 7l70 91q3 5 10 5h35q5 0 7 -3t-2 -7l-81 -91q-3 -5 -10 -5h-24zM86 44h267q8 0 8 -9v-27q0 -8 -8 -8h-288q-24 0 -24 24v14q0 17 6 30l268 588h-248q-8 0 -8 9v27q0 8 8 8h269q22 0 24 -24l1 -14q0 -17 -6 -30z" />
    <glyph glyph-name="zacute" unicode="&#x17a;" horiz-adv-x="355" 
d="M243 670q5 0 6.5 -3t-1.5 -7l-69 -96q-3 -5 -10 -5h-25q-12 0 -5 10l60 95q3 6 10 6h34zM88 43h218q9 0 9 -9v-26q0 -8 -9 -8h-246q-20 0 -20 19v15q0 13 6 24l224 399h-213q-9 0 -9 9v26q0 8 9 8h238q20 0 20 -19v-18q0 -13 -6 -24z" />
    <glyph glyph-name="Zdotaccent" unicode="&#x17b;" horiz-adv-x="402" 
d="M211 772q-15 0 -24 9.5t-9 23.5q0 15 9 24t24 9q14 0 23.5 -9t9.5 -24q0 -14 -9.5 -23.5t-23.5 -9.5zM86 44h267q8 0 8 -9v-27q0 -8 -8 -8h-288q-24 0 -24 24v14q0 17 6 30l268 588h-248q-8 0 -8 9v27q0 8 8 8h269q22 0 24 -24l1 -14q0 -17 -6 -30z" />
    <glyph glyph-name="zdotaccent" unicode="&#x17c;" horiz-adv-x="355" 
d="M176 572q-15 0 -24 9.5t-9 23.5q0 15 9 24t24 9q14 0 23.5 -9t9.5 -24q0 -14 -9.5 -23.5t-23.5 -9.5zM88 43h218q9 0 9 -9v-26q0 -8 -9 -8h-246q-20 0 -20 19v15q0 13 6 24l224 399h-213q-9 0 -9 9v26q0 8 9 8h238q20 0 20 -19v-18q0 -13 -6 -24z" />
    <glyph glyph-name="Zcaron" unicode="&#x17d;" horiz-adv-x="402" 
d="M315 865l-75 -91q-3 -5 -10 -5h-40q-7 0 -10 5l-75 91q-7 10 5 10h25q6 0 10 -4l65 -75l65 75q4 4 10 4h25q12 0 5 -10zM86 44h267q8 0 8 -9v-27q0 -8 -8 -8h-288q-24 0 -24 24v14q0 17 6 30l268 588h-248q-8 0 -8 9v27q0 8 8 8h269q22 0 24 -24l1 -14q0 -17 -6 -30z" />
    <glyph glyph-name="zcaron" unicode="&#x17e;" horiz-adv-x="355" 
d="M82 670h24q8 0 11 -5l59 -73l59 73q3 5 11 5h24q5 0 6.5 -3t-1.5 -7l-71 -96q-2 -5 -10 -5h-36q-8 0 -10 5l-71 96q-3 4 -1.5 7t6.5 3zM88 43h218q9 0 9 -9v-26q0 -8 -9 -8h-246q-20 0 -20 19v15q0 13 6 24l224 399h-213q-9 0 -9 9v26q0 8 9 8h238q20 0 20 -19v-18
q0 -13 -6 -24z" />
    <glyph glyph-name="Scommaaccent" unicode="&#x218;" horiz-adv-x="407" 
d="M204 -9q-72 0 -117 49.5t-47 130.5q0 8 9 8h30q8 0 8 -8q2 -65 32.5 -100.5t84.5 -35.5q56 0 86 30.5t30 84.5q0 49 -28.5 91t-68.5 73.5t-80.5 63.5t-69 77t-28.5 99q0 70 43.5 112.5t114.5 42.5q67 0 110.5 -48.5t45.5 -128.5q0 -8 -8 -8h-30q-9 0 -9 8
q-2 66 -30.5 99.5t-78.5 33.5q-52 0 -81.5 -29t-29.5 -82q0 -46 28.5 -85.5t69 -70.5t80.5 -64t68.5 -80t28.5 -104q0 -70 -44.5 -114.5t-118.5 -44.5zM198 -70q0 8 9 8h35q8 0 7 -9l-26 -147q0 -8 -9 -8h-18q-7 0 -7 9z" />
    <glyph glyph-name="scommaaccent" unicode="&#x219;" horiz-adv-x="382" 
d="M197 -9q-70 0 -111 40.5t-44 111.5q0 8 9 8h27q9 0 9 -8q3 -109 110 -109q45 0 71.5 24t26.5 65q0 36 -25.5 60t-62 38.5t-73.5 30.5t-62.5 47.5t-25.5 78.5q0 56 39.5 93.5t101.5 37.5q67 0 105 -37.5t40 -102.5q0 -9 -8 -9h-28q-8 0 -8 9q-2 44 -28 70.5t-71 26.5
q-44 0 -71.5 -24.5t-27.5 -63.5q0 -35 26 -59t62.5 -38t73 -30.5t62.5 -48.5t26 -79q0 -56 -40.5 -94t-102.5 -38zM182 -70q0 8 9 8h35q8 0 7 -9l-26 -147q0 -8 -9 -8h-18q-7 0 -7 9z" />
    <glyph glyph-name="uni021A" unicode="&#x21a;" horiz-adv-x="353" 
d="M325 700q8 0 8 -8v-27q0 -9 -8 -9h-125v-648q0 -8 -8 -8h-30q-9 0 -9 8v648h-125q-8 0 -8 9v27q0 8 8 8h297zM159 -70q0 8 9 8h35q9 0 7 -9l-26 -147q0 -8 -9 -8h-18q-7 0 -7 9z" />
    <glyph glyph-name="uni021B" unicode="&#x21b;" horiz-adv-x="271" 
d="M239 41q8 0 8 -9v-26q0 -8 -8 -8h-14q-65 0 -100.5 42t-35.5 119v299h-64q-9 0 -9 8v26q0 8 9 8h64v132q0 8 9 8h27q9 0 9 -8v-132h94q8 0 8 -8v-26q0 -8 -8 -8h-94v-299q0 -118 91 -118h14zM166 -62q8 0 7 -9l-26 -147q0 -8 -9 -8h-18q-7 0 -7 9l9 147q0 8 9 8h35z" />
    <glyph glyph-name="gravecomb" unicode="&#x300;" 
d="M-107 670h34q7 0 10 -6l60 -95q7 -10 -5 -10h-25q-7 0 -10 5l-69 96q-3 4 -1.5 7t6.5 3z" />
    <glyph glyph-name="acutecomb" unicode="&#x301;" 
d="M-8 670q5 0 6.5 -3t-1.5 -7l-69 -96q-2 -5 -10 -5h-25q-12 0 -5 10l60 95q3 6 10 6h34z" />
    <glyph glyph-name="uni0302" unicode="&#x302;" 
d="M-200 559q-5 0 -6.5 3t1.5 7l71 96q2 5 10 5h36q8 0 10 -5l71 -96q3 -4 1.5 -7t-6.5 -3h-24q-8 0 -11 5l-59 73l-59 -73q-3 -5 -11 -5h-24z" />
    <glyph glyph-name="tildecomb" unicode="&#x303;" 
d="M-143 617q-21 0 -24 -30q-1 -8 -9 -8h-24q-8 0 -8 8q2 31 19 49.5t43 18.5q22 0 46 -19.5t35 -19.5q22 0 24 30q1 8 9 8h24q8 0 8 -8q-2 -31 -19.5 -49.5t-42.5 -18.5q-21 0 -45 19.5t-36 19.5z" />
    <glyph glyph-name="uni0304" unicode="&#x304;" 
d="M-159 627q0 8 8 8h143q8 0 8 -8v-24q0 -9 -8 -9h-143q-8 0 -8 9v24z" />
    <glyph glyph-name="uni0306" unicode="&#x306;" 
d="M-111 562q-46 0 -75 27t-32 71q0 8 8 8h25q8 0 9 -8q5 -58 65 -58q61 0 66 58q0 8 9 8h25q8 0 8 -8q-3 -44 -32 -71t-76 -27z" />
    <glyph glyph-name="uni0307" unicode="&#x307;" 
d="M-36 572q-15 0 -24 9.5t-9 23.5q0 15 9 24t24 9q14 0 23.5 -9t9.5 -24q0 -14 -9.5 -23.5t-23.5 -9.5z" />
    <glyph glyph-name="uni0308" unicode="&#x308;" 
d="M-131 574q-14 0 -23 9t-9 23t9 23t23 9t23 -9t9 -23t-9 -23t-23 -9zM-32 574q-14 0 -23 9t-9 23t9 23t23 9t23 -9t9 -23t-9 -23t-23 -9z" />
    <glyph glyph-name="uni030A" unicode="&#x30a;" 
d="M-144 615q0 29 18.5 46.5t48.5 17.5t48 -17.5t18 -46.5t-18 -47t-48 -18t-48.5 18t-18.5 47zM-111 614q0 -34 34 -34q15 0 24.5 9t9.5 25t-9.5 25t-24.5 9q-34 0 -34 -34z" />
    <glyph glyph-name="uni030B" unicode="&#x30b;" 
d="M-109 670q5 0 6.5 -3t-1.5 -7l-69 -96q-3 -5 -10 -5h-21q-11 0 -6 10l61 95q3 6 10 6h30zM-13 670q5 0 6.5 -3t-1.5 -7l-69 -96q-3 -5 -10 -5h-21q-11 0 -6 10l61 95q3 6 10 6h30z" />
    <glyph glyph-name="uni030C" unicode="&#x30c;" 
d="M-200 670h24q8 0 11 -5l59 -73l59 73q3 5 11 5h24q5 0 6.5 -3t-1.5 -7l-71 -96q-2 -5 -10 -5h-36q-8 0 -10 5l-71 96q-3 4 -1.5 7t6.5 3z" />
    <glyph glyph-name="uni0312" unicode="&#x312;" 
d="M-59 570l-9 147q0 9 7 9h18q9 0 9 -8l26 -147q2 -9 -7 -9h-35q-9 0 -9 8z" />
    <glyph glyph-name="uni0326" unicode="&#x326;" 
d="M-63 -70q0 8 9 8h35q9 0 7 -9l-26 -147q0 -8 -9 -8h-18q-7 0 -7 9z" />
    <glyph glyph-name="uni0327" unicode="&#x327;" 
d="M-86 -198q-36 0 -59.5 19t-25.5 51q-2 8 7 8h22q6 0 8 -8q6 -35 48 -35q21 0 34.5 11.5t13.5 30.5q0 17 -12.5 28.5t-30.5 11.5q-14 0 -36 -6q-4 -1 -7 2l-2 1q-3 3 -3 7l15 77h36l-9 -50q4 1 13 1q32 -2 53 -22t21 -50q0 -35 -24 -56t-62 -21z" />
    <glyph glyph-name="uni0328" unicode="&#x328;" 
d="M0 -187q0 -8 -7 -9q-16 -2 -24 -2q-42 0 -64 22.5t-22 55.5q0 51 61 120h45q-64 -56 -64 -109q0 -46 56 -46h11q8 0 8 -7v-25z" />
    <glyph glyph-name="uni0335" unicode="&#x335;" 
d="M-210 372v37h200v-37h-200z" />
    <glyph glyph-name="uni0336" unicode="&#x336;" 
d="M-330 409h320v-37h-320v37z" />
    <glyph glyph-name="uni0337" unicode="&#x337;" 
d="M-221 -45q-10 0 -7 9l159 574q2 7 9 7h30q10 0 7 -9l-160 -574q-2 -7 -9 -7h-29z" />
    <glyph glyph-name="uni0338" unicode="&#x338;" 
d="M-318 -45q-10 0 -8 9l216 774q2 7 9 7h29q10 0 7 -9l-215 -774q-2 -7 -9 -7h-29z" />
    <glyph glyph-name="uni0401" unicode="&#x401;" horiz-adv-x="360" 
d="M148 787q-14 0 -23 9t-9 23t9 23t23 9t23 -9t9 -23t-9 -23t-23 -9zM247 787q-14 0 -23 9t-9 23t9 23t23 9t23 -9t9 -23t-9 -23t-23 -9zM214 -2q-71 0 -116 48t-45 122v364q0 74 45 122t116 48h99q8 0 8 -8v-27q0 -9 -8 -9h-99q-51 0 -82.5 -35.5t-31.5 -90.5v-155h190
q9 0 9 -8v-27q0 -8 -9 -8h-190v-166q0 -55 31.5 -90.5t82.5 -35.5h99q8 0 8 -9v-27q0 -8 -8 -8h-99z" />
    <glyph glyph-name="uni0402" unicode="&#x402;" horiz-adv-x="505" 
d="M310 -3q-9 0 -9 9v26q0 9 8 9q44 3 72 35t28 78v192q0 55 -27.5 87.5t-77.5 32.5t-77 -32t-27 -88v-338q0 -8 -8 -8h-30q-9 0 -9 8v648h-125q-8 0 -8 9v27q0 8 8 8h297q8 0 8 -8v-27q0 -9 -8 -9h-125v-205q35 58 107 58q68 0 108.5 -45t40.5 -118v-192
q0 -64 -41.5 -108.5t-104.5 -48.5z" />
    <glyph glyph-name="uni0403" unicode="&#x403;" horiz-adv-x="352" 
d="M190 769q-5 0 -6.5 3t1.5 7l70 91q3 5 10 5h35q5 0 7 -3t-2 -7l-81 -91q-3 -5 -10 -5h-24zM74 0q-9 0 -9 8v527q0 76 43 121.5t115 45.5h100q9 0 9 -8v-27q0 -9 -9 -9h-100q-52 0 -81.5 -32.5t-29.5 -90.5v-527q0 -8 -8 -8h-30z" />
    <glyph glyph-name="uni0404" unicode="&#x404;" horiz-adv-x="413" 
d="M371 179q8 0 8 -8q-2 -80 -47 -130t-117 -50t-117 47.5t-45 122.5v378q0 75 45 122.5t117 47.5q69 0 113 -49.5t46 -127.5q0 -8 -8 -8h-30q-8 0 -8 8q-2 61 -32.5 97t-80.5 36q-53 0 -84 -34t-31 -92v-160h205q8 0 8 -9v-27q0 -8 -8 -8h-205v-174q0 -58 31 -92t84 -34
t84.5 37t33.5 99q0 8 8 8h30z" />
    <glyph glyph-name="uni0405" unicode="&#x405;" horiz-adv-x="407" 
d="M204 -9q-72 0 -117 49.5t-47 130.5q0 8 9 8h30q8 0 8 -8q2 -65 32.5 -100.5t84.5 -35.5q56 0 86 30.5t30 84.5q0 49 -28.5 91t-68.5 73.5t-80.5 63.5t-69 77t-28.5 99q0 70 43.5 112.5t114.5 42.5q67 0 110.5 -48.5t45.5 -128.5q0 -8 -8 -8h-30q-9 0 -9 8
q-2 66 -30.5 99.5t-78.5 33.5q-52 0 -81.5 -29t-29.5 -82q0 -46 28.5 -85.5t69 -70.5t80.5 -64t68.5 -80t28.5 -104q0 -70 -44.5 -114.5t-118.5 -44.5z" />
    <glyph glyph-name="uni0406" unicode="&#x406;" horiz-adv-x="195" 
d="M74 692q0 8 8 8h30q9 0 9 -8v-684q0 -8 -9 -8h-30q-8 0 -8 8v684z" />
    <glyph glyph-name="uni0407" unicode="&#x407;" horiz-adv-x="195" 
d="M48 787q-14 0 -23 9t-9 23t9 23t23 9t23 -9t9 -23t-9 -23t-23 -9zM147 787q-14 0 -23 9t-9 23t9 23t23 9t23 -9t9 -23t-9 -23t-23 -9zM74 692q0 8 8 8h30q9 0 9 -8v-684q0 -8 -9 -8h-30q-8 0 -8 8v684z" />
    <glyph glyph-name="uni0408" unicode="&#x408;" horiz-adv-x="405" 
d="M180 -9q-71 0 -114.5 50t-45.5 130q0 8 8 8h30q9 0 9 -8q2 -62 32 -99t82 -37q55 0 83.5 37t28.5 104v516q0 8 8 8h30q8 0 8 -8v-516q0 -86 -40.5 -135.5t-118.5 -49.5z" />
    <glyph glyph-name="uni0409" unicode="&#x409;" horiz-adv-x="693" 
d="M28 -1q-8 0 -8 8v27q0 7 8 9q39 3 63.5 34t24.5 84v370q0 74 43 121.5t112 47.5h92q40 0 40 -40v-257h97q69 0 113 -47.5t44 -116.5v-75q0 -70 -44 -117t-113 -47h-104q-40 0 -40 40v616h-85q-48 0 -78.5 -35t-30.5 -90v-370q0 -69 -38.5 -113.5t-95.5 -48.5zM403 44h97
q49 0 80 34.5t31 85.5v75q0 51 -31 85.5t-80 34.5h-97v-315z" />
    <glyph glyph-name="uni040A" unicode="&#x40a;" horiz-adv-x="665" 
d="M475 385q68 0 111 -45.5t43 -114.5v-65q0 -69 -43 -115t-111 -46h-106q-40 0 -40 40v302h-208v-333q0 -8 -9 -8h-30q-8 0 -8 8v684q0 8 8 8h30q9 0 9 -8v-307h208v307q0 8 9 8h30q8 0 8 -8v-307h99zM583 158v67q0 51 -30 83.5t-78 32.5h-99v-299h99q48 0 78 32.5t30 83.5
z" />
    <glyph glyph-name="uni040B" unicode="&#x40b;" horiz-adv-x="514" 
d="M162 0q-9 0 -9 8v648h-125q-8 0 -8 9v27q0 8 8 8h297q8 0 8 -8v-27q0 -9 -8 -9h-125v-205q35 58 107 58q69 0 109 -45.5t40 -119.5v-336q0 -8 -9 -8h-29q-9 0 -9 8v334q0 58 -27.5 91t-77.5 33q-46 0 -75 -33t-29 -87v-338q0 -8 -8 -8h-30z" />
    <glyph glyph-name="uni040C" unicode="&#x40c;" horiz-adv-x="449" 
d="M199 769q-5 0 -6.5 3t1.5 7l70 91q2 5 10 5h35q5 0 7 -3t-2 -7l-81 -91q-3 -5 -10 -5h-24zM82 0q-8 0 -8 8v684q0 8 8 8h30q9 0 9 -8v-313h109l119 314q2 7 10 7h30q10 0 6 -9l-121 -319q52 -14 83.5 -60t31.5 -108v-196q0 -8 -8 -8h-30q-8 0 -8 8v196q0 57 -32 94
t-82 37h-108v-327q0 -8 -9 -8h-30z" />
    <glyph glyph-name="uni040D" unicode="&#x40d;" horiz-adv-x="451" 
d="M269 769h-24q-7 0 -10 5l-81 91q-4 4 -2 7t7 3h35q8 0 10 -5l70 -91q3 -4 1.5 -7t-6.5 -3zM331 692q0 8 8 8h30q8 0 8 -8v-671q0 -23 -23 -23h-130q-70 0 -114.5 49t-44.5 124v521q0 8 9 8h30q8 0 8 -8v-521q0 -57 31.5 -93t80.5 -36h107v650z" />
    <glyph glyph-name="uni040E" unicode="&#x40e;" horiz-adv-x="416" 
d="M196 768q-46 0 -75 26t-32 70q0 9 8 9h25q8 0 9 -9q2 -26 19.5 -41t45.5 -15q61 0 66 56q0 9 9 9h25q8 0 8 -9q-3 -43 -32 -69.5t-76 -26.5zM55 -3q-9 0 -9 9v27q0 8 9 8h140q48 0 78.5 35.5t30.5 90.5v101h-107q-69 0 -114 48.5t-45 121.5v254q0 8 9 8h30q8 0 8 -8v-254
q0 -55 32 -90.5t80 -35.5h107v380q0 8 8 8h30q8 0 8 -8v-525q0 -73 -43.5 -121.5t-111.5 -48.5h-140z" />
    <glyph glyph-name="uni040F" unicode="&#x40f;" horiz-adv-x="461" 
d="M216 -108q-8 0 -8 9v99h-94q-40 0 -40 40v652q0 8 8 8h30q9 0 9 -8v-648h220v648q0 8 8 8h30q8 0 8 -8v-652q0 -40 -40 -40h-93v-99q0 -9 -8 -9h-30z" />
    <glyph glyph-name="uni0410" unicode="&#x410;" horiz-adv-x="454" 
d="M74 0q-9 0 -9 8v522q0 80 44.5 129t117.5 49q72 0 116.5 -49t44.5 -129v-522q2 -8 -8 -8h-30q-8 0 -8 8v254h-230v-254q0 -8 -8 -8h-30zM112 305h230v225q0 63 -30.5 99t-84.5 36t-84.5 -36t-30.5 -99v-225z" />
    <glyph glyph-name="uni0411" unicode="&#x411;" horiz-adv-x="419" 
d="M89 -2q-10 0 -17 7t-7 17v512q0 73 44 120.5t113 47.5h123q8 0 8 -8v-27q0 -9 -8 -9h-123q-50 0 -80 -34t-30 -90v-139h114q70 0 114.5 -47t44.5 -119v-64q0 -71 -44.5 -119t-114.5 -48h-137zM112 42h114q49 0 81 35t32 88v64q0 53 -32 88t-81 35h-114v-310z" />
    <glyph glyph-name="uni0412" unicode="&#x412;" horiz-adv-x="429" 
d="M288 361q46 -14 73 -53.5t27 -91.5v-54q0 -74 -44 -119t-116 -45h-139q-24 0 -24 23v523q0 73 41.5 118.5t109.5 45.5q70 0 112.5 -45t42.5 -119v-46q0 -51 -22.5 -87.5t-60.5 -49.5zM112 544v-165h107q49 0 77 32t28 87v46q0 56 -29 88.5t-79 32.5q-48 0 -76 -32.5
t-28 -88.5zM341 162v54q0 55 -30.5 87t-82.5 32h-116v-293h116q52 0 82.5 32t30.5 88z" />
    <glyph glyph-name="uni0413" unicode="&#x413;" horiz-adv-x="352" 
d="M74 0q-9 0 -9 8v527q0 76 43 121.5t115 45.5h100q9 0 9 -8v-27q0 -9 -9 -9h-100q-52 0 -81.5 -32.5t-29.5 -90.5v-527q0 -8 -8 -8h-30z" />
    <glyph glyph-name="uni0414" unicode="&#x414;" horiz-adv-x="481" 
d="M26 -108q-8 0 -8 9v120q0 20 22 25q71 17 71 134v356q0 73 43 120t113 47h94q40 0 40 -40v-619h20q40 0 40 -40v-103q0 -9 -9 -9h-28q-8 0 -8 9v99h-353v-99q0 -9 -8 -9h-29zM109 44h245v615h-87q-50 0 -79.5 -34t-29.5 -89v-356q0 -99 -49 -136z" />
    <glyph glyph-name="uni0415" unicode="&#x415;" horiz-adv-x="360" 
d="M214 -2q-71 0 -116 48t-45 122v364q0 74 45 122t116 48h99q8 0 8 -8v-27q0 -9 -8 -9h-99q-51 0 -82.5 -35.5t-31.5 -90.5v-155h190q9 0 9 -8v-27q0 -8 -9 -8h-190v-166q0 -55 31.5 -90.5t82.5 -35.5h99q8 0 8 -9v-27q0 -8 -8 -8h-99z" />
    <glyph glyph-name="uni0416" unicode="&#x416;" horiz-adv-x="677" 
d="M70 0q-8 0 -8 8v204q0 56 31.5 100.5t81.5 59.5l-121 319q-4 9 6 9h31q7 0 10 -7l118 -314h96v313q0 8 9 8h30q8 0 8 -8v-313h96l119 314q2 7 10 7h30q10 0 6 -9l-121 -319q50 -15 81.5 -59.5t31.5 -100.5v-204q0 -8 -8 -8h-30q-8 0 -8 8v204q0 51 -32 87t-80 36h-95
v-327q0 -8 -8 -8h-30q-9 0 -9 8v327h-95q-48 0 -79.5 -35.5t-31.5 -87.5v-204q0 -8 -9 -8h-30z" />
    <glyph glyph-name="uni0417" unicode="&#x417;" horiz-adv-x="404" 
d="M198 -9q-69 0 -113.5 46t-47.5 121q0 8 9 8h30q8 0 8 -8q2 -55 33.5 -89t80.5 -34q52 0 85 36t33 93v48q0 53 -32.5 88t-83.5 35h-72q-8 0 -8 8v27q0 9 8 9h75q46 0 72.5 32.5t26.5 88.5v42q0 57 -28 90t-76 33t-75.5 -32t-29.5 -91q0 -8 -8 -8h-30q-8 0 -8 8
q2 77 43 122t108 45q68 0 109.5 -46t41.5 -121v-42q0 -106 -82 -142q45 -18 70.5 -57.5t25.5 -88.5v-48q0 -75 -46 -124t-119 -49z" />
    <glyph glyph-name="uni0418" unicode="&#x418;" horiz-adv-x="451" 
d="M331 692q0 8 8 8h30q8 0 8 -8v-671q0 -23 -23 -23h-130q-70 0 -114.5 49t-44.5 124v521q0 8 9 8h30q8 0 8 -8v-521q0 -57 31.5 -93t80.5 -36h107v650z" />
    <glyph glyph-name="uni0419" unicode="&#x419;" horiz-adv-x="451" 
d="M223 768q-46 0 -75 26t-32 70q0 9 8 9h25q7 0 9 -9q2 -26 19.5 -41t45.5 -15q61 0 66 56q0 9 9 9h25q8 0 8 -9q-3 -43 -32 -69.5t-76 -26.5zM331 692q0 8 8 8h30q8 0 8 -8v-671q0 -23 -23 -23h-130q-70 0 -114.5 49t-44.5 124v521q0 8 9 8h30q8 0 8 -8v-521
q0 -57 31.5 -93t80.5 -36h107v650z" />
    <glyph glyph-name="uni041A" unicode="&#x41a;" horiz-adv-x="449" 
d="M82 0q-8 0 -8 8v684q0 8 8 8h30q9 0 9 -8v-313h109l119 314q2 7 10 7h30q10 0 6 -9l-121 -319q52 -14 83.5 -60t31.5 -108v-196q0 -8 -8 -8h-30q-8 0 -8 8v196q0 57 -32 94t-82 37h-108v-327q0 -8 -9 -8h-30z" />
    <glyph glyph-name="uni041B" unicode="&#x41b;" horiz-adv-x="481" 
d="M28 -3q-8 0 -8 9v27q0 7 8 9q41 3 64.5 36.5t23.5 90.5v368q0 74 42.5 119.5t112.5 45.5h96q40 0 40 -40v-654q0 -8 -8 -8h-30q-9 0 -9 8v650h-89q-52 0 -80.5 -32t-28.5 -89v-368q0 -75 -36.5 -121.5t-97.5 -50.5z" />
    <glyph glyph-name="uni041C" unicode="&#x41c;" horiz-adv-x="624" 
d="M82 0q-8 0 -8 8v672q0 22 22 22h32q19 0 25 -18l112 -304q6 -16 22 -58t24 -66h2q8 24 24 66t22 58l112 304q6 18 25 18h32q22 0 22 -22v-672q0 -8 -8 -8h-30q-9 0 -9 8l1 411q0 38 1 113.5t1 113.5h-2q-36 -100 -55 -150l-102 -275q-6 -19 -27 -19h-16q-21 0 -27 19
l-102 275q-19 50 -55 150h-2q0 -38 1 -113.5t1 -113.5l1 -411q0 -8 -9 -8h-30z" />
    <glyph glyph-name="uni041D" unicode="&#x41d;" horiz-adv-x="459" 
d="M339 692q0 8 8 8h30q8 0 8 -8v-684q0 -8 -8 -8h-30q-8 0 -8 8v326h-218v-326q0 -8 -9 -8h-30q-8 0 -8 8v684q0 8 8 8h30q9 0 9 -8v-315h218v315z" />
    <glyph glyph-name="uni041E" unicode="&#x41e;" horiz-adv-x="441" 
d="M220 -8q-75 0 -121 50.5t-46 133.5v347q0 84 46 134.5t121 50.5t121 -49t46 -129v-360q0 -80 -46 -129t-121 -49zM220 35q54 0 87.5 37t33.5 98v360q0 61 -33.5 98t-87.5 37t-87 -38.5t-33 -103.5v-347q0 -65 33 -103t87 -38z" />
    <glyph glyph-name="uni041F" unicode="&#x41f;" horiz-adv-x="461" 
d="M82 0q-8 0 -8 8v652q0 40 40 40h233q40 0 40 -40v-652q0 -8 -8 -8h-30q-8 0 -8 8v648h-220v-648q0 -8 -9 -8h-30z" />
    <glyph glyph-name="uni0420" unicode="&#x420;" horiz-adv-x="416" 
d="M74 0q-9 0 -9 8v526q0 78 42.5 126.5t114.5 48.5t115 -49t43 -126v-104q0 -71 -44 -117t-114 -46h-110v-259q0 -8 -8 -8h-30zM112 311h110q49 0 80 32.5t31 86.5v104q0 59 -30 95t-81 36t-80.5 -36t-29.5 -95v-223z" />
    <glyph glyph-name="uni0421" unicode="&#x421;" horiz-adv-x="413" 
d="M215 -9q-72 0 -117 47.5t-45 122.5v378q0 75 45 122.5t117 47.5q69 0 113 -49.5t46 -127.5q0 -8 -8 -8h-30q-8 0 -8 8q-2 61 -32.5 97t-80.5 36q-53 0 -84 -34t-31 -92v-378q0 -58 31 -92t84 -34t84.5 37t33.5 99q0 8 8 8h30q8 0 8 -8q-2 -80 -47 -130t-117 -50z" />
    <glyph glyph-name="uni0422" unicode="&#x422;" horiz-adv-x="353" 
d="M325 700q8 0 8 -8v-27q0 -9 -8 -9h-125v-648q0 -8 -8 -8h-30q-9 0 -9 8v648h-125q-8 0 -8 9v27q0 8 8 8h297z" />
    <glyph glyph-name="uni0423" unicode="&#x423;" horiz-adv-x="416" 
d="M55 -3q-9 0 -9 9v27q0 8 9 8h140q48 0 78.5 35.5t30.5 90.5v101h-107q-69 0 -114 48.5t-45 121.5v254q0 8 9 8h30q8 0 8 -8v-254q0 -55 32 -90.5t80 -35.5h107v380q0 8 8 8h30q8 0 8 -8v-525q0 -73 -43.5 -121.5t-111.5 -48.5h-140z" />
    <glyph glyph-name="uni0424" unicode="&#x424;" horiz-adv-x="625" 
d="M297 -48q-8 0 -8 8v92h-76q-80 0 -126 51.5t-46 138.5v229q0 89 45.5 139t126.5 50h76v77q0 8 8 8h30q9 0 9 -8v-77h76q80 0 125.5 -50t45.5 -139v-229q0 -87 -45.5 -138.5t-125.5 -51.5h-76v-92q0 -8 -9 -8h-30zM213 95h76v522h-76q-61 0 -93 -37.5t-32 -108.5v-229
q0 -69 32.5 -108t92.5 -39zM336 95h76q60 0 92.5 39t32.5 108v229q0 70 -32.5 108t-92.5 38h-76v-522z" />
    <glyph glyph-name="uni0425" unicode="&#x425;" horiz-adv-x="424" 
d="M371 501q0 -103 -91 -146q91 -43 91 -148v-199q0 -8 -9 -8h-30q-8 0 -8 8v199q0 55 -31.5 90.5t-80.5 35.5q-48 0 -80 -35.5t-32 -90.5v-199q0 -8 -8 -8h-30q-9 0 -9 8v199q0 106 90 148q-90 43 -90 146v191q0 8 9 8h30q8 0 8 -8v-191q0 -53 32 -89t80 -36
q49 0 80.5 35.5t31.5 89.5v191q0 8 8 8h30q9 0 9 -8v-191z" />
    <glyph glyph-name="uni0426" unicode="&#x426;" horiz-adv-x="458" 
d="M401 -108q-9 0 -9 9v97h-171q-70 0 -113 48t-43 125v521q0 8 9 8h30q8 0 8 -8v-521q0 -59 29.5 -94t79.5 -35h110v650q0 8 8 8h30q8 0 8 -8v-650h21q40 0 40 -40v-101q0 -9 -9 -9h-28z" />
    <glyph glyph-name="uni0427" unicode="&#x427;" horiz-adv-x="414" 
d="M302 0q-8 0 -8 8v241h-107q-71 0 -115 46.5t-44 120.5v276q0 8 9 8h30q8 0 8 -8v-276q0 -56 30.5 -89.5t81.5 -33.5h107v399q0 8 8 8h30q8 0 8 -8v-684q0 -8 -8 -8h-30z" />
    <glyph glyph-name="uni0428" unicode="&#x428;" horiz-adv-x="683" 
d="M221 -1q-68 0 -112 47t-44 118v528q0 8 9 8h30q8 0 8 -8v-528q0 -54 30 -88t79 -34h94v650q0 8 9 8h29q9 0 9 -8v-650h200v650q0 8 9 8h29q9 0 9 -8v-653q0 -40 -40 -40h-348z" />
    <glyph glyph-name="uni0429" unicode="&#x429;" horiz-adv-x="689" 
d="M632 -108q-8 0 -8 9v99h-403q-68 0 -112 47t-44 118v527q0 8 9 8h30q8 0 8 -8v-527q0 -54 30 -87.5t79 -33.5h94v648q0 8 9 8h29q9 0 9 -8v-648h200v648q0 8 9 8h29q9 0 9 -8v-648h20q40 0 40 -40v-103q0 -9 -9 -9h-28z" />
    <glyph glyph-name="uni042A" unicode="&#x42a;" horiz-adv-x="474" 
d="M279 404q71 0 115.5 -47t44.5 -117v-76q0 -70 -44.5 -117t-115.5 -47h-113q-40 0 -40 40v616h-98q-8 0 -8 9v27q0 8 8 8h104q40 0 40 -40v-256h107zM392 164v76q0 52 -31 86t-82 34h-107v-316h107q51 0 82 34t31 86z" />
    <glyph glyph-name="uni042B" unicode="&#x42b;" horiz-adv-x="591" 
d="M114 0q-40 0 -40 40v652q0 8 8 8h30q9 0 9 -8v-288h109q69 0 113 -47t44 -117v-76q0 -70 -44 -117t-113 -47h-116zM479 0q-8 0 -8 8v684q0 8 8 8h30q8 0 8 -8v-684q0 -8 -8 -8h-30zM121 44h109q49 0 80 34.5t31 85.5v76q0 51 -31 85.5t-80 34.5h-109v-316z" />
    <glyph glyph-name="uni042C" unicode="&#x42c;" horiz-adv-x="423" 
d="M114 0q-40 0 -40 40v652q0 8 8 8h30q9 0 9 -8v-288h109q69 0 113 -47t44 -117v-76q0 -70 -44 -117t-113 -47h-116zM121 44h109q49 0 80 34.5t31 85.5v76q0 51 -31 85.5t-80 34.5h-109v-316z" />
    <glyph glyph-name="uni042D" unicode="&#x42d;" horiz-adv-x="413" 
d="M198 709q72 0 117 -47.5t45 -122.5v-378q0 -75 -45 -122.5t-117 -47.5t-117 50t-47 130q0 8 8 8h30q8 0 8 -8q2 -62 33.5 -99t84.5 -37t84 34t31 92v174h-205q-8 0 -8 8v27q0 9 8 9h205v160q0 58 -31 92t-84 34q-50 0 -80.5 -36t-32.5 -97q0 -8 -8 -8h-30q-8 0 -8 8
q2 78 46 127.5t113 49.5z" />
    <glyph glyph-name="uni042E" unicode="&#x42e;" horiz-adv-x="606" 
d="M395 709q68 0 112.5 -47t44.5 -120v-384q0 -73 -44.5 -120t-112.5 -47q-69 0 -113.5 47t-44.5 120v176h-116v-326q0 -8 -9 -8h-30q-8 0 -8 8v684q0 8 8 8h30q9 0 9 -8v-315h116v165q0 73 44.5 120t113.5 47zM506 158v384q0 55 -31.5 89t-79.5 34q-49 0 -80 -33.5
t-31 -89.5v-384q0 -56 31 -89.5t80 -33.5q48 0 79.5 34t31.5 89z" />
    <glyph glyph-name="uni042F" unicode="&#x42f;" horiz-adv-x="429" 
d="M203 709q73 0 116.5 -49t43.5 -126v-526q0 -8 -8 -8h-30q-8 0 -8 8v270h-111l-118 -271q-1 -7 -9 -7h-31q-10 0 -7 10l120 275q-54 13 -86.5 58t-32.5 108v83q0 77 44 126t117 49zM317 322v212q0 59 -30.5 95t-83.5 36t-83.5 -36t-30.5 -95v-83q0 -57 31.5 -93t82.5 -36
h114z" />
    <glyph glyph-name="uni0430" unicode="&#x430;" horiz-adv-x="390" 
d="M195 -8q-70 0 -111.5 42.5t-41.5 112.5q0 62 42 102t112 40h100v66q0 51 -27 81t-74 30q-44 0 -70.5 -26.5t-29.5 -70.5q-1 -9 -9 -9h-27q-9 0 -9 9q4 62 43 101t102 39q66 0 106 -42.5t40 -111.5v-208q0 -69 -39.5 -112t-106.5 -43zM195 34q47 0 74 30.5t27 82.5v100
h-100q-51 0 -80 -27.5t-29 -72.5q0 -52 28.5 -82.5t79.5 -30.5z" />
    <glyph glyph-name="uni0431" unicode="&#x431;" horiz-adv-x="409" 
d="M209 -9q-68 0 -109.5 44t-41.5 114v327q0 148 117 188q36 12 135 39q9 2 9 -7l1 -25q0 -8 -7 -9q-77 -18 -130 -39q-42 -17 -61 -49t-19 -98v-44q36 57 113 57q63 0 103.5 -44.5t40.5 -113.5v-182q0 -70 -41.5 -114t-109.5 -44zM209 34q48 0 77 32t29 83v182q0 51 -29 83
t-77 32t-77 -32t-29 -83v-182q0 -51 29 -83t77 -32z" />
    <glyph glyph-name="uni0432" unicode="&#x432;" horiz-adv-x="400" 
d="M266 270q44 -14 68 -47t24 -78q0 -63 -44.5 -104t-115.5 -41h-103q-37 0 -37 37v335q0 62 37 99.5t100 37.5t101 -37t38 -95q0 -78 -68 -107zM103 372v-83h90q47 0 72 25t25 63q0 41 -25 65t-70 24t-68.5 -24.5t-23.5 -69.5zM198 43q53 0 84.5 28.5t31.5 73.5
q0 44 -30.5 72.5t-82.5 28.5h-98v-203h95z" />
    <glyph glyph-name="uni0433" unicode="&#x433;" horiz-adv-x="291" 
d="M67 0q-9 0 -9 8v347q0 70 37.5 108.5t105.5 38.5h58q8 0 8 -8v-26q0 -9 -8 -9h-58q-98 0 -98 -104v-347q0 -8 -9 -8h-27z" />
    <glyph glyph-name="uni0434" unicode="&#x434;" horiz-adv-x="451" 
d="M27 -107q-8 0 -8 8v121q0 19 22 23q60 15 60 102v192q0 71 42.5 116.5t110.5 45.5h79q37 0 37 -36v-422h20q36 0 36 -37v-105q0 -8 -8 -8h-26q-9 0 -9 8v99h-321v-99q0 -8 -9 -8h-26zM105 43h221v416h-72q-50 0 -79.5 -33t-29.5 -87v-189q0 -73 -40 -107z" />
    <glyph glyph-name="uni0435" unicode="&#x435;" horiz-adv-x="389" 
d="M197 -8q-68 0 -108 42.5t-40 111.5v207q0 68 41 111.5t108 43.5q66 0 107.5 -43t41.5 -108q0 -64 -42 -104.5t-114 -40.5h-97v-66q0 -50 27 -81t76 -31q47 0 74 30.5t29 79.5q0 8 9 8h27q9 0 9 -8q-2 -68 -42 -110t-106 -42zM94 255h97q53 0 82 28t29 74q0 47 -28.5 78
t-75.5 31q-49 0 -76.5 -31t-27.5 -82v-98z" />
    <glyph glyph-name="uni0436" unicode="&#x436;" horiz-adv-x="584" 
d="M56 0q-8 0 -8 8v127q0 57 31.5 95t85.5 47l-125 213q-5 10 7 10h32q7 0 10 -6l123 -212h58v210q0 8 8 8h28q8 0 8 -8v-210h58l123 212q3 6 10 6h32q5 0 7 -3t-1 -7l-125 -213q54 -9 86 -47t32 -95v-127q0 -8 -8 -8h-28q-8 0 -8 8v127q0 48 -29 76t-77 28h-72v-231
q0 -8 -8 -8h-28q-8 0 -8 8v231h-72q-48 0 -77 -28t-29 -76v-127q0 -8 -8 -8h-28z" />
    <glyph glyph-name="uni0437" unicode="&#x437;" horiz-adv-x="370" 
d="M179 -9q-64 0 -105 41t-45 104q0 9 9 9h27q9 0 9 -9q2 -45 30.5 -73.5t74.5 -28.5q48 0 76.5 29t28.5 80q0 47 -28 75t-81 28h-50q-8 0 -8 8v26q0 8 8 8h48q45 0 70 25t25 64q0 41 -24 65t-68 24q-87 0 -92 -97q0 -9 -8 -9h-28q-8 0 -8 9q2 66 38 103t98 37t99 -37
t37 -96q0 -78 -72 -107q89 -30 89 -126q0 -68 -42 -110t-108 -42z" />
    <glyph glyph-name="uni0438" unicode="&#x438;" horiz-adv-x="409" 
d="M211 -1q-66 0 -109.5 42.5t-43.5 107.5v343q0 8 9 8h27q9 0 9 -8v-343q0 -48 30 -78t78 -30h86v451q0 8 8 8h28q8 0 8 -8v-457q0 -36 -36 -36h-94z" />
    <glyph glyph-name="uni0439" unicode="&#x439;" horiz-adv-x="409" 
d="M197 562q-46 0 -75 27t-32 71q0 8 8 8h25q8 0 9 -8q5 -58 65 -58q61 0 66 58q0 8 9 8h25q8 0 8 -8q-3 -44 -32 -71t-76 -27zM211 -1q-66 0 -109.5 42.5t-43.5 107.5v343q0 8 9 8h27q9 0 9 -8v-343q0 -48 30 -78t78 -30h86v451q0 8 8 8h28q8 0 8 -8v-457q0 -36 -36 -36
h-94z" />
    <glyph glyph-name="uni043A" unicode="&#x43a;" horiz-adv-x="397" 
d="M230 277q55 -9 88 -47t33 -95v-127q0 -8 -8 -8h-28q-8 0 -8 8v127q0 48 -29 76t-77 28h-89v-231q0 -8 -8 -8h-28q-8 0 -8 8v484q0 8 8 8h28q8 0 8 -8v-210h72l125 212q3 6 10 6h32q11 0 6 -10z" />
    <glyph glyph-name="uni043B" unicode="&#x43b;" horiz-adv-x="429" 
d="M27 -1q-8 0 -8 8v26q0 8 8 9q63 6 63 101v209q0 65 43.5 107t112.5 42h79q36 0 36 -36v-457q0 -8 -8 -8h-28q-8 0 -8 8v451h-71q-51 0 -81.5 -29.5t-30.5 -77.5v-209q0 -65 -27.5 -103t-79.5 -41z" />
    <glyph glyph-name="uni043C" unicode="&#x43c;" horiz-adv-x="539" 
d="M76 0q-8 0 -8 8v470q0 23 23 23h21q20 0 27 -17l85 -170q20 -41 45 -97h1q17 41 45 97l84 170q8 17 28 17h20q24 0 24 -23v-470q0 -8 -9 -8h-27q-9 0 -9 8v306q0 61 2 131h-1q-17 -35 -49 -105l-75 -158q-9 -17 -27 -17h-13q-19 0 -27 17l-76 158l-48 105h-2
q2 -35 2 -131v-306q0 -8 -8 -8h-28z" />
    <glyph glyph-name="uni043D" unicode="&#x43d;" horiz-adv-x="417" 
d="M304 492q0 8 9 8h27q9 0 9 -8v-484q0 -8 -9 -8h-27q-9 0 -9 8v231h-192v-231q0 -8 -8 -8h-27q-9 0 -9 8v484q0 8 8 8h28q8 0 8 -8v-211h192v211z" />
    <glyph glyph-name="uni043E" unicode="&#x43e;" horiz-adv-x="399" 
d="M199 -9q-67 0 -108.5 44t-41.5 111v208q0 67 41.5 111t108.5 44q68 0 109 -44t41 -111v-208q0 -67 -41 -111t-109 -44zM199 33q49 0 77 31.5t28 81.5v208q0 50 -28 81.5t-77 31.5q-48 0 -76.5 -31.5t-28.5 -81.5v-208q0 -50 28.5 -81.5t76.5 -31.5z" />
    <glyph glyph-name="uni043F" unicode="&#x43f;" horiz-adv-x="417" 
d="M312 500q37 0 37 -37v-455q0 -8 -9 -8h-27q-9 0 -9 8v449h-192v-449q0 -8 -8 -8h-28q-8 0 -8 8v455q0 37 37 37h207z" />
    <glyph glyph-name="uni0440" unicode="&#x440;" horiz-adv-x="406" 
d="M208 509q65 0 107 -44t42 -111v-208q0 -66 -41 -110.5t-102 -44.5q-72 0 -111 59v-242q0 -8 -9 -8h-27q-9 0 -9 8v546q0 67 42 111t108 44zM313 146v208q0 49 -29 80.5t-76 31.5t-76 -31.5t-29 -80.5v-208q0 -49 29 -80.5t76 -31.5t76 31.5t29 80.5z" />
    <glyph glyph-name="uni0441" unicode="&#x441;" horiz-adv-x="386" 
d="M198 -9q-66 0 -107.5 43.5t-41.5 111.5v205q0 69 40.5 113.5t106.5 44.5q63 0 103 -39t43 -101q0 -9 -8 -9h-28q-8 0 -8 9q-3 44 -30.5 70.5t-71.5 26.5q-47 0 -74.5 -31.5t-27.5 -83.5v-205q0 -50 28 -81t76 -31q45 0 73.5 30t30.5 79q0 8 9 8h27q9 0 9 -8
q-4 -67 -44.5 -109.5t-104.5 -42.5z" />
    <glyph glyph-name="uni0442" unicode="&#x442;" horiz-adv-x="325" 
d="M148 0q-8 0 -8 8v449h-113q-8 0 -8 9v26q0 8 8 8h271q8 0 8 -8v-26q0 -9 -8 -9h-114v-449q0 -8 -8 -8h-28z" />
    <glyph glyph-name="uni0443" unicode="&#x443;" horiz-adv-x="420" 
d="M343 500q9 0 9 -8v-547q0 -69 -40.5 -112t-106.5 -43q-63 0 -103.5 42.5t-43.5 109.5q0 8 9 8h27q9 0 9 -8q2 -50 28.5 -79.5t73.5 -29.5q48 0 75 30.5t27 81.5v119q-39 -57 -102 -57q-66 0 -106.5 44t-40.5 112v329q0 8 9 8h27q9 0 9 -8v-329q0 -51 27.5 -82.5
t74.5 -31.5t74.5 31.5t27.5 82.5v329q0 8 9 8h27z" />
    <glyph glyph-name="uni0444" unicode="&#x444;" horiz-adv-x="601" 
d="M287 -200q-9 0 -9 8v191h-83q-65 0 -105.5 43.5t-40.5 110.5v194q0 67 40.5 110.5t105.5 43.5h83v191q0 8 9 8h27q9 0 9 -8v-191h83q65 0 105.5 -43.5t40.5 -110.5v-194q0 -67 -40.5 -110.5t-105.5 -43.5h-83v-191q0 -8 -9 -8h-27zM195 41h83v418h-83q-46 0 -73.5 -31.5
t-27.5 -80.5v-194q0 -49 27.5 -80.5t73.5 -31.5zM323 41h83q46 0 73.5 31.5t27.5 80.5v194q0 49 -27.5 80.5t-73.5 31.5h-83v-418z" />
    <glyph glyph-name="uni0445" unicode="&#x445;" horiz-adv-x="389" 
d="M58 0q-9 0 -9 8v109q0 93 81 134q-38 17 -59.5 52t-21.5 81v108q0 8 9 8h28q8 0 8 -8v-108q0 -50 28 -81t72 -31q46 0 73.5 31t27.5 81v108q0 8 8 8h28q8 0 8 -8v-108q0 -96 -80 -133q80 -40 80 -134v-109q0 -8 -8 -8h-28q-8 0 -8 8v109q0 49 -28.5 80.5t-72.5 31.5
q-45 0 -72.5 -31t-27.5 -81v-109q0 -8 -8 -8h-28z" />
    <glyph glyph-name="uni0446" unicode="&#x446;" horiz-adv-x="441" 
d="M372 -107q-9 0 -9 8v98h-152q-69 0 -111 42.5t-42 110.5v340q0 8 9 8h27q9 0 9 -8v-340q0 -51 29 -81t79 -30h95v451q0 8 8 8h28q8 0 8 -8v-451h20q37 0 37 -36v-104q0 -8 -8 -8h-27z" />
    <glyph glyph-name="uni0447" unicode="&#x447;" horiz-adv-x="396" 
d="M299 0q-8 0 -8 8v180h-102q-63 0 -105.5 43.5t-42.5 106.5v154q0 8 9 8h29q9 0 9 -8v-154q0 -45 28.5 -76t72.5 -31h102v261q0 8 8 8h30q8 0 8 -8v-484q0 -8 -8 -8h-30z" />
    <glyph glyph-name="uni0448" unicode="&#x448;" horiz-adv-x="617" 
d="M207 -1q-68 0 -108.5 44.5t-40.5 113.5v335q0 8 9 8h27q9 0 9 -8v-335q0 -52 27.5 -83.5t76.5 -31.5h81v450q0 8 8 8h28q8 0 8 -8v-450h182v450q0 8 8 8h28q8 0 8 -8v-456q0 -37 -36 -37h-315z" />
    <glyph glyph-name="uni0449" unicode="&#x449;" horiz-adv-x="631" 
d="M580 -107q-8 0 -8 8v98h-365q-68 0 -108.5 44.5t-40.5 113.5v335q0 8 9 8h27q9 0 9 -8v-335q0 -52 27.5 -83.5t76.5 -31.5h81v450q0 8 8 8h28q8 0 8 -8v-450h182v450q0 8 8 8h28q8 0 8 -8v-450h20q37 0 37 -37v-104q0 -8 -9 -8h-26z" />
    <glyph glyph-name="uni044A" unicode="&#x44a;" horiz-adv-x="452" 
d="M258 305q65 0 108.5 -43t43.5 -109q0 -67 -43 -110.5t-109 -43.5h-105q-36 0 -36 36v422h-90q-8 0 -8 9v26q0 8 8 8h97q37 0 37 -37v-158h97zM258 41q48 0 78 31t30 81q0 49 -30 79.5t-78 30.5h-97v-222h97z" />
    <glyph glyph-name="uni044B" unicode="&#x44b;" horiz-adv-x="525" 
d="M105 -1q-37 0 -37 36v457q0 8 8 8h28q8 0 8 -8v-197h97q66 0 109 -41.5t43 -105.5q0 -65 -43 -107t-109 -42h-104zM421 0q-8 0 -8 8v484q0 8 8 8h28q8 0 8 -8v-484q0 -8 -8 -8h-28zM112 41h97q48 0 78 30t30 77t-30 76t-78 29h-97v-212z" />
    <glyph glyph-name="uni044C" unicode="&#x44c;" horiz-adv-x="396" 
d="M105 -1q-37 0 -37 36v457q0 8 8 8h28q8 0 8 -8v-187h97q67 0 109.5 -43t42.5 -109q0 -67 -42.5 -110.5t-109.5 -43.5h-104zM112 41h97q49 0 78.5 30.5t29.5 81.5q0 49 -29.5 79.5t-78.5 30.5h-97v-222z" />
    <glyph glyph-name="uni044D" unicode="&#x44d;" horiz-adv-x="392" 
d="M194 -9q-64 0 -105.5 42.5t-43.5 109.5q0 8 8 8h28q8 0 8 -8q1 -49 30 -79t75 -30q47 0 75.5 31t28.5 81v93h-188q-8 0 -8 8v26q0 8 8 8h188v70q0 54 -28 84.5t-75 30.5q-45 0 -73.5 -26.5t-30.5 -70.5q0 -9 -9 -9h-27q-9 0 -9 9q4 61 45.5 100.5t103.5 39.5
q65 0 106.5 -43.5t41.5 -114.5v-205q0 -68 -42 -111.5t-107 -43.5z" />
    <glyph glyph-name="uni044E" unicode="&#x44e;" horiz-adv-x="548" 
d="M355 -9q-64 0 -104 44.5t-40 113.5v93h-99v-234q0 -8 -8 -8h-28q-8 0 -8 8v484q0 8 8 8h28q8 0 8 -8v-208h99v67q0 69 40 113.5t104 44.5t104 -44.5t40 -113.5v-202q0 -69 -40 -113.5t-104 -44.5zM355 34q45 0 72.5 32t27.5 83v202q0 51 -27.5 83t-72.5 32t-72.5 -32
t-27.5 -83v-202q0 -51 27.5 -83t72.5 -32z" />
    <glyph glyph-name="uni044F" unicode="&#x44f;" horiz-adv-x="402" 
d="M203 509q63 0 102 -41t39 -107v-353q0 -8 -8 -8h-28q-8 0 -8 8v190h-111l-104 -192q-3 -6 -10 -6h-32q-12 0 -7 10l109 197q-44 15 -70.5 54t-26.5 93q0 68 44 111.5t111 43.5zM300 241v120q0 48 -26 76.5t-71 28.5q-49 0 -80 -30.5t-31 -81.5q0 -52 29.5 -82.5
t78.5 -30.5h100z" />
    <glyph glyph-name="uni0451" unicode="&#x451;" horiz-adv-x="388" 
d="M145 574q-14 0 -23 9t-9 23t9 23t23 9t23 -9t9 -23t-9 -23t-23 -9zM244 574q-14 0 -23 9t-9 23t9 23t23 9t23 -9t9 -23t-9 -23t-23 -9zM197 -8q-68 0 -108 42.5t-40 111.5v207q0 68 41 111.5t108 43.5q66 0 107.5 -43t41.5 -108q0 -64 -42 -104.5t-114 -40.5h-97v-66
q0 -50 27 -81t76 -31q47 0 74 30.5t29 79.5q0 8 9 8h27q9 0 9 -8q-2 -68 -42 -110t-106 -42zM94 255h97q53 0 82 28t29 74q0 47 -28.5 78t-75.5 31q-49 0 -76.5 -31t-27.5 -82v-98z" />
    <glyph glyph-name="uni0452" unicode="&#x452;" horiz-adv-x="453" 
d="M248 509q66 0 106.5 -44.5t40.5 -112.5v-395q0 -72 -40.5 -118t-105.5 -49q-9 0 -9 8v26q0 9 9 9q47 3 74 36t27 88v395q0 51 -28.5 82.5t-76.5 31.5q-46 0 -75 -32t-29 -82v-344q0 -8 -8 -8h-28q-8 0 -8 8v587h-72q-9 0 -9 8v19q0 9 9 9h72v61q0 8 8 8h28q8 0 8 -8v-61
h148q8 0 8 -9v-19q0 -8 -8 -8h-148v-142q38 56 107 56z" />
    <glyph glyph-name="uni0453" unicode="&#x453;" horiz-adv-x="293" 
d="M267 670q5 0 6.5 -3t-1.5 -7l-69 -96q-3 -5 -10 -5h-25q-12 0 -5 10l60 95q3 6 10 6h34zM67 0q-9 0 -9 8v347q0 70 37.5 108.5t105.5 38.5h58q8 0 8 -8v-26q0 -9 -8 -9h-58q-98 0 -98 -104v-347q0 -8 -9 -8h-27z" />
    <glyph glyph-name="uni0454" unicode="&#x454;" horiz-adv-x="392" 
d="M198 -9q-65 0 -107 43.5t-42 111.5v205q0 71 41.5 114.5t106.5 43.5q62 0 103.5 -39.5t45.5 -100.5q0 -9 -9 -9h-27q-9 0 -9 9q-2 44 -30.5 70.5t-73.5 26.5q-47 0 -75 -30.5t-28 -84.5v-70h188q8 0 8 -8v-26q0 -8 -8 -8h-188v-93q0 -50 28.5 -81t75.5 -31q46 0 75 30
t30 79q0 8 8 8h28q8 0 8 -8q-2 -67 -43.5 -109.5t-105.5 -42.5z" />
    <glyph glyph-name="uni0455" unicode="&#x455;" horiz-adv-x="382" 
d="M197 -9q-70 0 -111 40.5t-44 111.5q0 8 9 8h27q9 0 9 -8q3 -109 110 -109q45 0 71.5 24t26.5 65q0 36 -25.5 60t-62 38.5t-73.5 30.5t-62.5 47.5t-25.5 78.5q0 56 39.5 93.5t101.5 37.5q67 0 105 -37.5t40 -102.5q0 -9 -8 -9h-28q-8 0 -8 9q-2 44 -28 70.5t-71 26.5
q-44 0 -71.5 -24.5t-27.5 -63.5q0 -35 26 -59t62.5 -38t73 -30.5t62.5 -48.5t26 -79q0 -56 -40.5 -94t-102.5 -38z" />
    <glyph glyph-name="uni0456" unicode="&#x456;" horiz-adv-x="180" 
d="M90 572q-15 0 -24 9.5t-9 23.5q0 15 9 24t24 9q14 0 23.5 -9t9.5 -24q0 -14 -9.5 -23.5t-23.5 -9.5zM76 0q-8 0 -8 8v484q0 8 8 8h28q8 0 8 -8v-484q0 -8 -8 -8h-28z" />
    <glyph glyph-name="uni0457" unicode="&#x457;" horiz-adv-x="169" 
d="M43 575q-13 0 -21 8.5t-8 21.5t8 21t21 8q14 0 22.5 -8t8.5 -21t-8.5 -21.5t-22.5 -8.5zM127 575q-13 0 -21.5 8.5t-8.5 21.5t8.5 21t21.5 8t21.5 -8t8.5 -21t-8.5 -21.5t-21.5 -8.5zM71 0q-8 0 -8 8v484q0 8 8 8h28q8 0 8 -8v-484q0 -8 -8 -8h-28z" />
    <glyph glyph-name="uni0458" unicode="&#x458;" horiz-adv-x="240" 
d="M139 572q-15 0 -24.5 9.5t-9.5 23.5q0 15 9.5 24t24.5 9q14 0 23.5 -9t9.5 -24q0 -14 -9.5 -23.5t-23.5 -9.5zM8 -205q-8 0 -8 8v26q0 9 8 9h2q107 3 107 117v537q0 8 8 8h28q8 0 8 -8v-537q0 -72 -39 -115.5t-112 -44.5h-2z" />
    <glyph glyph-name="uni0459" unicode="&#x459;" horiz-adv-x="642" 
d="M456 295q65 0 108.5 -41.5t43.5 -105.5q0 -65 -43 -107t-109 -42h-96q-37 0 -37 37v421h-77q-51 0 -81.5 -29.5t-30.5 -76.5v-224q0 -53 -29.5 -88t-77.5 -39q-8 0 -8 8v26q0 9 8 9q29 3 46 26t17 58v224q0 65 43.5 107t112.5 42h85q37 0 37 -37v-168h88zM456 42
q48 0 78 29.5t30 76.5t-30 76t-78 29h-88v-211h88z" />
    <glyph glyph-name="uni045A" unicode="&#x45a;" horiz-adv-x="626" 
d="M76 0q-8 0 -8 8v484q0 8 8 8h28q8 0 8 -8v-201h195v201q0 8 8 8h28q8 0 8 -8v-201h89q65 0 108.5 -41.5t43.5 -103.5q0 -64 -43 -105.5t-109 -41.5h-97q-36 0 -36 36v213h-195v-240q0 -8 -8 -8h-28zM351 41h89q48 0 78 29t30 76q0 45 -30 73.5t-78 28.5h-89v-207z" />
    <glyph glyph-name="uni045B" unicode="&#x45b;" horiz-adv-x="455" 
d="M107 0q-8 0 -8 8v587h-72q-8 0 -8 8v19q0 9 8 9h72v61q0 8 8 8h28q8 0 8 -8v-61h148q8 0 8 -9v-19q0 -8 -8 -8h-148v-142q38 56 108 56q65 0 105.5 -44.5t40.5 -112.5v-344q0 -8 -8 -8h-28q-8 0 -8 8v344q0 51 -28.5 82.5t-77.5 31.5q-46 0 -75 -32t-29 -82v-344
q0 -8 -8 -8h-28z" />
    <glyph glyph-name="uni045C" unicode="&#x45c;" horiz-adv-x="397" 
d="M280 670q5 0 6.5 -3t-1.5 -7l-69 -96q-2 -5 -10 -5h-25q-12 0 -5 10l60 95q3 6 10 6h34zM230 277q55 -9 88 -47t33 -95v-127q0 -8 -8 -8h-28q-8 0 -8 8v127q0 48 -29 76t-77 28h-89v-231q0 -8 -8 -8h-28q-8 0 -8 8v484q0 8 8 8h28q8 0 8 -8v-210h72l125 212q3 6 10 6h32
q11 0 6 -10z" />
    <glyph glyph-name="uni045D" unicode="&#x45d;" horiz-adv-x="409" 
d="M120 670h34q7 0 10 -6l60 -95q7 -10 -5 -10h-25q-8 0 -10 5l-69 96q-3 4 -1.5 7t6.5 3zM211 -1q-66 0 -109.5 42.5t-43.5 107.5v343q0 8 9 8h27q9 0 9 -8v-343q0 -48 30 -78t78 -30h86v451q0 8 8 8h28q8 0 8 -8v-457q0 -36 -36 -36h-94z" />
    <glyph glyph-name="uni045E" unicode="&#x45e;" horiz-adv-x="420" 
d="M206 562q-46 0 -75 27t-32 71q0 8 8 8h25q8 0 9 -8q5 -58 65 -58q61 0 66 58q0 8 9 8h25q8 0 8 -8q-3 -44 -32 -71t-76 -27zM343 500q9 0 9 -8v-547q0 -69 -40.5 -112t-106.5 -43q-63 0 -103.5 42.5t-43.5 109.5q0 8 9 8h27q9 0 9 -8q2 -50 28.5 -79.5t73.5 -29.5
q48 0 75 30.5t27 81.5v119q-39 -57 -102 -57q-66 0 -106.5 44t-40.5 112v329q0 8 9 8h27q9 0 9 -8v-329q0 -51 27.5 -82.5t74.5 -31.5t74.5 31.5t27.5 82.5v329q0 8 9 8h27z" />
    <glyph glyph-name="uni045F" unicode="&#x45f;" horiz-adv-x="426" 
d="M200 -107q-9 0 -9 8v99h-86q-37 0 -37 37v455q0 8 8 8h28q8 0 8 -8v-449h202v449q0 8 8 8h28q8 0 8 -8v-455q0 -37 -36 -37h-86v-99q0 -8 -9 -8h-27z" />
    <glyph glyph-name="uni0490" unicode="&#x490;" horiz-adv-x="346" 
d="M317 783q9 0 9 -8v-108q0 -8 -9 -8h-94q-52 0 -81.5 -32.5t-29.5 -90.5v-528q0 -8 -8 -8h-30q-9 0 -9 8v528q0 76 43 121.5t115 45.5h58v72q0 8 9 8h27z" />
    <glyph glyph-name="uni0491" unicode="&#x491;" horiz-adv-x="303" 
d="M67 0q-9 0 -9 8v353q0 65 38.5 103.5t101.5 38.5h36v65q0 8 8 8h28q8 0 8 -8v-75q0 -33 -33 -33h-47q-45 0 -70 -26t-25 -73v-353q0 -8 -9 -8h-27z" />
    <glyph glyph-name="Wgrave" unicode="&#x1e80;" horiz-adv-x="684" 
d="M354 774l-81 91q-4 4 -2 7t7 3h35q7 0 10 -5l70 -91q3 -4 1.5 -7t-6.5 -3h-24q-7 0 -10 5zM610 700q9 0 9 -8v-525q0 -80 -40.5 -128t-110.5 -48q-84 0 -126 90q-42 -90 -126 -90q-70 0 -110.5 48t-40.5 128v525q0 8 9 8h30q8 0 8 -8v-525q0 -62 27 -97t77 -35
q46 0 74.5 36t28.5 96v525q0 8 8 8h30q8 0 8 -8v-525q0 -60 29 -96t74 -36q50 0 77 35t27 97v525q0 8 8 8h30z" />
    <glyph glyph-name="wgrave" unicode="&#x1e81;" horiz-adv-x="628" 
d="M229 670h34q7 0 10 -6l60 -95q7 -10 -5 -10h-25q-7 0 -10 5l-69 96q-3 4 -1.5 7t6.5 3zM430 -9q-39 0 -70 22t-46 58q-36 -80 -116 -80q-64 0 -102 43.5t-38 110.5v347q0 8 9 8h27q9 0 9 -8v-347q0 -50 25 -80.5t70 -30.5q43 0 68.5 31t25.5 80v347q0 8 8 8h28q8 0 8 -8
v-347q0 -49 25.5 -80t68.5 -31q45 0 70 30.5t25 80.5v347q0 8 8 8h28q8 0 8 -8v-347q0 -67 -38 -110.5t-101 -43.5z" />
    <glyph glyph-name="Wacute" unicode="&#x1e82;" horiz-adv-x="684" 
d="M313 769q-5 0 -6.5 3t1.5 7l70 91q2 5 10 5h35q5 0 7 -3t-2 -7l-81 -91q-3 -5 -10 -5h-24zM610 700q9 0 9 -8v-525q0 -80 -40.5 -128t-110.5 -48q-84 0 -126 90q-42 -90 -126 -90q-70 0 -110.5 48t-40.5 128v525q0 8 9 8h30q8 0 8 -8v-525q0 -62 27 -97t77 -35
q46 0 74.5 36t28.5 96v525q0 8 8 8h30q8 0 8 -8v-525q0 -60 29 -96t74 -36q50 0 77 35t27 97v525q0 8 8 8h30z" />
    <glyph glyph-name="wacute" unicode="&#x1e83;" horiz-adv-x="628" 
d="M373 670q5 0 6.5 -3t-1.5 -7l-69 -96q-3 -5 -10 -5h-25q-12 0 -5 10l60 95q3 6 10 6h34zM430 -9q-39 0 -70 22t-46 58q-36 -80 -116 -80q-64 0 -102 43.5t-38 110.5v347q0 8 9 8h27q9 0 9 -8v-347q0 -50 25 -80.5t70 -30.5q43 0 68.5 31t25.5 80v347q0 8 8 8h28q8 0 8 -8
v-347q0 -49 25.5 -80t68.5 -31q45 0 70 30.5t25 80.5v347q0 8 8 8h28q8 0 8 -8v-347q0 -67 -38 -110.5t-101 -43.5z" />
    <glyph glyph-name="Wdieresis" unicode="&#x1e84;" horiz-adv-x="684" 
d="M293 787q-14 0 -23 9t-9 23t9 23t23 9t23 -9t9 -23t-9 -23t-23 -9zM392 787q-14 0 -23 9t-9 23t9 23t23 9t23 -9t9 -23t-9 -23t-23 -9zM610 700q9 0 9 -8v-525q0 -80 -40.5 -128t-110.5 -48q-84 0 -126 90q-42 -90 -126 -90q-70 0 -110.5 48t-40.5 128v525q0 8 9 8h30
q8 0 8 -8v-525q0 -62 27 -97t77 -35q46 0 74.5 36t28.5 96v525q0 8 8 8h30q8 0 8 -8v-525q0 -60 29 -96t74 -36q50 0 77 35t27 97v525q0 8 8 8h30z" />
    <glyph glyph-name="wdieresis" unicode="&#x1e85;" horiz-adv-x="628" 
d="M257 574q-14 0 -23 9t-9 23t9 23t23 9t23 -9t9 -23t-9 -23t-23 -9zM356 574q-14 0 -23 9t-9 23t9 23t23 9t23 -9t9 -23t-9 -23t-23 -9zM430 -9q-39 0 -70 22t-46 58q-36 -80 -116 -80q-64 0 -102 43.5t-38 110.5v347q0 8 9 8h27q9 0 9 -8v-347q0 -50 25 -80.5t70 -30.5
q43 0 68.5 31t25.5 80v347q0 8 8 8h28q8 0 8 -8v-347q0 -49 25.5 -80t68.5 -31q45 0 70 30.5t25 80.5v347q0 8 8 8h28q8 0 8 -8v-347q0 -67 -38 -110.5t-101 -43.5z" />
    <glyph glyph-name="Ygrave" unicode="&#x1ef2;" horiz-adv-x="414" 
d="M253 769h-24q-7 0 -10 5l-81 91q-4 4 -2 7t7 3h35q8 0 10 -5l70 -91q3 -4 1.5 -7t-6.5 -3zM192 0q-8 0 -8 8v221q-60 8 -98 54.5t-38 113.5v295q0 8 9 8h30q8 0 8 -8v-295q0 -55 32 -91t80 -36q49 0 80.5 36t31.5 91v295q0 8 8 8h30q9 0 9 -8v-295q0 -66 -38 -113
t-98 -55v-221q0 -8 -8 -8h-30z" />
    <glyph glyph-name="ygrave" unicode="&#x1ef3;" horiz-adv-x="420" 
d="M195 564l-69 96q-3 4 -1.5 7t6.5 3h34q7 0 10 -6l60 -95q7 -10 -5 -10h-25q-7 0 -10 5zM343 500q9 0 9 -8v-547q0 -69 -40.5 -112t-106.5 -43q-63 0 -103.5 42.5t-43.5 109.5q0 8 9 8h27q9 0 9 -8q2 -50 28.5 -79.5t73.5 -29.5q48 0 75 30.5t27 81.5v119
q-39 -57 -102 -57q-66 0 -106.5 44t-40.5 112v329q0 8 9 8h27q9 0 9 -8v-329q0 -51 27.5 -82.5t74.5 -31.5t74.5 31.5t27.5 82.5v329q0 8 9 8h27z" />
    <glyph glyph-name="endash" unicode="&#x2013;" horiz-adv-x="386" 
d="M28 235q-8 0 -8 8v27q0 8 8 8h330q8 0 8 -8v-27q0 -8 -8 -8h-330z" />
    <glyph glyph-name="emdash" unicode="&#x2014;" horiz-adv-x="510" 
d="M22 270q0 8 8 8h450q8 0 8 -8v-27q0 -8 -8 -8h-450q-8 0 -8 8v27z" />
    <glyph glyph-name="quoteleft" unicode="&#x2018;" horiz-adv-x="107" 
d="M76 544q0 -8 -9 -8h-35q-8 0 -7 9l26 147q0 8 9 8h18q7 0 7 -9z" />
    <glyph glyph-name="quoteright" unicode="&#x2019;" horiz-adv-x="107" 
d="M31 692q0 8 9 8h35q9 0 7 -9l-26 -147q0 -8 -9 -8h-18q-7 0 -7 9z" />
    <glyph glyph-name="quotesinglbase" unicode="&#x201a;" horiz-adv-x="102" 
d="M26 55q0 8 9 8h35q8 0 7 -9l-26 -147q0 -8 -9 -8h-18q-7 0 -7 9z" />
    <glyph glyph-name="quotedblleft" unicode="&#x201c;" horiz-adv-x="197" 
d="M77 544q0 -8 -9 -8h-35q-9 0 -7 9l26 147q0 8 9 8h18q7 0 7 -9zM170 544q0 -8 -9 -8h-35q-8 0 -7 9l26 147q0 8 9 8h18q7 0 7 -9z" />
    <glyph glyph-name="quotedblright" unicode="&#x201d;" horiz-adv-x="202" 
d="M28 692q0 8 9 8h35q8 0 7 -9l-26 -147q0 -8 -9 -8h-18q-7 0 -7 9zM121 692q0 8 9 8h35q9 0 7 -9l-26 -147q0 -8 -9 -8h-18q-7 0 -7 9z" />
    <glyph glyph-name="quotedblbase" unicode="&#x201e;" horiz-adv-x="104" 
d="M26 55q0 8 9 8h35q8 0 7 -9l-26 -147q0 -8 -9 -8h-18q-7 0 -7 9z" />
    <glyph glyph-name="dagger" unicode="&#x2020;" horiz-adv-x="341" 
d="M309 507q8 0 8 -9v-27q0 -8 -8 -8h-115v-555q0 -8 -8 -8h-30q-9 0 -9 8v555h-115q-8 0 -8 8v27q0 9 8 9h115v185q0 8 9 8h30q8 0 8 -8v-185h115z" />
    <glyph glyph-name="daggerdbl" unicode="&#x2021;" horiz-adv-x="348" 
d="M312 463h-115v-282h115q9 0 9 -8v-27q0 -8 -9 -8h-115v-230q0 -8 -8 -8h-30q-8 0 -8 8v230h-115q-9 0 -9 8v27q0 8 9 8h115v282h-115q-9 0 -9 8v27q0 9 9 9h115v185q0 8 8 8h30q8 0 8 -8v-185h115q9 0 9 -9v-27q0 -8 -9 -8z" />
    <glyph glyph-name="bullet" unicode="&#x2022;" horiz-adv-x="182" 
d="M90 194q-23 0 -39.5 16t-16.5 40q0 25 16.5 41.5t39.5 16.5q25 0 41.5 -16.5t16.5 -41.5q0 -24 -16.5 -40t-41.5 -16z" />
    <glyph glyph-name="ellipsis" unicode="&#x2026;" horiz-adv-x="454" 
d="M74 -9q-16 0 -27 11t-11 27q0 17 11 27.5t27 10.5t27 -11t11 -27t-11 -27t-27 -11zM227 -9q-16 0 -27 11t-11 27q0 17 10.5 27.5t27.5 10.5q16 0 27 -11t11 -27t-11 -27t-27 -11zM380 -9q-16 0 -27 11t-11 27t11 27t27 11t27 -11t11 -27t-11 -27t-27 -11z" />
    <glyph glyph-name="perthousand" unicode="&#x2030;" horiz-adv-x="845" 
d="M114 395q-36 0 -59.5 24.5t-23.5 61.5v140q0 37 23.5 62t59.5 25t59.5 -25t23.5 -62v-140q0 -37 -23.5 -61.5t-59.5 -24.5zM39 -3q-4 0 -7 3t0 7l519 689q5 7 10 7h27q5 0 8 -3t0 -7l-519 -689q-5 -7 -11 -7h-27zM114 432q20 0 32 14t12 35v140q0 22 -12 36t-32 14
t-32.5 -14t-12.5 -36v-140q0 -21 12.5 -35t32.5 -14zM514 -8q-37 0 -60.5 24.5t-23.5 61.5v140q0 37 24 62t60 25t59.5 -25t23.5 -62v-140q0 -37 -23.5 -61.5t-59.5 -24.5zM744 -8q-37 0 -60.5 24.5t-23.5 61.5v140q0 37 24 62t60 25t59.5 -25t23.5 -62v-140
q0 -37 -23.5 -61.5t-59.5 -24.5zM514 29q20 0 32 14t12 35v140q0 22 -12 36t-32 14q-21 0 -33 -14t-12 -36v-140q0 -21 12 -35t33 -14zM744 29q20 0 32 14t12 35v140q0 22 -12 36t-32 14q-21 0 -33 -14t-12 -36v-140q0 -21 12 -35t33 -14z" />
    <glyph glyph-name="guilsinglleft" unicode="&#x2039;" horiz-adv-x="229" 
d="M157 83q-7 0 -10 5l-114 153q-13 16 0 32l114 153q3 5 10 5h30q5 0 6.5 -3t-1.5 -7l-124 -164l124 -164q3 -4 1.5 -7t-6.5 -3h-30z" />
    <glyph glyph-name="guilsinglright" unicode="&#x203a;" horiz-adv-x="229" 
d="M72 83h-30q-5 0 -6.5 3t1.5 7l124 164l-124 164q-3 4 -1.5 7t6.5 3h30q8 0 10 -5l114 -153q13 -16 0 -32l-114 -153q-2 -5 -10 -5z" />
    <glyph glyph-name="Euro" unicode="&#x20ac;" horiz-adv-x="478" 
d="M431 179q8 0 8 -8q-2 -80 -47 -130t-117 -50t-117 47.5t-45 122.5v112h-66q-9 0 -9 8v21q0 8 9 8h66v79h-66q-9 0 -9 8v21q0 8 9 8h66v113q0 75 45 122.5t117 47.5q69 0 113 -49.5t46 -127.5q0 -8 -8 -8h-30q-8 0 -8 8q-2 61 -32.5 97t-80.5 36q-53 0 -84 -34t-31 -92
v-113h192q8 0 8 -8v-21q0 -8 -8 -8h-192v-79h192q8 0 8 -8v-21q0 -8 -8 -8h-192v-112q0 -58 31 -92t84 -34t84.5 37t33.5 99q0 8 8 8h30z" />
    <glyph glyph-name="trademark" unicode="&#x2122;" horiz-adv-x="501" 
d="M393 703q35 0 55 -23.5t20 -63.5v-183q0 -4 -4 -4h-23q-5 0 -5 4v182q0 57 -43 57q-20 0 -31 -15.5t-11 -41.5v-182q0 -4 -4 -4h-23q-5 0 -5 4v182q0 57 -41 57q-43 0 -43 -57v-182q0 -4 -5 -4h-23q-4 0 -4 4v183q0 40 19.5 63.5t55.5 23.5q38 0 57 -42q21 42 58 42z
M170 700q4 0 4 -4v-23q0 -4 -4 -4h-54v-236q0 -4 -4 -4h-24q-4 0 -4 4v236h-53q-4 0 -4 4v23q0 4 4 4h139z" />
    <glyph glyph-name="partialdiff" unicode="&#x2202;" horiz-adv-x="409" 
d="M141 708q101 0 155.5 -58.5t54.5 -162.5v-339q0 -68 -42.5 -112.5t-108.5 -44.5t-108.5 44.5t-42.5 112.5v206q0 66 42.5 110.5t108.5 44.5q63 0 106 -59v37q0 86 -42 132.5t-123 46.5h-22q-8 0 -8 8v26q0 8 8 8h22zM306 148v206q0 49 -29.5 80.5t-76.5 31.5t-76.5 -31.5
t-29.5 -80.5v-206q0 -51 29 -82.5t77 -31.5t77 31.5t29 82.5z" />
    <glyph glyph-name="emptyset" unicode="&#x2205;" horiz-adv-x="802" 
d="M744 745q4 0 7 -3t0 -6l-104 -123q100 -98 100 -263q0 -161 -96 -259.5t-253 -98.5q-130 0 -218 68l-83 -98q-5 -7 -11 -7h-28q-4 0 -7 3t0 6l101 120q-103 98 -103 266q0 161 96 259.5t253 98.5q132 0 222 -71l85 101q5 7 11 7h28zM87 350q0 -147 89 -238l420 497
q-82 63 -198 63q-140 0 -225.5 -88.5t-85.5 -233.5zM709 350q0 146 -86 234l-419 -495q80 -61 194 -61q140 0 225.5 88.5t85.5 233.5z" />
    <glyph glyph-name="product" unicode="&#x220f;" horiz-adv-x="471" 
d="M82 -100q-8 0 -8 8v752q0 40 40 40h243q40 0 40 -40v-752q0 -8 -8 -8h-30q-8 0 -8 8v748h-230v-748q0 -8 -9 -8h-30z" />
    <glyph glyph-name="summation" unicode="&#x2211;" horiz-adv-x="335" 
d="M51 -3q-19 0 -19 17q0 20 3 26l156 310l-156 310q-3 6 -3 26q0 17 19 17h254q8 0 8 -9v-27q0 -8 -8 -8h-223l145 -289q3 -6 3 -10v-20q0 -4 -3 -10l-145 -289h223q8 0 8 -8v-27q0 -9 -8 -9h-254z" />
    <glyph glyph-name="minus" unicode="&#x2212;" horiz-adv-x="440" 
d="M56 338q-8 0 -8 8v25q0 9 8 9h328q8 0 8 -9v-25q0 -8 -8 -8h-328z" />
    <glyph glyph-name="radical" unicode="&#x221a;" horiz-adv-x="446" 
d="M438 800q10 0 8 -9l-166 -773q-4 -21 -25 -21h-29q-19 0 -25 21l-96 438h-80q-9 0 -9 9v26q0 8 9 8h97q20 0 25 -21l94 -428l158 743q1 7 9 7h30z" />
    <glyph glyph-name="infinity" unicode="&#x221e;" horiz-adv-x="621" 
d="M438 396q57 0 95.5 -40.5t38.5 -104.5q0 -65 -38 -104.5t-95 -39.5q-49 0 -78 25t-50 69q-44 -94 -128 -94q-57 0 -95.5 39.5t-38.5 104.5q0 64 38.5 104.5t95.5 40.5q82 0 128 -89q21 42 50 65.5t77 23.5zM183 149q21 0 37 8t28.5 25t20 31.5t18.5 40.5
q-11 24 -18.5 38.5t-20 30.5t-28.5 23.5t-37 7.5q-40 0 -64.5 -27.5t-24.5 -75.5q0 -46 24.5 -74t64.5 -28zM439 149q39 0 63.5 28t24.5 74q0 48 -24.5 75.5t-64.5 27.5q-27 0 -48 -15.5t-31.5 -33.5t-23.5 -51q15 -35 24.5 -53.5t30.5 -35t49 -16.5z" />
    <glyph glyph-name="integral" unicode="&#x222b;" horiz-adv-x="304" 
d="M283 703q8 0 8 -9v-26q0 -8 -8 -8h-2q-107 -3 -107 -117v-588q0 -72 -39 -115.5t-112 -44.5h-1q-9 0 -9 8v26q0 9 9 9h1q107 3 107 117v588q0 72 39 115.5t112 44.5h2z" />
    <glyph glyph-name="approxequal" unicode="&#x2248;" horiz-adv-x="440" 
d="M367 466q5 9 11 0l14 -20q4 -7 0 -12q-35 -55 -86 -55q-31 0 -88 25.5t-79 25.5q-38 0 -65 -41q-7 -8 -12 -1l-13 24q-4 6 0 11q38 52 87 52q30 0 87.5 -25.5t79.5 -25.5q37 0 64 42zM367 325q5 9 11 0l14 -21q4 -6 0 -11q-35 -55 -86 -55q-31 0 -88 25.5t-79 25.5
q-39 0 -65 -42q-8 -7 -12 0l-13 23q-5 6 0 12q38 52 87 52q30 0 87.5 -25.5t79.5 -25.5q37 0 64 42z" />
    <glyph glyph-name="notequal" unicode="&#x2260;" horiz-adv-x="440" 
d="M384 398h-119l-48 -90h167q8 0 8 -8v-25q0 -9 -8 -9h-190l-39 -73q-2 -6 -10 -6h-24q-12 0 -7 10l37 69h-95q-8 0 -8 9v25q0 8 8 8h117l49 90h-166q-8 0 -8 8v25q0 9 8 9h188l42 78q2 6 10 6h24q12 0 7 -10l-40 -74h97q8 0 8 -9v-25q0 -8 -8 -8z" />
    <glyph glyph-name="lessequal" unicode="&#x2264;" horiz-adv-x="367" 
d="M314 502q0 -5 -4 -7l-214 -106l214 -106q4 -2 4 -7v-25q0 -6 -5 -9t-10 0l-241 121q-4 1 -4 7v38q0 6 4 7l241 121q5 3 10 0t5 -9v-25zM305 191q9 0 9 -8v-26q0 -8 -9 -8h-243q-8 0 -8 8v26q0 8 8 8h243z" />
    <glyph glyph-name="greaterequal" unicode="&#x2265;" horiz-adv-x="420" 
d="M309 415q4 -1 4 -7v-38q0 -6 -4 -7l-241 -121q-5 -3 -10 0t-5 9v25q0 5 4 7l214 106l-214 106q-4 2 -4 7v25q0 6 5 9t10 0zM305 191q8 0 8 -8v-26q0 -8 -8 -8h-243q-9 0 -9 8v26q0 8 9 8h243z" />
    <glyph glyph-name="lozenge" unicode="&#x25ca;" horiz-adv-x="448" 
d="M217 -3q-17 0 -27 19l-138 318q-5 16 0 32l138 318q10 19 27 19h14q17 0 27 -19l138 -318q5 -16 0 -32l-138 -318q-10 -19 -27 -19h-14zM224 40l133 310l-133 310l-133 -310z" />
    <glyph glyph-name="uni0162.ss01" horiz-adv-x="353" 
d="M325 700q8 0 8 -8v-27q0 -9 -8 -9h-125v-648q0 -8 -5 -8l-9 -50q4 1 13 1q32 -2 52.5 -22t20.5 -50q0 -35 -24 -56t-61 -21q-36 0 -59.5 18.5t-26.5 51.5q0 8 8 8h21q7 0 9 -8q5 -35 48 -35q21 0 34.5 11.5t13.5 30.5q0 17 -12.5 28.5t-30.5 11.5q-15 0 -37 -6
q-3 -2 -7 2l-1 1q-4 4 -3 7l15 77q-6 0 -6 8v648h-125q-8 0 -8 9v27q0 8 8 8h297z" />
    <glyph glyph-name="i.loclTRK" horiz-adv-x="180" 
d="M90 572q-15 0 -24 9.5t-9 23.5q0 15 9 24t24 9q14 0 23.5 -9t9.5 -24q0 -14 -9.5 -23.5t-23.5 -9.5zM76 0q-8 0 -8 8v484q0 8 8 8h28q8 0 8 -8v-484q0 -8 -8 -8h-28z" />
    <glyph glyph-name="uni0163.ss01" horiz-adv-x="278" 
d="M180 -49q32 -2 52.5 -22t20.5 -50q0 -35 -24 -56t-61 -21q-36 0 -59.5 18.5t-26.5 51.5q0 8 8 8h21q7 0 9 -8q5 -35 48 -35q21 0 34.5 11.5t13.5 30.5q0 17 -12.5 28.5t-30.5 11.5q-15 0 -37 -6q-3 -2 -7 2l-1 1q-4 4 -3 7l17 97q-53 42 -53 137v301h-64q-9 0 -9 8v26
q0 8 9 8h64v132q0 8 9 8h27q9 0 9 -8v-132h94q8 0 8 -8v-26q0 -8 -8 -8h-94v-301q0 -119 91 -119h14q8 0 8 -8v-26q0 -9 -8 -9h-14q-23 0 -49 7l-9 -52q4 1 13 1z" />
    <glyph glyph-name="uni0414.loclBGR" horiz-adv-x="479" 
d="M22 -108q-8 0 -8 9v103q0 18 11 29t31 11h12l133 635q5 21 25 21h28q20 0 25 -21l133 -635h12q41 0 41 -40v-103q0 -9 -8 -9h-29q-8 0 -8 9v99h-361v-99q0 -9 -8 -9h-29zM116 44h248l-124 597z" />
    <glyph glyph-name="uni0418.loclBGR" horiz-adv-x="462" 
d="M225 -9q-72 0 -116 49.5t-44 129.5v522q0 8 9 8h30q8 0 8 -8v-522q0 -61 30.5 -98t80.5 -37q53 0 85.5 37t32.5 98v522q0 8 9 8h30q8 0 8 -8v-684q0 -8 -8 -8h-24q-7 0 -8 8l-4 51q-37 -68 -119 -68z" />
    <glyph glyph-name="uni0419.loclBGR" horiz-adv-x="462" 
d="M227 768q-46 0 -75 26t-32 70q0 9 8 9h25q7 0 9 -9q2 -26 19.5 -41t45.5 -15q61 0 66 56q0 9 9 9h25q8 0 8 -9q-3 -43 -32 -69.5t-76 -26.5zM225 -9q-72 0 -116 49.5t-44 129.5v522q0 8 9 8h30q8 0 8 -8v-522q0 -61 30.5 -98t80.5 -37q53 0 85.5 37t32.5 98v522q0 8 9 8
h30q8 0 8 -8v-684q0 -8 -8 -8h-24q-7 0 -8 8l-4 51q-37 -68 -119 -68z" />
    <glyph glyph-name="uni040D.loclBGR" horiz-adv-x="462" 
d="M273 769h-24q-7 0 -10 5l-81 91q-4 4 -2 7t7 3h35q8 0 10 -5l70 -91q3 -4 1.5 -7t-6.5 -3zM225 -9q-72 0 -116 49.5t-44 129.5v522q0 8 9 8h30q8 0 8 -8v-522q0 -61 30.5 -98t80.5 -37q53 0 85.5 37t32.5 98v522q0 8 9 8h30q8 0 8 -8v-684q0 -8 -8 -8h-24q-7 0 -8 8
l-4 51q-37 -68 -119 -68z" />
    <glyph glyph-name="uni041B.loclBGR" horiz-adv-x="389" 
d="M370 9q2 -9 -8 -9h-29q-9 0 -10 7l-128 643l-129 -643q-1 -7 -9 -7h-30q-10 0 -8 9l136 673q5 21 25 21h29q20 0 25 -21z" />
    <glyph glyph-name="uni041F.loclBGR" horiz-adv-x="453" 
d="M74 0q-9 0 -9 8v523q0 79 44.5 128.5t117.5 49.5q72 0 116.5 -49.5t44.5 -128.5v-523q0 -8 -8 -8h-30q-9 0 -9 8v523q0 61 -31 97.5t-83 36.5t-83.5 -36.5t-31.5 -97.5v-523q0 -8 -8 -8h-30z" />
    <glyph glyph-name="uni0422.loclBGR" horiz-adv-x="353" 
d="M325 700q8 0 8 -8v-27q0 -9 -8 -9h-125v-648q0 -8 -8 -8h-30q-9 0 -9 8v648h-125q-8 0 -8 9v27q0 8 8 8h297z" />
    <glyph glyph-name="uni0423.loclBGR" horiz-adv-x="404" 
d="M342 700q9 0 9 -8v-522q0 -73 -45 -121.5t-114 -48.5h-139q-9 0 -9 8v27q0 9 9 9h139q49 0 80.5 35.5t31.5 90.5v125q-37 -56 -112 -56q-71 0 -115 49t-44 127v277q0 8 9 8h30q8 0 8 -8v-277q0 -59 30.5 -95.5t81.5 -36.5t81.5 37t30.5 98v274q0 8 8 8h30z" />
    <glyph glyph-name="uni040E.loclBGR" horiz-adv-x="404" 
d="M193 768q-46 0 -75 26t-32 70q0 9 8 9h25q7 0 9 -9q2 -26 19.5 -41t45.5 -15q61 0 66 56q0 9 9 9h25q8 0 8 -9q-3 -43 -32 -69.5t-76 -26.5zM342 700q9 0 9 -8v-522q0 -73 -45 -121.5t-114 -48.5h-139q-9 0 -9 8v27q0 9 9 9h139q49 0 80.5 35.5t31.5 90.5v125
q-37 -56 -112 -56q-71 0 -115 49t-44 127v277q0 8 9 8h30q8 0 8 -8v-277q0 -59 30.5 -95.5t81.5 -36.5t81.5 37t30.5 98v274q0 8 8 8h30z" />
    <glyph glyph-name="uni0424.loclBGR" horiz-adv-x="667" 
d="M464 708q65 0 107 -46t42 -117v-390q0 -71 -42 -117t-107 -46q-33 0 -62.5 17t-44.5 44v-129q0 -8 -9 -8h-30q-8 0 -8 8v128q-15 -27 -45 -44t-63 -17q-64 0 -106.5 46t-42.5 117v392q0 70 42 116t107 46q33 0 63 -17t45 -43v123q0 8 8 8h30q9 0 9 -8v-122
q15 26 44.5 42.5t62.5 16.5zM205 35q46 0 75.5 33.5t29.5 85.5v392q0 52 -29.5 85.5t-75.5 33.5t-75.5 -33t-29.5 -86v-392q0 -53 29.5 -86t75.5 -33zM567 155v390q0 52 -29.5 85.5t-75.5 33.5t-75.5 -33t-29.5 -85v-392q0 -52 29.5 -85.5t75.5 -33.5t75.5 34t29.5 86z" />
    <glyph glyph-name="uni0427.loclBGR" horiz-adv-x="430" 
d="M317 0q-8 0 -8 8v285q-36 -57 -112 -57q-71 0 -115 49t-44 126v281q0 8 9 8h30q8 0 8 -8v-281q0 -59 30.5 -95.5t81.5 -36.5t81.5 37t30.5 99v277q0 8 8 8h30q9 0 9 -8v-684q0 -8 -9 -8h-30z" />
    <glyph glyph-name="uni0426.loclBGR" horiz-adv-x="474" 
d="M418 -108q-9 0 -9 9v99q-26 3 -42.5 19t-21.5 37q-38 -65 -121 -65q-70 0 -114.5 50t-44.5 129v522q0 8 9 8h30q8 0 8 -8v-522q0 -62 30.5 -98.5t82.5 -36.5t84 36.5t32 98.5v522q0 8 9 8h30q8 0 8 -8v-598q0 -26 10.5 -37.5t22.5 -11.5t22.5 -8t10.5 -27v-109
q0 -9 -8 -9h-28z" />
    <glyph glyph-name="uni0428.loclBGR" horiz-adv-x="710" 
d="M220 -9q-71 0 -113 48t-42 126v527q0 8 9 8h30q8 0 8 -8v-527q0 -59 29.5 -94.5t78.5 -35.5t78 35.5t29 94.5v527q0 8 9 8h30q8 0 8 -8v-527q0 -58 28.5 -94t75.5 -36q51 0 81 36t30 97v524q0 8 9 8h30q8 0 8 -8v-684q0 -8 -8 -8h-30q-9 0 -9 8v45q-34 -62 -109 -62
q-94 0 -129 85q-17 -40 -51 -62.5t-80 -22.5z" />
    <glyph glyph-name="uni0429.loclBGR" horiz-adv-x="722" 
d="M666 -108q-9 0 -9 9v99q-26 3 -42 18.5t-22 35.5q-37 -63 -114 -63q-43 0 -76.5 21.5t-51.5 58.5q-42 -80 -132 -80q-69 0 -111.5 49t-42.5 126v526q0 8 9 8h30q8 0 8 -8v-526q0 -59 29 -95t78 -36t78.5 36t29.5 95v526q0 8 9 8h30q8 0 8 -8v-525q0 -60 29 -96t78 -36
q48 0 78 35.5t30 96.5v525q0 8 9 8h30q8 0 8 -8v-598q0 -26 10.5 -37.5t22.5 -11.5t22.5 -8t10.5 -27v-109q0 -9 -8 -9h-28z" />
    <glyph glyph-name="uni041B.ss01" horiz-adv-x="485" 
d="M28 -1q-8 0 -8 8v30q0 8 8 8q43 4 67 37.5t24 91.5v357q0 81 41 129.5t109 48.5q69 0 109.5 -48.5t40.5 -129.5v-523q0 -8 -8 -8h-30q-8 0 -8 8v523q0 63 -27 97.5t-77 34.5q-49 0 -76 -34.5t-27 -97.5v-357q0 -77 -37 -124t-101 -51z" />
    <glyph glyph-name="uni0432.loclBGR" horiz-adv-x="409" 
d="M269 379q44 -13 69.5 -48.5t25.5 -80.5v-100q0 -70 -42.5 -114.5t-110.5 -44.5t-110.5 44.5t-42.5 114.5v397q0 73 37.5 117.5t104.5 44.5t104.5 -44.5t37.5 -117.5v-50q0 -39 -19 -71t-54 -47zM103 547v-151h89q47 0 76.5 29.5t29.5 71.5v50q0 119 -98 119
q-47 0 -72 -32t-25 -87zM320 150v100q0 43 -31.5 73t-80.5 30h-105v-203q0 -52 29 -84t79 -32t79.5 32t29.5 84z" />
    <glyph glyph-name="uni0433.loclBGR" horiz-adv-x="382" 
d="M185 -9q-63 0 -103 36.5t-40 95.5q0 47 26 79.5t62.5 49t73 31t62.5 38t26 57.5q0 41 -26.5 64.5t-71.5 23.5t-71.5 -25.5t-27.5 -71.5q0 -9 -9 -9h-27q-9 0 -9 9q3 63 42.5 101.5t103.5 38.5q62 0 101 -36.5t39 -94.5q0 -39 -18.5 -67t-46 -43t-60 -30t-60 -27.5
t-46 -35t-18.5 -52.5q0 -42 26.5 -65.5t71.5 -23.5q51 0 80 28t30 81q0 8 9 8h27q9 0 9 -8q-3 -70 -45 -111t-110 -41z" />
    <glyph glyph-name="uni0434.loclBGR" horiz-adv-x="406" 
d="M199 509q66 0 107.5 -44.5t41.5 -111.5v-408q0 -69 -41 -112t-109 -43q-65 0 -106 42.5t-43 109.5q0 8 9 8h27q9 0 9 -8q2 -50 29.5 -79.5t74.5 -29.5q49 0 77.5 30.5t28.5 81.5v122q-40 -60 -105 -60q-67 0 -108.5 44.5t-41.5 112.5v189q0 68 41.5 112t108.5 44zM199 49
q48 0 76.5 32t28.5 83v189q0 50 -28.5 81.5t-76.5 31.5t-76.5 -31.5t-28.5 -81.5v-189q0 -51 28.5 -83t76.5 -32z" />
    <glyph glyph-name="uni0436.loclBGR" horiz-adv-x="584" 
d="M537 500q5 0 7 -3t-1 -7l-125 -211q54 -9 86 -47t32 -95v-129q0 -8 -8 -8h-28q-8 0 -8 8v129q0 48 -29 76t-77 28h-72v-233q0 -8 -8 -8h-28q-8 0 -8 8v233h-72q-48 0 -77 -28t-29 -76v-129q0 -8 -8 -8h-28q-8 0 -8 8v129q0 57 31.5 95t85.5 47l-125 211q-5 10 7 10h32
q7 0 10 -6l123 -210h58v408q0 8 8 8h28q8 0 8 -8v-408h58l123 210q3 6 10 6h32z" />
    <glyph glyph-name="uni0437.loclBGR" horiz-adv-x="381" 
d="M244 185q41 -15 64.5 -53t23.5 -83v-78q0 -86 -40 -133.5t-115 -47.5q-71 0 -110.5 53.5t-42.5 140.5q0 8 9 8h27q9 0 9 -8q2 -69 29.5 -110t78.5 -41q110 0 110 138v78q0 48 -30 79.5t-83 31.5h-64q-8 0 -8 9v26q0 8 8 8h60q49 0 76 29.5t27 72.5v50q0 50 -23.5 80.5
t-69.5 30.5q-48 0 -73 -27t-27 -70q0 -9 -9 -9h-27q-9 0 -9 9q3 60 42.5 100t102.5 40q62 0 99.5 -43.5t37.5 -110.5v-50q0 -40 -19 -73t-54 -47z" />
    <glyph glyph-name="uni0438.loclBGR" horiz-adv-x="416" 
d="M203 -9q-65 0 -105 44t-40 112v345q0 8 9 8h27q9 0 9 -8v-345q0 -50 27 -81.5t73 -31.5t73 31.5t27 81.5v345q0 8 9 8h27q9 0 9 -8v-484q0 -8 -9 -8h-27q-9 0 -9 8v40q-37 -57 -100 -57z" />
    <glyph glyph-name="uni0439.loclBGR" horiz-adv-x="416" 
d="M209 562q-46 0 -75 27t-32 71q0 8 8 8h25q8 0 9 -8q5 -58 65 -58q61 0 66 58q0 8 9 8h25q8 0 8 -8q-3 -44 -32 -71t-76 -27zM203 -9q-65 0 -105 44t-40 112v345q0 8 9 8h27q9 0 9 -8v-345q0 -50 27 -81.5t73 -31.5t73 31.5t27 81.5v345q0 8 9 8h27q9 0 9 -8v-484
q0 -8 -9 -8h-27q-9 0 -9 8v40q-37 -57 -100 -57z" />
    <glyph glyph-name="uni045D.loclBGR" horiz-adv-x="406" 
d="M129 670h34q7 0 10 -6l60 -95q7 -10 -5 -10h-25q-7 0 -10 5l-69 96q-3 4 -1.5 7t6.5 3zM203 -9q-65 0 -105 44t-40 112v345q0 8 9 8h27q9 0 9 -8v-345q0 -50 27 -81.5t73 -31.5t73 31.5t27 81.5v345q0 8 9 8h27q9 0 9 -8v-484q0 -8 -9 -8h-27q-9 0 -9 8v40
q-37 -57 -100 -57z" />
    <glyph glyph-name="uni043A.loclBGR" horiz-adv-x="397" 
d="M230 279q55 -9 88 -47t33 -95v-129q0 -8 -8 -8h-28q-8 0 -8 8v129q0 48 -29 76t-77 28h-89v-233q0 -8 -8 -8h-28q-8 0 -8 8v684q0 8 8 8h28q8 0 8 -8v-408h72l125 210q3 6 10 6h32q11 0 6 -10z" />
    <glyph glyph-name="uni043B.loclBGR" horiz-adv-x="353" 
d="M293 7l-117 454l-116 -454q-2 -7 -9 -7h-29q-8 0 -7 9l125 473q5 21 26 21h21q21 0 26 -21l124 -473q3 -9 -6 -9h-29q-7 0 -9 7z" />
    <glyph glyph-name="uni043F.loclBGR" horiz-adv-x="406" 
d="M67 0q-9 0 -9 8v343q0 69 39.5 113.5t105.5 44.5t105.5 -44.5t39.5 -113.5v-343q0 -8 -9 -8h-27q-9 0 -9 8v343q0 53 -26 84.5t-74 31.5t-74 -31.5t-26 -84.5v-343q0 -8 -9 -8h-27z" />
    <glyph glyph-name="uni0442.loclBGR" horiz-adv-x="628" 
d="M430 509q63 0 101 -43.5t38 -110.5v-347q0 -8 -8 -8h-28q-8 0 -8 8v347q0 50 -25 80.5t-70 30.5q-43 0 -68.5 -31t-25.5 -80v-347q0 -8 -8 -8h-28q-8 0 -8 8v347q0 49 -25.5 80t-68.5 31q-45 0 -70 -30.5t-25 -80.5v-347q0 -8 -9 -8h-27q-9 0 -9 8v347q0 67 38 110.5
t102 43.5q80 0 116 -80q15 36 46 58t70 22z" />
    <glyph glyph-name="uni0443.loclBGR" horiz-adv-x="420" 
d="M343 500q9 0 9 -8v-547q0 -69 -40.5 -112t-106.5 -43q-63 0 -103.5 42.5t-43.5 109.5q0 8 9 8h27q9 0 9 -8q2 -50 28.5 -79.5t73.5 -29.5q48 0 75 30.5t27 81.5v119q-39 -57 -102 -57q-66 0 -106.5 44t-40.5 112v329q0 8 9 8h27q9 0 9 -8v-329q0 -51 27.5 -82.5
t74.5 -31.5t74.5 31.5t27.5 82.5v329q0 8 9 8h27z" />
    <glyph glyph-name="uni0444.loclBGR" horiz-adv-x="622" 
d="M434 509q62 0 100.5 -44t38.5 -114v-202q0 -70 -38.5 -114t-100.5 -44q-68 0 -101 61v-244q0 -8 -8 -8h-28q-8 0 -8 8v243q-33 -60 -100 -60q-63 0 -101.5 44.5t-38.5 113.5v202q0 69 38.5 113.5t101.5 44.5q67 0 100 -60v243q0 8 8 8h28q8 0 8 -8v-244q33 61 101 61z
M189 34q45 0 72.5 32t27.5 83v202q0 51 -27.5 83t-72.5 32q-44 0 -69.5 -31.5t-25.5 -83.5v-202q0 -52 25.5 -83.5t69.5 -31.5zM529 149v202q0 51 -26 83t-70 32q-45 0 -72.5 -32t-27.5 -83v-202q0 -51 27.5 -83t72.5 -32q44 0 70 32t26 83z" />
    <glyph glyph-name="uni0447.loclBGR" horiz-adv-x="407" 
d="M303 0q-8 0 -8 8v216q-40 -58 -105 -58q-67 0 -108 44.5t-41 112.5v169q0 8 9 8h27q9 0 9 -8v-169q0 -51 28 -82.5t76 -31.5q49 0 77 31.5t28 82.5v169q0 8 8 8h28q8 0 8 -8v-484q0 -8 -8 -8h-28z" />
    <glyph glyph-name="uni0446.loclBGR" horiz-adv-x="437" 
d="M378 -108q-9 0 -9 9l1 102q-19 3 -35 17.5t-19 36.5q-31 -66 -113 -66q-63 0 -104 44t-41 111v346q0 8 9 8h27q9 0 9 -8v-346q0 -50 28 -81t73 -31q46 0 72.5 31t26.5 81v346q0 8 9 8h27q9 0 9 -8v-389q0 -30 10 -45.5t22.5 -17t22.5 -9t10 -24.5v-106q0 -9 -8 -9h-27z
" />
    <glyph glyph-name="uni0448.loclBGR" horiz-adv-x="637" 
d="M197 -9q-61 0 -100 44t-39 111v346q0 8 9 8h27q9 0 9 -8v-346q0 -49 26 -80.5t68 -31.5q43 0 68.5 31.5t25.5 80.5v346q0 8 9 8h27q9 0 9 -8v-346q0 -49 26 -80.5t68 -31.5q43 0 68.5 31t25.5 81v346q0 8 9 8h27q9 0 9 -8v-484q0 -8 -9 -8h-27q-9 0 -9 8v37
q-31 -54 -94 -54q-83 0 -116 78q-35 -78 -117 -78z" />
    <glyph glyph-name="uni0449.loclBGR" horiz-adv-x="658" 
d="M599 -108q-9 0 -9 9l1 102q-19 3 -35 17.5t-19 36.5q-31 -66 -106 -66q-84 0 -117 78q-33 -78 -117 -78q-61 0 -100 44t-39 111v346q0 8 9 8h27q9 0 9 -8v-346q0 -49 26 -80.5t68 -31.5q43 0 68.5 31.5t25.5 80.5v346q0 8 9 8h27q9 0 9 -8v-346q0 -49 26 -80.5t69 -31.5
q42 0 67.5 31t25.5 81v346q0 8 9 8h27q9 0 9 -8v-389q0 -30 10 -45.5t22.5 -17t22.5 -9t10 -24.5v-106q0 -9 -8 -9h-27z" />
    <glyph glyph-name="uni044C.loclBGR" horiz-adv-x="390" 
d="M207 343q65 0 107 -44.5t42 -110.5v-42q0 -66 -42 -110.5t-107 -44.5t-107 44.5t-42 110.5v346q0 8 9 8h27q9 0 9 -8v-208q39 59 104 59zM311 146v42q0 48 -29 80t-75 32t-75 -32t-29 -80v-42q0 -49 29 -80.5t75 -31.5t75 31.5t29 80.5z" />
    <glyph glyph-name="uni044A.loclBGR" horiz-adv-x="440" 
d="M257 343q65 0 107 -44.5t42 -110.5v-42q0 -66 -42 -110.5t-107 -44.5t-107 44.5t-42 110.5v311h-86q-8 0 -8 9v26q0 8 8 8h107q10 0 17 -7t7 -17v-194q39 61 104 61zM361 146v42q0 48 -29 80t-75 32t-75 -32t-29 -80v-42q0 -49 29 -80.5t75 -31.5t75 31.5t29 80.5z" />
    <glyph glyph-name="uni044E.loclBGR" horiz-adv-x="547" 
d="M353 -9q-65 0 -105 44.5t-40 113.5v93h-96v-234q0 -8 -8 -8h-28q-8 0 -8 8v684q0 8 8 8h28q8 0 8 -8v-408h96v67q0 69 40 113.5t105 44.5t105 -44.5t40 -113.5v-202q0 -69 -40 -113.5t-105 -44.5zM353 34q45 0 72.5 32t27.5 83v202q0 51 -27.5 83t-72.5 32
q-46 0 -73.5 -32t-27.5 -83v-202q0 -51 27.5 -83t73.5 -32z" />
    <glyph glyph-name="uni043B.ss01" horiz-adv-x="426" 
d="M230 509q67 0 102.5 -43.5t35.5 -114.5v-343q0 -8 -8 -8h-28q-8 0 -8 8v343q0 53 -23 84t-71 31t-71 -31t-23 -84v-204q0 -65 -28.5 -105t-80.5 -43q-8 0 -8 8v26q0 8 8 9q65 6 65 105v204q0 71 36 114.5t102 43.5z" />
    <glyph glyph-name="emdash.case" horiz-adv-x="506" 
d="M20 370q0 8 8 8h450q8 0 8 -8v-27q0 -8 -8 -8h-450q-8 0 -8 8v27z" />
    <glyph glyph-name="endash.case" horiz-adv-x="386" 
d="M28 335q-8 0 -8 8v27q0 8 8 8h330q8 0 8 -8v-27q0 -8 -8 -8h-330z" />
    <glyph glyph-name="hyphen.case" horiz-adv-x="286" 
d="M28 335q-8 0 -8 8v27q0 8 8 8h230q8 0 8 -8v-27q0 -8 -8 -8h-230z" />
    <glyph glyph-name="guillemotleft.case" horiz-adv-x="391" 
d="M157 143q-7 0 -10 5l-114 153q-13 16 0 32l114 153q3 5 10 5h30q5 0 6.5 -3t-1.5 -7l-124 -164l124 -164q3 -4 1.5 -7t-6.5 -3h-30zM320 143q-8 0 -10 5l-114 153q-13 16 0 32l114 153q2 5 10 5h30q5 0 6.5 -3t-1.5 -7l-124 -164l124 -164q3 -4 1.5 -7t-6.5 -3h-30z" />
    <glyph glyph-name="guillemotright.case" horiz-adv-x="392" 
d="M72 143h-30q-5 0 -6.5 3t1.5 7l124 164l-124 164q-3 4 -1.5 7t6.5 3h30q8 0 10 -5l114 -153q13 -16 0 -32l-114 -153q-2 -5 -10 -5zM235 143h-30q-5 0 -6.5 3t1.5 7l124 164l-124 164q-3 4 -1.5 7t6.5 3h30q7 0 10 -5l114 -153q13 -16 0 -32l-114 -153q-3 -5 -10 -5z" />
    <glyph glyph-name="guilsinglleft.case" horiz-adv-x="228" 
d="M157 143q-7 0 -10 5l-114 153q-13 16 0 32l114 153q3 5 10 5h30q5 0 6.5 -3t-1.5 -7l-124 -164l124 -164q3 -4 1.5 -7t-6.5 -3h-30z" />
    <glyph glyph-name="guilsinglright.case" horiz-adv-x="229" 
d="M72 143h-30q-5 0 -6.5 3t1.5 7l124 164l-124 164q-3 4 -1.5 7t6.5 3h30q8 0 10 -5l114 -153q13 -16 0 -32l-114 -153q-2 -5 -10 -5z" />
    <glyph glyph-name="uni0308.case" 
d="M-131 787q-14 0 -23 9t-9 23t9 23t23 9t23 -9t9 -23t-9 -23t-23 -9zM-32 787q-14 0 -23 9t-9 23t9 23t23 9t23 -9t9 -23t-9 -23t-23 -9z" />
    <glyph glyph-name="uni0307.case" 
d="M-36 777q-15 0 -24 9.5t-9 23.5q0 15 9 24t24 9q14 0 23.5 -9t9.5 -24q0 -14 -9.5 -23.5t-23.5 -9.5z" />
    <glyph glyph-name="gravecomb.case" 
d="M-13 769h-24q-7 0 -10 5l-81 91q-4 4 -2 7t7 3h35q8 0 10 -5l70 -91q3 -4 1.5 -7t-6.5 -3z" />
    <glyph glyph-name="acutecomb.case" 
d="M-118 769q-5 0 -6.5 3t1.5 7l70 91q3 5 10 5h35q5 0 7 -3t-2 -7l-81 -91q-3 -5 -10 -5h-24z" />
    <glyph glyph-name="uni030B.case" 
d="M-217 769q-5 0 -6.5 3t1.5 7l70 91q2 5 10 5h35q5 0 7 -3t-2 -7l-81 -91q-3 -5 -10 -5h-24zM-117 769q-5 0 -6.5 3t1.5 7l70 91q2 5 10 5h35q5 0 7 -3t-2 -7l-81 -91q-3 -5 -10 -5h-24z" />
    <glyph glyph-name="uni0302.case" 
d="M-8 779q7 -10 -5 -10h-25q-6 0 -10 4l-65 75l-65 -75q-4 -4 -10 -4h-25q-12 0 -5 10l75 91q3 5 10 5h40q7 0 10 -5z" />
    <glyph glyph-name="uni030C.case" 
d="M-11 865l-75 -91q-3 -5 -10 -5h-40q-7 0 -10 5l-75 91q-7 10 5 10h25q6 0 10 -4l65 -75l65 75q4 4 10 4h25q12 0 5 -10z" />
    <glyph glyph-name="uni0306.case" 
d="M-111 768q-46 0 -75 26t-32 70q0 9 8 9h25q7 0 9 -9q2 -26 19.5 -41t45.5 -15q61 0 66 56q0 9 9 9h25q8 0 8 -9q-3 -43 -32 -69.5t-76 -26.5z" />
    <glyph glyph-name="uni030A.case" 
d="M-145 821q0 29 18.5 46.5t48.5 17.5t48 -17.5t18 -46.5t-18 -47t-48 -18t-48.5 18t-18.5 47zM-112 820q0 -34 34 -34q15 0 24.5 9t9.5 25t-9.5 25t-24.5 9q-34 0 -34 -34z" />
    <glyph glyph-name="tildecomb.case" 
d="M-143 814q-21 0 -24 -30q-1 -8 -9 -8h-24q-8 0 -8 8q2 31 19 49.5t43 18.5q22 0 46 -19.5t35 -19.5q22 0 24 30q1 8 9 8h24q8 0 8 -8q-2 -31 -19.5 -49.5t-42.5 -18.5q-21 0 -45 19.5t-36 19.5z" />
    <glyph glyph-name="uni0304.case" 
d="M-163 828q0 8 8 8h143q8 0 8 -8v-24q0 -9 -8 -9h-143q-8 0 -8 9v24z" />
    <glyph glyph-name="uni0312.case" 
d="M-85 765l-9 147q0 9 7 9h18q9 0 9 -8l26 -147q2 -9 -7 -9h-35q-9 0 -9 8z" />
    <glyph glyph-name="uni0326.case" 
d="M-63 -70q0 8 9 8h35q9 0 7 -9l-26 -147q0 -8 -9 -8h-18q-7 0 -7 9z" />
    <glyph glyph-name="uni0327.case" 
d="M-86 -198q-36 0 -59.5 19t-25.5 51q-2 8 7 8h22q6 0 8 -8q6 -35 48 -35q21 0 34.5 11.5t13.5 30.5q0 17 -12.5 28.5t-30.5 11.5q-14 0 -36 -6q-4 -1 -7 2l-2 1q-3 3 -3 7l15 77h36l-9 -50q4 1 13 1q32 -2 53 -22t21 -50q0 -35 -24 -56t-62 -21z" />
    <glyph glyph-name="uni0328.case" 
d="M-46 -187q0 -8 -7 -9q-16 -2 -24 -2q-42 0 -64 22.5t-22 55.5q0 51 61 120h45q-64 -56 -64 -109q0 -46 56 -46h11q8 0 8 -7v-25z" />
    <glyph glyph-name="uni0337.case" 
d="M-199 -45q-10 0 -7 9l159 574q2 7 9 7h30q10 0 7 -9l-160 -574q-2 -7 -9 -7h-29z" />
    <glyph glyph-name="uni0338.case" 
d="M-350 -45q-10 0 -8 9l216 774q2 7 9 7h29q10 0 7 -9l-215 -774q-2 -7 -9 -7h-29z" />
    <glyph glyph-name="brevecombcy" 
d="M-111 562q-46 0 -75 27t-32 71q0 8 8 8h25q8 0 9 -8q5 -58 65 -58q61 0 66 58q0 8 9 8h25q8 0 8 -8q-3 -44 -32 -71t-76 -27z" />
    <glyph glyph-name="brevecombcy.case" 
d="M-111 768q-46 0 -75 26t-32 70q0 9 8 9h25q7 0 9 -9q2 -26 19.5 -41t45.5 -15q61 0 66 56q0 9 9 9h25q8 0 8 -9q-3 -43 -32 -69.5t-76 -26.5z" />
    </font>
</defs>
</svg>
