<?xml version="1.0" encoding="utf-8"?>
<!-- Generator: Adobe Illustrator 16.0.0, SVG Export Plug-In . SVG Version: 6.00 Build 0)  -->
<!DOCTYPE svg PUBLIC "-//W3C//DTD SVG 1.1//EN" "http://www.w3.org/Graphics/SVG/1.1/DTD/svg11.dtd">
<svg version="1.1" id="Layer_1" xmlns="http://www.w3.org/2000/svg" xmlns:xlink="http://www.w3.org/1999/xlink" x="0px" y="0px"
	 width="82.049px" height="95.382px" viewBox="256.615 373.254 82.049 95.382"
	 enable-background="new 256.615 373.254 82.049 95.382" xml:space="preserve">
<g>
	<g>
		<g>
			<path d="M320.269,403.292h-45.257c-1.253,0-2.272,1.021-2.272,2.272c0,1.252,1.021,2.272,2.272,2.272h0.503l4.602,36.778
				c0,2.91,2.368,5.277,5.277,5.277h24.494c2.909,0,5.276-2.367,5.271-5.195l4.608-36.86h0.503c1.253,0,2.271-1.02,2.271-2.272
				C322.54,404.313,321.522,403.292,320.269,403.292z M313.853,444.616c0,2.187-1.779,3.967-3.966,3.967h-24.494
				c-2.187,0-3.966-1.78-3.972-4.048l-4.587-36.697h41.61L313.853,444.616z M320.269,406.527h-45.257
				c-0.53,0-0.961-0.431-0.961-0.962c0-0.53,0.431-0.961,0.961-0.961h45.257c0.53,0,0.961,0.431,0.961,0.961
				C321.23,406.096,320.799,406.527,320.269,406.527z"/>
			<path d="M285.009,411.723c1.063,0,1.928,0.803,1.931,1.835l2.771,28.884c0,0.988-0.866,1.791-1.929,1.791
				c-0.427,0-0.839-0.137-1.19-0.396c-0.204-0.153-0.491-0.109-0.641,0.096c-0.151,0.202-0.108,0.49,0.096,0.641
				c0.51,0.379,1.11,0.576,1.735,0.576c1.57,0,2.846-1.214,2.844-2.751l-2.771-28.884c0-1.494-1.277-2.709-2.846-2.709
				c-0.253,0-0.459,0.205-0.459,0.459C284.55,411.518,284.755,411.723,285.009,411.723z"/>
			<path d="M285.646,438.214c0.013,0,0.025-0.002,0.039-0.003c0.253-0.021,0.441-0.24,0.419-0.494l-1.419-17.558
				c-0.02-0.253-0.249-0.436-0.494-0.42c-0.253,0.021-0.441,0.241-0.42,0.494l1.42,17.558
				C285.209,438.032,285.41,438.214,285.646,438.214z"/>
			<path d="M300.028,423.592c-0.253,0-0.458,0.205-0.458,0.459v18.392c0,0.988-0.866,1.791-1.93,1.791
				c-0.427,0-0.84-0.137-1.191-0.396c-0.203-0.153-0.491-0.109-0.641,0.096c-0.151,0.203-0.108,0.49,0.096,0.641
				c0.51,0.379,1.111,0.576,1.736,0.576c1.569,0,2.847-1.214,2.847-2.708v-18.393C300.487,423.796,300.281,423.592,300.028,423.592z
				"/>
			<path d="M296.176,437.373c0.253,0,0.458-0.205,0.458-0.459v-24.916c0.307-0.18,0.651-0.274,1.006-0.274
				c1.063,0,1.929,0.803,1.929,1.792v4.528c0,0.254,0.205,0.458,0.459,0.458c0.253,0,0.458-0.204,0.458-0.458v-4.528
				c0-1.494-1.276-2.709-2.846-2.709c-0.626,0-1.227,0.199-1.737,0.578c-0.117,0.085-0.186,0.223-0.186,0.368v25.162
				C295.718,437.167,295.923,437.373,296.176,437.373z"/>
			<path d="M307.68,415.57c0.254,0.028,0.469-0.18,0.481-0.433l0.169-3.131c0.31-0.186,0.659-0.283,1.018-0.283
				c1.063,0,1.929,0.803,1.931,1.764l-1.851,28.956c0,0.987-0.865,1.791-1.928,1.791c-0.255,0-0.46,0.205-0.46,0.459
				c0,0.253,0.205,0.458,0.46,0.458c1.569,0,2.845-1.215,2.845-2.68l1.849-28.956c0-1.494-1.275-2.709-2.846-2.709
				c-0.626,0-1.227,0.2-1.737,0.578c-0.109,0.081-0.178,0.208-0.185,0.344l-0.181,3.36
				C307.232,415.341,307.427,415.557,307.68,415.57z"/>
			<path d="M306.202,441.072c0.01,0.001,0.018,0.001,0.027,0.001c0.241,0,0.442-0.188,0.458-0.432l1.146-19.409
				c0.015-0.253-0.178-0.47-0.431-0.485c-0.242-0.016-0.47,0.178-0.484,0.431l-1.146,19.41
				C305.757,440.84,305.95,441.058,306.202,441.072z"/>
			<path d="M276.455,402.061c0.362,0,0.656-0.293,0.656-0.655c0-2.187,1.779-3.967,3.966-3.967h33.127
				c2.187,0,3.966,1.779,3.966,3.967c0,0.361,0.293,0.655,0.655,0.655s0.655-0.293,0.655-0.655c0-2.91-2.366-5.277-5.276-5.277
				h-10.979c-0.001-2.278-1.854-4.131-4.131-4.131h-2.908c-2.277,0-4.131,1.853-4.131,4.131h-10.979
				c-2.91,0-5.277,2.367-5.277,5.277C275.8,401.768,276.093,402.061,276.455,402.061z M296.186,393.309h2.908
				c1.555,0,2.819,1.265,2.82,2.82h-8.549C293.366,394.574,294.631,393.309,296.186,393.309z"/>
			<path d="M314.742,399.364c-0.229-0.108-0.503-0.012-0.611,0.218c-0.108,0.229-0.01,0.502,0.218,0.611
				c0.54,0.256,0.893,0.629,1.08,1.139c0.068,0.186,0.244,0.3,0.431,0.3c0.054,0,0.106-0.009,0.158-0.027
				c0.238-0.087,0.36-0.351,0.272-0.589C316.019,400.279,315.498,399.723,314.742,399.364z"/>
			<path d="M307.885,398.771c-0.667,0.01-1.304,0.02-1.89,0.02c-0.253,0-0.459,0.205-0.459,0.459c0,0.253,0.206,0.458,0.459,0.458
				c0.59,0,1.231-0.01,1.903-0.02c1.508-0.022,3.214-0.047,4.808,0.032c0.008,0,0.017,0,0.024,0c0.243,0,0.445-0.191,0.457-0.435
				c0.015-0.253-0.181-0.468-0.435-0.481C311.127,398.723,309.406,398.75,307.885,398.771z"/>
		</g>
	</g>
</g>
</svg>
