<?xml version="1.0" encoding="utf-8"?>
<!-- Generator: Adobe Illustrator 16.0.0, SVG Export Plug-In . SVG Version: 6.00 Build 0)  -->
<!DOCTYPE svg PUBLIC "-//W3C//DTD SVG 1.1//EN" "http://www.w3.org/Graphics/SVG/1.1/DTD/svg11.dtd">
<svg version="1.1" id="Layer_1" xmlns="http://www.w3.org/2000/svg" xmlns:xlink="http://www.w3.org/1999/xlink" x="0px" y="0px"
	 width="13.141px" height="24.32px" viewBox="0 0 13.141 24.32" enable-background="new 0 0 13.141 24.32" xml:space="preserve">
<rect x="4.844" y="11.359" width="3.453" height="1.602"/>
<g>
	<path fill="#FFFFFF" d="M12.07,0h-11C0.476,0,0,0.476,0,1.07v15.215c0,0.238,0.078,0.473,0.226,0.66l5.465,6.965
		c0.203,0.258,0.513,0.41,0.84,0.41h0.005c0.323,0,0.633-0.148,0.836-0.406l5.534-6.965c0.152-0.188,0.235-0.422,0.235-0.664V1.07
		C13.141,0.476,12.66,0,12.07,0z M9.894,15.238c0,0.121-0.039,0.242-0.117,0.336l-2.801,3.527c-0.104,0.125-0.261,0.203-0.425,0.203
		c-0.168,0-0.325-0.078-0.426-0.207L3.359,15.57c-0.073-0.094-0.116-0.211-0.116-0.332V7.539c0-0.297,0.245-0.543,0.543-0.543h5.565
		c0.301,0,0.543,0.246,0.543,0.543V15.238z"/>
	<path d="M9.351,6.996H3.785c-0.298,0-0.543,0.246-0.543,0.543v7.699c0,0.121,0.043,0.238,0.116,0.332l2.767,3.527
		c0.101,0.129,0.258,0.207,0.426,0.207c0.164,0,0.32-0.078,0.425-0.203l2.801-3.527c0.078-0.094,0.117-0.215,0.117-0.336V7.539
		C9.894,7.242,9.652,6.996,9.351,6.996z"/>
</g>
<path d="M9.894,7.539"/>
</svg>
