<?xml version="1.0" encoding="utf-8"?>
<!-- Generator: Adobe Illustrator 16.0.0, SVG Export Plug-In . SVG Version: 6.00 Build 0)  -->
<!DOCTYPE svg PUBLIC "-//W3C//DTD SVG 1.1//EN" "http://www.w3.org/Graphics/SVG/1.1/DTD/svg11.dtd">
<svg version="1.1" id="Layer_1" xmlns="http://www.w3.org/2000/svg" xmlns:xlink="http://www.w3.org/1999/xlink" x="0px" y="0px"
	 width="13.141px" height="24.32px" viewBox="0 0 13.141 24.32" enable-background="new 0 0 13.141 24.32" xml:space="preserve">
<g>
	<path fill="none" d="M6.976,19.101c-0.104,0.125-0.261,0.203-0.425,0.203C6.715,19.304,6.872,19.226,6.976,19.101z"/>
	<path fill="#FFFFFF" d="M12.07,0h-11C0.476,0,0,0.476,0,1.07v15.215c0,0.238,0.078,0.473,0.226,0.66l5.465,6.965
		c0.203,0.258,0.514,0.41,0.84,0.41h0.006c0.322,0,0.633-0.148,0.836-0.406l5.533-6.965c0.152-0.188,0.235-0.422,0.235-0.664V1.07
		C13.141,0.476,12.66,0,12.07,0z M9.894,15.238c0,0.121-0.039,0.242-0.117,0.336l-2.801,3.527c-0.104,0.125-0.261,0.203-0.425,0.203
		c-0.168,0-0.325-0.078-0.426-0.207L3.358,15.57c-0.072-0.094-0.115-0.211-0.115-0.332V7.539c0-0.297,0.244-0.543,0.543-0.543h0.001
		h5.564c0.301,0,0.543,0.246,0.543,0.543V15.238z"/>
	<path d="M3.243,15.238V7.539c0-0.297,0.244-0.543,0.543-0.543H3.785c-0.299,0-0.543,0.246-0.543,0.543L3.243,15.238
		c-0.001,0.121,0.042,0.238,0.114,0.332l2.768,3.527L3.359,15.57C3.286,15.476,3.243,15.359,3.243,15.238z"/>
</g>
</svg>
