<?xml version="1.0" encoding="utf-8"?>
<!-- Generator: Adobe Illustrator 16.0.0, SVG Export Plug-In . SVG Version: 6.00 Build 0)  -->
<!DOCTYPE svg PUBLIC "-//W3C//DTD SVG 1.1//EN" "http://www.w3.org/Graphics/SVG/1.1/DTD/svg11.dtd">
<svg version="1.1" id="Layer_1" xmlns="http://www.w3.org/2000/svg" xmlns:xlink="http://www.w3.org/1999/xlink" x="0px" y="0px"
	 width="120px" height="42.8px" viewBox="0 0 120 42.8" enable-background="new 0 0 120 42.8" xml:space="preserve">
<g>
	<g>
		<path fill="#FFFFFF" d="M6.348,35.742h-6.43v-0.895h1.233V1.975h-1.233V1.08h6.43v0.895H5.115v32.873h1.232V35.742z"/>
		<path fill="#FFFFFF" d="M24.814,35.742h-6.429v-0.895h1.233V11.232l-2.78,24.51h-3.167l-3.263-24.51v23.615h1.233v0.895H7.943
			v-0.895h1.232V1.975H7.943V1.08h5.246l3.408,26.999L19.569,1.08h5.245v0.895h-1.232v32.873h1.232V35.742z"/>
	</g>
	<path fill="#FFFFFF" d="M38.133,31.44c0,3.029-1.401,4.544-4.206,4.544c-1.193,0-2.151-0.314-2.876-0.942v6.743h1.257v0.895h-6.357
		v-0.895h1.257V10.894h-1.257V10h5.1v0.701c0.725-0.628,1.684-0.943,2.876-0.943c2.804,0,4.206,1.515,4.206,4.544V31.44z
		 M34.266,33.108V12.634c0-1.257-0.476-1.886-1.426-1.886c-0.628,0-1.225,0.282-1.789,0.847v22.553
		c0.564,0.563,1.16,0.846,1.789,0.846C33.791,34.994,34.266,34.365,34.266,33.108z"/>
	<path fill="#FFFFFF" d="M51.838,30.932c0,1.419-0.527,2.615-1.583,3.59c-1.055,0.975-2.389,1.462-4,1.462s-2.949-0.487-4.012-1.462
		c-1.063-0.975-1.596-2.171-1.596-3.59V14.81c0-1.417,0.532-2.614,1.596-3.589c1.063-0.975,2.401-1.463,4.012-1.463
		s2.945,0.488,4,1.463c1.056,0.975,1.583,2.171,1.583,3.589V30.932z M47.971,33.108V12.634c0-1.321-0.572-1.982-1.716-1.982
		c-1.16,0-1.741,0.661-1.741,1.982v20.474c0,1.32,0.581,1.982,1.741,1.982C47.399,35.09,47.971,34.428,47.971,33.108z"/>
	<path fill="#FFFFFF" d="M64.891,30.932c0,1.435-0.477,2.627-1.427,3.577c-1.014,0.982-2.319,1.475-3.915,1.475
		c-1.595,0-2.9-0.487-3.916-1.462s-1.523-2.171-1.523-3.59v-3.069h3.868v5.245c0,1.32,0.523,1.982,1.571,1.982
		c0.999,0,1.499-0.662,1.499-1.982v-3.795c0-1.596-0.451-2.836-1.354-3.723l-4.061-4.013c-1.015-0.999-1.523-2.466-1.523-4.399
		V14.81c0-1.434,0.491-2.635,1.475-3.602c0.983-0.966,2.272-1.45,3.868-1.45c1.595,0,2.883,0.484,3.867,1.45
		c0.983,0.967,1.475,2.168,1.475,3.602v3.07h-3.844v-5.245c0-1.321-0.498-1.982-1.498-1.982c-0.984,0-1.475,0.661-1.475,1.982v3.408
		c0,1.595,0.443,2.828,1.329,3.698l4.06,4.013c1.017,1.016,1.523,2.49,1.523,4.424V30.932z"/>
	<path fill="#FFFFFF" d="M77.75,30.932c0,1.435-0.476,2.627-1.426,3.577c-1.015,0.982-2.32,1.475-3.916,1.475
		s-2.9-0.487-3.916-1.462c-1.016-0.976-1.523-2.171-1.523-3.59v-3.069h3.868v5.245c0,1.32,0.523,1.982,1.571,1.982
		c0.999,0,1.499-0.662,1.499-1.982v-3.795c0-1.596-0.452-2.836-1.354-3.723l-4.062-4.013c-1.016-0.999-1.523-2.466-1.523-4.399
		V14.81c0-1.434,0.492-2.635,1.476-3.602c0.982-0.966,2.271-1.45,3.867-1.45s2.885,0.484,3.867,1.45
		c0.983,0.967,1.476,2.168,1.476,3.602v3.07h-3.844v-5.245c0-1.321-0.499-1.982-1.499-1.982c-0.982,0-1.475,0.661-1.475,1.982v3.408
		c0,1.595,0.443,2.828,1.33,3.698l4.061,4.013c1.016,1.016,1.522,2.49,1.522,4.424V30.932z"/>
	<path fill="#FFFFFF" d="M85.776,35.742h-6.333v-0.895h1.232V10.894h-1.232V10h5.1v24.848h1.233V35.742z M84.542,7.026h-3.867V1.08
		h3.867V7.026z"/>
	<path fill="#FFFFFF" d="M98.876,31.44c0,3.029-1.401,4.544-4.206,4.544c-1.192,0-2.149-0.314-2.877-0.942v0.7h-5.099v-0.895h1.256
		V1.975h-1.256V1.08h5.099v9.621c0.728-0.628,1.685-0.943,2.877-0.943c2.805,0,4.206,1.515,4.206,4.544V31.44z M95.009,33.108
		V12.634c0-1.257-0.477-1.886-1.427-1.886c-0.628,0-1.225,0.282-1.789,0.847v22.553c0.564,0.563,1.161,0.846,1.789,0.846
		C94.533,34.994,95.009,34.365,95.009,33.108z"/>
	<path fill="#FFFFFF" d="M107.045,35.742h-6.331v-0.895h1.231V1.975h-1.231V1.08h5.075v33.767h1.256V35.742z"/>
	<path fill="#FFFFFF" d="M120.002,30.932c0,1.419-0.526,2.614-1.583,3.59c-1.056,0.975-2.391,1.462-3.999,1.462
		c-1.612,0-2.95-0.487-4.013-1.462c-1.065-0.976-1.596-2.171-1.596-3.59V14.81c0-1.417,0.53-2.614,1.596-3.589
		c1.063-0.975,2.4-1.463,4.013-1.463c1.608,0,2.943,0.488,3.999,1.463c1.057,0.975,1.583,2.171,1.583,3.589v8.459h-7.323v9.839
		c0,1.32,0.581,1.982,1.741,1.982c1.143,0,1.715-0.662,1.715-1.982v-5.245h3.867V30.932z M116.135,22.375v-9.741
		c0-1.321-0.572-1.982-1.715-1.982c-1.16,0-1.741,0.661-1.741,1.982v9.741H116.135z"/>
</g>
</svg>
