<?xml version="1.0" encoding="utf-8"?>
<!-- Generator: Adobe Illustrator 16.0.0, SVG Export Plug-In . SVG Version: 6.00 Build 0)  -->
<!DOCTYPE svg PUBLIC "-//W3C//DTD SVG 1.1//EN" "http://www.w3.org/Graphics/SVG/1.1/DTD/svg11.dtd">
<svg version="1.1" id="Layer_1" xmlns="http://www.w3.org/2000/svg" xmlns:xlink="http://www.w3.org/1999/xlink" x="0px" y="0px"
	 width="119.999px" height="42.8px" viewBox="0 0 119.999 42.8" enable-background="new 0 0 119.999 42.8" xml:space="preserve">
<g>
	<g>
		<path fill="#FFFFFF" d="M33.078,6.942c-1.213,0-2.188,0.323-2.925,0.968V0.92h1.278V0.037h-6.465V0.92h1.278v31.798h-1.278v0.919
			h5.187v-0.721c0.737,0.646,1.712,0.969,2.925,0.969c2.852,0,4.277-1.557,4.277-4.669V11.611
			C37.355,8.499,35.93,6.942,33.078,6.942z M33.422,30.93c0,1.291-0.484,1.938-1.45,1.938c-0.639,0-1.246-0.291-1.819-0.87V8.83
			c0.574-0.58,1.18-0.869,1.819-0.869c0.966,0,1.45,0.646,1.45,1.937V30.93z M45.615,6.942c-1.639,0-2.999,0.5-4.081,1.502
			c-1.082,1.001-1.623,2.23-1.623,3.688v16.563c0,1.457,0.541,2.687,1.623,3.688c1.082,1.001,2.441,1.502,4.081,1.502
			c1.639,0,2.995-0.501,4.068-1.502c1.073-1.002,1.61-2.231,1.61-3.688V12.132c0-1.457-0.537-2.686-1.61-3.688
			C48.61,7.443,47.254,6.942,45.615,6.942z M47.361,30.93c0,1.357-0.582,2.036-1.746,2.036c-1.18,0-1.77-0.679-1.77-2.036V9.897
			c0-1.358,0.59-2.037,1.77-2.037c1.164,0,1.746,0.679,1.746,2.037V30.93z M59.136,6.942c-1.623,0-2.95,0.5-3.982,1.502
			c-1.033,1.001-1.549,2.23-1.549,3.688v3.154h3.933V9.897c0-1.358,0.533-2.037,1.598-2.037c1.016,0,1.524,0.679,1.524,2.037v3.898
			c0,1.639-0.459,2.914-1.376,3.824l-4.13,4.122c-1.033,1.026-1.549,2.533-1.549,4.519v2.434c0,1.474,0.5,2.707,1.5,3.7
			s2.311,1.49,3.934,1.49c1.622,0,2.933-0.497,3.933-1.49c0.999-0.993,1.499-2.227,1.499-3.7v-3.153h-3.908v5.389
			c0,1.357-0.508,2.036-1.524,2.036c-1,0-1.5-0.679-1.5-2.036v-3.501c0-1.639,0.451-2.905,1.352-3.8l4.13-4.122
			c1.032-1.043,1.549-2.558,1.549-4.544v-2.831c0-1.474-0.483-2.699-1.45-3.675C62.085,7.447,60.758,6.942,59.136,6.942z
			 M72.214,6.942c-1.623,0-2.95,0.5-3.982,1.502c-1.032,1.001-1.549,2.23-1.549,3.688v3.154h3.933V9.897
			c0-1.358,0.533-2.037,1.599-2.037c1.016,0,1.523,0.679,1.523,2.037v3.898c0,1.639-0.459,2.914-1.376,3.824l-4.13,4.122
			c-1.032,1.026-1.549,2.533-1.549,4.519v2.434c0,1.474,0.5,2.707,1.499,3.7c1,0.993,2.312,1.49,3.934,1.49s2.934-0.497,3.934-1.49
			c0.999-0.993,1.499-2.227,1.499-3.7v-3.153H73.64v5.389c0,1.357-0.509,2.036-1.524,2.036c-1,0-1.5-0.679-1.5-2.036v-3.501
			c0-1.639,0.451-2.905,1.353-3.8l4.13-4.122c1.032-1.043,1.549-2.558,1.549-4.544v-2.831c0-1.474-0.484-2.699-1.45-3.675
			C75.164,7.447,73.836,6.942,72.214,6.942z M80.261,42.8h3.908v-6.069h-3.908V42.8z M79.367,8.109h1.254v24.609h-1.254v0.919h5.187
			V8.109h1.254V7.19h-6.44V8.109z M94.854,6.942c-1.213,0-2.188,0.323-2.925,0.968V7.19h-5.188v0.919h1.278l-0.407,33.778h-1.27
			V42.8h5.153l0.433-9.884c0.737,0.646,1.712,0.969,2.925,0.969c2.852,0,4.277-1.557,4.277-4.669V11.611
			C99.131,8.499,97.705,6.942,94.854,6.942z M95.198,30.93c0,1.291-0.483,1.938-1.45,1.938c-0.64,0-1.246-0.291-1.819-0.87V8.83
			c0.573-0.58,1.18-0.869,1.819-0.869c0.967,0,1.45,0.646,1.45,1.937V30.93z M100.999,8.109h1.255l-0.5,33.778h-1.245V42.8h5.128
			l0.525-34.691h1.278V7.19h-6.441V8.109z M119.998,20.151l-6.83-0.147V9.897c0-1.358,0.59-2.037,1.77-2.037
			c1.164,0,1.746,0.679,1.746,2.037v5.389l3.314,0.177v-3.133c0-1.448,0.081-2.884-0.992-3.886c-1.073-1.002-2.43-1.502-4.068-1.502
			s-2.999,0.5-4.08,1.502c-1.082,1.001-1.623,2.23-1.623,3.688v16.563c0,1.457,0.541,2.687,1.623,3.688
			c1.081,1.001,2.441,1.502,4.08,1.502s2.995-0.501,4.068-1.502c1.073-1.002,0.992-2.15,0.992-3.597V20.151z M116.684,30.93
			c0,1.357-0.582,2.036-1.746,2.036c-1.18,0-1.77-0.679-1.77-2.036V20.923h3.516V30.93z M17.496,0.893h1.168v31.936h-1.168v0.869
			h6.092v-0.869H22.42V0.893h1.168V0.024h-6.092V0.893z M7.786,26.253L4.969,0.024H0v0.869h1.168v31.936H0v0.869h6.091v-0.869H4.923
			V9.887l2.634,23.811h3l3.092-23.811v22.941h-1.168v0.869h3.504v-0.869h-1.168V0.893h1.168V0h-4.97L7.786,26.253z"/>
	</g>
</g>
</svg>
