<?xml version="1.0" encoding="utf-8"?>
<!-- Generator: Adobe Illustrator 16.0.0, SVG Export Plug-In . SVG Version: 6.00 Build 0)  -->
<!DOCTYPE svg PUBLIC "-//W3C//DTD SVG 1.1//EN" "http://www.w3.org/Graphics/SVG/1.1/DTD/svg11.dtd">
<svg version="1.1" id="Layer_1" xmlns="http://www.w3.org/2000/svg" xmlns:xlink="http://www.w3.org/1999/xlink" x="0px" y="0px"
	 width="106.918px" height="106.917px" viewBox="0 0 106.918 106.917" enable-background="new 0 0 106.918 106.917"
	 xml:space="preserve">
<path d="M51.158,1.3c-1.123,0-2.27,0.038-3.407,0.112l0.218,3.293c1.062-0.069,2.123-0.104,3.189-0.104V1.3z M0.662,60.801
	l3.259-0.538c-0.36-2.176-0.568-4.403-0.62-6.616L0,53.725C0.055,56.091,0.277,58.473,0.662,60.801z M0.035,50.17l3.297,0.146
	c0.099-2.208,0.354-4.432,0.757-6.605l-3.247-0.599C0.415,45.433,0.142,47.809,0.035,50.17z M1.611,39.637l3.197,0.826
	c0.554-2.146,1.262-4.269,2.105-6.303l-3.052-1.262C2.96,35.077,2.204,37.346,1.611,39.637z M12.933,81.225l4.867,4.868
	l-2.334,2.333l-4.867-4.868L12.933,81.225z M44.211,1.77c-2.342,0.319-4.685,0.805-6.957,1.442l0.893,3.178
	c2.128-0.596,4.318-1.05,6.511-1.35L44.211,1.77z M33.866,4.294c-2.228,0.799-4.417,1.759-6.508,2.86l1.536,2.919
	c1.956-1.026,4.003-1.924,6.085-2.67L33.866,4.294z M4.881,74.333c1.012,2.139,2.184,4.224,3.48,6.196l2.759-1.815
	c-1.215-1.844-2.31-3.793-3.256-5.793L4.881,74.333z M5.333,29.661l2.957,1.47c0.982-1.973,2.116-3.9,3.371-5.726l-2.72-1.871
	C7.599,25.488,6.385,27.549,5.333,29.661z M1.358,64.284c0.545,2.302,1.256,4.582,2.115,6.782l3.076-1.2
	c-0.804-2.059-1.469-4.192-1.977-6.344L1.358,64.284z M26.009,11.723L24.27,8.917c-2.012,1.246-3.951,2.641-5.767,4.151l2.109,2.537
	C22.311,14.193,24.125,12.886,26.009,11.723z M14.974,16.284c-1.388,1.39-2.707,2.863-3.919,4.39l2.585,2.053
	c1.136-1.428,2.369-2.81,3.67-4.112c0.271-0.272,0.544-0.537,0.819-0.799l-2.279-2.387C15.554,15.709,15.261,15.995,14.974,16.284z
	 M54.459,103.615v3.302c1.122,0,2.27-0.037,3.406-0.112l-0.218-3.293C56.587,103.581,55.524,103.615,54.459,103.615z
	 M102.137,37.151l-3.074,1.201c0.805,2.058,1.471,4.191,1.979,6.343l3.213-0.762C103.712,41.631,102.999,39.351,102.137,37.151z
	 M104.003,68.58l-3.197-0.826c-0.551,2.147-1.262,4.27-2.104,6.304l3.05,1.262C102.651,73.138,103.41,70.871,104.003,68.58z
	 M101.697,47.954c0.36,2.173,0.569,4.403,0.622,6.616l3.299-0.078c-0.059-2.368-0.277-4.748-0.663-7.076L101.697,47.954z
	 M101.525,64.506l3.248,0.599c0.428-2.32,0.701-4.697,0.808-7.057l-3.299-0.15C102.18,60.109,101.929,62.33,101.525,64.506z
	 M81.345,99.301c2.01-1.245,3.951-2.641,5.766-4.151l-2.108-2.537c-1.7,1.409-3.513,2.717-5.397,3.882L81.345,99.301z
	 M89.766,92.789c0.294-0.283,0.588-0.569,0.876-0.858c1.385-1.387,2.706-2.863,3.92-4.389l-2.588-2.053
	c-1.134,1.428-2.369,2.81-3.668,4.111c-0.272,0.272-0.545,0.537-0.82,0.8L89.766,92.789z M100.283,78.557l-2.957-1.473
	c-0.983,1.976-2.117,3.903-3.374,5.729l2.722,1.871C98.015,82.729,99.229,80.668,100.283,78.557z M67.465,101.824
	c-2.128,0.599-4.317,1.054-6.509,1.351l0.446,3.271c2.342-0.32,4.687-0.805,6.958-1.443L67.465,101.824z M76.72,98.144
	c-1.957,1.026-4.002,1.925-6.084,2.671l1.112,3.105c2.229-0.796,4.419-1.756,6.509-2.857L76.72,98.144z M100.734,33.882
	c-1.013-2.136-2.184-4.221-3.48-6.194l-2.759,1.815c1.217,1.845,2.31,3.793,3.259,5.793L100.734,33.882z M92.685,26.985
	l-4.865-4.866l2.334-2.333l4.867,4.865L92.685,26.985z M3.284,90.415v3.299h18.159l1.651-1.649V73.911h-3.302v15.136l-1.367,1.368
	H3.284z M82.521,16.153v18.154h3.302V19.168l1.366-1.366h15.141v-3.299H84.173L82.521,16.153z"/>
</svg>
